<svg width="173" height="28" viewBox="0 0 173 28" fill="none" xmlns="http://www.w3.org/2000/svg">
<rect x="-0.000488281" y="-6.10352e-05" width="172.5" height="28" rx="6" fill="url(#paint0_linear_28_2668)"/>
<g filter="url(#filter0_d_28_2668)">
<path d="M10.9164 8.28571L11.2652 9.77639C9.52104 9.77639 5.28516 9.77639 5.28516 9.77639C5.28516 9.77639 5.38485 10.2236 5.43468 10.2733C5.58418 10.5217 5.73369 10.8199 5.93302 11.0186C6.87987 12.1118 8.52434 12.559 9.86985 12.8074C10.8167 13.0062 11.7636 13.0559 12.7104 13.1056L13.8067 16.0372H14.4048L14.7536 16.9814H14.2553L13.4081 19.7143H21.7303L20.8832 16.9814H20.3849L20.7337 16.0372H21.3316C21.3316 16.0372 21.83 13.0062 23.3749 11.6149C24.8699 10.2236 26.7137 10.0248 26.7137 10.0248V8.28571H10.9164ZM19.2885 15.7888C18.8898 16.0372 18.4413 16.0373 18.1423 16.236C17.943 16.3354 17.8433 16.6335 17.8433 16.6335C17.6439 16.1863 17.3948 16.0373 17.0958 15.9379C16.7968 15.8385 16.2486 15.8882 15.5011 15.2422C15.0028 14.795 14.9529 14.1987 15.0028 13.9006V13.8509C15.0028 13.8012 15.0028 13.8012 15.0028 13.7515C15.0028 13.7019 15.0028 13.6522 15.0526 13.6025C15.1523 13.3043 15.4015 13.0062 15.8998 12.8074C15.8998 12.8074 15.551 13.3043 15.8998 13.8012C16.0991 14.0994 16.4978 14.2484 16.8466 14.0497C16.9961 13.9503 17.0958 13.7516 17.1456 13.6025C17.2453 13.2547 17.2453 12.9068 16.9463 12.6584C16.4978 12.2609 16.3981 11.7143 16.6971 11.3665C16.6971 11.3665 16.7968 11.8137 17.2453 11.764C17.5443 11.764 17.5443 11.6646 17.4446 11.5652C17.3948 11.4161 16.747 10.472 17.6938 9.77639C17.6938 9.77639 18.2918 9.37887 18.9895 9.42856C18.5908 9.47825 18.1423 9.72671 17.9928 10.1242C17.9928 10.1242 17.9928 10.1242 17.9928 10.1739C17.8433 10.5714 17.943 11.0186 18.242 11.4161C18.4413 11.7143 18.6905 11.9627 18.7901 12.3602C18.6406 12.3106 18.541 12.3603 18.4413 12.4596C18.3416 12.559 18.2918 12.7578 18.3416 12.9068C18.3914 13.0062 18.4911 13.1056 18.5908 13.1056C18.6406 13.1056 18.6407 13.1056 18.6905 13.1056H18.7403C18.8898 13.0559 18.9895 12.8571 18.9397 12.7081C19.0393 12.8075 19.0891 13.0559 19.0393 13.205C19.0393 13.354 18.9397 13.5031 18.8898 13.6025C18.84 13.7019 18.7403 13.8012 18.6905 13.9006C18.6407 14 18.5908 14.0994 18.5908 14.1988C18.5908 14.2981 18.5908 14.4472 18.6407 14.5466C18.84 14.8447 19.2386 14.5466 19.3383 14.2981C19.4878 14 19.438 13.6522 19.2386 13.354C19.2386 13.354 19.5875 13.5528 19.8366 14.2484C20.036 14.8447 19.6871 15.5404 19.2885 15.7888Z" fill="#F16436"/>
</g>
<g filter="url(#filter1_d_28_2668)">
<path d="M32.2729 20.4335V17.4765H32.8003C32.98 17.3255 33.1479 17.1106 33.3042 16.832C33.4604 16.5533 33.5933 16.177 33.7026 15.7031C33.812 15.2291 33.8875 14.621 33.9292 13.8788L34.1167 10.4999H39.0503V17.4765H39.9565V20.4218H38.8003V18.4999H33.4292V20.4335H32.2729ZM34.2222 17.4765H37.894V11.539H35.2104L35.0854 13.8788C35.0516 14.4439 34.9956 14.9518 34.9175 15.4023C34.842 15.8528 34.7443 16.2512 34.6245 16.5976C34.5073 16.9413 34.3732 17.2343 34.2222 17.4765ZM43.7124 18.621C43.1499 18.621 42.659 18.4921 42.2397 18.2343C41.8205 17.9765 41.495 17.6158 41.2632 17.1523C41.0314 16.6887 40.9155 16.1471 40.9155 15.5273C40.9155 14.9049 41.0314 14.3606 41.2632 13.8945C41.495 13.4283 41.8205 13.0663 42.2397 12.8085C42.659 12.5507 43.1499 12.4218 43.7124 12.4218C44.2749 12.4218 44.7658 12.5507 45.1851 12.8085C45.6043 13.0663 45.9298 13.4283 46.1616 13.8945C46.3934 14.3606 46.5093 14.9049 46.5093 15.5273C46.5093 16.1471 46.3934 16.6887 46.1616 17.1523C45.9298 17.6158 45.6043 17.9765 45.1851 18.2343C44.7658 18.4921 44.2749 18.621 43.7124 18.621ZM43.7163 17.6406C44.0809 17.6406 44.383 17.5442 44.6226 17.3515C44.8621 17.1588 45.0392 16.9023 45.1538 16.582C45.271 16.2617 45.3296 15.9088 45.3296 15.5234C45.3296 15.1406 45.271 14.789 45.1538 14.4687C45.0392 14.1458 44.8621 13.8867 44.6226 13.6913C44.383 13.496 44.0809 13.3984 43.7163 13.3984C43.3491 13.3984 43.0444 13.496 42.8022 13.6913C42.5627 13.8867 42.3843 14.1458 42.2671 14.4687C42.1525 14.789 42.0952 15.1406 42.0952 15.5234C42.0952 15.9088 42.1525 16.2617 42.2671 16.582C42.3843 16.9023 42.5627 17.1588 42.8022 17.3515C43.0444 17.5442 43.3491 17.6406 43.7163 17.6406ZM50.3403 18.621C49.7596 18.621 49.2596 18.4895 48.8403 18.2265C48.4237 17.9609 48.1033 17.595 47.8794 17.1288C47.6554 16.6627 47.5435 16.1288 47.5435 15.5273C47.5435 14.9179 47.658 14.3801 47.8872 13.914C48.1164 13.4452 48.4393 13.0794 48.856 12.8163C49.2726 12.5533 49.7635 12.4218 50.3286 12.4218C50.7843 12.4218 51.1906 12.5064 51.5474 12.6757C51.9041 12.8424 52.1919 13.0768 52.4106 13.3788C52.632 13.6809 52.7635 14.0338 52.8052 14.4374H51.6685C51.606 14.1562 51.4627 13.914 51.2388 13.7109C51.0174 13.5077 50.7205 13.4062 50.3481 13.4062C50.0226 13.4062 49.7375 13.4921 49.4927 13.664C49.2505 13.8333 49.0617 14.0755 48.9263 14.3906C48.7908 14.7031 48.7231 15.0729 48.7231 15.4999C48.7231 15.9374 48.7895 16.315 48.9224 16.6327C49.0552 16.9505 49.2427 17.1966 49.4849 17.371C49.7296 17.5455 50.0174 17.6327 50.3481 17.6327C50.5695 17.6327 50.77 17.5924 50.9497 17.5117C51.132 17.4283 51.2843 17.3098 51.4067 17.1562C51.5317 17.0025 51.619 16.8176 51.6685 16.6015H52.8052C52.7635 16.9895 52.6372 17.3359 52.4263 17.6406C52.2153 17.9452 51.9328 18.1848 51.5786 18.3593C51.227 18.5338 50.8143 18.621 50.3403 18.621ZM53.6001 13.5077V12.4999H58.6626V13.5077H56.7056V18.4999H55.5649V13.5077H53.6001ZM60.6362 20.7499C60.4617 20.7499 60.3029 20.7356 60.1597 20.707C60.0164 20.6809 59.9097 20.6523 59.8393 20.621L60.1206 19.664C60.3341 19.7213 60.5242 19.746 60.6909 19.7382C60.8576 19.7304 61.0047 19.6679 61.1323 19.5507C61.2625 19.4335 61.3771 19.2421 61.4761 18.9765L61.6206 18.5781L59.4253 12.4999H60.6753L62.1948 17.1562H62.2573L63.7768 12.4999H65.0308L62.5581 19.3007C62.4435 19.6132 62.2977 19.8775 62.1206 20.0937C61.9435 20.3124 61.7326 20.4765 61.4878 20.5859C61.243 20.6952 60.9591 20.7499 60.6362 20.7499ZM66.1284 18.4999V12.4999H71.0229V18.4999H69.8784V13.5077H67.2651V18.4999H66.1284ZM75.1704 18.621C74.5793 18.621 74.0701 18.4947 73.6431 18.2421C73.2186 17.9869 72.8905 17.6288 72.6587 17.1679C72.4295 16.7044 72.3149 16.1614 72.3149 15.539C72.3149 14.9244 72.4295 14.3827 72.6587 13.914C72.8905 13.4452 73.2134 13.0794 73.6274 12.8163C74.0441 12.5533 74.5311 12.4218 75.0884 12.4218C75.4269 12.4218 75.755 12.4778 76.0727 12.5898C76.3904 12.7018 76.6756 12.8775 76.9282 13.1171C77.1808 13.3567 77.38 13.6679 77.5259 14.0507C77.6717 14.4309 77.7446 14.8932 77.7446 15.4374V15.8515H72.9751V14.9765H76.6001C76.6001 14.6692 76.5376 14.3971 76.4126 14.1601C76.2876 13.9205 76.1118 13.7317 75.8852 13.5937C75.6613 13.4557 75.3983 13.3867 75.0962 13.3867C74.7681 13.3867 74.4816 13.4674 74.2368 13.6288C73.9946 13.7877 73.8071 13.996 73.6743 14.2538C73.5441 14.5091 73.479 14.7864 73.479 15.0859V15.7695C73.479 16.1705 73.5493 16.5117 73.6899 16.7929C73.8332 17.0742 74.0324 17.289 74.2876 17.4374C74.5428 17.5833 74.841 17.6562 75.1821 17.6562C75.4035 17.6562 75.6053 17.6249 75.7876 17.5624C75.9699 17.4973 76.1274 17.401 76.2602 17.2734C76.3931 17.1458 76.4946 16.9882 76.5649 16.8007L77.6704 16.9999C77.5819 17.3255 77.423 17.6106 77.1938 17.8554C76.9673 18.0976 76.6821 18.2864 76.3384 18.4218C75.9972 18.5546 75.6079 18.621 75.1704 18.621ZM83.1069 14.996V16.0077H79.8569V14.996H83.1069ZM80.185 12.4999V18.4999H79.0405V12.4999H80.185ZM83.9233 12.4999V18.4999H82.7827V12.4999H83.9233ZM88.397 18.4999V12.4999H90.8852C91.5623 12.4999 92.0988 12.6445 92.4946 12.9335C92.8904 13.22 93.0884 13.6093 93.0884 14.1015C93.0884 14.4531 92.9764 14.7317 92.7524 14.9374C92.5285 15.1432 92.2316 15.2812 91.8618 15.3515C92.13 15.3827 92.3761 15.4635 92.6001 15.5937C92.824 15.7213 93.0037 15.8932 93.1391 16.1093C93.2772 16.3255 93.3462 16.5833 93.3462 16.8827C93.3462 17.2005 93.2641 17.4817 93.1001 17.7265C92.936 17.9687 92.6977 18.1588 92.3852 18.2968C92.0753 18.4322 91.7016 18.4999 91.2641 18.4999H88.397ZM89.4946 17.5234H91.2641C91.5532 17.5234 91.7798 17.4544 91.9438 17.3163C92.1079 17.1783 92.1899 16.9908 92.1899 16.7538C92.1899 16.4752 92.1079 16.2564 91.9438 16.0976C91.7798 15.9361 91.5532 15.8554 91.2641 15.8554H89.4946V17.5234ZM89.4946 14.9999H90.897C91.1157 14.9999 91.3032 14.9687 91.4595 14.9062C91.6183 14.8437 91.7394 14.7551 91.8227 14.6406C91.9087 14.5234 91.9516 14.3854 91.9516 14.2265C91.9516 13.9947 91.8566 13.8137 91.6665 13.6835C91.4764 13.5533 91.216 13.4882 90.8852 13.4882H89.4946V14.9999Z" fill="#E8E8E8"/>
<path d="M105.082 12.9346H102.951C102.923 12.7158 102.865 12.5184 102.776 12.3423C102.688 12.1661 102.572 12.0156 102.427 11.8906C102.282 11.7656 102.11 11.6704 101.911 11.6051C101.715 11.5369 101.498 11.5028 101.259 11.5028C100.836 11.5028 100.471 11.6065 100.164 11.8139C99.8603 12.0212 99.6259 12.321 99.4612 12.713C99.2992 13.1051 99.2183 13.5795 99.2183 14.1363C99.2183 14.7158 99.3006 15.2016 99.4654 15.5937C99.633 15.9829 99.8674 16.2769 100.169 16.4758C100.473 16.6718 100.832 16.7698 101.247 16.7698C101.48 16.7698 101.691 16.74 101.882 16.6803C102.075 16.6207 102.244 16.534 102.389 16.4204C102.536 16.3039 102.657 16.1633 102.751 15.9985C102.848 15.8309 102.914 15.642 102.951 15.4318L105.082 15.4445C105.045 15.8309 104.933 16.2116 104.745 16.5866C104.561 16.9616 104.306 17.3039 103.982 17.6136C103.659 17.9204 103.264 18.1647 102.798 18.3465C102.335 18.5283 101.803 18.6193 101.204 18.6193C100.414 18.6193 99.7069 18.446 99.0819 18.0994C98.4597 17.7499 97.9683 17.2414 97.6075 16.5738C97.2467 15.9062 97.0663 15.0937 97.0663 14.1363C97.0663 13.1761 97.2495 12.3622 97.616 11.6945C97.9825 11.0269 98.4782 10.5198 99.1032 10.1732C99.7282 9.82664 100.428 9.65335 101.204 9.65335C101.732 9.65335 102.221 9.72721 102.67 9.87494C103.119 10.0198 103.514 10.2329 103.855 10.5141C104.196 10.7926 104.473 11.1349 104.686 11.5411C104.899 11.9474 105.031 12.4119 105.082 12.9346ZM110.512 15.6747V11.9545H112.591V18.4999H110.606V17.2812H110.538C110.393 17.6818 110.145 17.9999 109.796 18.2357C109.449 18.4687 109.03 18.5852 108.539 18.5852C108.093 18.5852 107.701 18.4829 107.363 18.2783C107.025 18.0738 106.762 17.7883 106.574 17.4218C106.387 17.0525 106.292 16.6207 106.289 16.1264V11.9545H108.373V15.7173C108.376 16.0724 108.469 16.3522 108.654 16.5568C108.839 16.7613 109.09 16.8636 109.408 16.8636C109.616 16.8636 109.802 16.8181 109.966 16.7272C110.134 16.6335 110.266 16.4985 110.363 16.3224C110.462 16.1434 110.512 15.9275 110.512 15.6747ZM113.918 18.4999V11.9545H115.942V13.1477H116.01C116.129 12.7158 116.324 12.3948 116.594 12.1846C116.864 11.9715 117.178 11.865 117.536 11.865C117.632 11.865 117.732 11.8721 117.834 11.8863C117.936 11.8977 118.031 11.9161 118.12 11.9417V13.7528C118.02 13.7187 117.889 13.6917 117.727 13.6718C117.568 13.6519 117.426 13.642 117.301 13.642C117.054 13.642 116.831 13.6974 116.632 13.8082C116.436 13.9161 116.281 14.0681 116.168 14.2641C116.057 14.4573 116.002 14.6846 116.002 14.946V18.4999H113.918ZM124.683 13.9531L122.77 14.0042C122.75 13.8678 122.696 13.7471 122.608 13.642C122.52 13.534 122.405 13.4502 122.263 13.3906C122.123 13.3281 121.962 13.2968 121.777 13.2968C121.535 13.2968 121.329 13.3451 121.159 13.4417C120.991 13.5383 120.909 13.669 120.912 13.8337C120.909 13.9616 120.96 14.0724 121.065 14.1661C121.173 14.2599 121.365 14.3352 121.64 14.392L122.902 14.6306C123.555 14.7556 124.041 14.963 124.359 15.2528C124.68 15.5426 124.842 15.9261 124.845 16.4033C124.842 16.8522 124.709 17.2428 124.444 17.5752C124.183 17.9076 123.825 18.1661 123.371 18.3508C122.916 18.5326 122.396 18.6235 121.811 18.6235C120.876 18.6235 120.139 18.4318 119.599 18.0482C119.062 17.6619 118.756 17.1448 118.679 16.4971L120.737 16.446C120.783 16.6846 120.9 16.8664 121.091 16.9914C121.281 17.1164 121.524 17.1789 121.819 17.1789C122.087 17.1789 122.304 17.1292 122.471 17.0298C122.639 16.9303 122.724 16.7982 122.727 16.6335C122.724 16.4857 122.659 16.3678 122.531 16.2798C122.403 16.1889 122.203 16.1178 121.93 16.0667L120.788 15.8494C120.132 15.7301 119.643 15.5099 119.322 15.1889C119.001 14.865 118.842 14.4531 118.845 13.9531C118.842 13.5156 118.959 13.142 119.194 12.8323C119.43 12.5198 119.765 12.2812 120.2 12.1164C120.635 11.9516 121.148 11.8693 121.738 11.8693C122.625 11.8693 123.324 12.0553 123.835 12.4275C124.346 12.7968 124.629 13.3053 124.683 13.9531ZM128.931 18.6235C128.246 18.6235 127.655 18.4886 127.158 18.2187C126.664 17.946 126.283 17.5582 126.016 17.0553C125.752 16.5497 125.62 15.9488 125.62 15.2528C125.62 14.5766 125.753 13.9857 126.02 13.4801C126.287 12.9715 126.664 12.5766 127.149 12.2954C127.635 12.0113 128.208 11.8693 128.867 11.8693C129.333 11.8693 129.759 11.9417 130.145 12.0866C130.531 12.2315 130.865 12.446 131.147 12.7301C131.428 13.0141 131.647 13.365 131.803 13.7826C131.959 14.1974 132.037 14.6732 132.037 15.2102V15.7301H126.348V14.5198H130.098C130.095 14.2982 130.043 14.1008 129.941 13.9275C129.838 13.7542 129.698 13.6193 129.519 13.5227C129.343 13.4232 129.139 13.3735 128.909 13.3735C128.676 13.3735 128.468 13.4261 128.283 13.5312C128.098 13.6335 127.952 13.7741 127.844 13.9531C127.736 14.1292 127.679 14.3295 127.674 14.5539V15.7854C127.674 16.0525 127.726 16.2869 127.831 16.4886C127.936 16.6874 128.085 16.8423 128.279 16.9531C128.472 17.0639 128.702 17.1193 128.969 17.1193C129.154 17.1193 129.321 17.0937 129.472 17.0425C129.622 16.9914 129.752 16.9161 129.86 16.8167C129.968 16.7173 130.049 16.5951 130.102 16.4502L132.016 16.5056C131.936 16.9346 131.762 17.3082 131.492 17.6264C131.225 17.9417 130.874 18.1874 130.439 18.3636C130.004 18.5369 129.502 18.6235 128.931 18.6235ZM133.101 18.4999V9.77267H139.059V11.4857H135.211V13.2755H138.68V14.9928H135.211V18.4999H133.101ZM142.696 18.6235C142.008 18.6235 141.417 18.4829 140.923 18.2016C140.432 17.9175 140.052 17.5227 139.785 17.017C139.521 16.5085 139.389 15.919 139.389 15.2485C139.389 14.5752 139.521 13.9857 139.785 13.4801C140.052 12.9715 140.432 12.5766 140.923 12.2954C141.417 12.0113 142.008 11.8693 142.696 11.8693C143.383 11.8693 143.973 12.0113 144.464 12.2954C144.959 12.5766 145.338 12.9715 145.602 13.4801C145.869 13.9857 146.003 14.5752 146.003 15.2485C146.003 15.919 145.869 16.5085 145.602 17.017C145.338 17.5227 144.959 17.9175 144.464 18.2016C143.973 18.4829 143.383 18.6235 142.696 18.6235ZM142.709 17.0511C142.959 17.0511 143.17 16.9744 143.344 16.821C143.517 16.6675 143.649 16.4545 143.74 16.1818C143.834 15.909 143.881 15.5937 143.881 15.2357C143.881 14.8721 143.834 14.5539 143.74 14.2812C143.649 14.0085 143.517 13.7954 143.344 13.642C143.17 13.4886 142.959 13.4119 142.709 13.4119C142.45 13.4119 142.231 13.4886 142.052 13.642C141.876 13.7954 141.741 14.0085 141.648 14.2812C141.557 14.5539 141.511 14.8721 141.511 15.2357C141.511 15.5937 141.557 15.909 141.648 16.1818C141.741 16.4545 141.876 16.6675 142.052 16.821C142.231 16.9744 142.45 17.0511 142.709 17.0511ZM147.07 18.4999V11.9545H149.094V13.1477H149.162C149.282 12.7158 149.476 12.3948 149.746 12.1846C150.016 11.9715 150.33 11.865 150.688 11.865C150.785 11.865 150.884 11.8721 150.986 11.8863C151.089 11.8977 151.184 11.9161 151.272 11.9417V13.7528C151.172 13.7187 151.042 13.6917 150.88 13.6718C150.721 13.6519 150.579 13.642 150.454 13.642C150.207 13.642 149.984 13.6974 149.785 13.8082C149.589 13.9161 149.434 14.0681 149.32 14.2641C149.209 14.4573 149.154 14.6846 149.154 14.946V18.4999H147.07ZM154.832 21.0908C154.21 21.0908 153.677 21.0042 153.234 20.8309C152.791 20.6576 152.443 20.4204 152.19 20.1193C151.937 19.8181 151.785 19.4772 151.734 19.0965L153.707 18.9857C153.744 19.1193 153.812 19.2357 153.912 19.3352C154.014 19.4346 154.146 19.5113 154.308 19.5653C154.473 19.6193 154.666 19.6462 154.888 19.6462C155.237 19.6462 155.525 19.561 155.753 19.3906C155.983 19.2229 156.098 18.9289 156.098 18.5085V17.3579H156.025C155.943 17.5596 155.818 17.74 155.65 17.8991C155.483 18.0582 155.274 18.1832 155.024 18.2741C154.777 18.365 154.493 18.4104 154.172 18.4104C153.694 18.4104 153.257 18.2997 152.859 18.0781C152.464 17.8536 152.148 17.507 151.909 17.0383C151.673 16.5667 151.555 15.9602 151.555 15.2187C151.555 14.4545 151.677 13.8252 151.922 13.3309C152.166 12.8337 152.486 12.4658 152.881 12.2272C153.278 11.9886 153.706 11.8693 154.163 11.8693C154.507 11.8693 154.801 11.9289 155.045 12.0482C155.292 12.1647 155.496 12.3153 155.655 12.4999C155.814 12.6846 155.935 12.8764 156.017 13.0752H156.077V11.9545H158.152V18.5255C158.152 19.0795 158.013 19.5468 157.734 19.9275C157.456 20.3082 157.067 20.5965 156.567 20.7925C156.067 20.9914 155.488 21.0908 154.832 21.0908ZM154.896 16.8934C155.149 16.8934 155.365 16.8266 155.544 16.6931C155.723 16.5596 155.861 16.3678 155.957 16.1178C156.054 15.8678 156.102 15.5681 156.102 15.2187C156.102 14.8636 156.054 14.5582 155.957 14.3025C155.863 14.044 155.726 13.8451 155.544 13.7059C155.365 13.5667 155.149 13.4971 154.896 13.4971C154.638 13.4971 154.419 13.5681 154.24 13.7102C154.061 13.8522 153.925 14.0525 153.831 14.311C153.74 14.5667 153.694 14.8693 153.694 15.2187C153.694 15.5681 153.741 15.8678 153.835 16.1178C153.929 16.3678 154.064 16.5596 154.24 16.6931C154.419 16.8266 154.638 16.8934 154.896 16.8934ZM162.54 18.6235C161.855 18.6235 161.264 18.4886 160.767 18.2187C160.273 17.946 159.892 17.5582 159.625 17.0553C159.361 16.5497 159.229 15.9488 159.229 15.2528C159.229 14.5766 159.362 13.9857 159.629 13.4801C159.897 12.9715 160.273 12.5766 160.759 12.2954C161.245 12.0113 161.817 11.8693 162.476 11.8693C162.942 11.8693 163.368 11.9417 163.754 12.0866C164.141 12.2315 164.475 12.446 164.756 12.7301C165.037 13.0141 165.256 13.365 165.412 13.7826C165.568 14.1974 165.647 14.6732 165.647 15.2102V15.7301H159.958V14.5198H163.708C163.705 14.2982 163.652 14.1008 163.55 13.9275C163.448 13.7542 163.307 13.6193 163.128 13.5227C162.952 13.4232 162.749 13.3735 162.519 13.3735C162.286 13.3735 162.077 13.4261 161.892 13.5312C161.708 13.6335 161.561 13.7741 161.453 13.9531C161.345 14.1292 161.289 14.3295 161.283 14.5539V15.7854C161.283 16.0525 161.335 16.2869 161.441 16.4886C161.546 16.6874 161.695 16.8423 161.888 16.9531C162.081 17.0639 162.311 17.1193 162.578 17.1193C162.763 17.1193 162.931 17.0937 163.081 17.0425C163.232 16.9914 163.361 16.9161 163.469 16.8167C163.577 16.7173 163.658 16.5951 163.712 16.4502L165.625 16.5056C165.546 16.9346 165.371 17.3082 165.101 17.6264C164.834 17.9417 164.483 18.1874 164.048 18.3636C163.614 18.5369 163.111 18.6235 162.54 18.6235Z" fill="#F16436"/>
</g>
<rect x="0.749512" y="0.749939" width="171" height="26.5" rx="5.25" stroke="white" stroke-opacity="0.15" stroke-width="1.5"/>
<defs>
<filter id="filter0_d_28_2668" x="1.28516" y="-6.10352e-05" width="29.4285" height="28" filterUnits="userSpaceOnUse" color-interpolation-filters="sRGB">
<feFlood flood-opacity="0" result="BackgroundImageFix"/>
<feColorMatrix in="SourceAlpha" type="matrix" values="0 0 0 0 0 0 0 0 0 0 0 0 0 0 0 0 0 0 127 0" result="hardAlpha"/>
<feOffset/>
<feGaussianBlur stdDeviation="2"/>
<feComposite in2="hardAlpha" operator="out"/>
<feColorMatrix type="matrix" values="0 0 0 0 0 0 0 0 0 0 0 0 0 0 0 0 0 0 0.25 0"/>
<feBlend mode="normal" in2="BackgroundImageFix" result="effect1_dropShadow_28_2668"/>
<feBlend mode="normal" in="SourceGraphic" in2="effect1_dropShadow_28_2668" result="shape"/>
</filter>
<filter id="filter1_d_28_2668" x="27.9995" y="3.49994" width="142.5" height="21.5909" filterUnits="userSpaceOnUse" color-interpolation-filters="sRGB">
<feFlood flood-opacity="0" result="BackgroundImageFix"/>
<feColorMatrix in="SourceAlpha" type="matrix" values="0 0 0 0 0 0 0 0 0 0 0 0 0 0 0 0 0 0 127 0" result="hardAlpha"/>
<feOffset/>
<feGaussianBlur stdDeviation="2"/>
<feComposite in2="hardAlpha" operator="out"/>
<feColorMatrix type="matrix" values="0 0 0 0 0 0 0 0 0 0 0 0 0 0 0 0 0 0 0.25 0"/>
<feBlend mode="normal" in2="BackgroundImageFix" result="effect1_dropShadow_28_2668"/>
<feBlend mode="normal" in="SourceGraphic" in2="effect1_dropShadow_28_2668" result="shape"/>
</filter>
<linearGradient id="paint0_linear_28_2668" x1="86.2495" y1="-6.10351e-05" x2="86.2495" y2="27.9999" gradientUnits="userSpaceOnUse">
<stop stop-color="#2E140B"/>
<stop offset="1" stop-color="#1E0C07"/>
</linearGradient>
</defs>
</svg>
