<svg width="301" height="28" viewBox="0 0 301 28" fill="none" xmlns="http://www.w3.org/2000/svg">
<g clip-path="url(#clip0_16_3)">
<rect x="-0.000976562" width="300.5" height="28" rx="6" fill="url(#paint0_linear_16_3)"/>
<g filter="url(#filter0_d_16_3)">
<path d="M15.9993 23.2857C21.1277 23.2857 25.2851 19.1284 25.2851 14C25.2851 8.87164 21.1277 4.71428 15.9993 4.71428C10.871 4.71428 6.71362 8.87164 6.71362 14C6.71362 19.1284 10.871 23.2857 15.9993 23.2857Z" stroke="#F1F1F1" stroke-width="2" stroke-linecap="round" stroke-linejoin="round"/>
<path d="M6.71362 14H25.2851" stroke="#F1F1F1" stroke-width="2" stroke-linecap="round" stroke-linejoin="round"/>
<path d="M15.9994 4.71428C18.3221 7.25704 19.642 10.5569 19.7137 14C19.642 17.4431 18.3221 20.743 15.9994 23.2857C13.6768 20.743 12.3569 17.4431 12.2852 14C12.3569 10.5569 13.6768 7.25704 15.9994 4.71428V4.71428Z" stroke="#F1F1F1" stroke-width="2" stroke-linecap="round" stroke-linejoin="round"/>
</g>
<g filter="url(#filter1_d_16_3)">
<path d="M33.7178 10.5L35.6318 13.6289H35.6943L37.6084 10.5H39.0068L36.5146 14.5L39.0225 18.5H37.6162L35.6943 15.4141H35.6318L33.71 18.5H32.3037L34.8545 14.5L32.3193 10.5H33.7178ZM42.3262 18.6211C41.7637 18.6211 41.2728 18.4922 40.8535 18.2344C40.4342 17.9766 40.1087 17.6159 39.877 17.1523C39.6452 16.6888 39.5293 16.1471 39.5293 15.5273C39.5293 14.9049 39.6452 14.3607 39.877 13.8945C40.1087 13.4284 40.4342 13.0664 40.8535 12.8086C41.2728 12.5508 41.7637 12.4219 42.3262 12.4219C42.8887 12.4219 43.3796 12.5508 43.7988 12.8086C44.2181 13.0664 44.5436 13.4284 44.7754 13.8945C45.0072 14.3607 45.123 14.9049 45.123 15.5273C45.123 16.1471 45.0072 16.6888 44.7754 17.1523C44.5436 17.6159 44.2181 17.9766 43.7988 18.2344C43.3796 18.4922 42.8887 18.6211 42.3262 18.6211ZM42.3301 17.6406C42.6947 17.6406 42.9967 17.5443 43.2363 17.3516C43.4759 17.1589 43.653 16.9023 43.7676 16.582C43.8848 16.2617 43.9434 15.9089 43.9434 15.5234C43.9434 15.1406 43.8848 14.7891 43.7676 14.4687C43.653 14.1458 43.4759 13.8867 43.2363 13.6914C42.9967 13.4961 42.6947 13.3984 42.3301 13.3984C41.9629 13.3984 41.6582 13.4961 41.416 13.6914C41.1764 13.8867 40.998 14.1458 40.8809 14.4687C40.7663 14.7891 40.709 15.1406 40.709 15.5234C40.709 15.9089 40.7663 16.2617 40.8809 16.582C40.998 16.9023 41.1764 17.1589 41.416 17.3516C41.6582 17.5443 41.9629 17.6406 42.3301 17.6406ZM45.7041 13.5078V12.5H50.7666V13.5078H48.8096V18.5H47.6689V13.5078H45.7041ZM53.1465 16.8633L55.791 12.5H57.0488V18.5H55.9043V14.1328L53.2715 18.5H52.0019V12.5H53.1465V16.8633ZM57.875 13.5078V12.5H62.9375V13.5078H60.9805V18.5H59.8398V13.5078H57.875ZM66.4795 18.6211C65.8883 18.6211 65.3792 18.4948 64.9521 18.2422C64.5277 17.987 64.1995 17.6289 63.9678 17.168C63.7386 16.7044 63.624 16.1615 63.624 15.5391C63.624 14.9245 63.7386 14.3828 63.9678 13.9141C64.1995 13.4453 64.5225 13.0794 64.9365 12.8164C65.3532 12.5534 65.8402 12.4219 66.3975 12.4219C66.736 12.4219 67.0641 12.4779 67.3818 12.5898C67.6995 12.7018 67.9847 12.8776 68.2373 13.1172C68.4899 13.3568 68.6891 13.668 68.835 14.0508C68.9808 14.431 69.0537 14.8932 69.0537 15.4375V15.8516H64.2842V14.9766H67.9092C67.9092 14.6693 67.8467 14.3971 67.7217 14.1602C67.5967 13.9206 67.4209 13.7318 67.1943 13.5937C66.9704 13.4557 66.7073 13.3867 66.4053 13.3867C66.0771 13.3867 65.7907 13.4674 65.5459 13.6289C65.3037 13.7878 65.1162 13.9961 64.9834 14.2539C64.8532 14.5091 64.7881 14.7865 64.7881 15.0859V15.7695C64.7881 16.1706 64.8584 16.5117 64.999 16.793C65.1422 17.0742 65.3415 17.2891 65.5967 17.4375C65.8519 17.5833 66.1501 17.6562 66.4912 17.6562C66.7126 17.6562 66.9144 17.625 67.0967 17.5625C67.279 17.4974 67.4365 17.401 67.5693 17.2734C67.7021 17.1458 67.8037 16.9883 67.874 16.8008L68.9795 17C68.8909 17.3255 68.7321 17.6107 68.5029 17.8555C68.2764 18.0977 67.9912 18.2865 67.6475 18.4219C67.3063 18.5547 66.917 18.6211 66.4795 18.6211ZM73.2607 18.5V12.5H78.1553V18.5H77.0107V13.5078H74.3974V18.5H73.2607ZM82.2441 18.6211C81.6816 18.6211 81.1907 18.4922 80.7715 18.2344C80.3522 17.9766 80.0267 17.6159 79.7949 17.1523C79.5631 16.6888 79.4473 16.1471 79.4473 15.5273C79.4473 14.9049 79.5631 14.3607 79.7949 13.8945C80.0267 13.4284 80.3522 13.0664 80.7715 12.8086C81.1907 12.5508 81.6816 12.4219 82.2441 12.4219C82.8066 12.4219 83.2975 12.5508 83.7168 12.8086C84.1361 13.0664 84.4616 13.4284 84.6933 13.8945C84.9251 14.3607 85.041 14.9049 85.041 15.5273C85.041 16.1471 84.9251 16.6888 84.6933 17.1523C84.4616 17.6159 84.1361 17.9766 83.7168 18.2344C83.2975 18.4922 82.8066 18.6211 82.2441 18.6211ZM82.248 17.6406C82.6126 17.6406 82.9147 17.5443 83.1543 17.3516C83.3939 17.1589 83.5709 16.9023 83.6855 16.582C83.8027 16.2617 83.8613 15.9089 83.8613 15.5234C83.8613 15.1406 83.8027 14.7891 83.6855 14.4687C83.5709 14.1458 83.3939 13.8867 83.1543 13.6914C82.9147 13.4961 82.6126 13.3984 82.248 13.3984C81.8808 13.3984 81.5762 13.4961 81.334 13.6914C81.0944 13.8867 80.916 14.1458 80.7988 14.4687C80.6842 14.7891 80.6269 15.1406 80.6269 15.5234C80.6269 15.9089 80.6842 16.2617 80.7988 16.582C80.916 16.9023 81.0944 17.1589 81.334 17.3516C81.5762 17.5443 81.8808 17.6406 82.248 17.6406ZM89.7119 17.0547L91.6494 12.5H92.6572L90.1455 18.5H89.2783L86.8174 12.5H87.8135L89.7119 17.0547ZM87.4892 12.5V18.5H86.3447V12.5H87.4892ZM91.9658 18.5V12.5H93.1025V18.5H91.9658ZM97.1865 18.6211C96.624 18.6211 96.1331 18.4922 95.7138 18.2344C95.2946 17.9766 94.9691 17.6159 94.7373 17.1523C94.5055 16.6888 94.3896 16.1471 94.3896 15.5273C94.3896 14.9049 94.5055 14.3607 94.7373 13.8945C94.9691 13.4284 95.2946 13.0664 95.7138 12.8086C96.1331 12.5508 96.624 12.4219 97.1865 12.4219C97.749 12.4219 98.2399 12.5508 98.6592 12.8086C99.0784 13.0664 99.404 13.4284 99.6357 13.8945C99.8675 14.3607 99.9834 14.9049 99.9834 15.5273C99.9834 16.1471 99.8675 16.6888 99.6357 17.1523C99.404 17.6159 99.0784 17.9766 98.6592 18.2344C98.2399 18.4922 97.749 18.6211 97.1865 18.6211ZM97.1904 17.6406C97.555 17.6406 97.8571 17.5443 98.0967 17.3516C98.3362 17.1589 98.5133 16.9023 98.6279 16.582C98.7451 16.2617 98.8037 15.9089 98.8037 15.5234C98.8037 15.1406 98.7451 14.7891 98.6279 14.4687C98.5133 14.1458 98.3362 13.8867 98.0967 13.6914C97.8571 13.4961 97.555 13.3984 97.1904 13.3984C96.8232 13.3984 96.5185 13.4961 96.2763 13.6914C96.0368 13.8867 95.8584 14.1458 95.7412 14.4687C95.6266 14.7891 95.5693 15.1406 95.5693 15.5234C95.5693 15.9089 95.6266 16.2617 95.7412 16.582C95.8584 16.9023 96.0368 17.1589 96.2763 17.3516C96.5185 17.5443 96.8232 17.6406 97.1904 17.6406ZM106.103 12.5V18.5H104.963V12.5H106.103ZM105.607 15.2852V16.293C105.428 16.3659 105.238 16.431 105.037 16.4883C104.837 16.543 104.626 16.5859 104.404 16.6172C104.183 16.6484 103.952 16.6641 103.713 16.6641C102.971 16.6641 102.381 16.4831 101.943 16.1211C101.506 15.7565 101.287 15.1992 101.287 14.4492V12.4883H102.424V14.4492C102.424 14.7331 102.476 14.9635 102.58 15.1406C102.684 15.3177 102.833 15.4479 103.025 15.5312C103.218 15.6146 103.447 15.6562 103.713 15.6562C104.064 15.6562 104.389 15.6237 104.686 15.5586C104.985 15.4909 105.292 15.3997 105.607 15.2852ZM108.536 14.5625H110.278C111.013 14.5625 111.578 14.7448 111.974 15.1094C112.369 15.474 112.567 15.944 112.567 16.5195C112.567 16.8945 112.479 17.2318 112.302 17.5312C112.125 17.8307 111.866 18.0677 111.524 18.2422C111.183 18.4141 110.768 18.5 110.278 18.5H107.657V12.5H108.802V17.4922H110.278C110.614 17.4922 110.89 17.4049 111.106 17.2305C111.323 17.0534 111.431 16.8281 111.431 16.5547C111.431 16.2656 111.323 16.0299 111.106 15.8477C110.89 15.6628 110.614 15.5703 110.278 15.5703H108.536V14.5625ZM119.315 18.6211C118.735 18.6211 118.235 18.4896 117.815 18.2266C117.399 17.9609 117.078 17.595 116.854 17.1289C116.631 16.6628 116.519 16.1289 116.519 15.5273C116.519 14.918 116.633 14.3802 116.862 13.9141C117.091 13.4453 117.414 13.0794 117.831 12.8164C118.248 12.5534 118.739 12.4219 119.304 12.4219C119.759 12.4219 120.166 12.5065 120.522 12.6758C120.879 12.8424 121.167 13.0768 121.386 13.3789C121.607 13.681 121.739 14.0339 121.78 14.4375H120.644C120.581 14.1562 120.438 13.9141 120.214 13.7109C119.992 13.5078 119.696 13.4062 119.323 13.4062C118.998 13.4062 118.713 13.4922 118.468 13.6641C118.226 13.8333 118.037 14.0755 117.901 14.3906C117.766 14.7031 117.698 15.0729 117.698 15.5C117.698 15.9375 117.765 16.3151 117.897 16.6328C118.03 16.9505 118.218 17.1966 118.46 17.3711C118.705 17.5456 118.992 17.6328 119.323 17.6328C119.545 17.6328 119.745 17.5924 119.925 17.5117C120.107 17.4284 120.259 17.3099 120.382 17.1562C120.507 17.0026 120.594 16.8177 120.644 16.6016H121.78C121.739 16.9896 121.612 17.3359 121.401 17.6406C121.19 17.9453 120.908 18.1849 120.554 18.3594C120.202 18.5339 119.789 18.6211 119.315 18.6211ZM125.94 18.5V12.5H130.835V18.5H129.69V13.5078H127.077V18.5H125.94ZM134.982 18.6211C134.391 18.6211 133.882 18.4948 133.455 18.2422C133.031 17.987 132.702 17.6289 132.471 17.168C132.242 16.7044 132.127 16.1615 132.127 15.5391C132.127 14.9245 132.242 14.3828 132.471 13.9141C132.702 13.4453 133.025 13.0794 133.439 12.8164C133.856 12.5534 134.343 12.4219 134.9 12.4219C135.239 12.4219 135.567 12.4779 135.885 12.5898C136.202 12.7018 136.488 12.8776 136.74 13.1172C136.993 13.3568 137.192 13.668 137.338 14.0508C137.484 14.431 137.557 14.8932 137.557 15.4375V15.8516H132.787V14.9766H136.412C136.412 14.6693 136.35 14.3971 136.225 14.1602C136.1 13.9206 135.924 13.7318 135.697 13.5937C135.473 13.4557 135.21 13.3867 134.908 13.3867C134.58 13.3867 134.294 13.4674 134.049 13.6289C133.807 13.7878 133.619 13.9961 133.486 14.2539C133.356 14.5091 133.291 14.7865 133.291 15.0859V15.7695C133.291 16.1706 133.361 16.5117 133.502 16.793C133.645 17.0742 133.844 17.2891 134.1 17.4375C134.355 17.5833 134.653 17.6562 134.994 17.6562C135.215 17.6562 135.417 17.625 135.6 17.5625C135.782 17.4974 135.939 17.401 136.072 17.2734C136.205 17.1458 136.307 16.9883 136.377 16.8008L137.482 17C137.394 17.3255 137.235 17.6107 137.006 17.8555C136.779 18.0977 136.494 18.2865 136.15 18.4219C135.809 18.5547 135.42 18.6211 134.982 18.6211ZM138.853 20.75V12.5H139.993V13.4727H140.091C140.158 13.3477 140.256 13.2031 140.384 13.0391C140.511 12.875 140.688 12.7318 140.915 12.6094C141.142 12.4844 141.441 12.4219 141.813 12.4219C142.298 12.4219 142.73 12.5443 143.11 12.7891C143.491 13.0339 143.789 13.3867 144.005 13.8477C144.224 14.3086 144.333 14.8633 144.333 15.5117C144.333 16.1602 144.225 16.7161 144.009 17.1797C143.793 17.6406 143.496 17.9961 143.118 18.2461C142.741 18.4935 142.31 18.6172 141.825 18.6172C141.461 18.6172 141.162 18.556 140.931 18.4336C140.701 18.3112 140.522 18.168 140.392 18.0039C140.261 17.8398 140.161 17.694 140.091 17.5664H140.02V20.75H138.853ZM139.997 15.5C139.997 15.9219 140.058 16.2917 140.181 16.6094C140.303 16.9271 140.48 17.1758 140.712 17.3555C140.944 17.5325 141.228 17.6211 141.563 17.6211C141.912 17.6211 142.204 17.5286 142.438 17.3437C142.673 17.1562 142.85 16.9023 142.97 16.582C143.092 16.2617 143.153 15.901 143.153 15.5C143.153 15.1042 143.093 14.7487 142.974 14.4336C142.856 14.1185 142.679 13.8698 142.442 13.6875C142.208 13.5052 141.915 13.4141 141.563 13.4141C141.225 13.4141 140.938 13.5013 140.704 13.6758C140.472 13.8503 140.297 14.0937 140.177 14.4062C140.057 14.7187 139.997 15.0833 139.997 15.5ZM148.228 18.6211C147.636 18.6211 147.127 18.4948 146.7 18.2422C146.276 17.987 145.948 17.6289 145.716 17.168C145.487 16.7044 145.372 16.1615 145.372 15.5391C145.372 14.9245 145.487 14.3828 145.716 13.9141C145.948 13.4453 146.27 13.0794 146.685 12.8164C147.101 12.5534 147.588 12.4219 148.145 12.4219C148.484 12.4219 148.812 12.4779 149.13 12.5898C149.448 12.7018 149.733 12.8776 149.985 13.1172C150.238 13.3568 150.437 13.668 150.583 14.0508C150.729 14.431 150.802 14.8932 150.802 15.4375V15.8516H146.032V14.9766H149.657C149.657 14.6693 149.595 14.3971 149.47 14.1602C149.345 13.9206 149.169 13.7318 148.942 13.5937C148.718 13.4557 148.455 13.3867 148.153 13.3867C147.825 13.3867 147.539 13.4674 147.294 13.6289C147.052 13.7878 146.864 13.9961 146.731 14.2539C146.601 14.5091 146.536 14.7865 146.536 15.0859V15.7695C146.536 16.1706 146.606 16.5117 146.747 16.793C146.89 17.0742 147.089 17.2891 147.345 17.4375C147.6 17.5833 147.898 17.6562 148.239 17.6562C148.461 17.6562 148.662 17.625 148.845 17.5625C149.027 17.4974 149.185 17.401 149.317 17.2734C149.45 17.1458 149.552 16.9883 149.622 16.8008L150.728 17C150.639 17.3255 150.48 17.6107 150.251 17.8555C150.024 18.0977 149.739 18.2865 149.395 18.4219C149.054 18.5547 148.665 18.6211 148.228 18.6211ZM152.098 18.5V12.5H154.586C155.263 12.5 155.799 12.6445 156.195 12.9336C156.591 13.2201 156.789 13.6094 156.789 14.1016C156.789 14.4531 156.677 14.7318 156.453 14.9375C156.229 15.1432 155.932 15.2812 155.562 15.3516C155.831 15.3828 156.077 15.4635 156.301 15.5937C156.525 15.7214 156.704 15.8932 156.84 16.1094C156.978 16.3255 157.047 16.5833 157.047 16.8828C157.047 17.2005 156.965 17.4818 156.801 17.7266C156.637 17.9687 156.398 18.1589 156.086 18.2969C155.776 18.4323 155.402 18.5 154.965 18.5H152.098ZM153.195 17.5234H154.965C155.254 17.5234 155.48 17.4544 155.644 17.3164C155.809 17.1784 155.891 16.9909 155.891 16.7539C155.891 16.4753 155.809 16.2565 155.644 16.0977C155.48 15.9362 155.254 15.8555 154.965 15.8555H153.195V17.5234ZM153.195 15H154.598C154.816 15 155.004 14.9687 155.16 14.9062C155.319 14.8437 155.44 14.7552 155.523 14.6406C155.609 14.5234 155.652 14.3854 155.652 14.2266C155.652 13.9948 155.557 13.8138 155.367 13.6836C155.177 13.5534 154.917 13.4883 154.586 13.4883H153.195V15ZM160.855 18.6211C160.293 18.6211 159.802 18.4922 159.383 18.2344C158.964 17.9766 158.638 17.6159 158.406 17.1523C158.174 16.6888 158.059 16.1471 158.059 15.5273C158.059 14.9049 158.174 14.3607 158.406 13.8945C158.638 13.4284 158.964 13.0664 159.383 12.8086C159.802 12.5508 160.293 12.4219 160.855 12.4219C161.418 12.4219 161.909 12.5508 162.328 12.8086C162.747 13.0664 163.073 13.4284 163.305 13.8945C163.536 14.3607 163.652 14.9049 163.652 15.5273C163.652 16.1471 163.536 16.6888 163.305 17.1523C163.073 17.6159 162.747 17.9766 162.328 18.2344C161.909 18.4922 161.418 18.6211 160.855 18.6211ZM160.859 17.6406C161.224 17.6406 161.526 17.5443 161.766 17.3516C162.005 17.1589 162.182 16.9023 162.297 16.582C162.414 16.2617 162.473 15.9089 162.473 15.5234C162.473 15.1406 162.414 14.7891 162.297 14.4687C162.182 14.1458 162.005 13.8867 161.766 13.6914C161.526 13.4961 161.224 13.3984 160.859 13.3984C160.492 13.3984 160.187 13.4961 159.945 13.6914C159.706 13.8867 159.527 14.1458 159.41 14.4687C159.296 14.7891 159.238 15.1406 159.238 15.5234C159.238 15.9089 159.296 16.2617 159.41 16.582C159.527 16.9023 159.706 17.1589 159.945 17.3516C160.187 17.5443 160.492 17.6406 160.859 17.6406ZM164.37 20.2305V17.4883H164.858C164.983 17.3737 165.089 17.237 165.175 17.0781C165.263 16.9193 165.338 16.7305 165.397 16.5117C165.46 16.293 165.512 16.0378 165.554 15.7461C165.595 15.4518 165.632 15.1159 165.663 14.7383L165.851 12.5H169.929V17.4883H170.851V20.2305H169.71V18.5H165.526V20.2305H164.37ZM166.108 17.4883H168.788V13.5H166.897L166.772 14.7383C166.713 15.3685 166.637 15.9154 166.546 16.3789C166.455 16.8398 166.309 17.2096 166.108 17.4883ZM174.519 18.6211C173.957 18.6211 173.466 18.4922 173.047 18.2344C172.628 17.9766 172.302 17.6159 172.07 17.1523C171.839 16.6888 171.723 16.1471 171.723 15.5273C171.723 14.9049 171.839 14.3607 172.07 13.8945C172.302 13.4284 172.628 13.0664 173.047 12.8086C173.466 12.5508 173.957 12.4219 174.519 12.4219C175.082 12.4219 175.573 12.5508 175.992 12.8086C176.411 13.0664 176.737 13.4284 176.969 13.8945C177.2 14.3607 177.316 14.9049 177.316 15.5273C177.316 16.1471 177.2 16.6888 176.969 17.1523C176.737 17.6159 176.411 17.9766 175.992 18.2344C175.573 18.4922 175.082 18.6211 174.519 18.6211ZM174.523 17.6406C174.888 17.6406 175.19 17.5443 175.43 17.3516C175.669 17.1589 175.846 16.9023 175.961 16.582C176.078 16.2617 176.137 15.9089 176.137 15.5234C176.137 15.1406 176.078 14.7891 175.961 14.4687C175.846 14.1458 175.669 13.8867 175.43 13.6914C175.19 13.4961 174.888 13.3984 174.523 13.3984C174.156 13.3984 173.852 13.4961 173.609 13.6914C173.37 13.8867 173.191 14.1458 173.074 14.4687C172.96 14.7891 172.902 15.1406 172.902 15.5234C172.902 15.9089 172.96 16.2617 173.074 16.582C173.191 16.9023 173.37 17.1589 173.609 17.3516C173.852 17.5443 174.156 17.6406 174.523 17.6406ZM181.987 17.0547L183.925 12.5H184.933L182.421 18.5H181.554L179.093 12.5H180.089L181.987 17.0547ZM179.765 12.5V18.5H178.62V12.5H179.765ZM184.241 18.5V12.5H185.378V18.5H184.241ZM188.212 16.1992V16.125C188.217 15.6406 188.265 15.2552 188.356 14.9687C188.45 14.6823 188.583 14.4505 188.755 14.2734C188.927 14.0964 189.134 13.9349 189.376 13.7891C189.532 13.6901 189.673 13.5794 189.798 13.457C189.923 13.3346 190.022 13.194 190.095 13.0352C190.168 12.8763 190.204 12.7005 190.204 12.5078C190.204 12.276 190.149 12.0755 190.04 11.9062C189.931 11.737 189.785 11.6068 189.602 11.5156C189.423 11.4219 189.222 11.375 189.001 11.375C188.8 11.375 188.609 11.4167 188.427 11.5C188.244 11.5833 188.093 11.7135 187.974 11.8906C187.854 12.0651 187.785 12.2904 187.767 12.5664H186.579C186.597 12.0977 186.716 11.7018 186.935 11.3789C187.153 11.0534 187.442 10.8073 187.802 10.6406C188.164 10.474 188.563 10.3906 189.001 10.3906C189.48 10.3906 189.899 10.4805 190.259 10.6602C190.618 10.8372 190.897 11.0859 191.095 11.4062C191.295 11.724 191.395 12.0951 191.395 12.5195C191.395 12.8112 191.35 13.0742 191.259 13.3086C191.168 13.5404 191.037 13.7474 190.868 13.9297C190.701 14.112 190.501 14.2734 190.267 14.4141C190.045 14.5521 189.866 14.6953 189.727 14.8437C189.592 14.9922 189.493 15.168 189.431 15.3711C189.368 15.5742 189.334 15.8255 189.329 16.125V16.1992H188.212ZM188.802 18.5742C188.588 18.5742 188.405 18.4987 188.251 18.3477C188.097 18.194 188.02 18.0091 188.02 17.793C188.02 17.5794 188.097 17.3971 188.251 17.2461C188.405 17.0924 188.588 17.0156 188.802 17.0156C189.013 17.0156 189.195 17.0924 189.349 17.2461C189.505 17.3971 189.583 17.5794 189.583 17.793C189.583 17.9362 189.547 18.0677 189.474 18.1875C189.403 18.3047 189.31 18.3984 189.192 18.4687C189.075 18.5391 188.945 18.5742 188.802 18.5742Z" fill="#E8E8E8"/>
<path d="M195.16 18.5V9.77273H197.269V13.2756H200.708V9.77273H202.813V18.5H200.708V14.9929H197.269V18.5H195.16ZM205.981 18.6108C205.564 18.6108 205.193 18.5412 204.869 18.402C204.548 18.2599 204.294 18.0469 204.106 17.7628C203.922 17.4758 203.829 17.1165 203.829 16.6847C203.829 16.321 203.893 16.0142 204.021 15.7642C204.149 15.5142 204.325 15.3111 204.549 15.1548C204.774 14.9986 205.032 14.8807 205.325 14.8011C205.618 14.7187 205.93 14.6633 206.263 14.6349C206.635 14.6009 206.934 14.5653 207.162 14.5284C207.389 14.4886 207.554 14.4332 207.656 14.3622C207.761 14.2884 207.814 14.1847 207.814 14.0511V14.0298C207.814 13.8111 207.738 13.642 207.588 13.5227C207.437 13.4034 207.234 13.3437 206.978 13.3437C206.703 13.3437 206.481 13.4034 206.314 13.5227C206.146 13.642 206.04 13.8068 205.994 14.017L204.072 13.9489C204.129 13.5511 204.275 13.196 204.511 12.8835C204.75 12.5682 205.076 12.321 205.491 12.142C205.909 11.9602 206.41 11.8693 206.995 11.8693C207.413 11.8693 207.798 11.919 208.15 12.0185C208.503 12.1151 208.809 12.2571 209.071 12.4446C209.332 12.6293 209.534 12.8565 209.676 13.1264C209.821 13.3963 209.893 13.7045 209.893 14.0511V18.5H207.933V17.5881H207.882C207.765 17.8097 207.616 17.9972 207.434 18.1506C207.255 18.304 207.044 18.419 206.799 18.4957C206.558 18.5724 206.285 18.6108 205.981 18.6108ZM206.625 17.2472C206.849 17.2472 207.051 17.2017 207.23 17.1108C207.412 17.0199 207.557 16.8949 207.665 16.7358C207.772 16.5739 207.826 16.3864 207.826 16.1733V15.5511C207.767 15.5824 207.694 15.6108 207.609 15.6364C207.527 15.6619 207.436 15.6861 207.336 15.7088C207.237 15.7315 207.135 15.7514 207.03 15.7685C206.924 15.7855 206.824 15.8011 206.727 15.8153C206.531 15.8466 206.363 15.8949 206.224 15.9602C206.088 16.0256 205.983 16.1108 205.909 16.2159C205.838 16.3182 205.802 16.4403 205.802 16.5824C205.802 16.7983 205.879 16.9631 206.032 17.0767C206.189 17.1903 206.386 17.2472 206.625 17.2472ZM210.733 18.5L212.902 15.0653L210.737 11.9545H213.106L214.645 14.4347H214.836V11.9545H216.92V14.4347H217.108L218.646 11.9545H221.015L218.855 15.0653L221.02 18.5H218.595L217.091 16.0284H216.92V18.5H214.836V16.0284H214.666L213.157 18.5H210.733ZM225.865 16.2756L227.467 11.9545H228.993L226.534 18.5H225.196L222.801 11.9545H224.322L225.865 16.2756ZM223.875 11.9545V18.5H221.902V11.9545H223.875ZM227.974 18.5V11.9545H229.922V18.5H227.974ZM233.156 15.8026L235.248 11.9545H237.251V18.5H235.278V14.6392L233.19 18.5H231.183V11.9545H233.156V15.8026ZM237.999 13.5483V11.9545H244.135V13.5483H242.043V18.5H240.066V13.5483H237.999ZM247.989 18.6236C247.304 18.6236 246.713 18.4886 246.216 18.2187C245.722 17.946 245.341 17.5582 245.074 17.0554C244.81 16.5497 244.678 15.9489 244.678 15.2528C244.678 14.5767 244.811 13.9858 245.078 13.4801C245.345 12.9716 245.722 12.5767 246.207 12.2955C246.693 12.0114 247.266 11.8693 247.925 11.8693C248.391 11.8693 248.817 11.9418 249.203 12.0866C249.59 12.2315 249.923 12.446 250.205 12.7301C250.486 13.0142 250.705 13.3651 250.861 13.7827C251.017 14.1974 251.095 14.6733 251.095 15.2102V15.7301H245.406V14.5199H249.156C249.153 14.2983 249.101 14.1009 248.999 13.9276C248.896 13.7543 248.756 13.6193 248.577 13.5227C248.401 13.4233 248.198 13.3736 247.967 13.3736C247.734 13.3736 247.526 13.4261 247.341 13.5312C247.156 13.6335 247.01 13.7741 246.902 13.9531C246.794 14.1293 246.737 14.3295 246.732 14.554V15.7855C246.732 16.0526 246.784 16.2869 246.889 16.4886C246.994 16.6875 247.144 16.8423 247.337 16.9531C247.53 17.0639 247.76 17.1193 248.027 17.1193C248.212 17.1193 248.379 17.0937 248.53 17.0426C248.68 16.9915 248.81 16.9162 248.918 16.8168C249.026 16.7173 249.107 16.5952 249.161 16.4503L251.074 16.5057C250.994 16.9347 250.82 17.3082 250.55 17.6264C250.283 17.9418 249.932 18.1875 249.497 18.3636C249.063 18.5369 248.56 18.6236 247.989 18.6236ZM254.427 16.5824H256.412C256.418 16.7756 256.502 16.929 256.664 17.0426C256.829 17.1562 257.04 17.2131 257.299 17.2131C257.56 17.2131 257.776 17.1506 257.946 17.0256C258.12 16.8977 258.206 16.7216 258.206 16.4972C258.206 16.3608 258.171 16.2415 258.1 16.1392C258.032 16.0341 257.935 15.9517 257.81 15.892C257.688 15.8324 257.546 15.8026 257.384 15.8026H256.506V14.5199H257.384C257.625 14.5199 257.816 14.4631 257.955 14.3494C258.094 14.2358 258.164 14.0923 258.164 13.919C258.164 13.723 258.093 13.5639 257.951 13.4418C257.812 13.3196 257.625 13.2585 257.392 13.2585C257.162 13.2585 256.972 13.3111 256.821 13.4162C256.671 13.5213 256.594 13.6577 256.591 13.8253H254.606C254.608 13.419 254.729 13.071 254.968 12.7812C255.209 12.4886 255.533 12.2642 255.939 12.108C256.348 11.9489 256.803 11.8693 257.303 11.8693C257.863 11.8693 258.344 11.9432 258.748 12.0909C259.154 12.2358 259.465 12.446 259.681 12.7216C259.897 12.9943 260.005 13.3267 260.005 13.7187C260.005 14.0597 259.887 14.348 259.651 14.5838C259.418 14.8196 259.081 14.9872 258.641 15.0866V15.1548C258.917 15.169 259.169 15.2386 259.4 15.3636C259.63 15.4858 259.816 15.6591 259.958 15.8835C260.1 16.1051 260.171 16.3736 260.171 16.6889C260.171 17.0952 260.047 17.4432 259.8 17.733C259.553 18.0199 259.213 18.2401 258.782 18.3935C258.353 18.5469 257.86 18.6236 257.303 18.6236C256.76 18.6236 256.275 18.5483 255.846 18.3977C255.419 18.2443 255.08 18.0156 254.827 17.7116C254.574 17.4077 254.441 17.0312 254.427 16.5824ZM260.743 20.4304V16.8935H261.233C261.381 16.8196 261.499 16.6776 261.587 16.4673C261.675 16.2543 261.744 16.0057 261.796 15.7216C261.85 15.4347 261.889 15.1364 261.915 14.8267C261.943 14.5142 261.969 14.2202 261.992 13.9446L262.145 11.9545H267.446V16.8935H268.469V20.4304H266.492V18.5H262.771V20.4304H260.743ZM263.261 16.8935H265.503V13.5057H263.884L263.849 13.9446C263.81 14.6491 263.747 15.2401 263.662 15.7173C263.577 16.1946 263.443 16.5866 263.261 16.8935ZM272.493 18.6236C271.808 18.6236 271.217 18.4886 270.72 18.2187C270.226 17.946 269.845 17.5582 269.578 17.0554C269.314 16.5497 269.182 15.9489 269.182 15.2528C269.182 14.5767 269.315 13.9858 269.582 13.4801C269.849 12.9716 270.226 12.5767 270.711 12.2955C271.197 12.0114 271.77 11.8693 272.429 11.8693C272.895 11.8693 273.321 11.9418 273.707 12.0866C274.093 12.2315 274.427 12.446 274.709 12.7301C274.99 13.0142 275.209 13.3651 275.365 13.7827C275.521 14.1974 275.599 14.6733 275.599 15.2102V15.7301H269.91V14.5199H273.66C273.657 14.2983 273.605 14.1009 273.503 13.9276C273.4 13.7543 273.26 13.6193 273.081 13.5227C272.905 13.4233 272.701 13.3736 272.471 13.3736C272.238 13.3736 272.03 13.4261 271.845 13.5312C271.66 13.6335 271.514 13.7741 271.406 13.9531C271.298 14.1293 271.241 14.3295 271.236 14.554V15.7855C271.236 16.0526 271.288 16.2869 271.393 16.4886C271.498 16.6875 271.647 16.8423 271.841 16.9531C272.034 17.0639 272.264 17.1193 272.531 17.1193C272.716 17.1193 272.883 17.0937 273.034 17.0426C273.184 16.9915 273.314 16.9162 273.422 16.8168C273.53 16.7173 273.611 16.5952 273.664 16.4503L275.578 16.5057C275.498 16.9347 275.324 17.3082 275.054 17.6264C274.787 17.9418 274.436 18.1875 274.001 18.3636C273.566 18.5369 273.064 18.6236 272.493 18.6236ZM279.719 18.6236C279.028 18.6236 278.436 18.4815 277.942 18.1974C277.45 17.9133 277.073 17.5185 276.808 17.0128C276.544 16.5043 276.412 15.9162 276.412 15.2486C276.412 14.5781 276.544 13.9901 276.808 13.4844C277.075 12.9759 277.455 12.5795 277.946 12.2955C278.44 12.0114 279.03 11.8693 279.715 11.8693C280.32 11.8693 280.847 11.9787 281.296 12.1974C281.747 12.4162 282.099 12.7259 282.352 13.1264C282.608 13.5241 282.743 13.9915 282.757 14.5284H280.81C280.77 14.1932 280.656 13.9304 280.469 13.7401C280.284 13.5497 280.043 13.4545 279.744 13.4545C279.503 13.4545 279.291 13.5227 279.109 13.6591C278.928 13.7926 278.786 13.9915 278.683 14.2557C278.584 14.517 278.534 14.8409 278.534 15.2273C278.534 15.6136 278.584 15.9403 278.683 16.2074C278.786 16.4716 278.928 16.6719 279.109 16.8082C279.291 16.9418 279.503 17.0085 279.744 17.0085C279.938 17.0085 280.108 16.9673 280.256 16.8849C280.406 16.8026 280.53 16.6818 280.626 16.5227C280.723 16.3608 280.784 16.1648 280.81 15.9347H282.757C282.737 16.4744 282.602 16.946 282.352 17.3494C282.105 17.7528 281.757 18.0668 281.308 18.2912C280.862 18.5128 280.332 18.6236 279.719 18.6236ZM285.047 13.8466H287.032C287.933 13.8466 288.639 14.0582 289.15 14.4815C289.662 14.902 289.919 15.473 289.922 16.1946C289.919 16.6633 289.801 17.071 289.568 17.4176C289.338 17.7614 289.007 18.0284 288.575 18.2187C288.146 18.4062 287.632 18.5 287.032 18.5H283.824V11.9545H285.797V16.9062H287.032C287.305 16.9062 287.53 16.8395 287.706 16.706C287.882 16.5724 287.971 16.4006 287.974 16.1903C287.971 15.9687 287.882 15.7883 287.706 15.6491C287.53 15.5099 287.305 15.4403 287.032 15.4403H285.047V13.8466ZM292.191 18.6236C291.884 18.6236 291.621 18.5156 291.402 18.2997C291.186 18.0838 291.08 17.8224 291.083 17.5156C291.08 17.2145 291.186 16.9574 291.402 16.7443C291.621 16.5284 291.884 16.4205 292.191 16.4205C292.481 16.4205 292.736 16.5284 292.958 16.7443C293.182 16.9574 293.296 17.2145 293.299 17.5156C293.296 17.7202 293.242 17.9062 293.137 18.0739C293.035 18.2415 292.9 18.375 292.732 18.4744C292.567 18.5739 292.387 18.6236 292.191 18.6236Z" fill="#F1F1F1"/>
</g>
</g>
<rect x="0.749023" y="0.75" width="299" height="26.5" rx="5.25" stroke="white" stroke-opacity="0.15" stroke-width="1.5"/>
<defs>
<filter id="filter0_d_16_3" x="1.71362" y="-0.285715" width="28.5715" height="28.5714" filterUnits="userSpaceOnUse" color-interpolation-filters="sRGB">
<feFlood flood-opacity="0" result="BackgroundImageFix"/>
<feColorMatrix in="SourceAlpha" type="matrix" values="0 0 0 0 0 0 0 0 0 0 0 0 0 0 0 0 0 0 127 0" result="hardAlpha"/>
<feOffset/>
<feGaussianBlur stdDeviation="2"/>
<feComposite in2="hardAlpha" operator="out"/>
<feColorMatrix type="matrix" values="0 0 0 0 0 0 0 0 0 0 0 0 0 0 0 0 0 0 0.25 0"/>
<feBlend mode="normal" in2="BackgroundImageFix" result="effect1_dropShadow_16_3"/>
<feBlend mode="normal" in="SourceGraphic" in2="effect1_dropShadow_16_3" result="shape"/>
</filter>
<filter id="filter1_d_16_3" x="27.999" y="3.5" width="270.5" height="21.25" filterUnits="userSpaceOnUse" color-interpolation-filters="sRGB">
<feFlood flood-opacity="0" result="BackgroundImageFix"/>
<feColorMatrix in="SourceAlpha" type="matrix" values="0 0 0 0 0 0 0 0 0 0 0 0 0 0 0 0 0 0 127 0" result="hardAlpha"/>
<feOffset/>
<feGaussianBlur stdDeviation="2"/>
<feComposite in2="hardAlpha" operator="out"/>
<feColorMatrix type="matrix" values="0 0 0 0 0 0 0 0 0 0 0 0 0 0 0 0 0 0 0.25 0"/>
<feBlend mode="normal" in2="BackgroundImageFix" result="effect1_dropShadow_16_3"/>
<feBlend mode="normal" in="SourceGraphic" in2="effect1_dropShadow_16_3" result="shape"/>
</filter>
<linearGradient id="paint0_linear_16_3" x1="150.249" y1="0" x2="150.249" y2="28" gradientUnits="userSpaceOnUse">
<stop stop-color="#303030"/>
<stop offset="1" stop-color="#1D1D1D"/>
</linearGradient>
<clipPath id="clip0_16_3">
<rect x="-0.000976562" width="300.5" height="28" rx="6" fill="white"/>
</clipPath>
</defs>
</svg>
