<svg width="158" height="28" viewBox="0 0 158 28" fill="none" xmlns="http://www.w3.org/2000/svg">
<g clip-path="url(#clip0_28_2660)">
<rect x="-0.000488281" width="157.5" height="28" rx="6" fill="url(#paint0_linear_28_2660)"/>
<g filter="url(#filter0_d_28_2660)">
<path d="M15.005 4.05673C11.5544 4.39947 8.5585 6.46924 7.00706 9.58503C6.48991 10.6221 6.14217 11.815 6.02626 12.9456L5.99951 13.2038H6.89115C7.38154 13.2038 7.78278 13.1904 7.78724 13.1682C7.83628 12.4426 8.15727 11.3032 8.54513 10.4886C9.9227 7.60428 12.7893 5.79267 15.9635 5.79267C17.3099 5.79267 18.4512 6.05528 19.6192 6.63393C20.9478 7.2927 22.0133 8.22743 22.8291 9.44259C23.1902 9.98118 23.6895 10.9649 23.6271 11.0183C23.6048 11.0405 23.2482 11.1474 22.838 11.2542L22.089 11.4545L21.8929 11.0717C21.2598 9.80758 20.2032 8.74821 18.955 8.12061C18.5047 7.8936 18.041 7.72 17.9697 7.74671C17.9385 7.75561 17.8984 7.86244 17.885 7.98262C17.8672 8.09835 17.8181 8.40548 17.7691 8.66364C17.7245 8.92181 17.6755 9.20668 17.6621 9.2957L17.6309 9.46039L18.0098 9.63844C19.3116 10.2438 20.2523 11.3655 20.6491 12.7809C20.765 13.1904 20.7783 13.2839 20.7783 14.005C20.7783 14.7261 20.765 14.8195 20.6491 15.2291C20.4128 16.0659 19.9937 16.8047 19.4186 17.3834C19.0887 17.7172 18.6028 18.0778 18.2506 18.2603C18.1302 18.3181 18.0366 18.3938 18.0366 18.425C18.041 18.5006 18.4646 20.0585 18.4958 20.0852C18.5359 20.1253 19.2893 19.7247 19.7307 19.4309C20.2835 19.0615 21.0503 18.2959 21.4203 17.7439C21.9375 16.9694 22.2585 16.2261 22.4591 15.3359C22.5438 14.9442 22.5616 14.7439 22.5616 14.0183C22.5616 13.2973 22.5705 13.1593 22.6285 13.1459C23.1724 12.9901 24.1131 12.7587 24.1309 12.772C24.1621 12.8076 24.2111 13.551 24.2111 14.005C24.2111 14.6192 24.1532 15.2201 24.0551 15.6519C24.0105 15.8567 23.9749 16.0303 23.9793 16.0347C23.9838 16.0436 24.3583 16.1771 24.8085 16.3418C25.4327 16.5688 25.6378 16.6267 25.6645 16.5822C25.7358 16.462 25.9275 15.2869 25.9766 14.6593C26.0791 13.2572 25.8339 11.6459 25.3212 10.3773C23.8768 6.80307 20.7204 4.42617 16.922 4.05673C16.1597 3.98106 15.7584 3.98106 15.005 4.05673Z" fill="#00D845"/>
<path d="M15.2279 7.44851C14.9025 7.47966 14.1758 7.65326 13.8058 7.78234C11.9824 8.4233 10.48 9.88772 9.80233 11.6904C9.27627 13.0836 9.25843 14.8329 9.75775 16.1994L9.8692 16.5021L9.45905 16.738C8.63875 17.2143 8.49163 17.2988 8.46042 17.2988C8.4203 17.2988 8.22414 16.8048 8.09931 16.3864C7.95665 15.8878 7.80507 15.1668 7.78724 14.8374C7.78278 14.8196 7.38154 14.8062 6.89115 14.8062H5.99951L6.02626 15.0599C6.26254 17.3612 7.32359 19.5333 9.01323 21.1758C12.9765 25.0215 19.3027 24.9281 23.1679 20.9666C23.6762 20.4413 24.1799 19.7959 24.5366 19.2084C24.8442 18.6965 25.0805 18.2158 25.0448 18.1802C25.027 18.1624 24.813 18.0778 24.5678 17.9888C24.3226 17.8997 23.9927 17.7796 23.8322 17.7262C23.6717 17.6683 23.5112 17.606 23.4755 17.5926C23.4265 17.5748 23.3641 17.6505 23.2393 17.8908C22.4903 19.3508 21.0904 20.6772 19.5078 21.4339C18.1569 22.0749 16.7838 22.3153 15.1566 22.1862C13.565 22.0615 11.7907 21.2782 10.5023 20.1342C10.1367 19.8093 9.60617 19.2395 9.40555 18.9547C9.33868 18.8567 9.30302 18.8834 10.3373 18.2825L10.7252 18.0555L11.2735 18.603C12.2543 19.5867 13.3065 20.1654 14.6528 20.468C15.0496 20.5526 15.2413 20.5704 15.9724 20.5704C16.4405 20.5704 16.8373 20.5571 16.8507 20.5437C16.8685 20.5304 16.7972 20.2188 16.6991 19.8538C16.601 19.4888 16.4985 19.1105 16.4718 19.0081L16.4227 18.8256L15.7941 18.7989C14.6082 18.7499 13.6676 18.376 12.7848 17.6015C12.6377 17.4724 12.4728 17.3122 12.4237 17.2499L12.3346 17.1342L13.3198 16.5644L14.3095 15.9991L15.3438 17.0941L16.5342 16.8493L17.7245 16.6089L19.3294 15.0065L19.1868 14.4813C19.0976 14.1474 19.0263 13.9605 18.9906 13.9605C18.955 13.9605 18.5938 14.0495 18.1837 14.1608L17.4347 14.3656L17.1226 14.6682C16.7838 14.9976 16.8329 14.9843 16.0973 15.051L15.8298 15.0777L15.5088 14.7617C15.3305 14.5926 15.1833 14.4412 15.1833 14.4323C15.1833 14.419 15.1343 14.232 15.0763 14.0095L14.9694 13.6044L15.2591 13.2172C15.4196 12.9991 15.5578 12.821 15.5667 12.8121C15.5712 12.8032 15.7629 12.7453 15.9947 12.6875L16.4093 12.5807L16.9755 12.0154C17.2921 11.7038 17.5462 11.4278 17.5462 11.4011C17.5462 11.3744 17.3768 11.1875 17.1717 10.9827L16.7972 10.6133L15.7139 10.907L14.6261 11.2008L14.4032 11.4323C14.2828 11.5613 14.0287 11.8373 13.8459 12.0465C13.6631 12.2513 13.4313 12.5139 13.3332 12.6252C12.9543 13.0525 12.9676 12.9234 13.2039 13.7335C13.3154 14.1296 13.4045 14.4635 13.3956 14.4679C13.3733 14.4857 12.4505 15.0243 11.8798 15.3448C11.6658 15.465 11.4741 15.5629 11.4474 15.5629C11.4251 15.5629 11.3582 15.376 11.3003 15.149C11.2067 14.7973 11.1933 14.6371 11.1933 13.9828C11.1977 13.2928 11.2067 13.186 11.3226 12.781C11.5633 11.9263 11.9779 11.2097 12.5753 10.6133C13.3956 9.79425 14.4745 9.29127 15.5712 9.2156C16.0349 9.17999 15.9992 9.2156 16.075 8.73043C16.1017 8.55684 16.1418 8.33873 16.1641 8.24081C16.1864 8.14288 16.2132 7.98264 16.2266 7.88472C16.2444 7.78679 16.2667 7.63991 16.2801 7.55979L16.3068 7.41735L15.8476 7.42625C15.5935 7.42625 15.3126 7.4396 15.2279 7.44851Z" fill="#00D845"/>
</g>
<g filter="url(#filter1_d_28_2660)">
<path d="M32.2729 20.4336V17.4766H32.8003C32.98 17.3255 33.1479 17.1107 33.3042 16.832C33.4604 16.5534 33.5933 16.1771 33.7026 15.7031C33.812 15.2292 33.8875 14.6211 33.9292 13.8789L34.1167 10.5H39.0503V17.4766H39.9565V20.4219H38.8003V18.5H33.4292V20.4336H32.2729ZM34.2222 17.4766H37.894V11.5391H35.2104L35.0854 13.8789C35.0516 14.444 34.9956 14.9518 34.9175 15.4023C34.842 15.8529 34.7443 16.2513 34.6245 16.5977C34.5073 16.9414 34.3732 17.2344 34.2222 17.4766ZM43.7124 18.6211C43.1499 18.6211 42.659 18.4922 42.2397 18.2344C41.8205 17.9766 41.495 17.6159 41.2632 17.1523C41.0314 16.6888 40.9155 16.1471 40.9155 15.5273C40.9155 14.9049 41.0314 14.3607 41.2632 13.8945C41.495 13.4284 41.8205 13.0664 42.2397 12.8086C42.659 12.5508 43.1499 12.4219 43.7124 12.4219C44.2749 12.4219 44.7658 12.5508 45.1851 12.8086C45.6043 13.0664 45.9298 13.4284 46.1616 13.8945C46.3934 14.3607 46.5093 14.9049 46.5093 15.5273C46.5093 16.1471 46.3934 16.6888 46.1616 17.1523C45.9298 17.6159 45.6043 17.9766 45.1851 18.2344C44.7658 18.4922 44.2749 18.6211 43.7124 18.6211ZM43.7163 17.6406C44.0809 17.6406 44.383 17.5443 44.6226 17.3516C44.8621 17.1589 45.0392 16.9023 45.1538 16.582C45.271 16.2617 45.3296 15.9089 45.3296 15.5234C45.3296 15.1406 45.271 14.7891 45.1538 14.4687C45.0392 14.1458 44.8621 13.8867 44.6226 13.6914C44.383 13.4961 44.0809 13.3984 43.7163 13.3984C43.3491 13.3984 43.0444 13.4961 42.8022 13.6914C42.5627 13.8867 42.3843 14.1458 42.2671 14.4687C42.1525 14.7891 42.0952 15.1406 42.0952 15.5234C42.0952 15.9089 42.1525 16.2617 42.2671 16.582C42.3843 16.9023 42.5627 17.1589 42.8022 17.3516C43.0444 17.5443 43.3491 17.6406 43.7163 17.6406ZM50.3403 18.6211C49.7596 18.6211 49.2596 18.4896 48.8403 18.2266C48.4237 17.9609 48.1033 17.595 47.8794 17.1289C47.6554 16.6628 47.5435 16.1289 47.5435 15.5273C47.5435 14.918 47.658 14.3802 47.8872 13.9141C48.1164 13.4453 48.4393 13.0794 48.856 12.8164C49.2726 12.5534 49.7635 12.4219 50.3286 12.4219C50.7843 12.4219 51.1906 12.5065 51.5474 12.6758C51.9041 12.8424 52.1919 13.0768 52.4106 13.3789C52.632 13.681 52.7635 14.0339 52.8052 14.4375H51.6685C51.606 14.1562 51.4627 13.9141 51.2388 13.7109C51.0174 13.5078 50.7205 13.4062 50.3481 13.4062C50.0226 13.4062 49.7375 13.4922 49.4927 13.6641C49.2505 13.8333 49.0617 14.0755 48.9263 14.3906C48.7908 14.7031 48.7231 15.0729 48.7231 15.5C48.7231 15.9375 48.7895 16.3151 48.9224 16.6328C49.0552 16.9505 49.2427 17.1966 49.4849 17.3711C49.7296 17.5456 50.0174 17.6328 50.3481 17.6328C50.5695 17.6328 50.77 17.5924 50.9497 17.5117C51.132 17.4284 51.2843 17.3099 51.4067 17.1562C51.5317 17.0026 51.619 16.8177 51.6685 16.6016H52.8052C52.7635 16.9896 52.6372 17.3359 52.4263 17.6406C52.2153 17.9453 51.9328 18.1849 51.5786 18.3594C51.227 18.5339 50.8143 18.6211 50.3403 18.6211ZM53.6001 13.5078V12.5H58.6626V13.5078H56.7056V18.5H55.5649V13.5078H53.6001ZM60.6362 20.75C60.4617 20.75 60.3029 20.7357 60.1597 20.707C60.0164 20.681 59.9097 20.6523 59.8393 20.6211L60.1206 19.6641C60.3341 19.7214 60.5242 19.7461 60.6909 19.7383C60.8576 19.7305 61.0047 19.668 61.1323 19.5508C61.2625 19.4336 61.3771 19.2422 61.4761 18.9766L61.6206 18.5781L59.4253 12.5H60.6753L62.1948 17.1562H62.2573L63.7768 12.5H65.0308L62.5581 19.3008C62.4435 19.6133 62.2977 19.8776 62.1206 20.0937C61.9435 20.3125 61.7326 20.4766 61.4878 20.5859C61.243 20.6953 60.9591 20.75 60.6362 20.75ZM66.1284 18.5V12.5H71.0229V18.5H69.8784V13.5078H67.2651V18.5H66.1284ZM75.1704 18.6211C74.5793 18.6211 74.0701 18.4948 73.6431 18.2422C73.2186 17.987 72.8905 17.6289 72.6587 17.168C72.4295 16.7044 72.3149 16.1615 72.3149 15.5391C72.3149 14.9245 72.4295 14.3828 72.6587 13.9141C72.8905 13.4453 73.2134 13.0794 73.6274 12.8164C74.0441 12.5534 74.5311 12.4219 75.0884 12.4219C75.4269 12.4219 75.755 12.4779 76.0727 12.5898C76.3904 12.7018 76.6756 12.8776 76.9282 13.1172C77.1808 13.3568 77.38 13.668 77.5259 14.0508C77.6717 14.431 77.7446 14.8932 77.7446 15.4375V15.8516H72.9751V14.9766H76.6001C76.6001 14.6693 76.5376 14.3971 76.4126 14.1602C76.2876 13.9206 76.1118 13.7318 75.8852 13.5937C75.6613 13.4557 75.3983 13.3867 75.0962 13.3867C74.7681 13.3867 74.4816 13.4674 74.2368 13.6289C73.9946 13.7878 73.8071 13.9961 73.6743 14.2539C73.5441 14.5091 73.479 14.7865 73.479 15.0859V15.7695C73.479 16.1706 73.5493 16.5117 73.6899 16.793C73.8332 17.0742 74.0324 17.2891 74.2876 17.4375C74.5428 17.5833 74.841 17.6562 75.1821 17.6562C75.4035 17.6562 75.6053 17.625 75.7876 17.5625C75.9699 17.4974 76.1274 17.401 76.2602 17.2734C76.3931 17.1458 76.4946 16.9883 76.5649 16.8008L77.6704 17C77.5819 17.3255 77.423 17.6107 77.1938 17.8555C76.9673 18.0977 76.6821 18.2865 76.3384 18.4219C75.9972 18.5547 75.6079 18.6211 75.1704 18.6211ZM83.1069 14.9961V16.0078H79.8569V14.9961H83.1069ZM80.185 12.5V18.5H79.0405V12.5H80.185ZM83.9233 12.5V18.5H82.7827V12.5H83.9233ZM88.397 18.5V12.5H90.8852C91.5623 12.5 92.0988 12.6445 92.4946 12.9336C92.8904 13.2201 93.0884 13.6094 93.0884 14.1016C93.0884 14.4531 92.9764 14.7318 92.7524 14.9375C92.5285 15.1432 92.2316 15.2812 91.8618 15.3516C92.13 15.3828 92.3761 15.4635 92.6001 15.5937C92.824 15.7214 93.0037 15.8932 93.1391 16.1094C93.2772 16.3255 93.3462 16.5833 93.3462 16.8828C93.3462 17.2005 93.2641 17.4818 93.1001 17.7266C92.936 17.9687 92.6977 18.1589 92.3852 18.2969C92.0753 18.4323 91.7016 18.5 91.2641 18.5H88.397ZM89.4946 17.5234H91.2641C91.5532 17.5234 91.7798 17.4544 91.9438 17.3164C92.1079 17.1784 92.1899 16.9909 92.1899 16.7539C92.1899 16.4753 92.1079 16.2565 91.9438 16.0977C91.7798 15.9362 91.5532 15.8555 91.2641 15.8555H89.4946V17.5234ZM89.4946 15H90.897C91.1157 15 91.3032 14.9687 91.4595 14.9062C91.6183 14.8437 91.7394 14.7552 91.8227 14.6406C91.9087 14.5234 91.9516 14.3854 91.9516 14.2266C91.9516 13.9948 91.8566 13.8138 91.6665 13.6836C91.4764 13.5534 91.216 13.4883 90.8852 13.4883H89.4946V15Z" fill="#E8E8E8"/>
<path d="M97.16 9.77273H99.7722L101.988 15.1761H102.09L104.306 9.77273H106.919V18.5H104.865V13.1392H104.792L102.696 18.4446H101.383L99.2864 13.1094H99.214V18.5H97.16V9.77273ZM111.29 18.6236C110.602 18.6236 110.011 18.483 109.517 18.2017C109.025 17.9176 108.646 17.5227 108.379 17.017C108.115 16.5085 107.983 15.919 107.983 15.2486C107.983 14.5753 108.115 13.9858 108.379 13.4801C108.646 12.9716 109.025 12.5767 109.517 12.2955C110.011 12.0114 110.602 11.8693 111.29 11.8693C111.977 11.8693 112.567 12.0114 113.058 12.2955C113.552 12.5767 113.932 12.9716 114.196 13.4801C114.463 13.9858 114.596 14.5753 114.596 15.2486C114.596 15.919 114.463 16.5085 114.196 17.017C113.932 17.5227 113.552 17.9176 113.058 18.2017C112.567 18.483 111.977 18.6236 111.29 18.6236ZM111.302 17.0511C111.552 17.0511 111.764 16.9744 111.937 16.821C112.111 16.6676 112.243 16.4545 112.334 16.1818C112.427 15.9091 112.474 15.5937 112.474 15.2358C112.474 14.8722 112.427 14.554 112.334 14.2812C112.243 14.0085 112.111 13.7955 111.937 13.642C111.764 13.4886 111.552 13.4119 111.302 13.4119C111.044 13.4119 110.825 13.4886 110.646 13.642C110.47 13.7955 110.335 14.0085 110.241 14.2812C110.15 14.554 110.105 14.8722 110.105 15.2358C110.105 15.5937 110.15 15.9091 110.241 16.1818C110.335 16.4545 110.47 16.6676 110.646 16.821C110.825 16.9744 111.044 17.0511 111.302 17.0511ZM118.055 18.5937C117.572 18.5937 117.133 18.4687 116.738 18.2187C116.343 17.9687 116.028 17.5937 115.792 17.0937C115.556 16.5937 115.438 15.973 115.438 15.2315C115.438 14.4616 115.56 13.8281 115.805 13.331C116.049 12.8338 116.368 12.4659 116.763 12.2273C117.161 11.9886 117.589 11.8693 118.046 11.8693C118.39 11.8693 118.684 11.929 118.928 12.0483C119.172 12.1648 119.374 12.3153 119.533 12.5C119.692 12.6847 119.813 12.8764 119.895 13.0753H119.938V9.77273H122.022V18.5H119.959V17.4389H119.895C119.807 17.6406 119.682 17.8295 119.52 18.0057C119.359 18.1818 119.155 18.3239 118.911 18.4318C118.67 18.5398 118.384 18.5937 118.055 18.5937ZM118.779 16.9702C119.032 16.9702 119.248 16.8991 119.427 16.7571C119.606 16.6122 119.743 16.4091 119.84 16.1477C119.937 15.8864 119.985 15.5795 119.985 15.2273C119.985 14.8693 119.937 14.5611 119.84 14.3026C119.746 14.044 119.609 13.8452 119.427 13.706C119.248 13.5668 119.032 13.4972 118.779 13.4972C118.52 13.4972 118.302 13.5682 118.123 13.7102C117.944 13.8523 117.807 14.0526 117.714 14.3111C117.623 14.5696 117.577 14.875 117.577 15.2273C117.577 15.5795 117.624 15.8864 117.718 16.1477C117.812 16.4091 117.947 16.6122 118.123 16.7571C118.302 16.8991 118.52 16.9702 118.779 16.9702ZM123.34 18.5V11.9545H125.364V13.1477H125.432C125.551 12.7159 125.746 12.3949 126.016 12.1847C126.286 11.9716 126.6 11.8651 126.958 11.8651C127.054 11.8651 127.154 11.8722 127.256 11.8864C127.358 11.8977 127.453 11.9162 127.541 11.9418V13.7528C127.442 13.7187 127.311 13.6918 127.149 13.6719C126.99 13.652 126.848 13.642 126.723 13.642C126.476 13.642 126.253 13.6974 126.054 13.8082C125.858 13.9162 125.703 14.0682 125.59 14.2642C125.479 14.4574 125.424 14.6847 125.424 14.946V18.5H123.34ZM128.39 18.5V11.9545H130.474V18.5H128.39ZM129.435 11.1918C129.142 11.1918 128.89 11.0952 128.68 10.902C128.47 10.706 128.365 10.4702 128.365 10.1946C128.365 9.92187 128.47 9.68892 128.68 9.49574C128.89 9.29971 129.142 9.2017 129.435 9.2017C129.73 9.2017 129.981 9.29971 130.189 9.49574C130.399 9.68892 130.504 9.92187 130.504 10.1946C130.504 10.4702 130.399 10.706 130.189 10.902C129.981 11.0952 129.73 11.1918 129.435 11.1918ZM133.884 14.767V18.5H131.801V11.9545H133.782V13.1562H133.855C134 12.7557 134.247 12.4418 134.596 12.2145C134.946 11.9844 135.362 11.8693 135.845 11.8693C136.305 11.8693 136.704 11.973 137.042 12.1804C137.383 12.3849 137.647 12.6719 137.835 13.0412C138.025 13.4077 138.119 13.8366 138.116 14.3281V18.5H136.032V14.7372C136.035 14.3736 135.943 14.0895 135.755 13.8849C135.571 13.6804 135.313 13.5781 134.984 13.5781C134.765 13.5781 134.572 13.6264 134.404 13.723C134.24 13.8168 134.112 13.9517 134.021 14.1278C133.933 14.304 133.887 14.517 133.884 14.767ZM143.101 11.9545V13.4886H138.971V11.9545H143.101ZM139.837 10.3864H141.92V16.4418C141.92 16.5696 141.94 16.6733 141.98 16.7528C142.023 16.8295 142.084 16.8849 142.163 16.919C142.243 16.9503 142.338 16.9659 142.449 16.9659C142.528 16.9659 142.612 16.9588 142.7 16.9446C142.791 16.9276 142.859 16.9133 142.905 16.902L143.22 18.4062C143.121 18.4347 142.98 18.4702 142.798 18.5128C142.619 18.5554 142.405 18.5824 142.155 18.5937C141.666 18.6165 141.247 18.5597 140.898 18.4233C140.551 18.2841 140.285 18.0682 140.101 17.7756C139.919 17.483 139.831 17.1151 139.837 16.6719V10.3864ZM146.388 14.767V18.5H144.305V9.77273H146.32V13.1562H146.393C146.54 12.7528 146.782 12.4375 147.117 12.2102C147.455 11.983 147.868 11.8693 148.357 11.8693C148.817 11.8693 149.218 11.9716 149.559 12.1761C149.9 12.3778 150.164 12.6634 150.351 13.0327C150.542 13.402 150.636 13.8338 150.633 14.3281V18.5H148.549V14.7372C148.552 14.3736 148.461 14.0895 148.276 13.8849C148.091 13.6804 147.832 13.5781 147.496 13.5781C147.278 13.5781 147.084 13.6264 146.917 13.723C146.752 13.8168 146.623 13.9517 146.529 14.1278C146.438 14.304 146.391 14.517 146.388 14.767Z" fill="#00D845"/>
</g>
</g>
<rect x="0.749512" y="0.75" width="156" height="26.5" rx="5.25" stroke="white" stroke-opacity="0.15" stroke-width="1.5"/>
<defs>
<filter id="filter0_d_28_2660" x="1.99951" y="0" width="28" height="28" filterUnits="userSpaceOnUse" color-interpolation-filters="sRGB">
<feFlood flood-opacity="0" result="BackgroundImageFix"/>
<feColorMatrix in="SourceAlpha" type="matrix" values="0 0 0 0 0 0 0 0 0 0 0 0 0 0 0 0 0 0 127 0" result="hardAlpha"/>
<feOffset/>
<feGaussianBlur stdDeviation="2"/>
<feComposite in2="hardAlpha" operator="out"/>
<feColorMatrix type="matrix" values="0 0 0 0 0 0 0 0 0 0 0 0 0 0 0 0 0 0 0.25 0"/>
<feBlend mode="normal" in2="BackgroundImageFix" result="effect1_dropShadow_28_2660"/>
<feBlend mode="normal" in="SourceGraphic" in2="effect1_dropShadow_28_2660" result="shape"/>
</filter>
<filter id="filter1_d_28_2660" x="27.9995" y="3.5" width="127.5" height="21.25" filterUnits="userSpaceOnUse" color-interpolation-filters="sRGB">
<feFlood flood-opacity="0" result="BackgroundImageFix"/>
<feColorMatrix in="SourceAlpha" type="matrix" values="0 0 0 0 0 0 0 0 0 0 0 0 0 0 0 0 0 0 127 0" result="hardAlpha"/>
<feOffset/>
<feGaussianBlur stdDeviation="2"/>
<feComposite in2="hardAlpha" operator="out"/>
<feColorMatrix type="matrix" values="0 0 0 0 0 0 0 0 0 0 0 0 0 0 0 0 0 0 0.25 0"/>
<feBlend mode="normal" in2="BackgroundImageFix" result="effect1_dropShadow_28_2660"/>
<feBlend mode="normal" in="SourceGraphic" in2="effect1_dropShadow_28_2660" result="shape"/>
</filter>
<linearGradient id="paint0_linear_28_2660" x1="78.7495" y1="0" x2="78.7495" y2="28" gradientUnits="userSpaceOnUse">
<stop stop-color="#072C13"/>
<stop offset="1" stop-color="#041C0B"/>
</linearGradient>
<clipPath id="clip0_28_2660">
<rect x="-0.000488281" width="157.5" height="28" rx="6" fill="white"/>
</clipPath>
</defs>
</svg>
