<svg width="159" height="28" viewBox="0 0 159 28" fill="none" xmlns="http://www.w3.org/2000/svg">
<g clip-path="url(#clip0_28_2660)">
<rect x="-0.000488281" width="158.5" height="28" rx="6" fill="url(#paint0_linear_28_2660)"/>
<g filter="url(#filter0_d_28_2660)">
<path d="M15.005 4.05673C11.5544 4.39947 8.5585 6.46924 7.00706 9.58503C6.48991 10.6221 6.14217 11.815 6.02626 12.9456L5.99951 13.2038H6.89115C7.38154 13.2038 7.78278 13.1904 7.78724 13.1682C7.83628 12.4426 8.15727 11.3032 8.54513 10.4886C9.9227 7.60428 12.7893 5.79267 15.9635 5.79267C17.3099 5.79267 18.4512 6.05528 19.6192 6.63393C20.9478 7.2927 22.0133 8.22743 22.8291 9.44259C23.1902 9.98118 23.6895 10.9649 23.6271 11.0183C23.6048 11.0405 23.2482 11.1474 22.838 11.2542L22.089 11.4545L21.8929 11.0717C21.2598 9.80758 20.2032 8.74821 18.955 8.12061C18.5047 7.8936 18.041 7.72 17.9697 7.74671C17.9385 7.75561 17.8984 7.86244 17.885 7.98262C17.8672 8.09835 17.8181 8.40548 17.7691 8.66364C17.7245 8.92181 17.6755 9.20668 17.6621 9.2957L17.6309 9.46039L18.0098 9.63844C19.3116 10.2438 20.2523 11.3655 20.6491 12.7809C20.765 13.1904 20.7783 13.2839 20.7783 14.005C20.7783 14.7261 20.765 14.8195 20.6491 15.2291C20.4128 16.0659 19.9937 16.8047 19.4186 17.3834C19.0887 17.7172 18.6028 18.0778 18.2506 18.2603C18.1302 18.3181 18.0366 18.3938 18.0366 18.425C18.041 18.5006 18.4646 20.0585 18.4958 20.0852C18.5359 20.1253 19.2893 19.7247 19.7307 19.4309C20.2835 19.0615 21.0503 18.2959 21.4203 17.7439C21.9375 16.9694 22.2585 16.2261 22.4591 15.3359C22.5438 14.9442 22.5616 14.7439 22.5616 14.0183C22.5616 13.2973 22.5705 13.1593 22.6285 13.1459C23.1724 12.9901 24.1131 12.7587 24.1309 12.772C24.1621 12.8076 24.2111 13.551 24.2111 14.005C24.2111 14.6192 24.1532 15.2201 24.0551 15.6519C24.0105 15.8567 23.9749 16.0303 23.9793 16.0347C23.9838 16.0436 24.3583 16.1771 24.8085 16.3418C25.4327 16.5688 25.6378 16.6267 25.6645 16.5822C25.7358 16.462 25.9275 15.2869 25.9766 14.6593C26.0791 13.2572 25.8339 11.6459 25.3212 10.3773C23.8768 6.80307 20.7204 4.42617 16.922 4.05673C16.1597 3.98106 15.7584 3.98106 15.005 4.05673Z" fill="#00D845"/>
<path d="M15.2279 7.44851C14.9025 7.47966 14.1758 7.65326 13.8058 7.78234C11.9824 8.4233 10.48 9.88772 9.80233 11.6904C9.27627 13.0836 9.25843 14.8329 9.75775 16.1994L9.8692 16.5021L9.45905 16.738C8.63875 17.2143 8.49163 17.2988 8.46042 17.2988C8.4203 17.2988 8.22414 16.8048 8.09931 16.3864C7.95665 15.8878 7.80507 15.1668 7.78724 14.8374C7.78278 14.8196 7.38154 14.8062 6.89115 14.8062H5.99951L6.02626 15.0599C6.26254 17.3612 7.32359 19.5333 9.01323 21.1758C12.9765 25.0215 19.3027 24.9281 23.1679 20.9666C23.6762 20.4413 24.1799 19.7959 24.5366 19.2084C24.8442 18.6965 25.0805 18.2158 25.0448 18.1802C25.027 18.1624 24.813 18.0778 24.5678 17.9888C24.3226 17.8997 23.9927 17.7796 23.8322 17.7262C23.6717 17.6683 23.5112 17.606 23.4755 17.5926C23.4265 17.5748 23.3641 17.6505 23.2393 17.8908C22.4903 19.3508 21.0904 20.6772 19.5078 21.4339C18.1569 22.0749 16.7838 22.3153 15.1566 22.1862C13.565 22.0615 11.7907 21.2782 10.5023 20.1342C10.1367 19.8093 9.60617 19.2395 9.40555 18.9547C9.33868 18.8567 9.30302 18.8834 10.3373 18.2825L10.7252 18.0555L11.2735 18.603C12.2543 19.5867 13.3065 20.1654 14.6528 20.468C15.0496 20.5526 15.2413 20.5704 15.9724 20.5704C16.4405 20.5704 16.8373 20.5571 16.8507 20.5437C16.8685 20.5304 16.7972 20.2188 16.6991 19.8538C16.601 19.4888 16.4985 19.1105 16.4718 19.0081L16.4227 18.8256L15.7941 18.7989C14.6082 18.7499 13.6676 18.376 12.7848 17.6015C12.6377 17.4724 12.4728 17.3122 12.4237 17.2499L12.3346 17.1342L13.3198 16.5644L14.3095 15.9991L15.3438 17.0941L16.5342 16.8493L17.7245 16.6089L19.3294 15.0065L19.1868 14.4813C19.0976 14.1474 19.0263 13.9605 18.9906 13.9605C18.955 13.9605 18.5938 14.0495 18.1837 14.1608L17.4347 14.3656L17.1226 14.6682C16.7838 14.9976 16.8329 14.9843 16.0973 15.051L15.8298 15.0777L15.5088 14.7617C15.3305 14.5926 15.1833 14.4412 15.1833 14.4323C15.1833 14.419 15.1343 14.232 15.0763 14.0095L14.9693 13.6044L15.2591 13.2172C15.4196 12.9991 15.5578 12.821 15.5667 12.8121C15.5712 12.8032 15.7629 12.7453 15.9947 12.6875L16.4093 12.5807L16.9755 12.0154C17.2921 11.7038 17.5462 11.4278 17.5462 11.4011C17.5462 11.3744 17.3768 11.1875 17.1717 10.9827L16.7972 10.6133L15.7139 10.907L14.6261 11.2008L14.4032 11.4323C14.2828 11.5613 14.0287 11.8373 13.8459 12.0465C13.6631 12.2513 13.4313 12.5139 13.3332 12.6252C12.9543 13.0525 12.9676 12.9234 13.2039 13.7335C13.3154 14.1296 13.4045 14.4635 13.3956 14.4679C13.3733 14.4857 12.4505 15.0243 11.8798 15.3448C11.6658 15.465 11.4741 15.5629 11.4474 15.5629C11.4251 15.5629 11.3582 15.376 11.3003 15.149C11.2067 14.7973 11.1933 14.6371 11.1933 13.9828C11.1977 13.2928 11.2067 13.186 11.3226 12.781C11.5633 11.9263 11.9779 11.2097 12.5753 10.6133C13.3956 9.79425 14.4745 9.29127 15.5712 9.2156C16.0349 9.17999 15.9992 9.2156 16.075 8.73043C16.1017 8.55684 16.1418 8.33873 16.1641 8.24081C16.1864 8.14288 16.2132 7.98264 16.2266 7.88472C16.2444 7.78679 16.2667 7.6399 16.2801 7.55978L16.3068 7.41735L15.8476 7.42625C15.5935 7.42625 15.3126 7.4396 15.2279 7.44851Z" fill="#00D845"/>
</g>
<g filter="url(#filter1_d_28_2660)">
<path d="M39.5229 13.1016H38.3042C38.2573 12.8411 38.1701 12.612 38.0425 12.4141C37.9149 12.2161 37.7586 12.0482 37.5737 11.9102C37.3888 11.7721 37.1818 11.668 36.9526 11.5977C36.7261 11.5273 36.4852 11.4922 36.23 11.4922C35.769 11.4922 35.3563 11.6081 34.9917 11.8398C34.6297 12.0716 34.3433 12.4115 34.1323 12.8594C33.924 13.3073 33.8198 13.8542 33.8198 14.5C33.8198 15.151 33.924 15.7005 34.1323 16.1484C34.3433 16.5964 34.631 16.9349 34.9956 17.1641C35.3602 17.3932 35.7703 17.5078 36.2261 17.5078C36.4787 17.5078 36.7183 17.474 36.9448 17.4062C37.174 17.3359 37.381 17.2331 37.5659 17.0977C37.7508 16.9622 37.9071 16.7969 38.0347 16.6016C38.1649 16.4036 38.2547 16.1771 38.3042 15.9219L39.5229 15.9258C39.4578 16.319 39.3315 16.681 39.144 17.0117C38.9591 17.3398 38.7209 17.6237 38.4292 17.8633C38.1401 18.1003 37.8094 18.2839 37.437 18.4141C37.0646 18.5443 36.6584 18.6094 36.2183 18.6094C35.5256 18.6094 34.9084 18.4453 34.3667 18.1172C33.825 17.7865 33.3979 17.3138 33.0854 16.6992C32.7756 16.0846 32.6206 15.3516 32.6206 14.5C32.6206 13.6458 32.7769 12.9128 33.0894 12.3008C33.4019 11.6862 33.8289 11.2148 34.3706 10.8867C34.9123 10.556 35.5282 10.3906 36.2183 10.3906C36.6427 10.3906 37.0386 10.4518 37.4058 10.5742C37.7756 10.694 38.1076 10.8711 38.4019 11.1055C38.6961 11.3372 38.9396 11.6211 39.1323 11.957C39.325 12.2904 39.4552 12.6719 39.5229 13.1016ZM40.5376 13.5078V12.5H45.6001V13.5078H43.6431V18.5H42.5024V13.5078H40.5376ZM46.8354 20.75V12.5H47.9761V13.4727H48.0737C48.1414 13.3477 48.2391 13.2031 48.3667 13.0391C48.4943 12.875 48.6714 12.7318 48.8979 12.6094C49.1245 12.4844 49.424 12.4219 49.7964 12.4219C50.2808 12.4219 50.713 12.5443 51.0933 12.7891C51.4735 13.0339 51.7716 13.3867 51.9878 13.8477C52.2065 14.3086 52.3159 14.8633 52.3159 15.5117C52.3159 16.1602 52.2078 16.7161 51.9917 17.1797C51.7755 17.6406 51.4787 17.9961 51.1011 18.2461C50.7235 18.4935 50.2925 18.6172 49.8081 18.6172C49.4435 18.6172 49.1453 18.556 48.9136 18.4336C48.6844 18.3112 48.5047 18.168 48.3745 18.0039C48.2443 17.8398 48.144 17.694 48.0737 17.5664H48.0034V20.75H46.8354ZM47.98 15.5C47.98 15.9219 48.0412 16.2917 48.1636 16.6094C48.286 16.9271 48.463 17.1758 48.6948 17.3555C48.9266 17.5325 49.2104 17.6211 49.5464 17.6211C49.8953 17.6211 50.187 17.5286 50.4214 17.3437C50.6558 17.1562 50.8328 16.9023 50.9526 16.582C51.075 16.2617 51.1362 15.901 51.1362 15.5C51.1362 15.1042 51.0763 14.7487 50.9565 14.4336C50.8394 14.1185 50.6623 13.8698 50.4253 13.6875C50.1909 13.5052 49.8979 13.4141 49.5464 13.4141C49.2078 13.4141 48.9214 13.5013 48.687 13.6758C48.4552 13.8503 48.2795 14.0937 48.1597 14.4062C48.0399 14.7187 47.98 15.0833 47.98 15.5ZM55.3706 18.6328C54.9904 18.6328 54.6466 18.5625 54.3393 18.4219C54.0321 18.2786 53.7886 18.0716 53.6089 17.8008C53.4318 17.5299 53.3433 17.1979 53.3433 16.8047C53.3433 16.4661 53.4084 16.1875 53.5386 15.9687C53.6688 15.75 53.8446 15.5768 54.0659 15.4492C54.2873 15.3216 54.5347 15.2253 54.8081 15.1602C55.0815 15.095 55.3602 15.0456 55.644 15.0117C56.0034 14.97 56.2951 14.9362 56.519 14.9102C56.743 14.8815 56.9058 14.8359 57.0073 14.7734C57.1089 14.7109 57.1597 14.6094 57.1597 14.4687V14.4414C57.1597 14.1003 57.0633 13.8359 56.8706 13.6484C56.6805 13.4609 56.3966 13.3672 56.019 13.3672C55.6258 13.3672 55.3159 13.4544 55.0893 13.6289C54.8654 13.8008 54.7104 13.9922 54.6245 14.2031L53.5268 13.9531C53.6571 13.5885 53.8472 13.2943 54.0972 13.0703C54.3498 12.8437 54.6401 12.6797 54.9683 12.5781C55.2964 12.474 55.6414 12.4219 56.0034 12.4219C56.243 12.4219 56.4969 12.4505 56.7651 12.5078C57.036 12.5625 57.2886 12.6641 57.5229 12.8125C57.7599 12.9609 57.9539 13.1732 58.105 13.4492C58.256 13.7227 58.3315 14.0781 58.3315 14.5156V18.5H57.1909V17.6797H57.144C57.0685 17.8307 56.9552 17.9792 56.8042 18.125C56.6532 18.2708 56.4591 18.3919 56.2222 18.4883C55.9852 18.5846 55.7013 18.6328 55.3706 18.6328ZM55.6245 17.6953C55.9474 17.6953 56.2235 17.6315 56.4526 17.5039C56.6844 17.3763 56.8602 17.2096 56.98 17.0039C57.1024 16.7956 57.1636 16.5729 57.1636 16.3359V15.5625C57.1219 15.6042 57.0412 15.6432 56.9214 15.6797C56.8042 15.7135 56.6701 15.7435 56.519 15.7695C56.368 15.793 56.2209 15.8151 56.0776 15.8359C55.9344 15.8542 55.8146 15.8698 55.7183 15.8828C55.4917 15.9115 55.2847 15.9596 55.0972 16.0273C54.9123 16.095 54.7638 16.1927 54.6518 16.3203C54.5425 16.4453 54.4878 16.612 54.4878 16.8203C54.4878 17.1094 54.5946 17.3281 54.8081 17.4766C55.0216 17.6224 55.2938 17.6953 55.6245 17.6953ZM63.9536 14.9961V16.0078H60.7036V14.9961H63.9536ZM61.0317 12.5V18.5H59.8872V12.5H61.0317ZM64.77 12.5V18.5H63.6294V12.5H64.77ZM67.477 16.8633L70.1216 12.5H71.3794V18.5H70.2349V14.1328L67.602 18.5H66.3325V12.5H67.477V16.8633ZM77.8442 12.5V17.543H78.7231V20.4336H77.5708V18.5H72.9497V12.5H74.0942V17.4922H76.7036V12.5H77.8442ZM81.7641 18.6328C81.3839 18.6328 81.0402 18.5625 80.7329 18.4219C80.4256 18.2786 80.1821 18.0716 80.0024 17.8008C79.8253 17.5299 79.7368 17.1979 79.7368 16.8047C79.7368 16.4661 79.8019 16.1875 79.9321 15.9687C80.0623 15.75 80.2381 15.5768 80.4595 15.4492C80.6808 15.3216 80.9282 15.2253 81.2016 15.1602C81.4751 15.095 81.7537 15.0456 82.0376 15.0117C82.397 14.97 82.6886 14.9362 82.9126 14.9102C83.1365 14.8815 83.2993 14.8359 83.4009 14.7734C83.5024 14.7109 83.5532 14.6094 83.5532 14.4687V14.4414C83.5532 14.1003 83.4569 13.8359 83.2641 13.6484C83.074 13.4609 82.7902 13.3672 82.4126 13.3672C82.0194 13.3672 81.7095 13.4544 81.4829 13.6289C81.2589 13.8008 81.104 13.9922 81.0181 14.2031L79.9204 13.9531C80.0506 13.5885 80.2407 13.2943 80.4907 13.0703C80.7433 12.8437 81.0337 12.6797 81.3618 12.5781C81.6899 12.474 82.035 12.4219 82.397 12.4219C82.6365 12.4219 82.8904 12.4505 83.1587 12.5078C83.4295 12.5625 83.6821 12.6641 83.9165 12.8125C84.1535 12.9609 84.3475 13.1732 84.4985 13.4492C84.6496 13.7227 84.7251 14.0781 84.7251 14.5156V18.5H83.5845V17.6797H83.5376C83.4621 17.8307 83.3488 17.9792 83.1977 18.125C83.0467 18.2708 82.8527 18.3919 82.6157 18.4883C82.3787 18.5846 82.0949 18.6328 81.7641 18.6328ZM82.0181 17.6953C82.341 17.6953 82.617 17.6315 82.8462 17.5039C83.0779 17.3763 83.2537 17.2096 83.3735 17.0039C83.4959 16.7956 83.5571 16.5729 83.5571 16.3359V15.5625C83.5154 15.6042 83.4347 15.6432 83.3149 15.6797C83.1977 15.7135 83.0636 15.7435 82.9126 15.7695C82.7615 15.793 82.6144 15.8151 82.4712 15.8359C82.3279 15.8542 82.2082 15.8698 82.1118 15.8828C81.8852 15.9115 81.6782 15.9596 81.4907 16.0273C81.3058 16.095 81.1574 16.1927 81.0454 16.3203C80.936 16.4453 80.8813 16.612 80.8813 16.8203C80.8813 17.1094 80.9881 17.3281 81.2016 17.4766C81.4152 17.6224 81.6873 17.6953 82.0181 17.6953ZM89.1919 18.5V12.5H91.6802C92.3572 12.5 92.8937 12.6445 93.2895 12.9336C93.6854 13.2201 93.8833 13.6094 93.8833 14.1016C93.8833 14.4531 93.7713 14.7318 93.5473 14.9375C93.3234 15.1432 93.0265 15.2812 92.6567 15.3516C92.9249 15.3828 93.171 15.4635 93.395 15.5937C93.619 15.7214 93.7986 15.8932 93.9341 16.1094C94.0721 16.3255 94.1411 16.5833 94.1411 16.8828C94.1411 17.2005 94.0591 17.4818 93.895 17.7266C93.7309 17.9687 93.4927 18.1589 93.1802 18.2969C92.8703 18.4323 92.4966 18.5 92.0591 18.5H89.1919ZM90.2895 17.5234H92.0591C92.3481 17.5234 92.5747 17.4544 92.7388 17.3164C92.9028 17.1784 92.9848 16.9909 92.9848 16.7539C92.9848 16.4753 92.9028 16.2565 92.7388 16.0977C92.5747 15.9362 92.3481 15.8555 92.0591 15.8555H90.2895V17.5234ZM90.2895 15H91.6919C91.9106 15 92.0981 14.9687 92.2544 14.9062C92.4132 14.8437 92.5343 14.7552 92.6177 14.6406C92.7036 14.5234 92.7466 14.3854 92.7466 14.2266C92.7466 13.9948 92.6515 13.8138 92.4614 13.6836C92.2713 13.5534 92.0109 13.4883 91.6802 13.4883H90.2895V15Z" fill="#E8E8E8"/>
<path d="M98.16 9.77273H100.772L102.988 15.1761H103.09L105.306 9.77273H107.919V18.5H105.865V13.1392H105.792L103.696 18.4446H102.383L100.286 13.1094H100.214V18.5H98.16V9.77273ZM112.29 18.6236C111.602 18.6236 111.011 18.483 110.517 18.2017C110.025 17.9176 109.646 17.5227 109.379 17.017C109.115 16.5085 108.983 15.919 108.983 15.2486C108.983 14.5753 109.115 13.9858 109.379 13.4801C109.646 12.9716 110.025 12.5767 110.517 12.2955C111.011 12.0114 111.602 11.8693 112.29 11.8693C112.977 11.8693 113.567 12.0114 114.058 12.2955C114.552 12.5767 114.932 12.9716 115.196 13.4801C115.463 13.9858 115.596 14.5753 115.596 15.2486C115.596 15.919 115.463 16.5085 115.196 17.017C114.932 17.5227 114.552 17.9176 114.058 18.2017C113.567 18.483 112.977 18.6236 112.29 18.6236ZM112.302 17.0511C112.552 17.0511 112.764 16.9744 112.937 16.821C113.111 16.6676 113.243 16.4545 113.334 16.1818C113.427 15.9091 113.474 15.5937 113.474 15.2358C113.474 14.8722 113.427 14.554 113.334 14.2812C113.243 14.0085 113.111 13.7955 112.937 13.642C112.764 13.4886 112.552 13.4119 112.302 13.4119C112.044 13.4119 111.825 13.4886 111.646 13.642C111.47 13.7955 111.335 14.0085 111.241 14.2812C111.15 14.554 111.105 14.8722 111.105 15.2358C111.105 15.5937 111.15 15.9091 111.241 16.1818C111.335 16.4545 111.47 16.6676 111.646 16.821C111.825 16.9744 112.044 17.0511 112.302 17.0511ZM119.055 18.5937C118.572 18.5937 118.133 18.4687 117.738 18.2187C117.343 17.9687 117.028 17.5937 116.792 17.0937C116.556 16.5937 116.438 15.973 116.438 15.2315C116.438 14.4616 116.56 13.8281 116.805 13.331C117.049 12.8338 117.368 12.4659 117.763 12.2273C118.161 11.9886 118.589 11.8693 119.046 11.8693C119.39 11.8693 119.684 11.929 119.928 12.0483C120.172 12.1648 120.374 12.3153 120.533 12.5C120.692 12.6847 120.813 12.8764 120.895 13.0753H120.938V9.77273H123.022V18.5H120.959V17.4389H120.895C120.807 17.6406 120.682 17.8295 120.52 18.0057C120.359 18.1818 120.155 18.3239 119.911 18.4318C119.67 18.5398 119.384 18.5937 119.055 18.5937ZM119.779 16.9702C120.032 16.9702 120.248 16.8991 120.427 16.7571C120.606 16.6122 120.743 16.4091 120.84 16.1477C120.937 15.8864 120.985 15.5795 120.985 15.2273C120.985 14.8693 120.937 14.5611 120.84 14.3026C120.746 14.044 120.609 13.8452 120.427 13.706C120.248 13.5668 120.032 13.4972 119.779 13.4972C119.52 13.4972 119.302 13.5682 119.123 13.7102C118.944 13.8523 118.807 14.0526 118.714 14.3111C118.623 14.5696 118.577 14.875 118.577 15.2273C118.577 15.5795 118.624 15.8864 118.718 16.1477C118.812 16.4091 118.947 16.6122 119.123 16.7571C119.302 16.8991 119.52 16.9702 119.779 16.9702ZM124.34 18.5V11.9545H126.364V13.1477H126.432C126.551 12.7159 126.746 12.3949 127.016 12.1847C127.286 11.9716 127.6 11.8651 127.958 11.8651C128.054 11.8651 128.154 11.8722 128.256 11.8864C128.358 11.8977 128.453 11.9162 128.541 11.9418V13.7528C128.442 13.7187 128.311 13.6918 128.149 13.6719C127.99 13.652 127.848 13.642 127.723 13.642C127.476 13.642 127.253 13.6974 127.054 13.8082C126.858 13.9162 126.703 14.0682 126.59 14.2642C126.479 14.4574 126.424 14.6847 126.424 14.946V18.5H124.34ZM129.39 18.5V11.9545H131.474V18.5H129.39ZM130.435 11.1918C130.142 11.1918 129.89 11.0952 129.68 10.902C129.47 10.706 129.365 10.4702 129.365 10.1946C129.365 9.92187 129.47 9.68892 129.68 9.49574C129.89 9.29971 130.142 9.2017 130.435 9.2017C130.73 9.2017 130.981 9.29971 131.189 9.49574C131.399 9.68892 131.504 9.92187 131.504 10.1946C131.504 10.4702 131.399 10.706 131.189 10.902C130.981 11.0952 130.73 11.1918 130.435 11.1918ZM134.884 14.767V18.5H132.801V11.9545H134.782V13.1562H134.855C135 12.7557 135.247 12.4418 135.596 12.2145C135.946 11.9844 136.362 11.8693 136.845 11.8693C137.305 11.8693 137.704 11.973 138.042 12.1804C138.383 12.3849 138.647 12.6719 138.835 13.0412C139.025 13.4077 139.119 13.8366 139.116 14.3281V18.5H137.032V14.7372C137.035 14.3736 136.943 14.0895 136.755 13.8849C136.571 13.6804 136.313 13.5781 135.984 13.5781C135.765 13.5781 135.572 13.6264 135.404 13.723C135.24 13.8168 135.112 13.9517 135.021 14.1278C134.933 14.304 134.887 14.517 134.884 14.767ZM144.101 11.9545V13.4886H139.971V11.9545H144.101ZM140.837 10.3864H142.92V16.4418C142.92 16.5696 142.94 16.6733 142.98 16.7528C143.023 16.8295 143.084 16.8849 143.163 16.919C143.243 16.9503 143.338 16.9659 143.449 16.9659C143.528 16.9659 143.612 16.9588 143.7 16.9446C143.791 16.9276 143.859 16.9133 143.905 16.902L144.22 18.4062C144.121 18.4347 143.98 18.4702 143.798 18.5128C143.619 18.5554 143.405 18.5824 143.155 18.5937C142.666 18.6165 142.247 18.5597 141.898 18.4233C141.551 18.2841 141.285 18.0682 141.101 17.7756C140.919 17.483 140.831 17.1151 140.837 16.6719V10.3864ZM147.388 14.767V18.5H145.305V9.77273H147.32V13.1562H147.393C147.54 12.7528 147.782 12.4375 148.117 12.2102C148.455 11.983 148.868 11.8693 149.357 11.8693C149.817 11.8693 150.218 11.9716 150.559 12.1761C150.9 12.3778 151.164 12.6634 151.351 13.0327C151.542 13.402 151.636 13.8338 151.633 14.3281V18.5H149.549V14.7372C149.552 14.3736 149.461 14.0895 149.276 13.8849C149.091 13.6804 148.832 13.5781 148.496 13.5781C148.278 13.5781 148.084 13.6264 147.917 13.723C147.752 13.8168 147.623 13.9517 147.529 14.1278C147.438 14.304 147.391 14.517 147.388 14.767Z" fill="#00D845"/>
</g>
</g>
<rect x="0.749512" y="0.75" width="157" height="26.5" rx="5.25" stroke="white" stroke-opacity="0.15" stroke-width="1.5"/>
<defs>
<filter id="filter0_d_28_2660" x="1.99951" y="0" width="28" height="28" filterUnits="userSpaceOnUse" color-interpolation-filters="sRGB">
<feFlood flood-opacity="0" result="BackgroundImageFix"/>
<feColorMatrix in="SourceAlpha" type="matrix" values="0 0 0 0 0 0 0 0 0 0 0 0 0 0 0 0 0 0 127 0" result="hardAlpha"/>
<feOffset/>
<feGaussianBlur stdDeviation="2"/>
<feComposite in2="hardAlpha" operator="out"/>
<feColorMatrix type="matrix" values="0 0 0 0 0 0 0 0 0 0 0 0 0 0 0 0 0 0 0.25 0"/>
<feBlend mode="normal" in2="BackgroundImageFix" result="effect1_dropShadow_28_2660"/>
<feBlend mode="normal" in="SourceGraphic" in2="effect1_dropShadow_28_2660" result="shape"/>
</filter>
<filter id="filter1_d_28_2660" x="27.9995" y="3.5" width="128.5" height="21.25" filterUnits="userSpaceOnUse" color-interpolation-filters="sRGB">
<feFlood flood-opacity="0" result="BackgroundImageFix"/>
<feColorMatrix in="SourceAlpha" type="matrix" values="0 0 0 0 0 0 0 0 0 0 0 0 0 0 0 0 0 0 127 0" result="hardAlpha"/>
<feOffset/>
<feGaussianBlur stdDeviation="2"/>
<feComposite in2="hardAlpha" operator="out"/>
<feColorMatrix type="matrix" values="0 0 0 0 0 0 0 0 0 0 0 0 0 0 0 0 0 0 0.25 0"/>
<feBlend mode="normal" in2="BackgroundImageFix" result="effect1_dropShadow_28_2660"/>
<feBlend mode="normal" in="SourceGraphic" in2="effect1_dropShadow_28_2660" result="shape"/>
</filter>
<linearGradient id="paint0_linear_28_2660" x1="79.2495" y1="0" x2="79.2495" y2="28" gradientUnits="userSpaceOnUse">
<stop stop-color="#072C13"/>
<stop offset="1" stop-color="#041C0B"/>
</linearGradient>
<clipPath id="clip0_28_2660">
<rect x="-0.000488281" width="158.5" height="28" rx="6" fill="white"/>
</clipPath>
</defs>
</svg>
