<svg width="177" height="28" viewBox="0 0 177 28" fill="none" xmlns="http://www.w3.org/2000/svg">
<g clip-path="url(#clip0_3_54)">
<rect width="176.5" height="28" rx="6" fill="url(#paint0_linear_3_54)"/>
<g filter="url(#filter0_d_3_54)">
<g clip-path="url(#clip1_3_54)">
<path d="M6 13.6C6 9.0745 6 6.81177 7.40589 5.40589C8.81177 4 11.0745 4 15.6 4H16.4C20.9255 4 23.1882 4 24.5941 5.40589C26 6.81177 26 9.0745 26 13.6V14.4C26 18.9255 26 21.1882 24.5941 22.5941C23.1882 24 20.9255 24 16.4 24H15.6C11.0745 24 8.81177 24 7.40589 22.5941C6 21.1882 6 18.9255 6 14.4V13.6Z" fill="#0077FF"/>
<path d="M16.6417 18.4084C12.0833 18.4084 9.48336 15.2834 9.37503 10.0834H11.6584C11.7334 13.9 13.4167 15.5167 14.75 15.85V10.0834H16.9001V13.375C18.2167 13.2334 19.5999 11.7334 20.0666 10.0834H22.2166C21.8583 12.1167 20.3583 13.6167 19.2916 14.2334C20.3583 14.7334 22.0667 16.0417 22.7167 18.4084H20.3499C19.8416 16.825 18.5751 15.6 16.9001 15.4334V18.4084H16.6417Z" fill="white"/>
</g>
</g>
<g filter="url(#filter1_d_3_54)">
<path d="M39.5234 13.1016H38.3047C38.2578 12.8411 38.1706 12.612 38.043 12.4141C37.9154 12.2161 37.7591 12.0482 37.5742 11.9102C37.3893 11.7721 37.1823 11.668 36.9531 11.5977C36.7266 11.5273 36.4857 11.4922 36.2305 11.4922C35.7695 11.4922 35.3568 11.6081 34.9922 11.8398C34.6302 12.0716 34.3437 12.4115 34.1328 12.8594C33.9245 13.3073 33.8203 13.8542 33.8203 14.5C33.8203 15.151 33.9245 15.7005 34.1328 16.1484C34.3437 16.5964 34.6315 16.9349 34.9961 17.1641C35.3607 17.3932 35.7708 17.5078 36.2266 17.5078C36.4792 17.5078 36.7187 17.474 36.9453 17.4062C37.1745 17.3359 37.3815 17.2331 37.5664 17.0977C37.7513 16.9622 37.9076 16.7969 38.0352 16.6016C38.1654 16.4036 38.2552 16.1771 38.3047 15.9219L39.5234 15.9258C39.4583 16.319 39.332 16.681 39.1445 17.0117C38.9596 17.3398 38.7214 17.6237 38.4297 17.8633C38.1406 18.1003 37.8099 18.2839 37.4375 18.4141C37.0651 18.5443 36.6589 18.6094 36.2187 18.6094C35.526 18.6094 34.9089 18.4453 34.3672 18.1172C33.8255 17.7865 33.3984 17.3138 33.0859 16.6992C32.776 16.0846 32.6211 15.3516 32.6211 14.5C32.6211 13.6458 32.7773 12.9128 33.0898 12.3008C33.4023 11.6862 33.8294 11.2148 34.3711 10.8867C34.9128 10.556 35.5286 10.3906 36.2187 10.3906C36.6432 10.3906 37.0391 10.4518 37.4062 10.5742C37.776 10.694 38.1081 10.8711 38.4023 11.1055C38.6966 11.3372 38.9401 11.6211 39.1328 11.957C39.3255 12.2904 39.4557 12.6719 39.5234 13.1016ZM43.4014 18.6211C42.8389 18.6211 42.348 18.4922 41.9287 18.2344C41.5094 17.9766 41.1839 17.6159 40.9521 17.1523C40.7204 16.6888 40.6045 16.1471 40.6045 15.5273C40.6045 14.9049 40.7204 14.3607 40.9521 13.8945C41.1839 13.4284 41.5094 13.0664 41.9287 12.8086C42.348 12.5508 42.8389 12.4219 43.4014 12.4219C43.9639 12.4219 44.4547 12.5508 44.874 12.8086C45.2933 13.0664 45.6188 13.4284 45.8506 13.8945C46.0824 14.3607 46.1982 14.9049 46.1982 15.5273C46.1982 16.1471 46.0824 16.6888 45.8506 17.1523C45.6188 17.6159 45.2933 17.9766 44.874 18.2344C44.4547 18.4922 43.9639 18.6211 43.4014 18.6211ZM43.4053 17.6406C43.7699 17.6406 44.0719 17.5443 44.3115 17.3516C44.5511 17.1589 44.7282 16.9023 44.8428 16.582C44.96 16.2617 45.0186 15.9089 45.0186 15.5234C45.0186 15.1406 44.96 14.7891 44.8428 14.4687C44.7282 14.1458 44.5511 13.8867 44.3115 13.6914C44.0719 13.4961 43.7699 13.3984 43.4053 13.3984C43.0381 13.3984 42.7334 13.4961 42.4912 13.6914C42.2516 13.8867 42.0732 14.1458 41.9561 14.4687C41.8415 14.7891 41.7842 15.1406 41.7842 15.5234C41.7842 15.9089 41.8415 16.2617 41.9561 16.582C42.0732 16.9023 42.2516 17.1589 42.4912 17.3516C42.7334 17.5443 43.0381 17.6406 43.4053 17.6406ZM50.0293 18.6211C49.4668 18.6211 48.9759 18.4922 48.5566 18.2344C48.1374 17.9766 47.8118 17.6159 47.5801 17.1523C47.3483 16.6888 47.2324 16.1471 47.2324 15.5273C47.2324 14.9049 47.3483 14.3607 47.5801 13.8945C47.8118 13.4284 48.1374 13.0664 48.5566 12.8086C48.9759 12.5508 49.4668 12.4219 50.0293 12.4219C50.5918 12.4219 51.0827 12.5508 51.5019 12.8086C51.9212 13.0664 52.2467 13.4284 52.4785 13.8945C52.7103 14.3607 52.8262 14.9049 52.8262 15.5273C52.8262 16.1471 52.7103 16.6888 52.4785 17.1523C52.2467 17.6159 51.9212 17.9766 51.5019 18.2344C51.0827 18.4922 50.5918 18.6211 50.0293 18.6211ZM50.0332 17.6406C50.3978 17.6406 50.6999 17.5443 50.9394 17.3516C51.179 17.1589 51.3561 16.9023 51.4707 16.582C51.5879 16.2617 51.6465 15.9089 51.6465 15.5234C51.6465 15.1406 51.5879 14.7891 51.4707 14.4687C51.3561 14.1458 51.179 13.8867 50.9394 13.6914C50.6999 13.4961 50.3978 13.3984 50.0332 13.3984C49.666 13.3984 49.3613 13.4961 49.1191 13.6914C48.8796 13.8867 48.7012 14.1458 48.584 14.4687C48.4694 14.7891 48.4121 15.1406 48.4121 15.5234C48.4121 15.9089 48.4694 16.2617 48.584 16.582C48.7012 16.9023 48.8796 17.1589 49.1191 17.3516C49.3613 17.5443 49.666 17.6406 50.0332 17.6406ZM58.7588 10.2656L59.2432 11.0039C59.0635 11.168 58.859 11.2852 58.6299 11.3555C58.4033 11.4232 58.1416 11.4661 57.8447 11.4844C57.5478 11.5 57.208 11.5143 56.8252 11.5273C56.3929 11.5404 56.0374 11.6341 55.7588 11.8086C55.4801 11.9805 55.2653 12.2357 55.1143 12.5742C54.9658 12.9102 54.8695 13.332 54.8252 13.8398H54.8994C55.0947 13.4674 55.3656 13.1888 55.7119 13.0039C56.0609 12.819 56.4528 12.7266 56.8877 12.7266C57.3721 12.7266 57.8031 12.8372 58.1807 13.0586C58.5583 13.2799 58.8551 13.6042 59.0713 14.0312C59.29 14.4557 59.3994 14.9753 59.3994 15.5898C59.3994 16.2122 59.2848 16.75 59.0557 17.2031C58.8291 17.6562 58.5088 18.0065 58.0947 18.2539C57.6833 18.4987 57.1976 18.6211 56.6377 18.6211C56.0778 18.6211 55.5895 18.4948 55.1728 18.2422C54.7588 17.987 54.4372 17.6094 54.208 17.1094C53.9814 16.6094 53.8682 15.9922 53.8682 15.2578V14.6641C53.8682 13.2917 54.1129 12.2591 54.6025 11.5664C55.0921 10.8737 55.8239 10.5182 56.7978 10.5C57.1129 10.4922 57.3942 10.4909 57.6416 10.4961C57.889 10.4987 58.1051 10.487 58.29 10.4609C58.4775 10.4323 58.6338 10.3672 58.7588 10.2656ZM56.6416 17.6406C56.9671 17.6406 57.2471 17.5586 57.4814 17.3945C57.7184 17.2279 57.9007 16.9922 58.0283 16.6875C58.1559 16.3828 58.2197 16.0234 58.2197 15.6094C58.2197 15.2031 58.1559 14.8581 58.0283 14.5742C57.9007 14.2904 57.7184 14.0742 57.4814 13.9258C57.2445 13.7747 56.9606 13.6992 56.6299 13.6992C56.3851 13.6992 56.1663 13.7422 55.9736 13.8281C55.7809 13.9115 55.6156 14.0352 55.4775 14.1992C55.3421 14.3633 55.2366 14.5638 55.1611 14.8008C55.0882 15.0352 55.0491 15.3047 55.0439 15.6094C55.0439 16.2292 55.1859 16.7227 55.4697 17.0898C55.7562 17.457 56.1468 17.6406 56.6416 17.6406ZM69.3017 17.4922L69.1924 20.2187H68.0478V18.5H67.3017V17.4922H69.3017ZM60.7041 12.5H61.8486V17.4883H63.9228V12.5H65.0674V17.4883H67.1416V12.5H68.2861V18.5H60.7041V12.5ZM73.0547 18.6211C72.4635 18.6211 71.9544 18.4948 71.5273 18.2422C71.1029 17.987 70.7747 17.6289 70.543 17.168C70.3138 16.7044 70.1992 16.1615 70.1992 15.5391C70.1992 14.9245 70.3138 14.3828 70.543 13.9141C70.7747 13.4453 71.0976 13.0794 71.5117 12.8164C71.9284 12.5534 72.4154 12.4219 72.9726 12.4219C73.3112 12.4219 73.6393 12.4779 73.957 12.5898C74.2747 12.7018 74.5599 12.8776 74.8125 13.1172C75.0651 13.3568 75.2643 13.668 75.4101 14.0508C75.556 14.431 75.6289 14.8932 75.6289 15.4375V15.8516H70.8594V14.9766H74.4844C74.4844 14.6693 74.4219 14.3971 74.2969 14.1602C74.1719 13.9206 73.9961 13.7318 73.7695 13.5937C73.5456 13.4557 73.2825 13.3867 72.9805 13.3867C72.6523 13.3867 72.3659 13.4674 72.1211 13.6289C71.8789 13.7878 71.6914 13.9961 71.5586 14.2539C71.4284 14.5091 71.3633 14.7865 71.3633 15.0859V15.7695C71.3633 16.1706 71.4336 16.5117 71.5742 16.793C71.7174 17.0742 71.9167 17.2891 72.1719 17.4375C72.4271 17.5833 72.7252 17.6562 73.0664 17.6562C73.2877 17.6562 73.4896 17.625 73.6719 17.5625C73.8542 17.4974 74.0117 17.401 74.1445 17.2734C74.2773 17.1458 74.3789 16.9883 74.4492 16.8008L75.5547 17C75.4661 17.3255 75.3073 17.6107 75.0781 17.8555C74.8515 18.0977 74.5664 18.2865 74.2226 18.4219C73.8815 18.5547 73.4922 18.6211 73.0547 18.6211ZM79.4521 18.6211C78.8714 18.6211 78.3714 18.4896 77.9521 18.2266C77.5355 17.9609 77.2152 17.595 76.9912 17.1289C76.7672 16.6628 76.6553 16.1289 76.6553 15.5273C76.6553 14.918 76.7698 14.3802 76.999 13.9141C77.2282 13.4453 77.5511 13.0794 77.9678 12.8164C78.3844 12.5534 78.8753 12.4219 79.4404 12.4219C79.8961 12.4219 80.3024 12.5065 80.6592 12.6758C81.0159 12.8424 81.3037 13.0768 81.5224 13.3789C81.7438 13.681 81.8753 14.0339 81.917 14.4375H80.7803C80.7178 14.1562 80.5745 13.9141 80.3506 13.7109C80.1292 13.5078 79.8323 13.4062 79.4599 13.4062C79.1344 13.4062 78.8493 13.4922 78.6045 13.6641C78.3623 13.8333 78.1735 14.0755 78.0381 14.3906C77.9027 14.7031 77.8349 15.0729 77.8349 15.5C77.8349 15.9375 77.9014 16.3151 78.0342 16.6328C78.167 16.9505 78.3545 17.1966 78.5967 17.3711C78.8415 17.5456 79.1292 17.6328 79.4599 17.6328C79.6813 17.6328 79.8818 17.5924 80.0615 17.5117C80.2438 17.4284 80.3961 17.3099 80.5185 17.1562C80.6435 17.0026 80.7308 16.8177 80.7803 16.6016H81.917C81.8753 16.9896 81.749 17.3359 81.5381 17.6406C81.3271 17.9453 81.0446 18.1849 80.6904 18.3594C80.3389 18.5339 79.9261 18.6211 79.4521 18.6211ZM82.7119 13.5078V12.5H87.7744V13.5078H85.8174V18.5H84.6767V13.5078H82.7119ZM89.0097 18.5V12.5H91.498C92.1751 12.5 92.7116 12.6445 93.1074 12.9336C93.5032 13.2201 93.7012 13.6094 93.7012 14.1016C93.7012 14.4531 93.5892 14.7318 93.3652 14.9375C93.1413 15.1432 92.8444 15.2812 92.4746 15.3516C92.7428 15.3828 92.9889 15.4635 93.2129 15.5937C93.4368 15.7214 93.6165 15.8932 93.7519 16.1094C93.89 16.3255 93.959 16.5833 93.959 16.8828C93.959 17.2005 93.8769 17.4818 93.7129 17.7266C93.5488 17.9687 93.3105 18.1589 92.998 18.2969C92.6881 18.4323 92.3144 18.5 91.8769 18.5H89.0097ZM90.1074 17.5234H91.8769C92.166 17.5234 92.3926 17.4544 92.5566 17.3164C92.7207 17.1784 92.8027 16.9909 92.8027 16.7539C92.8027 16.4753 92.7207 16.2565 92.5566 16.0977C92.3926 15.9362 92.166 15.8555 91.8769 15.8555H90.1074V17.5234ZM90.1074 15H91.5097C91.7285 15 91.916 14.9687 92.0722 14.9062C92.2311 14.8437 92.3522 14.7552 92.4355 14.6406C92.5215 14.5234 92.5644 14.3854 92.5644 14.2266C92.5644 13.9948 92.4694 13.8138 92.2793 13.6836C92.0892 13.5534 91.8288 13.4883 91.498 13.4883H90.1074V15ZM97.7676 18.6211C97.2051 18.6211 96.7142 18.4922 96.2949 18.2344C95.8756 17.9766 95.5501 17.6159 95.3183 17.1523C95.0866 16.6888 94.9707 16.1471 94.9707 15.5273C94.9707 14.9049 95.0866 14.3607 95.3183 13.8945C95.5501 13.4284 95.8756 13.0664 96.2949 12.8086C96.7142 12.5508 97.2051 12.4219 97.7676 12.4219C98.3301 12.4219 98.8209 12.5508 99.2402 12.8086C99.6595 13.0664 99.985 13.4284 100.217 13.8945C100.449 14.3607 100.564 14.9049 100.564 15.5273C100.564 16.1471 100.449 16.6888 100.217 17.1523C99.985 17.6159 99.6595 17.9766 99.2402 18.2344C98.8209 18.4922 98.3301 18.6211 97.7676 18.6211ZM97.7715 17.6406C98.136 17.6406 98.4381 17.5443 98.6777 17.3516C98.9173 17.1589 99.0944 16.9023 99.209 16.582C99.3262 16.2617 99.3847 15.9089 99.3847 15.5234C99.3847 15.1406 99.3262 14.7891 99.209 14.4687C99.0944 14.1458 98.9173 13.8867 98.6777 13.6914C98.4381 13.4961 98.136 13.3984 97.7715 13.3984C97.4043 13.3984 97.0996 13.4961 96.8574 13.6914C96.6178 13.8867 96.4394 14.1458 96.3222 14.4687C96.2077 14.7891 96.1504 15.1406 96.1504 15.5234C96.1504 15.9089 96.2077 16.2617 96.3222 16.582C96.4394 16.9023 96.6178 17.1589 96.8574 17.3516C97.0996 17.5443 97.4043 17.6406 97.7715 17.6406Z" fill="#E8E8E8"/>
<path d="M105.16 18.5V9.77273H108.8C109.453 9.77273 110 9.86506 110.44 10.0497C110.883 10.2344 111.216 10.4929 111.437 10.8253C111.662 11.1577 111.774 11.5426 111.774 11.9801C111.774 12.3125 111.705 12.6094 111.565 12.8707C111.426 13.1293 111.234 13.3437 110.99 13.5142C110.746 13.6847 110.463 13.804 110.142 13.8722V13.9574C110.494 13.9744 110.82 14.0696 111.118 14.2429C111.419 14.4162 111.66 14.6577 111.842 14.9673C112.024 15.2741 112.115 15.6378 112.115 16.0582C112.115 16.527 111.996 16.946 111.757 17.3153C111.518 17.6818 111.173 17.9716 110.722 18.1847C110.27 18.3949 109.722 18.5 109.077 18.5H105.16ZM107.27 16.7997H108.574C109.031 16.7997 109.368 16.7131 109.584 16.5398C109.803 16.3665 109.912 16.125 109.912 15.8153C109.912 15.5909 109.859 15.3977 109.754 15.2358C109.649 15.071 109.5 14.9446 109.307 14.8565C109.114 14.7656 108.882 14.7202 108.612 14.7202H107.27V16.7997ZM107.27 13.3608H108.437C108.668 13.3608 108.872 13.3224 109.051 13.2457C109.23 13.169 109.369 13.0582 109.469 12.9134C109.571 12.7685 109.622 12.5937 109.622 12.3892C109.622 12.0966 109.518 11.8665 109.311 11.6989C109.104 11.5312 108.824 11.4474 108.472 11.4474H107.27V13.3608ZM118.46 18.5L115.716 14.8778H115.239V18.5H113.129V9.77273H115.239V13.1605H115.575L118.277 9.77273H120.915L117.553 13.8935L121.089 18.5H118.46ZM124.435 18.6236C123.747 18.6236 123.156 18.483 122.662 18.2017C122.17 17.9176 121.791 17.5227 121.524 17.017C121.26 16.5085 121.128 15.919 121.128 15.2486C121.128 14.5753 121.26 13.9858 121.524 13.4801C121.791 12.9716 122.17 12.5767 122.662 12.2955C123.156 12.0114 123.747 11.8693 124.435 11.8693C125.122 11.8693 125.712 12.0114 126.203 12.2955C126.697 12.5767 127.077 12.9716 127.341 13.4801C127.608 13.9858 127.741 14.5753 127.741 15.2486C127.741 15.919 127.608 16.5085 127.341 17.017C127.077 17.5227 126.697 17.9176 126.203 18.2017C125.712 18.483 125.122 18.6236 124.435 18.6236ZM124.447 17.0511C124.697 17.0511 124.909 16.9744 125.082 16.821C125.256 16.6676 125.388 16.4545 125.479 16.1818C125.572 15.9091 125.619 15.5937 125.619 15.2358C125.619 14.8722 125.572 14.554 125.479 14.2812C125.388 14.0085 125.256 13.7955 125.082 13.642C124.909 13.4886 124.697 13.4119 124.447 13.4119C124.189 13.4119 123.97 13.4886 123.791 13.642C123.615 13.7955 123.48 14.0085 123.386 14.2812C123.295 14.554 123.25 14.8722 123.25 15.2358C123.25 15.5937 123.295 15.9091 123.386 16.1818C123.48 16.4545 123.615 16.6676 123.791 16.821C123.97 16.9744 124.189 17.0511 124.447 17.0511ZM133.424 14.4133V16.0028H130.066V14.4133H133.424ZM130.782 11.9545V18.5H128.809V11.9545H130.782ZM134.681 11.9545V18.5H132.721V11.9545H134.681ZM135.367 13.5483V11.9545H141.504V13.5483H139.411V18.5H137.434V13.5483H135.367ZM144.142 18.6108C143.725 18.6108 143.354 18.5412 143.03 18.402C142.709 18.2599 142.455 18.0469 142.267 17.7628C142.083 17.4758 141.99 17.1165 141.99 16.6847C141.99 16.321 142.054 16.0142 142.182 15.7642C142.31 15.5142 142.486 15.3111 142.711 15.1548C142.935 14.9986 143.193 14.8807 143.486 14.8011C143.779 14.7187 144.091 14.6633 144.424 14.6349C144.796 14.6009 145.095 14.5653 145.323 14.5284C145.55 14.4886 145.715 14.4332 145.817 14.3622C145.922 14.2884 145.975 14.1847 145.975 14.0511V14.0298C145.975 13.8111 145.899 13.642 145.749 13.5227C145.598 13.4034 145.395 13.3437 145.14 13.3437C144.864 13.3437 144.642 13.4034 144.475 13.5227C144.307 13.642 144.201 13.8068 144.155 14.017L142.233 13.9489C142.29 13.5511 142.436 13.196 142.672 12.8835C142.911 12.5682 143.238 12.321 143.652 12.142C144.07 11.9602 144.571 11.8693 145.157 11.8693C145.574 11.8693 145.959 11.919 146.311 12.0185C146.664 12.1151 146.97 12.2571 147.232 12.4446C147.493 12.6293 147.695 12.8565 147.837 13.1264C147.982 13.3963 148.054 13.7045 148.054 14.0511V18.5H146.094V17.5881H146.043C145.926 17.8097 145.777 17.9972 145.595 18.1506C145.417 18.304 145.205 18.419 144.961 18.4957C144.719 18.5724 144.446 18.6108 144.142 18.6108ZM144.786 17.2472C145.01 17.2472 145.212 17.2017 145.391 17.1108C145.573 17.0199 145.718 16.8949 145.826 16.7358C145.934 16.5739 145.988 16.3864 145.988 16.1733V15.5511C145.928 15.5824 145.855 15.6108 145.77 15.6364C145.688 15.6619 145.597 15.6861 145.497 15.7088C145.398 15.7315 145.296 15.7514 145.191 15.7685C145.086 15.7855 144.985 15.8011 144.888 15.8153C144.692 15.8466 144.524 15.8949 144.385 15.9602C144.249 16.0256 144.144 16.1108 144.07 16.2159C143.999 16.3182 143.963 16.4403 143.963 16.5824C143.963 16.7983 144.04 16.9631 144.193 17.0767C144.35 17.1903 144.547 17.2472 144.786 17.2472ZM149.328 18.5V11.9545H151.412V14.392H151.872L153.462 11.9545H155.874L153.671 15.2315L155.895 18.5H153.453L152.017 16.3267H151.412V18.5H149.328ZM156.215 13.5483V11.9545H162.351V13.5483H160.259V18.5H158.282V13.5483H156.215ZM166.204 18.6236C165.52 18.6236 164.929 18.4886 164.432 18.2187C163.937 17.946 163.557 17.5582 163.29 17.0554C163.026 16.5497 162.893 15.9489 162.893 15.2528C162.893 14.5767 163.027 13.9858 163.294 13.4801C163.561 12.9716 163.937 12.5767 164.423 12.2955C164.909 12.0114 165.481 11.8693 166.141 11.8693C166.606 11.8693 167.033 11.9418 167.419 12.0866C167.805 12.2315 168.139 12.446 168.42 12.7301C168.702 13.0142 168.92 13.3651 169.077 13.7827C169.233 14.1974 169.311 14.6733 169.311 15.2102V15.7301H163.622V14.5199H167.372C167.369 14.2983 167.317 14.1009 167.214 13.9276C167.112 13.7543 166.972 13.6193 166.793 13.5227C166.616 13.4233 166.413 13.3736 166.183 13.3736C165.95 13.3736 165.741 13.4261 165.557 13.5312C165.372 13.6335 165.226 13.7741 165.118 13.9531C165.01 14.1293 164.953 14.3295 164.947 14.554V15.7855C164.947 16.0526 165 16.2869 165.105 16.4886C165.21 16.6875 165.359 16.8423 165.553 16.9531C165.746 17.0639 165.976 17.1193 166.243 17.1193C166.428 17.1193 166.595 17.0937 166.746 17.0426C166.896 16.9915 167.026 16.9162 167.133 16.8168C167.241 16.7173 167.322 16.5952 167.376 16.4503L169.29 16.5057C169.21 16.9347 169.035 17.3082 168.766 17.6264C168.499 17.9418 168.148 18.1875 167.713 18.3636C167.278 18.5369 166.776 18.6236 166.204 18.6236Z" fill="white"/>
</g>
</g>
<rect x="0.75" y="0.75" width="175" height="26.5" rx="5.25" stroke="white" stroke-opacity="0.15" stroke-width="1.5"/>
<defs>
<filter id="filter0_d_3_54" x="2" y="0" width="28" height="28" filterUnits="userSpaceOnUse" color-interpolation-filters="sRGB">
<feFlood flood-opacity="0" result="BackgroundImageFix"/>
<feColorMatrix in="SourceAlpha" type="matrix" values="0 0 0 0 0 0 0 0 0 0 0 0 0 0 0 0 0 0 127 0" result="hardAlpha"/>
<feOffset/>
<feGaussianBlur stdDeviation="2"/>
<feComposite in2="hardAlpha" operator="out"/>
<feColorMatrix type="matrix" values="0 0 0 0 0 0 0 0 0 0 0 0 0 0 0 0 0 0 0.25 0"/>
<feBlend mode="normal" in2="BackgroundImageFix" result="effect1_dropShadow_3_54"/>
<feBlend mode="normal" in="SourceGraphic" in2="effect1_dropShadow_3_54" result="shape"/>
</filter>
<filter id="filter1_d_3_54" x="28" y="3.5" width="146.5" height="21" filterUnits="userSpaceOnUse" color-interpolation-filters="sRGB">
<feFlood flood-opacity="0" result="BackgroundImageFix"/>
<feColorMatrix in="SourceAlpha" type="matrix" values="0 0 0 0 0 0 0 0 0 0 0 0 0 0 0 0 0 0 127 0" result="hardAlpha"/>
<feOffset/>
<feGaussianBlur stdDeviation="2"/>
<feComposite in2="hardAlpha" operator="out"/>
<feColorMatrix type="matrix" values="0 0 0 0 0 0 0 0 0 0 0 0 0 0 0 0 0 0 0.25 0"/>
<feBlend mode="normal" in2="BackgroundImageFix" result="effect1_dropShadow_3_54"/>
<feBlend mode="normal" in="SourceGraphic" in2="effect1_dropShadow_3_54" result="shape"/>
</filter>
<linearGradient id="paint0_linear_3_54" x1="88.25" y1="0" x2="88.25" y2="28" gradientUnits="userSpaceOnUse">
<stop stop-color="#0D1D2F"/>
<stop offset="1" stop-color="#07111C"/>
</linearGradient>
<clipPath id="clip0_3_54">
<rect width="176.5" height="28" rx="6" fill="white"/>
</clipPath>
<clipPath id="clip1_3_54">
<rect width="20" height="20" fill="white" transform="translate(6 4)"/>
</clipPath>
</defs>
</svg>
