<svg width="172" height="56" viewBox="0 0 172 56" fill="none" xmlns="http://www.w3.org/2000/svg">
<rect x="2.5928e-06" width="172" height="56" rx="8" fill="url(#paint0_linear_680_148)"/>
<rect x="1.05" y="1.05" width="169.9" height="53.9" rx="6.95" stroke="white" stroke-opacity="0.15" stroke-width="2.1"/>
<g filter="url(#filter0_d_680_148)">
<path d="M42.5431 23.2352C42.5431 23.2352 50.7102 21.9135 52 18.0587H39.4891V15H12L15.3863 19.0327V23.1646C15.3863 23.1646 23.9308 22.7086 27.236 25.2808C31.7602 29.5846 22.1475 35.402 22.1475 35.402L20.4992 41C23.0768 38.481 27.9894 35.2226 36.9966 35.3797C33.5689 36.4915 30.1223 38.228 27.4392 41H45.6472L43.9326 35.402C43.9326 35.402 30.7359 27.4154 42.5431 23.2352Z" fill="#F16436"/>
</g>
<g filter="url(#filter1_d_680_148)">
<path d="M60.3977 27.3125V23.0114H61.1648C61.4261 22.7917 61.6704 22.4792 61.8977 22.0739C62.125 21.6686 62.3182 21.1212 62.4773 20.4318C62.6363 19.7424 62.7462 18.858 62.8068 17.7784L63.0795 12.8636H70.2557V23.0114H71.5738V27.2954H69.892V24.5H62.0795V27.3125H60.3977ZM63.2329 23.0114H68.5738V14.375H64.6704L64.4886 17.7784C64.4394 18.6004 64.3579 19.339 64.2443 19.9943C64.1345 20.6496 63.9924 21.2292 63.8182 21.733C63.6477 22.233 63.4526 22.6591 63.2329 23.0114ZM77.0369 24.6761C76.2187 24.6761 75.5047 24.4886 74.8949 24.1136C74.285 23.7386 73.8115 23.214 73.4744 22.5398C73.1373 21.8655 72.9687 21.0776 72.9687 20.1761C72.9687 19.2708 73.1373 18.4792 73.4744 17.8011C73.8115 17.1231 74.285 16.5966 74.8949 16.2216C75.5047 15.8466 76.2187 15.6591 77.0369 15.6591C77.8551 15.6591 78.5691 15.8466 79.179 16.2216C79.7888 16.5966 80.2623 17.1231 80.5994 17.8011C80.9365 18.4792 81.1051 19.2708 81.1051 20.1761C81.1051 21.0776 80.9365 21.8655 80.5994 22.5398C80.2623 23.214 79.7888 23.7386 79.179 24.1136C78.5691 24.4886 77.8551 24.6761 77.0369 24.6761ZM77.0426 23.25C77.5729 23.25 78.0123 23.1098 78.3608 22.8295C78.7093 22.5492 78.9668 22.1761 79.1335 21.7102C79.304 21.2443 79.3892 20.7311 79.3892 20.1705C79.3892 19.6136 79.304 19.1023 79.1335 18.6364C78.9668 18.1667 78.7093 17.7898 78.3608 17.5057C78.0123 17.2216 77.5729 17.0795 77.0426 17.0795C76.5085 17.0795 76.0653 17.2216 75.713 17.5057C75.3646 17.7898 75.1051 18.1667 74.9346 18.6364C74.768 19.1023 74.6846 19.6136 74.6846 20.1705C74.6846 20.7311 74.768 21.2443 74.9346 21.7102C75.1051 22.1761 75.3646 22.5492 75.713 22.8295C76.0653 23.1098 76.5085 23.25 77.0426 23.25ZM86.6775 24.6761C85.8328 24.6761 85.1056 24.4848 84.4957 24.1023C83.8897 23.7159 83.4237 23.1837 83.098 22.5057C82.7722 21.8276 82.6094 21.0511 82.6094 20.1761C82.6094 19.2898 82.776 18.5076 83.1094 17.8295C83.4427 17.1477 83.9124 16.6155 84.5184 16.233C85.1245 15.8504 85.8385 15.6591 86.6605 15.6591C87.3234 15.6591 87.9143 15.7822 88.4332 16.0284C88.9522 16.2708 89.3707 16.6117 89.6889 17.0511C90.0109 17.4905 90.2022 18.0038 90.2628 18.5909H88.6094C88.5184 18.1818 88.3101 17.8295 87.9844 17.5341C87.6624 17.2386 87.2306 17.0909 86.6889 17.0909C86.2154 17.0909 85.8006 17.2159 85.4446 17.4659C85.0923 17.7121 84.8177 18.0644 84.6207 18.5227C84.4237 18.9773 84.3253 19.5151 84.3253 20.1364C84.3253 20.7727 84.4219 21.322 84.615 21.7841C84.8082 22.2462 85.0809 22.6042 85.4332 22.858C85.7893 23.1117 86.2078 23.2386 86.6889 23.2386C87.0109 23.2386 87.3025 23.1799 87.5639 23.0625C87.829 22.9413 88.0506 22.7689 88.2287 22.5455C88.4105 22.322 88.5374 22.053 88.6094 21.7386H90.2628C90.2022 22.303 90.0184 22.8068 89.7116 23.25C89.4048 23.6932 88.9938 24.0417 88.4787 24.2955C87.9673 24.5492 87.3669 24.6761 86.6775 24.6761ZM91.419 17.2386V15.7727H98.7826V17.2386H95.9361V24.5H94.277V17.2386H91.419ZM101.653 27.7727C101.4 27.7727 101.169 27.7519 100.96 27.7102C100.752 27.6723 100.597 27.6307 100.494 27.5852L100.903 26.1932C101.214 26.2765 101.491 26.3125 101.733 26.3011C101.975 26.2898 102.189 26.1989 102.375 26.0284C102.564 25.8579 102.731 25.5795 102.875 25.1932L103.085 24.6136L99.892 15.7727H101.71L103.92 22.5455H104.011L106.222 15.7727H108.045L104.449 25.6648C104.282 26.1193 104.07 26.5038 103.812 26.8182C103.555 27.1364 103.248 27.375 102.892 27.5341C102.536 27.6932 102.123 27.7727 101.653 27.7727ZM109.642 24.5V15.7727H116.761V24.5H115.097V17.2386H111.295V24.5H109.642ZM122.794 24.6761C121.934 24.6761 121.194 24.4924 120.572 24.125C119.955 23.7538 119.478 23.233 119.141 22.5625C118.807 21.8883 118.641 21.0985 118.641 20.1932C118.641 19.2992 118.807 18.5114 119.141 17.8295C119.478 17.1477 119.947 16.6155 120.55 16.233C121.156 15.8504 121.864 15.6591 122.675 15.6591C123.167 15.6591 123.644 15.7405 124.107 15.9034C124.569 16.0663 124.983 16.322 125.351 16.6705C125.718 17.0189 126.008 17.4716 126.22 18.0284C126.432 18.5814 126.538 19.2538 126.538 20.0455V20.6477H119.601V19.375H124.874C124.874 18.928 124.783 18.5322 124.601 18.1875C124.419 17.839 124.163 17.5644 123.834 17.3636C123.508 17.1629 123.125 17.0625 122.686 17.0625C122.209 17.0625 121.792 17.1799 121.436 17.4148C121.084 17.6458 120.811 17.9489 120.618 18.3239C120.428 18.6951 120.334 19.0985 120.334 19.5341V20.5284C120.334 21.1117 120.436 21.608 120.641 22.017C120.849 22.4261 121.139 22.7386 121.51 22.9545C121.881 23.1667 122.315 23.2727 122.811 23.2727C123.133 23.2727 123.427 23.2273 123.692 23.1364C123.957 23.0417 124.186 22.9015 124.379 22.7159C124.572 22.5303 124.72 22.3011 124.822 22.0284L126.43 22.3182C126.302 22.7917 126.071 23.2064 125.737 23.5625C125.408 23.9148 124.993 24.1894 124.493 24.3864C123.997 24.5795 123.43 24.6761 122.794 24.6761ZM134.338 19.4034V20.875H129.611V19.4034H134.338ZM130.088 15.7727V24.5H128.423V15.7727H130.088ZM135.526 15.7727V24.5H133.866V15.7727H135.526ZM147.947 19.4034V20.875H143.22V19.4034H147.947ZM143.697 15.7727V24.5H142.033V15.7727H143.697ZM149.135 15.7727V24.5H147.476V15.7727H149.135ZM153.947 24.6932C153.394 24.6932 152.894 24.5909 152.447 24.3864C152 24.178 151.646 23.8769 151.385 23.483C151.127 23.089 150.999 22.6061 150.999 22.0341C150.999 21.5417 151.093 21.1364 151.283 20.8182C151.472 20.5 151.728 20.2481 152.05 20.0625C152.372 19.8769 152.731 19.7367 153.129 19.642C153.527 19.5473 153.932 19.4754 154.345 19.4261C154.868 19.3655 155.292 19.3163 155.618 19.2784C155.944 19.2367 156.18 19.1705 156.328 19.0795C156.476 18.9886 156.55 18.8409 156.55 18.6364V18.5966C156.55 18.1004 156.41 17.7159 156.129 17.4432C155.853 17.1705 155.44 17.0341 154.891 17.0341C154.319 17.0341 153.868 17.161 153.538 17.4148C153.213 17.6648 152.987 17.9432 152.862 18.25L151.266 17.8864C151.455 17.3561 151.731 16.928 152.095 16.6023C152.463 16.2727 152.885 16.0341 153.362 15.8864C153.839 15.7348 154.341 15.6591 154.868 15.6591C155.216 15.6591 155.586 15.7008 155.976 15.7841C156.37 15.8636 156.737 16.0114 157.078 16.2273C157.423 16.4432 157.705 16.7519 157.925 17.1534C158.144 17.5511 158.254 18.0682 158.254 18.7045V24.5H156.595V23.3068H156.527C156.417 23.5265 156.252 23.7424 156.033 23.9545C155.813 24.1667 155.531 24.3428 155.186 24.483C154.841 24.6231 154.428 24.6932 153.947 24.6932ZM154.317 23.3295C154.786 23.3295 155.188 23.2367 155.521 23.0511C155.858 22.8655 156.114 22.6231 156.288 22.3239C156.466 22.0208 156.555 21.697 156.555 21.3523V20.2273C156.495 20.2879 156.377 20.3447 156.203 20.3977C156.033 20.447 155.838 20.4905 155.618 20.5284C155.398 20.5625 155.184 20.5947 154.976 20.625C154.767 20.6515 154.593 20.6742 154.453 20.6932C154.124 20.7348 153.822 20.8049 153.55 20.9034C153.281 21.0019 153.065 21.1439 152.902 21.3295C152.743 21.5114 152.663 21.7538 152.663 22.0568C152.663 22.4773 152.819 22.7955 153.129 23.0114C153.44 23.2235 153.836 23.3295 154.317 23.3295Z" fill="#E8E8E8"/>
<path d="M72.1584 35.6158H69.1399C69.0997 35.3059 69.0171 35.0262 68.8924 34.7766C68.7676 34.5271 68.6026 34.3138 68.3974 34.1367C68.1921 33.9596 67.9486 33.8248 67.6669 33.7322C67.3892 33.6357 67.0813 33.5874 66.7432 33.5874C66.1436 33.5874 65.6264 33.7343 65.1917 34.0281C64.7611 34.3218 64.4291 34.7464 64.1957 35.3018C63.9662 35.8572 63.8515 36.5294 63.8515 37.3182C63.8515 38.1392 63.9683 38.8274 64.2017 39.3828C64.4391 39.9342 64.7712 40.3507 65.1978 40.6325C65.6284 40.9102 66.1375 41.049 66.7251 41.049C67.0551 41.049 67.355 41.0067 67.6246 40.9222C67.8983 40.8377 68.1378 40.715 68.343 40.554C68.5523 40.389 68.7233 40.1897 68.8562 39.9563C68.993 39.7189 69.0876 39.4512 69.1399 39.1534L72.1584 39.1715C72.106 39.7189 71.9471 40.2582 71.6814 40.7894C71.4198 41.3207 71.0596 41.8056 70.6008 42.2443C70.142 42.679 69.5826 43.0251 68.9226 43.2827C68.2666 43.5402 67.514 43.669 66.6648 43.669C65.5459 43.669 64.5438 43.4235 63.6584 42.9325C62.777 42.4375 62.0807 41.7171 61.5696 40.7713C61.0585 39.8255 60.8029 38.6745 60.8029 37.3182C60.8029 35.9579 61.0625 34.8048 61.5817 33.859C62.1008 32.9132 62.8031 32.1948 63.6885 31.7038C64.574 31.2128 65.566 30.9673 66.6648 30.9673C67.4133 30.9673 68.1056 31.072 68.7415 31.2812C69.3773 31.4865 69.9368 31.7884 70.4197 32.1868C70.9027 32.5812 71.2951 33.0662 71.5969 33.6417C71.8988 34.2172 72.0859 34.8752 72.1584 35.6158ZM79.8509 39.4975V34.2273H82.7969V43.5H79.9837V41.7734H79.8871C79.6819 42.3409 79.3317 42.7917 78.8367 43.1257C78.3457 43.4557 77.7521 43.6207 77.0558 43.6207C76.424 43.6207 75.8686 43.4758 75.3896 43.1861C74.9107 42.8963 74.5384 42.4918 74.2728 41.9727C74.0072 41.4495 73.8723 40.8377 73.8683 40.1374V34.2273H76.8204V39.5579C76.8244 40.061 76.9572 40.4574 77.2188 40.7472C77.4804 41.0369 77.8366 41.1818 78.2874 41.1818C78.5812 41.1818 78.8448 41.1174 79.0782 40.9886C79.3156 40.8558 79.5028 40.6647 79.6396 40.4151C79.7805 40.1616 79.8509 39.8557 79.8509 39.4975ZM84.6759 43.5V34.2273H87.5435V35.9176H87.6401C87.8091 35.3059 88.0848 34.8511 88.4671 34.5533C88.8495 34.2514 89.2942 34.1005 89.8013 34.1005C89.9381 34.1005 90.079 34.1106 90.2239 34.1307C90.3688 34.1468 90.5036 34.1729 90.6283 34.2092V36.7749C90.4875 36.7266 90.3024 36.6883 90.073 36.6602C89.8476 36.632 89.6463 36.6179 89.4693 36.6179C89.1191 36.6179 88.8032 36.6964 88.5215 36.8533C88.2438 37.0063 88.0244 37.2216 87.8634 37.4993C87.7065 37.773 87.628 38.0949 87.628 38.4652V43.5H84.6759ZM99.9267 37.0586L97.2161 37.131C97.188 36.9379 97.1115 36.7668 96.9867 36.6179C96.862 36.465 96.699 36.3462 96.4978 36.2617C96.3005 36.1732 96.0711 36.1289 95.8095 36.1289C95.4675 36.1289 95.1757 36.1973 94.9342 36.3342C94.6967 36.471 94.58 36.6561 94.584 36.8896C94.58 37.0707 94.6525 37.2276 94.8014 37.3604C94.9543 37.4932 95.226 37.5999 95.6164 37.6804L97.4033 38.0185C98.329 38.1955 99.0172 38.4893 99.4679 38.8999C99.9227 39.3104 100.152 39.8537 100.156 40.5298C100.152 41.1657 99.963 41.7191 99.5887 42.19C99.2184 42.6609 98.7113 43.0271 98.0674 43.2887C97.4234 43.5463 96.6869 43.6751 95.8578 43.6751C94.5337 43.6751 93.4894 43.4034 92.7247 42.8601C91.964 42.3127 91.5294 41.5803 91.4207 40.6626L94.3365 40.5902C94.4009 40.9283 94.5679 41.1858 94.8376 41.3629C95.1072 41.54 95.4514 41.6285 95.8699 41.6285C96.2482 41.6285 96.5561 41.5581 96.7936 41.4173C97.031 41.2764 97.1518 41.0892 97.1558 40.8558C97.1518 40.6465 97.0592 40.4795 96.8781 40.3548C96.697 40.226 96.4132 40.1254 96.0269 40.0529L94.409 39.745C93.4793 39.576 92.7871 39.2641 92.3323 38.8093C91.8775 38.3505 91.6521 37.7669 91.6561 37.0586C91.6521 36.4388 91.8171 35.9096 92.1512 35.4709C92.4852 35.0282 92.9601 34.6901 93.5759 34.4567C94.1916 34.2232 94.9181 34.1065 95.7552 34.1065C97.0109 34.1065 98.001 34.3701 98.7254 34.8974C99.4498 35.4206 99.8503 36.141 99.9267 37.0586ZM105.944 43.6751C104.974 43.6751 104.137 43.4839 103.433 43.1016C102.732 42.7152 102.193 42.1658 101.815 41.4535C101.44 40.7371 101.253 39.8859 101.253 38.8999C101.253 37.942 101.443 37.1049 101.821 36.3885C102.199 35.6681 102.732 35.1087 103.421 34.7102C104.109 34.3078 104.92 34.1065 105.853 34.1065C106.514 34.1065 107.117 34.2092 107.665 34.4144C108.212 34.6197 108.685 34.9235 109.083 35.326C109.482 35.7285 109.792 36.2255 110.013 36.8171C110.234 37.4047 110.345 38.0788 110.345 38.8395V39.576H102.286V37.8615H107.598C107.594 37.5476 107.52 37.2679 107.375 37.0224C107.23 36.7769 107.031 36.5857 106.777 36.4489C106.528 36.308 106.24 36.2376 105.914 36.2376C105.584 36.2376 105.288 36.312 105.026 36.4609C104.765 36.6058 104.558 36.805 104.405 37.0586C104.252 37.3081 104.171 37.5919 104.163 37.9098V39.6545C104.163 40.0328 104.238 40.3648 104.387 40.6506C104.535 40.9323 104.747 41.1516 105.02 41.3086C105.294 41.4656 105.62 41.544 105.998 41.544C106.26 41.544 106.497 41.5078 106.711 41.4354C106.924 41.3629 107.107 41.2563 107.26 41.1154C107.413 40.9745 107.528 40.8015 107.604 40.5962L110.315 40.6747C110.202 41.2824 109.955 41.8117 109.572 42.2624C109.194 42.7092 108.697 43.0573 108.081 43.3068C107.465 43.5523 106.753 43.6751 105.944 43.6751ZM111.853 43.5V31.1364H120.292V33.5632H114.841V36.0987H119.755V38.5316H114.841V43.5H111.853ZM125.445 43.6751C124.471 43.6751 123.634 43.4758 122.933 43.0774C122.237 42.6749 121.7 42.1155 121.322 41.3991C120.947 40.6787 120.76 39.8436 120.76 38.8938C120.76 37.94 120.947 37.1049 121.322 36.3885C121.7 35.6681 122.237 35.1087 122.933 34.7102C123.634 34.3078 124.471 34.1065 125.445 34.1065C126.419 34.1065 127.254 34.3078 127.95 34.7102C128.65 35.1087 129.188 35.6681 129.562 36.3885C129.94 37.1049 130.129 37.94 130.129 38.8938C130.129 39.8436 129.94 40.6787 129.562 41.3991C129.188 42.1155 128.65 42.6749 127.95 43.0774C127.254 43.4758 126.419 43.6751 125.445 43.6751ZM125.463 41.4474C125.817 41.4474 126.117 41.3388 126.362 41.1214C126.608 40.9041 126.795 40.6023 126.924 40.2159C127.057 39.8295 127.123 39.3828 127.123 38.8757C127.123 38.3606 127.057 37.9098 126.924 37.5234C126.795 37.1371 126.608 36.8352 126.362 36.6179C126.117 36.4006 125.817 36.2919 125.463 36.2919C125.097 36.2919 124.787 36.4006 124.533 36.6179C124.284 36.8352 124.093 37.1371 123.96 37.5234C123.831 37.9098 123.767 38.3606 123.767 38.8757C123.767 39.3828 123.831 39.8295 123.96 40.2159C124.093 40.6023 124.284 40.9041 124.533 41.1214C124.787 41.3388 125.097 41.4474 125.463 41.4474ZM131.642 43.5V34.2273H134.509V35.9176H134.606C134.775 35.3059 135.051 34.8511 135.433 34.5533C135.815 34.2514 136.26 34.1005 136.767 34.1005C136.904 34.1005 137.045 34.1106 137.19 34.1307C137.335 34.1468 137.469 34.1729 137.594 34.2092V36.7749C137.453 36.7266 137.268 36.6883 137.039 36.6602C136.813 36.632 136.612 36.6179 136.435 36.6179C136.085 36.6179 135.769 36.6964 135.487 36.8533C135.21 37.0063 134.99 37.2216 134.829 37.4993C134.672 37.773 134.594 38.0949 134.594 38.4652V43.5H131.642ZM142.638 47.1704C141.757 47.1704 141.002 47.0477 140.374 46.8022C139.746 46.5567 139.253 46.2206 138.895 45.794C138.537 45.3674 138.322 44.8845 138.249 44.3452L141.044 44.1882C141.097 44.3774 141.193 44.5424 141.334 44.6832C141.479 44.8241 141.666 44.9328 141.895 45.0092C142.129 45.0857 142.403 45.1239 142.716 45.1239C143.212 45.1239 143.62 45.0032 143.942 44.7617C144.268 44.5243 144.431 44.1077 144.431 43.5121V41.8821H144.328C144.212 42.1678 144.035 42.4234 143.797 42.6488C143.56 42.8742 143.264 43.0513 142.91 43.18C142.56 43.3088 142.157 43.3732 141.702 43.3732C141.026 43.3732 140.406 43.2163 139.843 42.9023C139.283 42.5844 138.835 42.0934 138.497 41.4293C138.163 40.7612 137.996 39.902 137.996 38.8516C137.996 37.7689 138.169 36.8775 138.515 36.1772C138.861 35.4729 139.314 34.9517 139.873 34.6136C140.437 34.2756 141.042 34.1065 141.69 34.1065C142.177 34.1065 142.594 34.191 142.94 34.3601C143.29 34.5251 143.578 34.7384 143.803 35C144.029 35.2616 144.2 35.5333 144.316 35.815H144.401V34.2273H147.341V43.5362C147.341 44.321 147.144 44.9831 146.749 45.5224C146.355 46.0617 145.803 46.4702 145.095 46.7479C144.387 47.0296 143.568 47.1704 142.638 47.1704ZM142.729 41.2241C143.087 41.2241 143.393 41.1295 143.646 40.9403C143.9 40.7512 144.095 40.4795 144.232 40.1254C144.369 39.7712 144.437 39.3466 144.437 38.8516C144.437 38.3485 144.369 37.9158 144.232 37.5536C144.099 37.1874 143.904 36.9057 143.646 36.7084C143.393 36.5112 143.087 36.4126 142.729 36.4126C142.362 36.4126 142.052 36.5133 141.799 36.7145C141.545 36.9157 141.352 37.1995 141.219 37.5657C141.091 37.9279 141.026 38.3565 141.026 38.8516C141.026 39.3466 141.093 39.7712 141.225 40.1254C141.358 40.4795 141.549 40.7512 141.799 40.9403C142.052 41.1295 142.362 41.2241 142.729 41.2241ZM153.557 43.6751C152.587 43.6751 151.75 43.4839 151.046 43.1016C150.346 42.7152 149.806 42.1658 149.428 41.4535C149.054 40.7371 148.867 39.8859 148.867 38.8999C148.867 37.942 149.056 37.1049 149.434 36.3885C149.812 35.6681 150.346 35.1087 151.034 34.7102C151.722 34.3078 152.533 34.1065 153.467 34.1065C154.127 34.1065 154.73 34.2092 155.278 34.4144C155.825 34.6197 156.298 34.9235 156.697 35.326C157.095 35.7285 157.405 36.2255 157.626 36.8171C157.848 37.4047 157.958 38.0788 157.958 38.8395V39.576H149.899V37.8615H155.211C155.207 37.5476 155.133 37.2679 154.988 37.0224C154.843 36.7769 154.644 36.5857 154.39 36.4489C154.141 36.308 153.853 36.2376 153.527 36.2376C153.197 36.2376 152.901 36.312 152.64 36.4609C152.378 36.6058 152.171 36.805 152.018 37.0586C151.865 37.3081 151.784 37.5919 151.776 37.9098V39.6545C151.776 40.0328 151.851 40.3648 152 40.6506C152.149 40.9323 152.36 41.1516 152.634 41.3086C152.907 41.4656 153.233 41.544 153.612 41.544C153.873 41.544 154.111 41.5078 154.324 41.4354C154.537 41.3629 154.72 41.2563 154.873 41.1154C155.026 40.9745 155.141 40.8015 155.217 40.5962L157.928 40.6747C157.815 41.2824 157.568 41.8117 157.186 42.2624C156.807 42.7092 156.31 43.0573 155.694 43.3068C155.079 43.5523 154.366 43.6751 153.557 43.6751Z" fill="#F16436"/>
</g>
<defs>
<filter id="filter0_d_680_148" x="6.28571" y="2.28571" width="51.4286" height="51.4286" filterUnits="userSpaceOnUse" color-interpolation-filters="sRGB">
<feFlood flood-opacity="0" result="BackgroundImageFix"/>
<feColorMatrix in="SourceAlpha" type="matrix" values="0 0 0 0 0 0 0 0 0 0 0 0 0 0 0 0 0 0 127 0" result="hardAlpha"/>
<feOffset/>
<feGaussianBlur stdDeviation="2.85714"/>
<feComposite in2="hardAlpha" operator="out"/>
<feColorMatrix type="matrix" values="0 0 0 0 0 0 0 0 0 0 0 0 0 0 0 0 0 0 0.25 0"/>
<feBlend mode="normal" in2="BackgroundImageFix" result="effect1_dropShadow_680_148"/>
<feBlend mode="normal" in="SourceGraphic" in2="effect1_dropShadow_680_148" result="shape"/>
</filter>
<filter id="filter1_d_680_148" x="54.4" y="3.9" width="111.2" height="48.8704" filterUnits="userSpaceOnUse" color-interpolation-filters="sRGB">
<feFlood flood-opacity="0" result="BackgroundImageFix"/>
<feColorMatrix in="SourceAlpha" type="matrix" values="0 0 0 0 0 0 0 0 0 0 0 0 0 0 0 0 0 0 127 0" result="hardAlpha"/>
<feOffset/>
<feGaussianBlur stdDeviation="2.8"/>
<feComposite in2="hardAlpha" operator="out"/>
<feColorMatrix type="matrix" values="0 0 0 0 0 0 0 0 0 0 0 0 0 0 0 0 0 0 0.25 0"/>
<feBlend mode="normal" in2="BackgroundImageFix" result="effect1_dropShadow_680_148"/>
<feBlend mode="normal" in="SourceGraphic" in2="effect1_dropShadow_680_148" result="shape"/>
</filter>
<linearGradient id="paint0_linear_680_148" x1="86" y1="0" x2="86" y2="56" gradientUnits="userSpaceOnUse">
<stop stop-color="#2E140B"/>
<stop offset="1" stop-color="#1E0C07"/>
</linearGradient>
</defs>
</svg>
