<svg width="220" height="40" viewBox="0 0 220 40" fill="none" xmlns="http://www.w3.org/2000/svg">
<g clip-path="url(#clip0_680_41)">
<rect x="-9.15527e-05" y="0.00558472" width="220.001" height="40.0014" rx="8" fill="url(#paint0_linear_680_41)"/>
<g filter="url(#filter0_d_680_41)">
<path d="M22.0014 6.50648C14.2664 6.50648 7.99985 12.7067 7.99985 20.3481C7.99985 26.467 12.0113 31.6533 17.5708 33.483C18.2735 33.6136 18.5273 33.1854 18.5273 32.8151C18.5273 32.4864 18.5194 31.6169 18.5142 30.4629C14.6173 31.2969 13.7965 28.6021 13.7965 28.6021C13.1586 27.0068 12.2379 26.5786 12.2379 26.5786C10.9708 25.723 12.3386 25.7412 12.3386 25.7412C13.7422 25.8355 14.4808 27.1643 14.4808 27.1643C15.7296 29.282 17.7572 28.6695 18.5597 28.3131C18.6822 27.4212 19.0471 26.8078 19.4444 26.4661C16.336 26.1192 13.0675 24.9297 13.0675 19.6258C13.0675 18.111 13.6101 16.8773 14.5071 15.9084C14.3522 15.5615 13.8779 14.1514 14.6305 12.2447C14.6305 12.2447 15.8022 11.8753 18.4809 13.6643C19.6019 13.3572 20.792 13.2041 21.9813 13.1963C23.1714 13.2041 24.3607 13.3581 25.4817 13.6643C28.1446 11.8753 29.3155 12.2447 29.3155 12.2447C30.0672 14.1514 29.5929 15.5606 29.4564 15.9084C30.3446 16.8773 30.8872 18.1118 30.8872 19.6258C30.8872 24.9418 27.6143 26.114 24.5025 26.4523C24.989 26.8667 25.4449 27.7188 25.4449 29.0121C25.4449 30.8634 25.4274 32.3549 25.4274 32.8056C25.4274 33.1655 25.6725 33.598 26.3935 33.4588C31.9942 31.6481 36.0013 26.4575 36.0013 20.3473C36.0013 12.7058 29.7347 6.50562 21.9997 6.50562L22.0014 6.50648Z" fill="white"/>
</g>
<g filter="url(#filter1_d_680_41)">
<path d="M42.4239 29.4946V24.9246H43.2389C43.5166 24.6912 43.7762 24.3591 44.0176 23.9285C44.2591 23.4979 44.4644 22.9163 44.6334 22.1838C44.8024 21.4514 44.9192 20.5116 44.9836 19.3646L45.2733 14.1426H52.898V24.9246H54.2985V29.4765H52.5116V26.5063H44.2108V29.4946H42.4239ZM45.4363 24.9246H51.111V15.7485H46.9637L46.7705 19.3646C46.7182 20.2379 46.6316 21.0227 46.5109 21.719C46.3942 22.4153 46.2433 23.031 46.0581 23.5663C45.877 24.0975 45.6698 24.5503 45.4363 24.9246ZM60.103 26.6934C59.2337 26.6934 58.4751 26.4942 57.8271 26.0958C57.1792 25.6973 56.6761 25.1399 56.3179 24.4235C55.9597 23.7072 55.7806 22.87 55.7806 21.9122C55.7806 20.9503 55.9597 20.1091 56.3179 19.3887C56.6761 18.6683 57.1792 18.1089 57.8271 17.7105C58.4751 17.312 59.2337 17.1128 60.103 17.1128C60.9724 17.1128 61.731 17.312 62.379 17.7105C63.0269 18.1089 63.53 18.6683 63.8882 19.3887C64.2464 20.1091 64.4255 20.9503 64.4255 21.9122C64.4255 22.87 64.2464 23.7072 63.8882 24.4235C63.53 25.1399 63.0269 25.6973 62.379 26.0958C61.731 26.4942 60.9724 26.6934 60.103 26.6934ZM60.1091 25.1782C60.6725 25.1782 61.1394 25.0292 61.5097 24.7314C61.8799 24.4336 62.1536 24.0372 62.3307 23.5421C62.5118 23.0471 62.6023 22.5018 62.6023 21.9061C62.6023 21.3145 62.5118 20.7712 62.3307 20.2762C62.1536 19.7771 61.8799 19.3767 61.5097 19.0748C61.1394 18.773 60.6725 18.6221 60.1091 18.6221C59.5416 18.6221 59.0707 18.773 58.6964 19.0748C58.3262 19.3767 58.0505 19.7771 57.8694 20.2762C57.6923 20.7712 57.6038 21.3145 57.6038 21.9061C57.6038 22.5018 57.6923 23.0471 57.8694 23.5421C58.0505 24.0372 58.3262 24.4336 58.6964 24.7314C59.0707 25.0292 59.5416 25.1782 60.1091 25.1782ZM70.3462 26.6934C69.4487 26.6934 68.676 26.4902 68.028 26.0837C67.3841 25.6732 66.8891 25.1077 66.5429 24.3873C66.1968 23.6669 66.0238 22.8419 66.0238 21.9122C66.0238 20.9704 66.2008 20.1393 66.555 19.4189C66.9092 18.6945 67.4082 18.129 68.0522 17.7225C68.6961 17.3161 69.4548 17.1128 70.3281 17.1128C71.0324 17.1128 71.6602 17.2436 72.2116 17.5052C72.763 17.7628 73.2077 18.125 73.5458 18.5919C73.8879 19.0587 74.0911 19.6041 74.1555 20.2279H72.3988C72.3022 19.7932 72.0808 19.4189 71.7347 19.105C71.3926 18.7911 70.9338 18.6341 70.3583 18.6341C69.8552 18.6341 69.4145 18.7669 69.0362 19.0326C68.6619 19.2942 68.3701 19.6685 68.1608 20.1554C67.9516 20.6384 67.8469 21.2099 67.8469 21.8699C67.8469 22.5461 67.9495 23.1296 68.1548 23.6206C68.3601 24.1116 68.6498 24.492 69.0241 24.7616C69.4024 25.0313 69.8472 25.1661 70.3583 25.1661C70.7004 25.1661 71.0103 25.1037 71.288 24.9789C71.5697 24.8502 71.8051 24.667 71.9943 24.4296C72.1875 24.1921 72.3223 23.9064 72.3988 23.5723H74.1555C74.0911 24.172 73.8959 24.7073 73.5699 25.1782C73.2439 25.649 72.8073 26.0193 72.2599 26.289C71.7166 26.5586 71.0787 26.6934 70.3462 26.6934ZM75.384 18.7911V17.2336H83.2079V18.7911H80.1834V26.5063H78.4206V18.7911H75.384ZM86.258 29.9836C85.9884 29.9836 85.7429 29.9614 85.5215 29.9171C85.3002 29.8769 85.1352 29.8326 85.0265 29.7843L85.4612 28.3053C85.7912 28.3938 86.085 28.4321 86.3426 28.42C86.6001 28.4079 86.8275 28.3113 87.0247 28.1302C87.226 27.9491 87.4031 27.6533 87.556 27.2428L87.7794 26.627L84.3866 17.2336H86.3184L88.6668 24.4296H88.7634L91.1117 17.2336H93.0496L89.2282 27.7439C89.0511 28.2268 88.8258 28.6353 88.5521 28.9693C88.2784 29.3074 87.9524 29.561 87.5741 29.73C87.1958 29.899 86.7571 29.9836 86.258 29.9836ZM94.746 26.5063V17.2336H102.31V26.5063H100.541V18.7911H96.5027V26.5063H94.746ZM108.72 26.6934C107.806 26.6934 107.02 26.4982 106.36 26.1078C105.704 25.7134 105.196 25.16 104.838 24.4477C104.484 23.7313 104.307 22.8922 104.307 21.9303C104.307 20.9805 104.484 20.1434 104.838 19.4189C105.196 18.6945 105.695 18.129 106.335 17.7225C106.979 17.3161 107.732 17.1128 108.593 17.1128C109.116 17.1128 109.623 17.1993 110.114 17.3724C110.605 17.5455 111.046 17.8171 111.437 18.1874C111.827 18.5577 112.135 19.0386 112.36 19.6302C112.586 20.2178 112.698 20.9322 112.698 21.7733V22.4132H105.327V21.061H110.929C110.929 20.5861 110.833 20.1655 110.64 19.7993C110.447 19.429 110.175 19.1372 109.825 18.9239C109.479 18.7106 109.072 18.6039 108.605 18.6039C108.098 18.6039 107.655 18.7287 107.277 18.9782C106.903 19.2237 106.613 19.5457 106.408 19.9441C106.207 20.3386 106.106 20.7672 106.106 21.23V22.2865C106.106 22.9063 106.215 23.4335 106.432 23.8681C106.653 24.3028 106.961 24.6348 107.356 24.8642C107.75 25.0896 108.211 25.2023 108.738 25.2023C109.08 25.2023 109.392 25.154 109.674 25.0574C109.956 24.9568 110.199 24.8079 110.404 24.6107C110.61 24.4135 110.766 24.17 110.875 23.8802L112.584 24.1881C112.447 24.6912 112.201 25.1319 111.847 25.5102C111.497 25.8845 111.056 26.1763 110.525 26.3855C109.998 26.5908 109.396 26.6934 108.72 26.6934ZM120.985 21.0912V22.6547H115.963V21.0912H120.985ZM116.47 17.2336V26.5063H114.701V17.2336H116.47ZM122.247 17.2336V26.5063H120.484V17.2336H122.247ZM135.445 21.0912V22.6547H130.423V21.0912H135.445ZM130.93 17.2336V26.5063H129.161V17.2336H130.93ZM136.707 17.2336V26.5063H134.944V17.2336H136.707ZM141.82 26.7115C141.233 26.7115 140.702 26.6029 140.227 26.3855C139.752 26.1642 139.375 25.8442 139.098 25.4257C138.824 25.0071 138.687 24.494 138.687 23.8863C138.687 23.3631 138.788 22.9324 138.989 22.5944C139.19 22.2563 139.462 21.9886 139.804 21.7914C140.146 21.5942 140.529 21.4453 140.951 21.3447C141.374 21.2441 141.804 21.1676 142.243 21.1153C142.798 21.0509 143.249 20.9986 143.595 20.9583C143.941 20.9141 144.193 20.8436 144.35 20.7471C144.507 20.6505 144.585 20.4935 144.585 20.2762V20.2339C144.585 19.7067 144.436 19.2982 144.139 19.0084C143.845 18.7186 143.406 18.5738 142.823 18.5738C142.215 18.5738 141.736 18.7086 141.386 18.9782C141.04 19.2439 140.8 19.5397 140.667 19.8657L138.971 19.4793C139.172 18.9158 139.466 18.4611 139.852 18.1149C140.243 17.7648 140.692 17.5113 141.199 17.3543C141.706 17.1933 142.239 17.1128 142.798 17.1128C143.169 17.1128 143.561 17.1571 143.976 17.2456C144.394 17.3301 144.785 17.4871 145.147 17.7165C145.513 17.9459 145.813 18.2739 146.046 18.7005C146.28 19.1231 146.396 19.6725 146.396 20.3486V26.5063H144.634V25.2385H144.561C144.444 25.472 144.269 25.7014 144.036 25.9267C143.803 26.1521 143.503 26.3393 143.136 26.4882C142.77 26.6371 142.332 26.7115 141.82 26.7115ZM142.213 25.2627C142.712 25.2627 143.139 25.1641 143.493 24.9669C143.851 24.7697 144.123 24.5121 144.308 24.1941C144.497 23.8722 144.591 23.5281 144.591 23.1618V21.9665C144.527 22.0309 144.402 22.0913 144.217 22.1476C144.036 22.1999 143.829 22.2462 143.595 22.2865C143.362 22.3227 143.134 22.3569 142.913 22.3891C142.692 22.4173 142.507 22.4414 142.358 22.4615C142.008 22.5058 141.688 22.5803 141.398 22.6849C141.112 22.7895 140.883 22.9405 140.71 23.1377C140.541 23.3309 140.456 23.5884 140.456 23.9104C140.456 24.3571 140.621 24.6952 140.951 24.9246C141.281 25.15 141.702 25.2627 142.213 25.2627Z" fill="#E8E8E8"/>
<path d="M161.051 18.1814C160.982 17.9278 160.882 17.7044 160.749 17.5113C160.616 17.314 160.453 17.147 160.26 17.0102C160.067 16.8734 159.845 16.7707 159.596 16.7023C159.346 16.6299 159.073 16.5936 158.775 16.5936C158.175 16.5936 157.656 16.7385 157.217 17.0283C156.783 17.3181 156.446 17.7407 156.209 18.2961C155.972 18.8474 155.853 19.5175 155.853 20.3064C155.853 21.0992 155.968 21.7753 156.197 22.3348C156.426 22.8942 156.758 23.3208 157.193 23.6146C157.628 23.9084 158.155 24.0553 158.775 24.0553C159.322 24.0553 159.785 23.9667 160.163 23.7897C160.546 23.6086 160.835 23.353 161.033 23.023C161.23 22.693 161.328 22.3046 161.328 21.8578L161.884 21.9243H158.877V19.7449H164.208V21.3809C164.208 22.4877 163.973 23.4355 163.502 24.2243C163.035 25.0131 162.391 25.6189 161.57 26.0414C160.753 26.464 159.813 26.6753 158.751 26.6753C157.571 26.6753 156.535 26.4198 155.642 25.9086C154.748 25.3975 154.052 24.669 153.553 23.7233C153.054 22.7734 152.804 21.6466 152.804 20.3426C152.804 19.3284 152.955 18.4289 153.257 17.6441C153.559 16.8552 153.979 16.1872 154.519 15.6398C155.062 15.0925 155.69 14.6779 156.402 14.3962C157.119 14.1145 157.889 13.9736 158.714 13.9736C159.431 13.9736 160.097 14.0762 160.713 14.2815C161.332 14.4868 161.88 14.7765 162.355 15.1508C162.834 15.5251 163.222 15.9698 163.52 16.485C163.818 17.0001 164.003 17.5656 164.075 18.1814H161.051ZM166.55 26.5063V17.2336H169.502V26.5063H166.55ZM168.029 16.1529C167.615 16.1529 167.259 16.0161 166.961 15.7424C166.663 15.4647 166.514 15.1307 166.514 14.7403C166.514 14.3539 166.663 14.0239 166.961 13.7502C167.259 13.4725 167.615 13.3337 168.029 13.3337C168.448 13.3337 168.804 13.4725 169.098 13.7502C169.396 14.0239 169.545 14.3539 169.545 14.7403C169.545 15.1307 169.396 15.4647 169.098 15.7424C168.804 16.0161 168.448 16.1529 168.029 16.1529ZM176.615 17.2336V19.4069H170.766V17.2336H176.615ZM171.991 15.012H174.943V23.5904C174.943 23.7716 174.971 23.9185 175.028 24.0311C175.088 24.1398 175.175 24.2183 175.287 24.2666C175.4 24.3109 175.535 24.333 175.692 24.333C175.804 24.333 175.923 24.3229 176.048 24.3028C176.177 24.2787 176.273 24.2585 176.338 24.2424L176.784 26.3735C176.644 26.4137 176.444 26.464 176.187 26.5244C175.933 26.5848 175.629 26.623 175.275 26.6391C174.583 26.6713 173.989 26.5908 173.494 26.3976C173.003 26.2004 172.627 25.8945 172.365 25.48C172.108 25.0655 171.983 24.5443 171.991 23.9164V15.012ZM178.321 26.5063V14.1426H181.309V19.105H186.181V14.1426H189.163V26.5063H186.181V21.5379H181.309V26.5063H178.321ZM197.02 22.5038V17.2336H199.966V26.5063H197.153V24.7797H197.056C196.851 25.3472 196.501 25.7979 196.006 26.132C195.515 26.462 194.921 26.627 194.225 26.627C193.593 26.627 193.038 26.4821 192.559 26.1924C192.08 25.9026 191.708 25.4981 191.442 24.9789C191.176 24.4557 191.042 23.844 191.038 23.1437V17.2336H193.99V22.5642C193.994 23.0672 194.126 23.4637 194.388 23.7534C194.65 24.0432 195.006 24.1881 195.457 24.1881C195.75 24.1881 196.014 24.1237 196.247 23.9949C196.485 23.8621 196.672 23.6709 196.809 23.4214C196.95 23.1679 197.02 22.862 197.02 22.5038ZM201.845 26.5063V14.1426H204.797V18.8213H204.858C204.978 18.5395 205.149 18.2679 205.371 18.0063C205.596 17.7447 205.882 17.5314 206.228 17.3664C206.578 17.1973 206.997 17.1128 207.484 17.1128C208.128 17.1128 208.729 17.2819 209.289 17.6199C209.852 17.958 210.307 18.4792 210.653 19.1835C210.999 19.8878 211.172 20.7853 211.172 21.876C211.172 22.9264 211.005 23.8058 210.671 24.5141C210.341 25.2224 209.894 25.7537 209.331 26.1078C208.772 26.462 208.15 26.6391 207.466 26.6391C206.999 26.6391 206.594 26.5626 206.252 26.4097C205.91 26.2568 205.622 26.0555 205.389 25.806C205.159 25.5565 204.982 25.2888 204.858 25.0031H204.767V26.5063H201.845ZM204.737 21.8699C204.737 22.369 204.803 22.8036 204.936 23.1739C205.073 23.5442 205.268 23.8319 205.522 24.0372C205.779 24.2384 206.087 24.339 206.445 24.339C206.808 24.339 207.115 24.2384 207.369 24.0372C207.623 23.8319 207.814 23.5442 207.942 23.1739C208.075 22.8036 208.142 22.369 208.142 21.8699C208.142 21.3709 208.075 20.9382 207.942 20.572C207.814 20.2057 207.623 19.922 207.369 19.7208C207.119 19.5195 206.812 19.4189 206.445 19.4189C206.083 19.4189 205.775 19.5175 205.522 19.7147C205.268 19.9119 205.073 20.1937 204.936 20.5599C204.803 20.9261 204.737 21.3628 204.737 21.8699Z" fill="white"/>
</g>
</g>
<rect x="1.07134" y="1.07701" width="217.858" height="37.8585" rx="6.92857" stroke="white" stroke-opacity="0.15" stroke-width="2.14286"/>
<defs>
<filter id="filter0_d_680_41" x="2.39957" y="0.405304" width="39.202" height="39.202" filterUnits="userSpaceOnUse" color-interpolation-filters="sRGB">
<feFlood flood-opacity="0" result="BackgroundImageFix"/>
<feColorMatrix in="SourceAlpha" type="matrix" values="0 0 0 0 0 0 0 0 0 0 0 0 0 0 0 0 0 0 127 0" result="hardAlpha"/>
<feOffset/>
<feGaussianBlur stdDeviation="2.80014"/>
<feComposite in2="hardAlpha" operator="out"/>
<feColorMatrix type="matrix" values="0 0 0 0 0 0 0 0 0 0 0 0 0 0 0 0 0 0 0.25 0"/>
<feBlend mode="normal" in2="BackgroundImageFix" result="effect1_dropShadow_680_41"/>
<feBlend mode="normal" in="SourceGraphic" in2="effect1_dropShadow_680_41" result="shape"/>
</filter>
<filter id="filter1_d_680_41" x="36.287" y="3.792" width="181.429" height="32.4286" filterUnits="userSpaceOnUse" color-interpolation-filters="sRGB">
<feFlood flood-opacity="0" result="BackgroundImageFix"/>
<feColorMatrix in="SourceAlpha" type="matrix" values="0 0 0 0 0 0 0 0 0 0 0 0 0 0 0 0 0 0 127 0" result="hardAlpha"/>
<feOffset/>
<feGaussianBlur stdDeviation="2.85714"/>
<feComposite in2="hardAlpha" operator="out"/>
<feColorMatrix type="matrix" values="0 0 0 0 0 0 0 0 0 0 0 0 0 0 0 0 0 0 0.25 0"/>
<feBlend mode="normal" in2="BackgroundImageFix" result="effect1_dropShadow_680_41"/>
<feBlend mode="normal" in="SourceGraphic" in2="effect1_dropShadow_680_41" result="shape"/>
</filter>
<linearGradient id="paint0_linear_680_41" x1="110.001" y1="0.00558472" x2="110.001" y2="40.007" gradientUnits="userSpaceOnUse">
<stop stop-color="#181F29"/>
<stop offset="1" stop-color="#0F131A"/>
</linearGradient>
<clipPath id="clip0_680_41">
<rect x="-9.15527e-05" y="0.00558472" width="220.001" height="40.0014" rx="8" fill="white"/>
</clipPath>
</defs>
</svg>
