<svg width="232" height="40" viewBox="0 0 232 40" fill="none" xmlns="http://www.w3.org/2000/svg">
<g clip-path="url(#clip0_680_84)">
<rect x="-9.15527e-05" y="0.00418091" width="232.001" height="40.0014" rx="8" fill="url(#paint0_linear_680_84)"/>
<g filter="url(#filter0_d_680_84)">
<path d="M22.0015 33.0056C29.1816 33.0056 35.0022 27.185 35.0022 20.0049C35.0022 12.8248 29.1816 7.00424 22.0015 7.00424C14.8215 7.00424 9.00089 12.8248 9.00089 20.0049C9.00089 27.185 14.8215 33.0056 22.0015 33.0056Z" stroke="#F1F1F1" stroke-width="2.80014" stroke-linecap="round" stroke-linejoin="round"/>
<path d="M9.00107 20.0049H35.0024" stroke="#F1F1F1" stroke-width="2.80014" stroke-linecap="round" stroke-linejoin="round"/>
<path d="M22.0015 7.00424C25.2533 10.5643 27.1013 15.1843 27.2018 20.0049C27.1013 24.8255 25.2533 29.4455 22.0015 33.0056C18.7497 29.4455 16.9017 24.8255 16.8012 20.0049C16.9017 15.1843 18.7497 10.5643 22.0015 7.00424V7.00424Z" stroke="#F1F1F1" stroke-width="2.80014" stroke-linecap="round" stroke-linejoin="round"/>
</g>
<g filter="url(#filter1_d_680_84)">
<path d="M53.0247 14.1412V26.5049H51.1654V15.735H45.3458V26.5049H43.4864V14.1412H53.0247ZM59.6382 26.692C58.7689 26.692 58.0102 26.4928 57.3623 26.0944C56.7143 25.6959 56.2112 25.1385 55.853 24.4221C55.4949 23.7058 55.3158 22.8686 55.3158 21.9108C55.3158 20.9489 55.4949 20.1077 55.853 19.3873C56.2112 18.6669 56.7143 18.1075 57.3623 17.7091C58.0102 17.3106 58.7689 17.1114 59.6382 17.1114C60.5075 17.1114 61.2662 17.3106 61.9141 17.7091C62.5621 18.1075 63.0652 18.6669 63.4234 19.3873C63.7815 20.1077 63.9606 20.9489 63.9606 21.9108C63.9606 22.8686 63.7815 23.7058 63.4234 24.4221C63.0652 25.1385 62.5621 25.6959 61.9141 26.0944C61.2662 26.4928 60.5075 26.692 59.6382 26.692ZM59.6442 25.1768C60.2077 25.1768 60.6745 25.0278 61.0448 24.73C61.4151 24.4322 61.6887 24.0358 61.8658 23.5407C62.0469 23.0457 62.1375 22.5004 62.1375 21.9047C62.1375 21.3131 62.0469 20.7698 61.8658 20.2748C61.6887 19.7757 61.4151 19.3753 61.0448 19.0734C60.6745 18.7716 60.2077 18.6206 59.6442 18.6206C59.0768 18.6206 58.6059 18.7716 58.2316 19.0734C57.8613 19.3753 57.5856 19.7757 57.4045 20.2748C57.2275 20.7698 57.1389 21.3131 57.1389 21.9047C57.1389 22.5004 57.2275 23.0457 57.4045 23.5407C57.5856 24.0358 57.8613 24.4322 58.2316 24.73C58.6059 25.0278 59.0768 25.1768 59.6442 25.1768ZM71.1793 24.2712L74.1736 17.2322H75.7311L71.8494 26.5049H70.5092L66.7059 17.2322H68.2454L71.1793 24.2712ZM67.7443 17.2322V26.5049H65.9755V17.2322H67.7443ZM74.6626 26.5049V17.2322H76.4194V26.5049H74.6626ZM82.731 26.692C81.8617 26.692 81.103 26.4928 80.455 26.0944C79.8071 25.6959 79.304 25.1385 78.9458 24.4221C78.5876 23.7058 78.4085 22.8686 78.4085 21.9108C78.4085 20.9489 78.5876 20.1077 78.9458 19.3873C79.304 18.6669 79.8071 18.1075 80.455 17.7091C81.103 17.3106 81.8617 17.1114 82.731 17.1114C83.6003 17.1114 84.3589 17.3106 85.0069 17.7091C85.6549 18.1075 86.1579 18.6669 86.5161 19.3873C86.8743 20.1077 87.0534 20.9489 87.0534 21.9108C87.0534 22.8686 86.8743 23.7058 86.5161 24.4221C86.1579 25.1385 85.6549 25.6959 85.0069 26.0944C84.3589 26.4928 83.6003 26.692 82.731 26.692ZM82.737 25.1768C83.3005 25.1768 83.7673 25.0278 84.1376 24.73C84.5078 24.4322 84.7815 24.0358 84.9586 23.5407C85.1397 23.0457 85.2303 22.5004 85.2303 21.9047C85.2303 21.3131 85.1397 20.7698 84.9586 20.2748C84.7815 19.7757 84.5078 19.3753 84.1376 19.0734C83.7673 18.7716 83.3005 18.6206 82.737 18.6206C82.1695 18.6206 81.6987 18.7716 81.3244 19.0734C80.9541 19.3753 80.6784 19.7757 80.4973 20.2748C80.3202 20.7698 80.2317 21.3131 80.2317 21.9047C80.2317 22.5004 80.3202 23.0457 80.4973 23.5407C80.6784 24.0358 80.9541 24.4322 81.3244 24.73C81.6987 25.0278 82.1695 25.1768 82.737 25.1768ZM96.5118 17.2322V26.5049H94.749V17.2322H96.5118ZM95.7451 21.5365V23.094C95.4674 23.2067 95.1736 23.3073 94.8637 23.3959C94.5538 23.4804 94.2278 23.5468 93.8857 23.5951C93.5436 23.6434 93.1874 23.6675 92.8172 23.6675C91.6702 23.6675 90.7586 23.3878 90.0824 22.8284C89.4063 22.2649 89.0682 21.4037 89.0682 20.2446V17.214H90.825V20.2446C90.825 20.6833 90.9055 21.0394 91.0665 21.3131C91.2274 21.5868 91.4568 21.788 91.7547 21.9168C92.0525 22.0456 92.4067 22.11 92.8172 22.11C93.3605 22.11 93.8616 22.0597 94.3204 21.9591C94.7832 21.8544 95.2581 21.7136 95.7451 21.5365ZM100.271 20.4197H102.964C104.099 20.4197 104.972 20.7014 105.584 21.2648C106.196 21.8283 106.501 22.5547 106.501 23.4442C106.501 24.0237 106.365 24.5449 106.091 25.0077C105.817 25.4706 105.417 25.8368 104.89 26.1064C104.362 26.3721 103.72 26.5049 102.964 26.5049H98.913V17.2322H100.682V24.9473H102.964C103.483 24.9473 103.91 24.8125 104.244 24.5429C104.578 24.2692 104.745 23.9211 104.745 23.4985C104.745 23.0518 104.578 22.6875 104.244 22.4058C103.91 22.1201 103.483 21.9772 102.964 21.9772H100.271V20.4197ZM116.93 26.692C116.033 26.692 115.26 26.4888 114.612 26.0823C113.968 25.6718 113.473 25.1063 113.127 24.3859C112.781 23.6655 112.608 22.8405 112.608 21.9108C112.608 20.969 112.785 20.1379 113.139 19.4175C113.493 18.6931 113.992 18.1276 114.636 17.7211C115.28 17.3147 116.039 17.1114 116.912 17.1114C117.616 17.1114 118.244 17.2422 118.796 17.5038C119.347 17.7614 119.792 18.1236 120.13 18.5905C120.472 19.0573 120.675 19.6027 120.739 20.2265H118.983C118.886 19.7918 118.665 19.4175 118.319 19.1036C117.977 18.7897 117.518 18.6327 116.942 18.6327C116.439 18.6327 115.998 18.7655 115.62 19.0312C115.246 19.2928 114.954 19.667 114.745 20.154C114.536 20.637 114.431 21.2085 114.431 21.8685C114.431 22.5447 114.534 23.1282 114.739 23.6192C114.944 24.1102 115.234 24.4906 115.608 24.7602C115.986 25.0299 116.431 25.1647 116.942 25.1647C117.284 25.1647 117.594 25.1023 117.872 24.9775C118.154 24.8487 118.389 24.6656 118.578 24.4282C118.771 24.1907 118.906 23.905 118.983 23.5709H120.739C120.675 24.1706 120.48 24.7059 120.154 25.1768C119.828 25.6476 119.391 26.0179 118.844 26.2875C118.301 26.5572 117.663 26.692 116.93 26.692Z" fill="#E8E8E8"/>
<path d="M126.937 26.5049V17.2322H135.31V26.5049H132.515V19.49H129.696V26.5049H126.937ZM141.515 26.6799C140.545 26.6799 139.708 26.4888 139.003 26.1064C138.303 25.7201 137.764 25.1707 137.385 24.4584C137.011 23.742 136.824 22.8908 136.824 21.9047C136.824 20.9469 137.013 20.1098 137.391 19.3934C137.77 18.673 138.303 18.1135 138.991 17.7151C139.679 17.3126 140.49 17.1114 141.424 17.1114C142.084 17.1114 142.688 17.214 143.235 17.4193C143.783 17.6246 144.255 17.9284 144.654 18.3309C145.052 18.7333 145.362 19.2304 145.584 19.822C145.805 20.4096 145.916 21.0837 145.916 21.8444V22.5809H137.856V20.8664H143.169C143.165 20.5525 143.09 20.2728 142.945 20.0273C142.801 19.7817 142.601 19.5906 142.348 19.4537C142.098 19.3129 141.81 19.2425 141.484 19.2425C141.154 19.2425 140.859 19.3169 140.597 19.4658C140.335 19.6107 140.128 19.8099 139.975 20.0635C139.822 20.313 139.742 20.5967 139.734 20.9147V22.6594C139.734 23.0377 139.808 23.3697 139.957 23.6554C140.106 23.9372 140.317 24.1565 140.591 24.3135C140.865 24.4704 141.191 24.5489 141.569 24.5489C141.831 24.5489 142.068 24.5127 142.281 24.4402C142.495 24.3678 142.678 24.2612 142.831 24.1203C142.984 23.9794 143.098 23.8064 143.175 23.6011L145.885 23.6796C145.773 24.2873 145.525 24.8165 145.143 25.2673C144.765 25.714 144.268 26.0622 143.652 26.3117C143.036 26.5572 142.324 26.6799 141.515 26.6799ZM147.423 29.9821V17.2322H150.345V18.8199H150.436C150.556 18.5381 150.728 18.2665 150.949 18.0049C151.174 17.7433 151.46 17.53 151.806 17.365C152.156 17.1959 152.575 17.1114 153.062 17.1114C153.706 17.1114 154.307 17.2804 154.867 17.6185C155.43 17.9566 155.885 18.4778 156.231 19.1821C156.577 19.8864 156.75 20.7839 156.75 21.8746C156.75 22.925 156.583 23.8044 156.249 24.5127C155.919 25.221 155.473 25.7523 154.909 26.1064C154.35 26.4606 153.728 26.6377 153.044 26.6377C152.577 26.6377 152.172 26.5612 151.83 26.4083C151.488 26.2554 151.2 26.0541 150.967 25.8046C150.738 25.5551 150.561 25.2874 150.436 25.0017H150.375V29.9821H147.423ZM150.315 21.8685C150.315 22.3676 150.381 22.8022 150.514 23.1725C150.651 23.5428 150.846 23.8305 151.1 24.0358C151.357 24.237 151.665 24.3376 152.023 24.3376C152.386 24.3376 152.694 24.237 152.947 24.0358C153.201 23.8305 153.392 23.5428 153.521 23.1725C153.653 22.8022 153.72 22.3676 153.72 21.8685C153.72 21.3695 153.653 20.9368 153.521 20.5706C153.392 20.2043 153.201 19.9206 152.947 19.7194C152.698 19.5181 152.39 19.4175 152.023 19.4175C151.661 19.4175 151.353 19.5161 151.1 19.7133C150.846 19.9105 150.651 20.1923 150.514 20.5585C150.381 20.9247 150.315 21.3614 150.315 21.8685ZM162.632 26.6799C161.662 26.6799 160.825 26.4888 160.121 26.1064C159.42 25.7201 158.881 25.1707 158.503 24.4584C158.128 23.742 157.941 22.8908 157.941 21.9047C157.941 20.9469 158.13 20.1098 158.509 19.3934C158.887 18.673 159.42 18.1135 160.108 17.7151C160.797 17.3126 161.608 17.1114 162.541 17.1114C163.201 17.1114 163.805 17.214 164.352 17.4193C164.9 17.6246 165.373 17.9284 165.771 18.3309C166.17 18.7333 166.479 19.2304 166.701 19.822C166.922 20.4096 167.033 21.0837 167.033 21.8444V22.5809H158.973V20.8664H164.286C164.282 20.5525 164.208 20.2728 164.063 20.0273C163.918 19.7817 163.719 19.5906 163.465 19.4537C163.215 19.3129 162.928 19.2425 162.602 19.2425C162.272 19.2425 161.976 19.3169 161.714 19.4658C161.453 19.6107 161.245 19.8099 161.092 20.0635C160.94 20.313 160.859 20.5967 160.851 20.9147V22.6594C160.851 23.0377 160.925 23.3697 161.074 23.6554C161.223 23.9372 161.435 24.1565 161.708 24.3135C161.982 24.4704 162.308 24.5489 162.686 24.5489C162.948 24.5489 163.185 24.5127 163.399 24.4402C163.612 24.3678 163.795 24.2612 163.948 24.1203C164.101 23.9794 164.216 23.8064 164.292 23.6011L167.003 23.6796C166.89 24.2873 166.642 24.8165 166.26 25.2673C165.882 25.714 165.385 26.0622 164.769 26.3117C164.153 26.5572 163.441 26.6799 162.632 26.6799ZM168.541 26.5049V17.2322H172.543C173.738 17.2322 174.68 17.4475 175.368 17.8781C176.061 18.3047 176.407 18.9305 176.407 19.7556C176.407 20.2345 176.211 20.647 175.821 20.9932C175.435 21.3353 174.885 21.5667 174.173 21.6874C174.801 21.7196 175.322 21.8444 175.737 22.0617C176.151 22.279 176.461 22.5547 176.666 22.8888C176.871 23.2228 176.974 23.579 176.974 23.9573C176.974 24.5046 176.827 24.9675 176.533 25.3458C176.24 25.7241 175.809 26.0119 175.242 26.2091C174.678 26.4063 173.986 26.5049 173.165 26.5049H168.541ZM171.287 24.3678H173.165C173.479 24.3678 173.724 24.2933 173.901 24.1444C174.082 23.9955 174.173 23.7903 174.173 23.5287C174.173 23.2469 174.082 23.0256 173.901 22.8646C173.724 22.7036 173.479 22.6231 173.165 22.6231H171.287V24.3678ZM171.287 21.0233H172.621C172.835 21.0233 173.018 20.9911 173.171 20.9268C173.324 20.8624 173.44 20.7698 173.521 20.6491C173.605 20.5283 173.648 20.3834 173.648 20.2144C173.648 19.9689 173.549 19.7757 173.352 19.6349C173.159 19.494 172.889 19.4236 172.543 19.4236H171.287V21.0233ZM182.764 26.6799C181.79 26.6799 180.952 26.4807 180.252 26.0823C179.556 25.6798 179.019 25.1204 178.64 24.404C178.266 23.6836 178.079 22.8485 178.079 21.8987C178.079 20.9449 178.266 20.1098 178.64 19.3934C179.019 18.673 179.556 18.1135 180.252 17.7151C180.952 17.3126 181.79 17.1114 182.764 17.1114C183.737 17.1114 184.573 17.3126 185.269 17.7151C185.969 18.1135 186.506 18.673 186.881 19.3934C187.259 20.1098 187.448 20.9449 187.448 21.8987C187.448 22.8485 187.259 23.6836 186.881 24.404C186.506 25.1204 185.969 25.6798 185.269 26.0823C184.573 26.4807 183.737 26.6799 182.764 26.6799ZM182.782 24.4523C183.136 24.4523 183.436 24.3437 183.681 24.1263C183.927 23.909 184.114 23.6072 184.243 23.2208C184.375 22.8344 184.442 22.3877 184.442 21.8806C184.442 21.3654 184.375 20.9147 184.243 20.5283C184.114 20.142 183.927 19.8401 183.681 19.6228C183.436 19.4054 183.136 19.2968 182.782 19.2968C182.415 19.2968 182.105 19.4054 181.852 19.6228C181.602 19.8401 181.411 20.142 181.278 20.5283C181.15 20.9147 181.085 21.3654 181.085 21.8806C181.085 22.3877 181.15 22.8344 181.278 23.2208C181.411 23.6072 181.602 23.909 181.852 24.1263C182.105 24.3437 182.415 24.4523 182.782 24.4523ZM188.321 29.2396V24.229H189.015C189.224 24.1243 189.391 23.9231 189.516 23.6253C189.641 23.3234 189.739 22.9713 189.812 22.5688C189.888 22.1623 189.944 21.7397 189.981 21.301C190.021 20.8583 190.057 20.4418 190.089 20.0514L190.307 17.2322H197.817V24.229H199.265V29.2396H196.464V26.5049H191.194V29.2396H188.321ZM191.888 24.229H195.064V19.4296H192.77L192.721 20.0514C192.665 21.0495 192.577 21.8866 192.456 22.5628C192.335 23.2389 192.146 23.7943 191.888 24.229ZM204.96 26.6799C203.986 26.6799 203.149 26.4807 202.448 26.0823C201.752 25.6798 201.215 25.1204 200.837 24.404C200.462 23.6836 200.275 22.8485 200.275 21.8987C200.275 20.9449 200.462 20.1098 200.837 19.3934C201.215 18.673 201.752 18.1135 202.448 17.7151C203.149 17.3126 203.986 17.1114 204.96 17.1114C205.934 17.1114 206.769 17.3126 207.465 17.7151C208.165 18.1135 208.703 18.673 209.077 19.3934C209.455 20.1098 209.644 20.9449 209.644 21.8987C209.644 22.8485 209.455 23.6836 209.077 24.404C208.703 25.1204 208.165 25.6798 207.465 26.0823C206.769 26.4807 205.934 26.6799 204.96 26.6799ZM204.978 24.4523C205.332 24.4523 205.632 24.3437 205.877 24.1263C206.123 23.909 206.31 23.6072 206.439 23.2208C206.572 22.8344 206.638 22.3877 206.638 21.8806C206.638 21.3654 206.572 20.9147 206.439 20.5283C206.31 20.142 206.123 19.8401 205.877 19.6228C205.632 19.4054 205.332 19.2968 204.978 19.2968C204.612 19.2968 204.302 19.4054 204.048 19.6228C203.799 19.8401 203.608 20.142 203.475 20.5283C203.346 20.9147 203.282 21.3654 203.282 21.8806C203.282 22.3877 203.346 22.8344 203.475 23.2208C203.608 23.6072 203.799 23.909 204.048 24.1263C204.302 24.3437 204.612 24.4523 204.978 24.4523ZM216.771 23.3536L219.041 17.2322H221.202L217.719 26.5049H215.823L212.43 17.2322H214.586L216.771 23.3536ZM213.952 17.2322V26.5049H211.157V17.2322H213.952ZM219.759 26.5049V17.2322H222.518V26.5049H219.759Z" fill="#F1F1F1"/>
</g>
</g>
<rect x="1.07134" y="1.07561" width="229.858" height="37.8585" rx="6.92857" stroke="white" stroke-opacity="0.15" stroke-width="2.14286"/>
<defs>
<filter id="filter0_d_680_84" x="2.00055" y="0.00390673" width="40.0022" height="40.002" filterUnits="userSpaceOnUse" color-interpolation-filters="sRGB">
<feFlood flood-opacity="0" result="BackgroundImageFix"/>
<feColorMatrix in="SourceAlpha" type="matrix" values="0 0 0 0 0 0 0 0 0 0 0 0 0 0 0 0 0 0 127 0" result="hardAlpha"/>
<feOffset/>
<feGaussianBlur stdDeviation="2.80014"/>
<feComposite in2="hardAlpha" operator="out"/>
<feColorMatrix type="matrix" values="0 0 0 0 0 0 0 0 0 0 0 0 0 0 0 0 0 0 0.25 0"/>
<feBlend mode="normal" in2="BackgroundImageFix" result="effect1_dropShadow_680_84"/>
<feBlend mode="normal" in="SourceGraphic" in2="effect1_dropShadow_680_84" result="shape"/>
</filter>
<filter id="filter1_d_680_84" x="36.287" y="3.7906" width="193.429" height="32.4286" filterUnits="userSpaceOnUse" color-interpolation-filters="sRGB">
<feFlood flood-opacity="0" result="BackgroundImageFix"/>
<feColorMatrix in="SourceAlpha" type="matrix" values="0 0 0 0 0 0 0 0 0 0 0 0 0 0 0 0 0 0 127 0" result="hardAlpha"/>
<feOffset/>
<feGaussianBlur stdDeviation="2.85714"/>
<feComposite in2="hardAlpha" operator="out"/>
<feColorMatrix type="matrix" values="0 0 0 0 0 0 0 0 0 0 0 0 0 0 0 0 0 0 0.25 0"/>
<feBlend mode="normal" in2="BackgroundImageFix" result="effect1_dropShadow_680_84"/>
<feBlend mode="normal" in="SourceGraphic" in2="effect1_dropShadow_680_84" result="shape"/>
</filter>
<linearGradient id="paint0_linear_680_84" x1="116.001" y1="0.00418091" x2="116.001" y2="40.0056" gradientUnits="userSpaceOnUse">
<stop stop-color="#303030"/>
<stop offset="1" stop-color="#1D1D1D"/>
</linearGradient>
<clipPath id="clip0_680_84">
<rect x="-9.15527e-05" y="0.00418091" width="232.001" height="40.0014" rx="8" fill="white"/>
</clipPath>
</defs>
</svg>
