<svg width="213" height="40" viewBox="0 0 213 40" fill="none" xmlns="http://www.w3.org/2000/svg">
<g clip-path="url(#clip0_680_68)">
<rect x="-9.15527e-05" y="0.00698853" width="213.001" height="40.0014" rx="8" fill="url(#paint0_linear_680_68)"/>
<g filter="url(#filter0_d_680_68)">
<g clip-path="url(#clip1_680_68)">
<path d="M19.6646 21.1666C20.1656 21.8364 20.8049 22.3907 21.5389 22.7917C22.273 23.1928 23.0847 23.4313 23.919 23.491C24.7534 23.5508 25.5908 23.4304 26.3745 23.138C27.1582 22.8457 27.8699 22.3882 28.4613 21.7966L31.9613 18.2966C33.0239 17.1964 33.6118 15.7229 33.5985 14.1934C33.5853 12.664 32.9718 11.2009 31.8902 10.1193C30.8087 9.03779 29.3456 8.42431 27.8161 8.41102C26.2866 8.39773 24.8131 8.98569 23.7129 10.0483L21.7063 12.0433" stroke="white" stroke-width="2.86" stroke-linecap="round" stroke-linejoin="round"/>
<path d="M24.3313 18.8333C23.8302 18.1635 23.191 17.6092 22.457 17.2082C21.7229 16.8071 20.9112 16.5686 20.0769 16.5089C19.2425 16.4491 18.4051 16.5695 17.6214 16.8619C16.8377 17.1542 16.126 17.6117 15.5346 18.2033L12.0346 21.7033C10.972 22.8035 10.3841 24.277 10.3973 25.8065C10.4106 27.3359 11.0241 28.799 12.1057 29.8806C13.1872 30.9621 14.6503 31.5756 16.1798 31.5889C17.7093 31.6022 19.1828 31.0142 20.2829 29.9516L22.2779 27.9566" stroke="white" stroke-width="2.86" stroke-linecap="round" stroke-linejoin="round"/>
</g>
</g>
<g filter="url(#filter1_d_680_68)">
<path d="M53.0247 14.1441V26.5077H51.1654V15.7378H45.3458V26.5077H43.4864V14.1441H53.0247ZM59.6382 26.6948C58.7689 26.6948 58.0102 26.4956 57.3623 26.0972C56.7143 25.6987 56.2112 25.1413 55.853 24.4249C55.4949 23.7086 55.3158 22.8714 55.3158 21.9136C55.3158 20.9517 55.4949 20.1106 55.853 19.3901C56.2112 18.6697 56.7143 18.1103 57.3623 17.7119C58.0102 17.3134 58.7689 17.1142 59.6382 17.1142C60.5075 17.1142 61.2662 17.3134 61.9141 17.7119C62.5621 18.1103 63.0652 18.6697 63.4234 19.3901C63.7815 20.1106 63.9606 20.9517 63.9606 21.9136C63.9606 22.8714 63.7815 23.7086 63.4234 24.4249C63.0652 25.1413 62.5621 25.6987 61.9141 26.0972C61.2662 26.4956 60.5075 26.6948 59.6382 26.6948ZM59.6442 25.1796C60.2077 25.1796 60.6745 25.0306 61.0448 24.7328C61.4151 24.435 61.6887 24.0386 61.8658 23.5436C62.0469 23.0485 62.1375 22.5032 62.1375 21.9075C62.1375 21.3159 62.0469 20.7726 61.8658 20.2776C61.6887 19.7785 61.4151 19.3781 61.0448 19.0762C60.6745 18.7744 60.2077 18.6235 59.6442 18.6235C59.0768 18.6235 58.6059 18.7744 58.2316 19.0762C57.8613 19.3781 57.5856 19.7785 57.4045 20.2776C57.2275 20.7726 57.1389 21.3159 57.1389 21.9075C57.1389 22.5032 57.2275 23.0485 57.4045 23.5436C57.5856 24.0386 57.8613 24.435 58.2316 24.7328C58.6059 25.0306 59.0768 25.1796 59.6442 25.1796ZM69.8814 26.6948C68.9839 26.6948 68.2111 26.4916 67.5632 26.0851C66.9192 25.6746 66.4242 25.1091 66.0781 24.3887C65.732 23.6683 65.5589 22.8433 65.5589 21.9136C65.5589 20.9718 65.736 20.1407 66.0902 19.4203C66.4443 18.6959 66.9434 18.1304 67.5873 17.724C68.2313 17.3175 68.9899 17.1142 69.8633 17.1142C70.5676 17.1142 71.1954 17.245 71.7468 17.5066C72.2981 17.7642 72.7429 18.1264 73.0809 18.5933C73.423 19.0601 73.6263 19.6055 73.6907 20.2293H71.9339C71.8373 19.7946 71.616 19.4203 71.2699 19.1064C70.9278 18.7925 70.469 18.6355 69.8934 18.6355C69.3904 18.6355 68.9497 18.7683 68.5714 19.034C68.1971 19.2956 67.9053 19.6699 67.696 20.1568C67.4867 20.6398 67.3821 21.2113 67.3821 21.8713C67.3821 22.5475 67.4847 23.131 67.69 23.622C67.8952 24.113 68.185 24.4934 68.5593 24.763C68.9376 25.0327 69.3823 25.1675 69.8934 25.1675C70.2355 25.1675 70.5454 25.1051 70.8231 24.9803C71.1048 24.8516 71.3403 24.6684 71.5294 24.431C71.7226 24.1935 71.8575 23.9078 71.9339 23.5737H73.6907C73.6263 24.1734 73.4311 24.7087 73.1051 25.1796C72.7791 25.6504 72.3424 26.0207 71.7951 26.2904C71.2517 26.56 70.6138 26.6948 69.8814 26.6948ZM79.6174 26.6948C78.7038 26.6948 77.917 26.4996 77.257 26.1092C76.601 25.7148 76.0939 25.1614 75.7357 24.4491C75.3815 23.7327 75.2044 22.8936 75.2044 21.9317C75.2044 20.9819 75.3815 20.1448 75.7357 19.4203C76.0939 18.6959 76.5929 18.1304 77.2328 17.724C77.8768 17.3175 78.6294 17.1142 79.4906 17.1142C80.0138 17.1142 80.521 17.2008 81.012 17.3738C81.503 17.5469 81.9437 17.8185 82.334 18.1888C82.7244 18.5591 83.0323 19.04 83.2577 19.6316C83.4831 20.2192 83.5958 20.9336 83.5958 21.7747V22.4146H76.2247V21.0624H81.8269C81.8269 20.5875 81.7303 20.1669 81.5372 19.8007C81.344 19.4304 81.0723 19.1386 80.7222 18.9253C80.3761 18.712 79.9696 18.6053 79.5027 18.6053C78.9956 18.6053 78.5529 18.7301 78.1746 18.9796C77.8003 19.2251 77.5105 19.5471 77.3053 19.9455C77.104 20.34 77.0034 20.7686 77.0034 21.2314V22.2879C77.0034 22.9077 77.1121 23.4349 77.3294 23.8695C77.5508 24.3042 77.8587 24.6362 78.2531 24.8656C78.6475 25.091 79.1083 25.2037 79.6355 25.2037C79.9776 25.2037 80.2895 25.1554 80.5713 25.0588C80.853 24.9582 81.0965 24.8093 81.3017 24.6121C81.507 24.4149 81.6639 24.1714 81.7726 23.8816L83.4811 24.1895C83.3442 24.6926 83.0987 25.1333 82.7446 25.5116C82.3944 25.8859 81.9537 26.1777 81.4225 26.3869C80.8952 26.5922 80.2936 26.6948 79.6174 26.6948ZM84.7805 18.7925V17.235H92.6044V18.7925H89.5799V26.5077H87.8171V18.7925H84.7805ZM96.2824 23.9782L100.369 17.235H102.313V26.5077H100.544V19.7584L96.4756 26.5077H94.5135V17.235H96.2824V23.9782ZM103.59 18.7925V17.235H111.414V18.7925H108.389V26.5077H106.627V18.7925H103.59ZM114.681 20.4225H117.374C118.509 20.4225 119.382 20.7042 119.994 21.2676C120.606 21.8311 120.912 22.5575 120.912 23.447C120.912 24.0265 120.775 24.5477 120.501 25.0105C120.227 25.4734 119.827 25.8396 119.3 26.1092C118.772 26.3749 118.131 26.5077 117.374 26.5077H113.323V17.235H115.092V24.9502H117.374C117.893 24.9502 118.32 24.8153 118.654 24.5457C118.988 24.272 119.155 23.9239 119.155 23.5013C119.155 23.0546 118.988 22.6903 118.654 22.4086C118.32 22.1229 117.893 21.98 117.374 21.98H114.681V20.4225Z" fill="#E8E8E8"/>
<path d="M126.937 26.5077V17.235H130.939C132.135 17.235 133.077 17.4503 133.765 17.8809C134.457 18.3075 134.803 18.9334 134.803 19.7584C134.803 20.2373 134.608 20.6499 134.218 20.996C133.831 21.3381 133.282 21.5695 132.569 21.6902C133.197 21.7224 133.718 21.8472 134.133 22.0645C134.548 22.2818 134.857 22.5575 135.063 22.8916C135.268 23.2256 135.371 23.5818 135.371 23.9601C135.371 24.5074 135.224 24.9703 134.93 25.3486C134.636 25.7269 134.205 26.0147 133.638 26.2119C133.075 26.4091 132.382 26.5077 131.561 26.5077H126.937ZM129.684 24.3706H131.561C131.875 24.3706 132.121 24.2962 132.298 24.1472C132.479 23.9983 132.569 23.7931 132.569 23.5315C132.569 23.2498 132.479 23.0284 132.298 22.8674C132.121 22.7064 131.875 22.6259 131.561 22.6259H129.684V24.3706ZM129.684 21.0262H131.018C131.231 21.0262 131.414 20.994 131.567 20.9296C131.72 20.8652 131.837 20.7726 131.917 20.6519C132.002 20.5311 132.044 20.3862 132.044 20.2172C132.044 19.9717 131.946 19.7785 131.748 19.6377C131.555 19.4968 131.286 19.4264 130.939 19.4264H129.684V21.0262ZM141.166 26.6828C140.196 26.6828 139.359 26.4916 138.655 26.1092C137.954 25.7229 137.415 25.1735 137.037 24.4612C136.663 23.7448 136.475 22.8936 136.475 21.9075C136.475 20.9497 136.665 20.1126 137.043 19.3962C137.421 18.6758 137.954 18.1164 138.643 17.7179C139.331 17.3155 140.142 17.1142 141.075 17.1142C141.736 17.1142 142.339 17.2168 142.887 17.4221C143.434 17.6274 143.907 17.9312 144.305 18.3337C144.704 18.7361 145.014 19.2332 145.235 19.8248C145.456 20.4124 145.567 21.0865 145.567 21.8472V22.5837H137.508V20.8692H142.82C142.816 20.5553 142.742 20.2756 142.597 20.0301C142.452 19.7846 142.253 19.5934 141.999 19.4566C141.75 19.3157 141.462 19.2453 141.136 19.2453C140.806 19.2453 140.51 19.3197 140.248 19.4686C139.987 19.6135 139.78 19.8127 139.627 20.0663C139.474 20.3158 139.393 20.5995 139.385 20.9175V22.6622C139.385 23.0405 139.46 23.3725 139.609 23.6583C139.757 23.94 139.969 24.1593 140.242 24.3163C140.516 24.4732 140.842 24.5517 141.22 24.5517C141.482 24.5517 141.719 24.5155 141.933 24.4431C142.146 24.3706 142.329 24.264 142.482 24.1231C142.635 23.9822 142.75 23.8092 142.826 23.6039L145.537 23.6824C145.424 24.2901 145.177 24.8194 144.794 25.2701C144.416 25.7168 143.919 26.065 143.303 26.3145C142.687 26.56 141.975 26.6828 141.166 26.6828ZM155.062 13.8543L155.858 15.8042C155.605 16.0014 155.327 16.1503 155.025 16.2509C154.728 16.3516 154.363 16.42 153.933 16.4562C153.502 16.4924 152.959 16.5125 152.303 16.5166C151.562 16.5206 150.962 16.6232 150.504 16.8244C150.045 17.0217 149.697 17.3456 149.459 17.7964C149.226 18.2431 149.071 18.8388 148.994 19.5833H149.073C149.339 19.0239 149.717 18.5832 150.208 18.2612C150.699 17.9393 151.333 17.7783 152.109 17.7783C152.918 17.7783 153.623 17.9534 154.222 18.3035C154.822 18.6496 155.285 19.1446 155.611 19.7886C155.937 20.4285 156.1 21.1892 156.1 22.0705C156.1 23.0043 155.913 23.8172 155.538 24.5095C155.164 25.2017 154.629 25.737 153.933 26.1153C153.236 26.4936 152.403 26.6828 151.433 26.6828C150.463 26.6828 149.628 26.4855 148.928 26.0911C148.232 25.6967 147.694 25.1172 147.316 24.3525C146.942 23.5838 146.755 22.64 146.755 21.5212V20.845C146.755 18.551 147.218 16.8627 148.143 15.7801C149.069 14.6974 150.421 14.1521 152.2 14.1441C152.647 14.14 153.051 14.14 153.413 14.1441C153.78 14.1441 154.1 14.1259 154.373 14.0897C154.647 14.0495 154.876 13.971 155.062 13.8543ZM151.451 24.4551C151.79 24.4551 152.081 24.3646 152.327 24.1835C152.572 24.0024 152.761 23.7428 152.894 23.4047C153.027 23.0666 153.094 22.6601 153.094 22.1852C153.094 21.7103 153.025 21.3059 152.888 20.9718C152.755 20.6378 152.566 20.3842 152.321 20.2112C152.075 20.0341 151.784 19.9455 151.445 19.9455C151.188 19.9455 150.954 19.9959 150.745 20.0965C150.536 20.1931 150.359 20.3379 150.214 20.5311C150.069 20.7203 149.958 20.9537 149.882 21.2314C149.805 21.5091 149.767 21.8271 149.767 22.1852C149.767 22.8936 149.916 23.449 150.214 23.8514C150.512 24.2539 150.924 24.4551 151.451 24.4551ZM163.584 20.3681V22.6441H157.861V20.3681H163.584ZM169.997 26.6828C169.019 26.6828 168.18 26.4815 167.48 26.0791C166.783 25.6766 166.248 25.1172 165.874 24.4008C165.499 23.6804 165.312 22.8473 165.312 21.9015C165.312 20.9517 165.499 20.1186 165.874 19.4022C166.252 18.6818 166.789 18.1204 167.486 17.7179C168.186 17.3155 169.021 17.1142 169.991 17.1142C170.848 17.1142 171.595 17.2692 172.231 17.5791C172.87 17.889 173.37 18.3276 173.728 18.8951C174.09 19.4586 174.281 20.1206 174.301 20.8813H171.542C171.486 20.4064 171.325 20.0341 171.059 19.7644C170.798 19.4948 170.456 19.36 170.033 19.36C169.691 19.36 169.391 19.4566 169.134 19.6497C168.876 19.8389 168.675 20.1206 168.53 20.4949C168.389 20.8652 168.319 21.324 168.319 21.8713C168.319 22.4187 168.389 22.8815 168.53 23.2598C168.675 23.6341 168.876 23.9178 169.134 24.111C169.391 24.3002 169.691 24.3948 170.033 24.3948C170.307 24.3948 170.548 24.3364 170.758 24.2197C170.971 24.103 171.146 23.9319 171.283 23.7065C171.42 23.4771 171.506 23.1994 171.542 22.8735H174.301C174.273 23.6381 174.082 24.3062 173.728 24.8777C173.378 25.4492 172.885 25.8939 172.249 26.2119C171.617 26.5258 170.866 26.6828 169.997 26.6828ZM178.426 26.6646C177.834 26.6646 177.309 26.566 176.85 26.3688C176.396 26.1676 176.035 25.8658 175.77 25.4633C175.508 25.0568 175.377 24.5477 175.377 23.936C175.377 23.4208 175.468 22.9861 175.649 22.632C175.83 22.2778 176.08 21.99 176.398 21.7687C176.716 21.5473 177.082 21.3803 177.496 21.2676C177.911 21.1509 178.354 21.0724 178.824 21.0322C179.352 20.9839 179.776 20.9336 180.098 20.8813C180.42 20.8249 180.654 20.7464 180.798 20.6458C180.947 20.5412 181.022 20.3943 181.022 20.2051V20.1749C181.022 19.865 180.915 19.6256 180.702 19.4566C180.489 19.2875 180.201 19.203 179.839 19.203C179.448 19.203 179.134 19.2875 178.897 19.4566C178.659 19.6256 178.508 19.859 178.444 20.1568L175.721 20.0602C175.802 19.4968 176.009 18.9937 176.343 18.551C176.681 18.1043 177.144 17.7541 177.732 17.5006C178.323 17.243 179.034 17.1142 179.863 17.1142C180.454 17.1142 181 17.1847 181.499 17.3255C181.998 17.4624 182.432 17.6636 182.803 17.9292C183.173 18.1908 183.459 18.5128 183.66 18.8951C183.865 19.2775 183.968 19.7141 183.968 20.2051V26.5077H181.191V25.2158H181.118C180.953 25.5297 180.742 25.7953 180.485 26.0127C180.231 26.23 179.931 26.393 179.585 26.5016C179.243 26.6103 178.857 26.6646 178.426 26.6646ZM179.338 24.7328C179.656 24.7328 179.941 24.6684 180.195 24.5396C180.452 24.4109 180.658 24.2338 180.811 24.0084C180.964 23.779 181.04 23.5134 181.04 23.2115V22.3301C180.955 22.3744 180.853 22.4146 180.732 22.4509C180.615 22.4871 180.487 22.5213 180.346 22.5535C180.205 22.5857 180.06 22.6139 179.911 22.638C179.762 22.6622 179.619 22.6843 179.482 22.7044C179.205 22.7487 178.967 22.8171 178.77 22.9097C178.577 23.0022 178.428 23.123 178.323 23.2719C178.223 23.4168 178.172 23.5898 178.172 23.7911C178.172 24.0969 178.281 24.3304 178.498 24.4914C178.72 24.6523 178.999 24.7328 179.338 24.7328ZM188.568 22.6863L191.532 17.235H194.37V26.5077H191.574V21.0382L188.616 26.5077H185.773V17.235H188.568V22.6863ZM191.267 13.9509H193.21C193.206 14.7075 192.921 15.3152 192.353 15.774C191.79 16.2328 191.025 16.4622 190.059 16.4622C189.093 16.4622 188.327 16.2328 187.759 15.774C187.196 15.3152 186.916 14.7075 186.92 13.9509H188.846C188.842 14.2165 188.932 14.458 189.117 14.6753C189.303 14.8926 189.616 15.0013 190.059 15.0013C190.49 15.0013 190.798 14.8946 190.983 14.6813C191.168 14.468 191.263 14.2245 191.267 13.9509ZM195.429 19.4928V17.235H204.122V19.4928H201.158V26.5077H198.357V19.4928H195.429Z" fill="#F1F1F1"/>
</g>
</g>
<rect x="1.07134" y="1.07842" width="210.858" height="37.8585" rx="6.92857" stroke="white" stroke-opacity="0.15" stroke-width="2.14286"/>
<defs>
<filter id="filter0_d_680_68" x="2.39768" y="0.399659" width="39.2039" height="39.209" filterUnits="userSpaceOnUse" color-interpolation-filters="sRGB">
<feFlood flood-opacity="0" result="BackgroundImageFix"/>
<feColorMatrix in="SourceAlpha" type="matrix" values="0 0 0 0 0 0 0 0 0 0 0 0 0 0 0 0 0 0 127 0" result="hardAlpha"/>
<feOffset/>
<feGaussianBlur stdDeviation="2.80014"/>
<feComposite in2="hardAlpha" operator="out"/>
<feColorMatrix type="matrix" values="0 0 0 0 0 0 0 0 0 0 0 0 0 0 0 0 0 0 0.25 0"/>
<feBlend mode="normal" in2="BackgroundImageFix" result="effect1_dropShadow_680_68"/>
<feBlend mode="normal" in="SourceGraphic" in2="effect1_dropShadow_680_68" result="shape"/>
</filter>
<filter id="filter1_d_680_68" x="36.287" y="3.7934" width="174.429" height="32.4286" filterUnits="userSpaceOnUse" color-interpolation-filters="sRGB">
<feFlood flood-opacity="0" result="BackgroundImageFix"/>
<feColorMatrix in="SourceAlpha" type="matrix" values="0 0 0 0 0 0 0 0 0 0 0 0 0 0 0 0 0 0 127 0" result="hardAlpha"/>
<feOffset/>
<feGaussianBlur stdDeviation="2.85714"/>
<feComposite in2="hardAlpha" operator="out"/>
<feColorMatrix type="matrix" values="0 0 0 0 0 0 0 0 0 0 0 0 0 0 0 0 0 0 0.25 0"/>
<feBlend mode="normal" in2="BackgroundImageFix" result="effect1_dropShadow_680_68"/>
<feBlend mode="normal" in="SourceGraphic" in2="effect1_dropShadow_680_68" result="shape"/>
</filter>
<linearGradient id="paint0_linear_680_68" x1="106.501" y1="0.00698853" x2="106.501" y2="40.0084" gradientUnits="userSpaceOnUse">
<stop stop-color="#2C2935"/>
<stop offset="1" stop-color="#262022"/>
</linearGradient>
<clipPath id="clip0_680_68">
<rect x="-9.15527e-05" y="0.00698853" width="213.001" height="40.0014" rx="8" fill="white"/>
</clipPath>
<clipPath id="clip1_680_68">
<rect width="28" height="28" fill="white" transform="translate(7.99796 5.99994)"/>
</clipPath>
</defs>
</svg>
