<svg width="80" height="80" viewBox="0 0 80 80" fill="none" xmlns="http://www.w3.org/2000/svg">
<rect x="7.15256e-07" width="80" height="80" rx="8.4" fill="url(#paint0_linear_811_14)"/>
<rect x="1.05" y="1.05" width="77.9" height="77.9" rx="7.35" stroke="white" stroke-opacity="0.15" stroke-width="2.1"/>
<g filter="url(#filter0_d_811_14)">
<path d="M50.5431 35.2352C50.5431 35.2352 58.7102 33.9135 60 30.0587H47.4891V27H20L23.3863 31.0327V35.1646C23.3863 35.1646 31.9308 34.7086 35.236 37.2808C39.7602 41.5846 30.1475 47.402 30.1475 47.402L28.4992 53C31.0768 50.481 35.9894 47.2226 44.9966 47.3797C41.5689 48.4915 38.1223 50.228 35.4392 53H53.6472L51.9326 47.402C51.9326 47.402 38.7359 39.4154 50.5431 35.2352Z" fill="#F16436"/>
</g>
<defs>
<filter id="filter0_d_811_14" x="14.2857" y="14.2857" width="51.4286" height="51.4286" filterUnits="userSpaceOnUse" color-interpolation-filters="sRGB">
<feFlood flood-opacity="0" result="BackgroundImageFix"/>
<feColorMatrix in="SourceAlpha" type="matrix" values="0 0 0 0 0 0 0 0 0 0 0 0 0 0 0 0 0 0 127 0" result="hardAlpha"/>
<feOffset/>
<feGaussianBlur stdDeviation="2.85714"/>
<feComposite in2="hardAlpha" operator="out"/>
<feColorMatrix type="matrix" values="0 0 0 0 0 0 0 0 0 0 0 0 0 0 0 0 0 0 0.25 0"/>
<feBlend mode="normal" in2="BackgroundImageFix" result="effect1_dropShadow_811_14"/>
<feBlend mode="normal" in="SourceGraphic" in2="effect1_dropShadow_811_14" result="shape"/>
</filter>
<linearGradient id="paint0_linear_811_14" x1="40" y1="0" x2="40" y2="80" gradientUnits="userSpaceOnUse">
<stop stop-color="#2E140B"/>
<stop offset="1" stop-color="#1E0C07"/>
</linearGradient>
</defs>
</svg>
