<svg width="259" height="40" viewBox="0 0 259 40" fill="none" xmlns="http://www.w3.org/2000/svg">
<rect x="-9.15527e-05" y="0.00138855" width="259" height="40" rx="8" fill="url(#paint0_linear_680_55)"/>
<rect x="1.07134" y="1.07282" width="256.857" height="37.8571" rx="6.92857" stroke="white" stroke-opacity="0.15" stroke-width="2.14286"/>
<g filter="url(#filter0_d_680_55)">
<path d="M29.3801 16.6661C29.3801 16.6661 35.097 15.7409 35.9999 13.0425H27.2423V10.9014H7.99991L10.3703 13.7243V16.6166C10.3703 16.6166 16.3515 16.2974 18.6651 18.098C21.8321 21.1106 15.1032 25.1828 15.1032 25.1828L13.9493 29.1014C15.7537 27.3381 19.1925 25.0572 25.4976 25.1672C23.0981 25.9454 20.6855 27.161 18.8074 29.1014H31.553L30.3527 25.1828C30.3527 25.1828 21.115 19.5922 29.3801 16.6661Z" fill="#F16436"/>
</g>
<g filter="url(#filter1_d_680_55)">
<path d="M42.4225 29.4897V24.9197H43.2375C43.5152 24.6863 43.7748 24.3542 44.0162 23.9236C44.2577 23.493 44.463 22.9114 44.632 22.1789C44.801 21.4465 44.9178 20.5067 44.9822 19.3597L45.2719 14.1378H52.8966V24.9197H54.2971V29.4716H52.5102V26.5014H44.2094V29.4897H42.4225ZM45.4349 24.9197H51.1096V15.7436H46.9623L46.7691 19.3597C46.7168 20.233 46.6302 21.0178 46.5095 21.7141C46.3928 22.4104 46.2419 23.0261 46.0567 23.5614C45.8756 24.0926 45.6683 24.5454 45.4349 24.9197ZM60.1016 26.6885C59.2323 26.6885 58.4737 26.4893 57.8257 26.0909C57.1778 25.6924 56.6747 25.135 56.3165 24.4186C55.9583 23.7023 55.7792 22.8651 55.7792 21.9073C55.7792 20.9454 55.9583 20.1042 56.3165 19.3838C56.6747 18.6634 57.1778 18.104 57.8257 17.7056C58.4737 17.3071 59.2323 17.1079 60.1016 17.1079C60.971 17.1079 61.7296 17.3071 62.3776 17.7056C63.0255 18.104 63.5286 18.6634 63.8868 19.3838C64.245 20.1042 64.4241 20.9454 64.4241 21.9073C64.4241 22.8651 64.245 23.7023 63.8868 24.4186C63.5286 25.135 63.0255 25.6924 62.3776 26.0909C61.7296 26.4893 60.971 26.6885 60.1016 26.6885ZM60.1077 25.1733C60.6711 25.1733 61.138 25.0243 61.5082 24.7265C61.8785 24.4287 62.1522 24.0323 62.3293 23.5373C62.5104 23.0422 62.6009 22.4969 62.6009 21.9012C62.6009 21.3096 62.5104 20.7663 62.3293 20.2713C62.1522 19.7722 61.8785 19.3718 61.5082 19.0699C61.138 18.7681 60.6711 18.6172 60.1077 18.6172C59.5402 18.6172 59.0693 18.7681 58.695 19.0699C58.3248 19.3718 58.0491 19.7722 57.868 20.2713C57.6909 20.7663 57.6024 21.3096 57.6024 21.9012C57.6024 22.4969 57.6909 23.0422 57.868 23.5373C58.0491 24.0323 58.3248 24.4287 58.695 24.7265C59.0693 25.0243 59.5402 25.1733 60.1077 25.1733ZM70.3448 26.6885C69.4473 26.6885 68.6746 26.4853 68.0266 26.0788C67.3827 25.6683 66.8877 25.1028 66.5415 24.3824C66.1954 23.662 66.0224 22.837 66.0224 21.9073C66.0224 20.9655 66.1994 20.1344 66.5536 19.414C66.9078 18.6896 67.4068 18.1241 68.0508 17.7176C68.6947 17.3112 69.4534 17.1079 70.3267 17.1079C71.031 17.1079 71.6588 17.2387 72.2102 17.5003C72.7616 17.7579 73.2063 18.1201 73.5444 18.587C73.8865 19.0538 74.0897 19.5992 74.1541 20.223H72.3974C72.3008 19.7883 72.0794 19.414 71.7333 19.1001C71.3912 18.7862 70.9324 18.6292 70.3569 18.6292C69.8538 18.6292 69.4131 18.762 69.0348 19.0277C68.6605 19.2893 68.3687 19.6636 68.1594 20.1505C67.9502 20.6335 67.8455 21.205 67.8455 21.865C67.8455 22.5412 67.9481 23.1247 68.1534 23.6157C68.3587 24.1067 68.6484 24.4871 69.0227 24.7567C69.401 25.0264 69.8458 25.1612 70.3569 25.1612C70.699 25.1612 71.0089 25.0988 71.2866 24.974C71.5683 24.8453 71.8037 24.6621 71.9929 24.4247C72.1861 24.1872 72.3209 23.9015 72.3974 23.5674H74.1541C74.0897 24.1671 73.8945 24.7024 73.5685 25.1733C73.2425 25.6441 72.8059 26.0144 72.2585 26.2841C71.7152 26.5537 71.0773 26.6885 70.3448 26.6885ZM75.3826 18.7862V17.2287H83.2065V18.7862H80.182V26.5014H78.4192V18.7862H75.3826ZM86.2566 29.9787C85.987 29.9787 85.7415 29.9565 85.5201 29.9122C85.2988 29.872 85.1338 29.8277 85.0251 29.7794L85.4598 28.3004C85.7898 28.3889 86.0836 28.4272 86.3412 28.4151C86.5987 28.403 86.8261 28.3064 87.0233 28.1253C87.2246 27.9442 87.4016 27.6484 87.5546 27.2379L87.7779 26.6221L84.3852 17.2287H86.317L88.6654 24.4247H88.762L91.1103 17.2287H93.0482L89.2268 27.739C89.0497 28.2219 88.8244 28.6304 88.5507 28.9645C88.277 29.3025 87.951 29.5561 87.5727 29.7251C87.1944 29.8941 86.7557 29.9787 86.2566 29.9787ZM94.7446 26.5014V17.2287H102.309V26.5014H100.54V18.7862H96.5013V26.5014H94.7446ZM108.719 26.6885C107.805 26.6885 107.018 26.4933 106.358 26.1029C105.702 25.7085 105.195 25.1551 104.837 24.4428C104.483 23.7264 104.306 22.8873 104.306 21.9254C104.306 20.9756 104.483 20.1385 104.837 19.414C105.195 18.6896 105.694 18.1241 106.334 17.7176C106.978 17.3112 107.731 17.1079 108.592 17.1079C109.115 17.1079 109.622 17.1944 110.113 17.3675C110.604 17.5406 111.045 17.8122 111.435 18.1825C111.826 18.5528 112.133 19.0337 112.359 19.6253C112.584 20.2129 112.697 20.9273 112.697 21.7684V22.4083H105.326V21.0561H110.928C110.928 20.5812 110.831 20.1606 110.638 19.7944C110.445 19.4241 110.173 19.1323 109.823 18.919C109.477 18.7057 109.071 18.599 108.604 18.599C108.097 18.599 107.654 18.7238 107.276 18.9733C106.901 19.2188 106.612 19.5408 106.406 19.9392C106.205 20.3337 106.105 20.7623 106.105 21.2251V22.2816C106.105 22.9014 106.213 23.4286 106.431 23.8632C106.652 24.2979 106.96 24.6299 107.354 24.8593C107.749 25.0847 108.209 25.1974 108.737 25.1974C109.079 25.1974 109.391 25.1491 109.672 25.0525C109.954 24.9519 110.198 24.803 110.403 24.6058C110.608 24.4086 110.765 24.1651 110.874 23.8753L112.582 24.1832C112.445 24.6863 112.2 25.127 111.846 25.5053C111.496 25.8796 111.055 26.1714 110.524 26.3806C109.996 26.5859 109.395 26.6885 108.719 26.6885ZM120.984 21.0863V22.6498H115.961V21.0863H120.984ZM116.468 17.2287V26.5014H114.7V17.2287H116.468ZM122.246 17.2287V26.5014H120.483V17.2287H122.246ZM135.444 21.0863V22.6498H130.421V21.0863H135.444ZM130.928 17.2287V26.5014H129.16V17.2287H130.928ZM136.706 17.2287V26.5014H134.943V17.2287H136.706ZM141.819 26.7066C141.231 26.7066 140.7 26.598 140.225 26.3806C139.75 26.1593 139.374 25.8393 139.096 25.4208C138.823 25.0022 138.686 24.4891 138.686 23.8814C138.686 23.3582 138.786 22.9275 138.988 22.5895C139.189 22.2514 139.461 21.9837 139.803 21.7865C140.145 21.5893 140.527 21.4404 140.95 21.3398C141.372 21.2392 141.803 21.1627 142.242 21.1104C142.797 21.046 143.248 20.9937 143.594 20.9534C143.94 20.9092 144.192 20.8387 144.349 20.7422C144.505 20.6456 144.584 20.4886 144.584 20.2713V20.229C144.584 19.7018 144.435 19.2933 144.137 19.0035C143.843 18.7137 143.405 18.5689 142.821 18.5689C142.213 18.5689 141.735 18.7037 141.384 18.9733C141.038 19.239 140.799 19.5348 140.666 19.8608L138.97 19.4744C139.171 18.911 139.465 18.4562 139.851 18.1101C140.241 17.7599 140.69 17.5064 141.197 17.3494C141.704 17.1884 142.238 17.1079 142.797 17.1079C143.167 17.1079 143.56 17.1522 143.974 17.2407C144.393 17.3252 144.783 17.4822 145.145 17.7116C145.512 17.941 145.811 18.269 146.045 18.6956C146.278 19.1182 146.395 19.6676 146.395 20.3437V26.5014H144.632V25.2336H144.56C144.443 25.4671 144.268 25.6965 144.035 25.9218C143.801 26.1472 143.501 26.3344 143.135 26.4833C142.769 26.6322 142.33 26.7066 141.819 26.7066ZM142.211 25.2578C142.71 25.2578 143.137 25.1592 143.491 24.962C143.849 24.7648 144.121 24.5072 144.306 24.1892C144.495 23.8673 144.59 23.5232 144.59 23.1569V21.9616C144.526 22.026 144.401 22.0864 144.216 22.1427C144.035 22.195 143.827 22.2413 143.594 22.2816C143.36 22.3178 143.133 22.352 142.912 22.3842C142.69 22.4124 142.505 22.4365 142.356 22.4566C142.006 22.5009 141.686 22.5754 141.396 22.68C141.111 22.7846 140.881 22.9356 140.708 23.1328C140.539 23.326 140.455 23.5835 140.455 23.9055C140.455 24.3522 140.62 24.6903 140.95 24.9197C141.28 25.1451 141.7 25.2578 142.211 25.2578Z" fill="#E8E8E8"/>
<path d="M164.158 18.6172H161.14C161.1 18.3073 161.017 18.0275 160.892 17.778C160.768 17.5285 160.603 17.3152 160.397 17.1381C160.192 16.961 159.949 16.8262 159.667 16.7336C159.389 16.637 159.081 16.5887 158.743 16.5887C158.143 16.5887 157.626 16.7356 157.192 17.0294C156.761 17.3232 156.429 17.7478 156.196 18.3032C155.966 18.8586 155.851 19.5307 155.851 20.3196C155.851 21.1406 155.968 21.8288 156.202 22.3842C156.439 22.9356 156.771 23.3521 157.198 23.6338C157.628 23.9115 158.137 24.0504 158.725 24.0504C159.055 24.0504 159.355 24.0081 159.625 23.9236C159.898 23.8391 160.138 23.7163 160.343 23.5554C160.552 23.3904 160.723 23.1911 160.856 22.9577C160.993 22.7203 161.087 22.4526 161.14 22.1548L164.158 22.1729C164.106 22.7203 163.947 23.2596 163.681 23.7908C163.42 24.3221 163.06 24.807 162.601 25.2457C162.142 25.6804 161.582 26.0265 160.922 26.2841C160.266 26.5416 159.514 26.6704 158.665 26.6704C157.546 26.6704 156.544 26.4249 155.658 25.9339C154.777 25.4389 154.081 24.7185 153.569 23.7727C153.058 22.8269 152.803 21.6759 152.803 20.3196C152.803 18.9592 153.062 17.8062 153.582 16.8604C154.101 15.9146 154.803 15.1962 155.688 14.7052C156.574 14.2142 157.566 13.9687 158.665 13.9687C159.413 13.9687 160.105 14.0734 160.741 14.2826C161.377 14.4879 161.937 14.7897 162.42 15.1882C162.903 15.5826 163.295 16.0676 163.597 16.6431C163.899 17.2186 164.086 17.8766 164.158 18.6172ZM171.851 22.4989V17.2287H174.797V26.5014H171.984V24.7748H171.887C171.682 25.3423 171.332 25.7931 170.837 26.1271C170.346 26.4571 169.752 26.6221 169.056 26.6221C168.424 26.6221 167.868 26.4772 167.39 26.1875C166.911 25.8977 166.538 25.4932 166.273 24.974C166.007 24.4508 165.872 23.8391 165.868 23.1388V17.2287H168.82V22.5593C168.824 23.0623 168.957 23.4588 169.219 23.7485C169.48 24.0383 169.836 24.1832 170.287 24.1832C170.581 24.1832 170.845 24.1188 171.078 23.99C171.316 23.8572 171.503 23.666 171.64 23.4165C171.78 23.163 171.851 22.8571 171.851 22.4989ZM176.676 26.5014V17.2287H179.543V18.919H179.64C179.809 18.3073 180.085 17.8525 180.467 17.5547C180.849 17.2528 181.294 17.1019 181.801 17.1019C181.938 17.1019 182.079 17.1119 182.224 17.1321C182.369 17.1482 182.503 17.1743 182.628 17.2105V19.7762C182.487 19.7279 182.302 19.6897 182.073 19.6615C181.847 19.6334 181.646 19.6193 181.469 19.6193C181.119 19.6193 180.803 19.6978 180.521 19.8547C180.244 20.0077 180.024 20.223 179.863 20.5007C179.706 20.7743 179.628 21.0963 179.628 21.4666V26.5014H176.676ZM191.927 20.06L189.216 20.1324C189.188 19.9392 189.111 19.7682 188.987 19.6193C188.862 19.4663 188.699 19.3476 188.498 19.2631C188.3 19.1746 188.071 19.1303 187.809 19.1303C187.467 19.1303 187.176 19.1987 186.934 19.3355C186.697 19.4724 186.58 19.6575 186.584 19.8909C186.58 20.0721 186.652 20.229 186.801 20.3618C186.954 20.4946 187.226 20.6013 187.616 20.6818L189.403 21.0199C190.329 21.1969 191.017 21.4907 191.468 21.9012C191.923 22.3118 192.152 22.8551 192.156 23.5312C192.152 24.1671 191.963 24.7205 191.589 25.1914C191.218 25.6623 190.711 26.0285 190.067 26.2901C189.423 26.5477 188.687 26.6765 187.858 26.6765C186.534 26.6765 185.489 26.4048 184.725 25.8615C183.964 25.3141 183.529 24.5816 183.421 23.664L186.336 23.5916C186.401 23.9297 186.568 24.1872 186.837 24.3643C187.107 24.5414 187.451 24.6299 187.87 24.6299C188.248 24.6299 188.556 24.5595 188.793 24.4186C189.031 24.2778 189.152 24.0906 189.156 23.8572C189.152 23.6479 189.059 23.4809 188.878 23.3561C188.697 23.2274 188.413 23.1267 188.027 23.0543L186.409 22.7464C185.479 22.5774 184.787 22.2655 184.332 21.8107C183.877 21.3519 183.652 20.7683 183.656 20.06C183.652 19.4402 183.817 18.911 184.151 18.4723C184.485 18.0296 184.96 17.6915 185.576 17.4581C186.192 17.2246 186.918 17.1079 187.755 17.1079C189.011 17.1079 190.001 17.3715 190.725 17.8988C191.45 18.422 191.85 19.1424 191.927 20.06ZM197.944 26.6765C196.974 26.6765 196.137 26.4853 195.433 26.1029C194.732 25.7166 194.193 25.1672 193.815 24.4549C193.44 23.7385 193.253 22.8873 193.253 21.9012C193.253 20.9434 193.442 20.1063 193.821 19.3899C194.199 18.6695 194.732 18.1101 195.42 17.7116C196.109 17.3092 196.92 17.1079 197.853 17.1079C198.513 17.1079 199.117 17.2105 199.664 17.4158C200.212 17.6211 200.685 17.9249 201.083 18.3274C201.482 18.7298 201.791 19.2269 202.013 19.8185C202.234 20.4061 202.345 21.0802 202.345 21.8409V22.5774H194.286V20.8629H199.598C199.594 20.549 199.52 20.2693 199.375 20.0238C199.23 19.7783 199.031 19.5871 198.777 19.4502C198.528 19.3094 198.24 19.239 197.914 19.239C197.584 19.239 197.288 19.3134 197.026 19.4623C196.765 19.6072 196.557 19.8064 196.405 20.06C196.252 20.3095 196.171 20.5932 196.163 20.9112V22.6559C196.163 23.0342 196.237 23.3662 196.386 23.652C196.535 23.9337 196.747 24.153 197.02 24.31C197.294 24.4669 197.62 24.5454 197.998 24.5454C198.26 24.5454 198.497 24.5092 198.711 24.4368C198.924 24.3643 199.107 24.2577 199.26 24.1168C199.413 23.9759 199.528 23.8029 199.604 23.5976L202.315 23.6761C202.202 24.2838 201.954 24.8131 201.572 25.2638C201.194 25.7105 200.697 26.0587 200.081 26.3082C199.465 26.5537 198.753 26.6765 197.944 26.6765ZM203.853 26.5014V14.1378H212.292V16.5646H206.841V19.1001H211.755V21.533H206.841V26.5014H203.853ZM217.445 26.6765C216.471 26.6765 215.634 26.4772 214.933 26.0788C214.237 25.6763 213.7 25.1169 213.322 24.4005C212.947 23.6801 212.76 22.845 212.76 21.8952C212.76 20.9414 212.947 20.1063 213.322 19.3899C213.7 18.6695 214.237 18.1101 214.933 17.7116C215.634 17.3092 216.471 17.1079 217.445 17.1079C218.419 17.1079 219.254 17.3092 219.95 17.7116C220.65 18.1101 221.188 18.6695 221.562 19.3899C221.94 20.1063 222.129 20.9414 222.129 21.8952C222.129 22.845 221.94 23.6801 221.562 24.4005C221.188 25.1169 220.65 25.6763 219.95 26.0788C219.254 26.4772 218.419 26.6765 217.445 26.6765ZM217.463 24.4488C217.817 24.4488 218.117 24.3402 218.362 24.1228C218.608 23.9055 218.795 23.6037 218.924 23.2173C219.057 22.8309 219.123 22.3842 219.123 21.8771C219.123 21.3619 219.057 20.9112 218.924 20.5248C218.795 20.1385 218.608 19.8366 218.362 19.6193C218.117 19.402 217.817 19.2933 217.463 19.2933C217.097 19.2933 216.787 19.402 216.533 19.6193C216.284 19.8366 216.092 20.1385 215.96 20.5248C215.831 20.9112 215.766 21.3619 215.766 21.8771C215.766 22.3842 215.831 22.8309 215.96 23.2173C216.092 23.6037 216.284 23.9055 216.533 24.1228C216.787 24.3402 217.097 24.4488 217.463 24.4488ZM223.642 26.5014V17.2287H226.509V18.919H226.606C226.775 18.3073 227.05 17.8525 227.433 17.5547C227.815 17.2528 228.26 17.1019 228.767 17.1019C228.904 17.1019 229.045 17.1119 229.19 17.1321C229.334 17.1482 229.469 17.1743 229.594 17.2105V19.7762C229.453 19.7279 229.268 19.6897 229.039 19.6615C228.813 19.6334 228.612 19.6193 228.435 19.6193C228.085 19.6193 227.769 19.6978 227.487 19.8547C227.209 20.0077 226.99 20.223 226.829 20.5007C226.672 20.7743 226.594 21.0963 226.594 21.4666V26.5014H223.642ZM234.638 30.1718C233.757 30.1718 233.002 30.0491 232.374 29.8036C231.746 29.5581 231.253 29.222 230.895 28.7954C230.537 28.3688 230.321 27.8859 230.249 27.3466L233.044 27.1896C233.096 27.3788 233.193 27.5438 233.334 27.6846C233.479 27.8255 233.666 27.9341 233.895 28.0106C234.129 28.0871 234.402 28.1253 234.716 28.1253C235.211 28.1253 235.62 28.0046 235.942 27.7631C236.268 27.5256 236.431 27.1091 236.431 26.5135V24.8835H236.328C236.212 25.1692 236.034 25.4248 235.797 25.6502C235.56 25.8756 235.264 26.0526 234.91 26.1814C234.559 26.3102 234.157 26.3746 233.702 26.3746C233.026 26.3746 232.406 26.2176 231.843 25.9037C231.283 25.5858 230.835 25.0948 230.497 24.4307C230.163 23.7626 229.996 22.9034 229.996 21.8529C229.996 20.7703 230.169 19.8789 230.515 19.1786C230.861 18.4743 231.314 17.9531 231.873 17.615C232.436 17.277 233.042 17.1079 233.69 17.1079C234.177 17.1079 234.594 17.1924 234.94 17.3615C235.29 17.5265 235.578 17.7398 235.803 18.0014C236.028 18.263 236.199 18.5346 236.316 18.8164H236.401V17.2287H239.341V26.5376C239.341 27.3224 239.143 27.9845 238.749 28.5238C238.355 29.0631 237.803 29.4716 237.095 29.7493C236.387 30.031 235.568 30.1718 234.638 30.1718ZM234.728 24.2255C235.087 24.2255 235.393 24.1309 235.646 23.9417C235.9 23.7526 236.095 23.4809 236.232 23.1267C236.368 22.7726 236.437 22.348 236.437 21.8529C236.437 21.3499 236.368 20.9172 236.232 20.555C236.099 20.1888 235.904 19.907 235.646 19.7098C235.393 19.5126 235.087 19.414 234.728 19.414C234.362 19.414 234.052 19.5146 233.799 19.7159C233.545 19.9171 233.352 20.2008 233.219 20.5671C233.09 20.9293 233.026 21.3579 233.026 21.8529C233.026 22.348 233.092 22.7726 233.225 23.1267C233.358 23.4809 233.549 23.7526 233.799 23.9417C234.052 24.1309 234.362 24.2255 234.728 24.2255ZM245.557 26.6765C244.587 26.6765 243.75 26.4853 243.046 26.1029C242.346 25.7166 241.806 25.1672 241.428 24.4549C241.054 23.7385 240.867 22.8873 240.867 21.9012C240.867 20.9434 241.056 20.1063 241.434 19.3899C241.812 18.6695 242.346 18.1101 243.034 17.7116C243.722 17.3092 244.533 17.1079 245.467 17.1079C246.127 17.1079 246.73 17.2105 247.278 17.4158C247.825 17.6211 248.298 17.9249 248.696 18.3274C249.095 18.7298 249.405 19.2269 249.626 19.8185C249.847 20.4061 249.958 21.0802 249.958 21.8409V22.5774H241.899V20.8629H247.211C247.207 20.549 247.133 20.2693 246.988 20.0238C246.843 19.7783 246.644 19.5871 246.39 19.4502C246.141 19.3094 245.853 19.239 245.527 19.239C245.197 19.239 244.901 19.3134 244.64 19.4623C244.378 19.6072 244.171 19.8064 244.018 20.06C243.865 20.3095 243.784 20.5932 243.776 20.9112V22.6559C243.776 23.0342 243.851 23.3662 244 23.652C244.149 23.9337 244.36 24.153 244.634 24.31C244.907 24.4669 245.233 24.5454 245.612 24.5454C245.873 24.5454 246.111 24.5092 246.324 24.4368C246.537 24.3643 246.72 24.2577 246.873 24.1168C247.026 23.9759 247.141 23.8029 247.217 23.5976L249.928 23.6761C249.815 24.2838 249.568 24.8131 249.185 25.2638C248.807 25.7105 248.31 26.0587 247.694 26.3082C247.079 26.5537 246.366 26.6765 245.557 26.6765Z" fill="#F16436"/>
</g>
<defs>
<filter id="filter0_d_680_55" x="2.28562" y="0.287103" width="39.4286" height="39.4286" filterUnits="userSpaceOnUse" color-interpolation-filters="sRGB">
<feFlood flood-opacity="0" result="BackgroundImageFix"/>
<feColorMatrix in="SourceAlpha" type="matrix" values="0 0 0 0 0 0 0 0 0 0 0 0 0 0 0 0 0 0 127 0" result="hardAlpha"/>
<feOffset/>
<feGaussianBlur stdDeviation="2.85714"/>
<feComposite in2="hardAlpha" operator="out"/>
<feColorMatrix type="matrix" values="0 0 0 0 0 0 0 0 0 0 0 0 0 0 0 0 0 0 0.25 0"/>
<feBlend mode="normal" in2="BackgroundImageFix" result="effect1_dropShadow_680_55"/>
<feBlend mode="normal" in="SourceGraphic" in2="effect1_dropShadow_680_55" result="shape"/>
</filter>
<filter id="filter1_d_680_55" x="36.2856" y="3.7871" width="220.428" height="32.4286" filterUnits="userSpaceOnUse" color-interpolation-filters="sRGB">
<feFlood flood-opacity="0" result="BackgroundImageFix"/>
<feColorMatrix in="SourceAlpha" type="matrix" values="0 0 0 0 0 0 0 0 0 0 0 0 0 0 0 0 0 0 127 0" result="hardAlpha"/>
<feOffset/>
<feGaussianBlur stdDeviation="2.85714"/>
<feComposite in2="hardAlpha" operator="out"/>
<feColorMatrix type="matrix" values="0 0 0 0 0 0 0 0 0 0 0 0 0 0 0 0 0 0 0.25 0"/>
<feBlend mode="normal" in2="BackgroundImageFix" result="effect1_dropShadow_680_55"/>
<feBlend mode="normal" in="SourceGraphic" in2="effect1_dropShadow_680_55" result="shape"/>
</filter>
<linearGradient id="paint0_linear_680_55" x1="129.5" y1="0.00138855" x2="129.5" y2="40.0014" gradientUnits="userSpaceOnUse">
<stop stop-color="#2E140B"/>
<stop offset="1" stop-color="#1E0C07"/>
</linearGradient>
</defs>
</svg>
