<svg width="174" height="28" viewBox="0 0 174 28" fill="none" xmlns="http://www.w3.org/2000/svg">
<rect x="-0.000488281" y="-6.10352e-05" width="173.5" height="28" rx="6" fill="url(#paint0_linear_28_2668)"/>
<g filter="url(#filter0_d_28_2668)">
<path d="M10.9164 8.28571L11.2652 9.77639C9.52104 9.77639 5.28516 9.77639 5.28516 9.77639C5.28516 9.77639 5.38485 10.2236 5.43468 10.2733C5.58418 10.5217 5.73369 10.8199 5.93302 11.0186C6.87987 12.1118 8.52434 12.559 9.86985 12.8074C10.8167 13.0062 11.7636 13.0559 12.7104 13.1056L13.8067 16.0372H14.4048L14.7536 16.9814H14.2553L13.4081 19.7143H21.7303L20.8832 16.9814H20.3849L20.7337 16.0372H21.3316C21.3316 16.0372 21.83 13.0062 23.3749 11.6149C24.8699 10.2236 26.7137 10.0248 26.7137 10.0248V8.28571H10.9164ZM19.2885 15.7888C18.8898 16.0372 18.4413 16.0373 18.1423 16.236C17.943 16.3354 17.8433 16.6335 17.8433 16.6335C17.6439 16.1863 17.3948 16.0373 17.0958 15.9379C16.7968 15.8385 16.2486 15.8882 15.5011 15.2422C15.0028 14.795 14.9529 14.1987 15.0028 13.9006V13.8509C15.0028 13.8012 15.0028 13.8012 15.0028 13.7515C15.0028 13.7019 15.0028 13.6522 15.0526 13.6025C15.1523 13.3043 15.4015 13.0062 15.8998 12.8074C15.8998 12.8074 15.551 13.3043 15.8998 13.8012C16.0991 14.0994 16.4978 14.2484 16.8466 14.0497C16.9961 13.9503 17.0958 13.7516 17.1456 13.6025C17.2453 13.2547 17.2453 12.9068 16.9463 12.6584C16.4978 12.2609 16.3981 11.7143 16.6971 11.3665C16.6971 11.3665 16.7968 11.8137 17.2453 11.764C17.5443 11.764 17.5443 11.6646 17.4446 11.5652C17.3948 11.4161 16.747 10.472 17.6938 9.77639C17.6938 9.77639 18.2918 9.37887 18.9895 9.42856C18.5908 9.47825 18.1423 9.72671 17.9928 10.1242C17.9928 10.1242 17.9928 10.1242 17.9928 10.1739C17.8433 10.5714 17.943 11.0186 18.242 11.4161C18.4413 11.7143 18.6905 11.9627 18.7901 12.3602C18.6406 12.3106 18.541 12.3603 18.4413 12.4596C18.3416 12.559 18.2918 12.7578 18.3416 12.9068C18.3914 13.0062 18.4911 13.1056 18.5908 13.1056C18.6406 13.1056 18.6407 13.1056 18.6905 13.1056H18.7403C18.8898 13.0559 18.9895 12.8571 18.9397 12.7081C19.0393 12.8075 19.0891 13.0559 19.0393 13.205C19.0393 13.354 18.9397 13.5031 18.8898 13.6025C18.84 13.7019 18.7403 13.8012 18.6905 13.9006C18.6407 14 18.5908 14.0994 18.5908 14.1988C18.5908 14.2981 18.5908 14.4472 18.6407 14.5466C18.84 14.8447 19.2386 14.5466 19.3383 14.2981C19.4878 14 19.438 13.6522 19.2386 13.354C19.2386 13.354 19.5875 13.5528 19.8366 14.2484C20.036 14.8447 19.6871 15.5404 19.2885 15.7888Z" fill="#F16436"/>
</g>
<g filter="url(#filter1_d_28_2668)">
<path d="M39.5229 13.1015H38.3042C38.2573 12.8411 38.1701 12.6119 38.0425 12.414C37.9149 12.2161 37.7586 12.0481 37.5737 11.9101C37.3888 11.7721 37.1818 11.6679 36.9526 11.5976C36.7261 11.5273 36.4852 11.4921 36.23 11.4921C35.769 11.4921 35.3563 11.608 34.9917 11.8398C34.6297 12.0716 34.3433 12.4114 34.1323 12.8593C33.924 13.3072 33.8198 13.8541 33.8198 14.4999C33.8198 15.151 33.924 15.7005 34.1323 16.1484C34.3433 16.5963 34.631 16.9348 34.9956 17.164C35.3602 17.3932 35.7703 17.5077 36.2261 17.5077C36.4787 17.5077 36.7183 17.4739 36.9448 17.4062C37.174 17.3359 37.381 17.233 37.5659 17.0976C37.7508 16.9622 37.9071 16.7968 38.0347 16.6015C38.1649 16.4036 38.2547 16.177 38.3042 15.9218L39.5229 15.9257C39.4578 16.3189 39.3315 16.6809 39.144 17.0117C38.9591 17.3398 38.7209 17.6236 38.4292 17.8632C38.1401 18.1002 37.8094 18.2838 37.437 18.414C37.0646 18.5442 36.6584 18.6093 36.2183 18.6093C35.5256 18.6093 34.9084 18.4452 34.3667 18.1171C33.825 17.7864 33.3979 17.3137 33.0854 16.6992C32.7756 16.0846 32.6206 15.3515 32.6206 14.4999C32.6206 13.6458 32.7769 12.9127 33.0894 12.3007C33.4019 11.6861 33.8289 11.2148 34.3706 10.8867C34.9123 10.5559 35.5282 10.3906 36.2183 10.3906C36.6427 10.3906 37.0386 10.4518 37.4058 10.5742C37.7756 10.6939 38.1076 10.871 38.4019 11.1054C38.6961 11.3372 38.9396 11.621 39.1323 11.957C39.325 12.2903 39.4552 12.6718 39.5229 13.1015ZM40.5376 13.5077V12.4999H45.6001V13.5077H43.6431V18.4999H42.5024V13.5077H40.5376ZM46.8354 20.7499V12.4999H47.9761V13.4726H48.0737C48.1414 13.3476 48.2391 13.2031 48.3667 13.039C48.4943 12.8749 48.6714 12.7317 48.8979 12.6093C49.1245 12.4843 49.424 12.4218 49.7964 12.4218C50.2808 12.4218 50.713 12.5442 51.0933 12.789C51.4735 13.0338 51.7716 13.3867 51.9878 13.8476C52.2065 14.3085 52.3159 14.8632 52.3159 15.5117C52.3159 16.1601 52.2078 16.7161 51.9917 17.1796C51.7755 17.6406 51.4787 17.996 51.1011 18.246C50.7235 18.4934 50.2925 18.6171 49.8081 18.6171C49.4435 18.6171 49.1453 18.5559 48.9136 18.4335C48.6844 18.3111 48.5047 18.1679 48.3745 18.0038C48.2443 17.8398 48.144 17.6939 48.0737 17.5663H48.0034V20.7499H46.8354ZM47.98 15.4999C47.98 15.9218 48.0412 16.2916 48.1636 16.6093C48.286 16.927 48.463 17.1757 48.6948 17.3554C48.9266 17.5325 49.2104 17.621 49.5464 17.621C49.8953 17.621 50.187 17.5286 50.4214 17.3437C50.6558 17.1562 50.8328 16.9023 50.9526 16.582C51.075 16.2617 51.1362 15.901 51.1362 15.4999C51.1362 15.1041 51.0763 14.7486 50.9565 14.4335C50.8394 14.1184 50.6623 13.8697 50.4253 13.6874C50.1909 13.5051 49.8979 13.414 49.5464 13.414C49.2078 13.414 48.9214 13.5012 48.687 13.6757C48.4552 13.8502 48.2795 14.0937 48.1597 14.4062C48.0399 14.7187 47.98 15.0833 47.98 15.4999ZM55.3706 18.6327C54.9904 18.6327 54.6466 18.5624 54.3393 18.4218C54.0321 18.2786 53.7886 18.0716 53.6089 17.8007C53.4318 17.5299 53.3433 17.1979 53.3433 16.8046C53.3433 16.4661 53.4084 16.1874 53.5386 15.9687C53.6688 15.7499 53.8446 15.5768 54.0659 15.4492C54.2873 15.3216 54.5347 15.2252 54.8081 15.1601C55.0815 15.095 55.3602 15.0455 55.644 15.0117C56.0034 14.97 56.2951 14.9361 56.519 14.9101C56.743 14.8814 56.9058 14.8359 57.0073 14.7734C57.1089 14.7109 57.1597 14.6093 57.1597 14.4687V14.4413C57.1597 14.1002 57.0633 13.8359 56.8706 13.6484C56.6805 13.4609 56.3966 13.3671 56.019 13.3671C55.6258 13.3671 55.3159 13.4544 55.0893 13.6288C54.8654 13.8007 54.7104 13.9921 54.6245 14.2031L53.5268 13.9531C53.6571 13.5885 53.8472 13.2942 54.0972 13.0702C54.3498 12.8437 54.6401 12.6796 54.9683 12.5781C55.2964 12.4739 55.6414 12.4218 56.0034 12.4218C56.243 12.4218 56.4969 12.4505 56.7651 12.5078C57.036 12.5624 57.2886 12.664 57.5229 12.8124C57.7599 12.9609 57.9539 13.1731 58.105 13.4492C58.256 13.7226 58.3315 14.0781 58.3315 14.5156V18.4999H57.1909V17.6796H57.144C57.0685 17.8307 56.9552 17.9791 56.8042 18.1249C56.6532 18.2708 56.4591 18.3919 56.2222 18.4882C55.9852 18.5846 55.7013 18.6327 55.3706 18.6327ZM55.6245 17.6952C55.9474 17.6952 56.2235 17.6314 56.4526 17.5038C56.6844 17.3762 56.8602 17.2096 56.98 17.0038C57.1024 16.7955 57.1636 16.5729 57.1636 16.3359V15.5624C57.1219 15.6041 57.0412 15.6432 56.9214 15.6796C56.8042 15.7135 56.6701 15.7434 56.519 15.7695C56.368 15.7929 56.2209 15.815 56.0776 15.8359C55.9344 15.8541 55.8146 15.8697 55.7183 15.8827C55.4917 15.9114 55.2847 15.9596 55.0972 16.0273C54.9123 16.095 54.7638 16.1926 54.6518 16.3202C54.5425 16.4452 54.4878 16.6119 54.4878 16.8202C54.4878 17.1093 54.5946 17.3281 54.8081 17.4765C55.0216 17.6223 55.2938 17.6952 55.6245 17.6952ZM63.9536 14.996V16.0077H60.7036V14.996H63.9536ZM61.0317 12.4999V18.4999H59.8872V12.4999H61.0317ZM64.77 12.4999V18.4999H63.6294V12.4999H64.77ZM67.477 16.8632L70.1216 12.4999H71.3794V18.4999H70.2349V14.1327L67.602 18.4999H66.3325V12.4999H67.477V16.8632ZM77.8442 12.4999V17.5429H78.7231V20.4335H77.5708V18.4999H72.9497V12.4999H74.0942V17.4921H76.7036V12.4999H77.8442ZM81.7641 18.6327C81.3839 18.6327 81.0402 18.5624 80.7329 18.4218C80.4256 18.2786 80.1821 18.0716 80.0024 17.8007C79.8253 17.5299 79.7368 17.1979 79.7368 16.8046C79.7368 16.4661 79.8019 16.1874 79.9321 15.9687C80.0623 15.7499 80.2381 15.5768 80.4595 15.4492C80.6808 15.3216 80.9282 15.2252 81.2016 15.1601C81.4751 15.095 81.7537 15.0455 82.0376 15.0117C82.397 14.97 82.6886 14.9361 82.9126 14.9101C83.1365 14.8814 83.2993 14.8359 83.4009 14.7734C83.5024 14.7109 83.5532 14.6093 83.5532 14.4687V14.4413C83.5532 14.1002 83.4569 13.8359 83.2641 13.6484C83.074 13.4609 82.7902 13.3671 82.4126 13.3671C82.0194 13.3671 81.7095 13.4544 81.4829 13.6288C81.2589 13.8007 81.104 13.9921 81.0181 14.2031L79.9204 13.9531C80.0506 13.5885 80.2407 13.2942 80.4907 13.0702C80.7433 12.8437 81.0337 12.6796 81.3618 12.5781C81.6899 12.4739 82.035 12.4218 82.397 12.4218C82.6365 12.4218 82.8904 12.4505 83.1587 12.5078C83.4295 12.5624 83.6821 12.664 83.9165 12.8124C84.1535 12.9609 84.3475 13.1731 84.4985 13.4492C84.6496 13.7226 84.7251 14.0781 84.7251 14.5156V18.4999H83.5845V17.6796H83.5376C83.4621 17.8307 83.3488 17.9791 83.1977 18.1249C83.0467 18.2708 82.8527 18.3919 82.6157 18.4882C82.3787 18.5846 82.0949 18.6327 81.7641 18.6327ZM82.0181 17.6952C82.341 17.6952 82.617 17.6314 82.8462 17.5038C83.0779 17.3762 83.2537 17.2096 83.3735 17.0038C83.4959 16.7955 83.5571 16.5729 83.5571 16.3359V15.5624C83.5154 15.6041 83.4347 15.6432 83.3149 15.6796C83.1977 15.7135 83.0636 15.7434 82.9126 15.7695C82.7615 15.7929 82.6144 15.815 82.4712 15.8359C82.3279 15.8541 82.2082 15.8697 82.1118 15.8827C81.8852 15.9114 81.6782 15.9596 81.4907 16.0273C81.3058 16.095 81.1574 16.1926 81.0454 16.3202C80.936 16.4452 80.8813 16.6119 80.8813 16.8202C80.8813 17.1093 80.9881 17.3281 81.2016 17.4765C81.4152 17.6223 81.6873 17.6952 82.0181 17.6952ZM89.1919 18.4999V12.4999H91.6802C92.3572 12.4999 92.8937 12.6445 93.2895 12.9335C93.6854 13.22 93.8833 13.6093 93.8833 14.1015C93.8833 14.4531 93.7713 14.7317 93.5473 14.9374C93.3234 15.1432 93.0265 15.2812 92.6567 15.3515C92.9249 15.3827 93.171 15.4635 93.395 15.5937C93.619 15.7213 93.7986 15.8932 93.9341 16.1093C94.0721 16.3255 94.1411 16.5833 94.1411 16.8827C94.1411 17.2005 94.0591 17.4817 93.895 17.7265C93.7309 17.9687 93.4927 18.1588 93.1802 18.2968C92.8703 18.4322 92.4966 18.4999 92.0591 18.4999H89.1919ZM90.2895 17.5234H92.0591C92.3481 17.5234 92.5747 17.4544 92.7388 17.3163C92.9028 17.1783 92.9848 16.9908 92.9848 16.7538C92.9848 16.4752 92.9028 16.2564 92.7388 16.0976C92.5747 15.9361 92.3481 15.8554 92.0591 15.8554H90.2895V17.5234ZM90.2895 14.9999H91.6919C91.9106 14.9999 92.0981 14.9687 92.2544 14.9062C92.4132 14.8437 92.5343 14.7551 92.6177 14.6406C92.7036 14.5234 92.7466 14.3854 92.7466 14.2265C92.7466 13.9947 92.6515 13.8137 92.4614 13.6835C92.2713 13.5533 92.0109 13.4882 91.6802 13.4882H90.2895V14.9999Z" fill="#E8E8E8"/>
<path d="M106.082 12.9346H103.951C103.923 12.7158 103.865 12.5184 103.776 12.3423C103.688 12.1661 103.572 12.0156 103.427 11.8906C103.282 11.7656 103.11 11.6704 102.911 11.6051C102.715 11.5369 102.498 11.5028 102.259 11.5028C101.836 11.5028 101.471 11.6065 101.164 11.8139C100.86 12.0212 100.626 12.321 100.461 12.713C100.299 13.1051 100.218 13.5795 100.218 14.1363C100.218 14.7158 100.301 15.2016 100.465 15.5937C100.633 15.9829 100.867 16.2769 101.169 16.4758C101.473 16.6718 101.832 16.7698 102.247 16.7698C102.48 16.7698 102.691 16.74 102.882 16.6803C103.075 16.6207 103.244 16.534 103.389 16.4204C103.536 16.3039 103.657 16.1633 103.751 15.9985C103.848 15.8309 103.914 15.642 103.951 15.4318L106.082 15.4445C106.045 15.8309 105.933 16.2116 105.745 16.5866C105.561 16.9616 105.306 17.3039 104.982 17.6136C104.659 17.9204 104.264 18.1647 103.798 18.3465C103.335 18.5283 102.803 18.6193 102.204 18.6193C101.414 18.6193 100.707 18.446 100.082 18.0994C99.4597 17.7499 98.9683 17.2414 98.6075 16.5738C98.2467 15.9062 98.0663 15.0937 98.0663 14.1363C98.0663 13.1761 98.2495 12.3622 98.616 11.6945C98.9825 11.0269 99.4782 10.5198 100.103 10.1732C100.728 9.82664 101.428 9.65335 102.204 9.65335C102.732 9.65335 103.221 9.72721 103.67 9.87494C104.119 10.0198 104.514 10.2329 104.855 10.5141C105.196 10.7926 105.473 11.1349 105.686 11.5411C105.899 11.9474 106.031 12.4119 106.082 12.9346ZM111.512 15.6747V11.9545H113.591V18.4999H111.606V17.2812H111.538C111.393 17.6818 111.145 17.9999 110.796 18.2357C110.449 18.4687 110.03 18.5852 109.539 18.5852C109.093 18.5852 108.701 18.4829 108.363 18.2783C108.025 18.0738 107.762 17.7883 107.574 17.4218C107.387 17.0525 107.292 16.6207 107.289 16.1264V11.9545H109.373V15.7173C109.376 16.0724 109.469 16.3522 109.654 16.5568C109.839 16.7613 110.09 16.8636 110.408 16.8636C110.616 16.8636 110.802 16.8181 110.966 16.7272C111.134 16.6335 111.266 16.4985 111.363 16.3224C111.462 16.1434 111.512 15.9275 111.512 15.6747ZM114.918 18.4999V11.9545H116.942V13.1477H117.01C117.129 12.7158 117.324 12.3948 117.594 12.1846C117.864 11.9715 118.178 11.865 118.536 11.865C118.632 11.865 118.732 11.8721 118.834 11.8863C118.936 11.8977 119.031 11.9161 119.12 11.9417V13.7528C119.02 13.7187 118.889 13.6917 118.727 13.6718C118.568 13.6519 118.426 13.642 118.301 13.642C118.054 13.642 117.831 13.6974 117.632 13.8082C117.436 13.9161 117.281 14.0681 117.168 14.2641C117.057 14.4573 117.002 14.6846 117.002 14.946V18.4999H114.918ZM125.683 13.9531L123.77 14.0042C123.75 13.8678 123.696 13.7471 123.608 13.642C123.52 13.534 123.405 13.4502 123.263 13.3906C123.123 13.3281 122.962 13.2968 122.777 13.2968C122.535 13.2968 122.329 13.3451 122.159 13.4417C121.991 13.5383 121.909 13.669 121.912 13.8337C121.909 13.9616 121.96 14.0724 122.065 14.1661C122.173 14.2599 122.365 14.3352 122.64 14.392L123.902 14.6306C124.555 14.7556 125.041 14.963 125.359 15.2528C125.68 15.5426 125.842 15.9261 125.845 16.4033C125.842 16.8522 125.709 17.2428 125.444 17.5752C125.183 17.9076 124.825 18.1661 124.371 18.3508C123.916 18.5326 123.396 18.6235 122.811 18.6235C121.876 18.6235 121.139 18.4318 120.599 18.0482C120.062 17.6619 119.756 17.1448 119.679 16.4971L121.737 16.446C121.783 16.6846 121.9 16.8664 122.091 16.9914C122.281 17.1164 122.524 17.1789 122.819 17.1789C123.087 17.1789 123.304 17.1292 123.471 17.0298C123.639 16.9303 123.724 16.7982 123.727 16.6335C123.724 16.4857 123.659 16.3678 123.531 16.2798C123.403 16.1889 123.203 16.1178 122.93 16.0667L121.788 15.8494C121.132 15.7301 120.643 15.5099 120.322 15.1889C120.001 14.865 119.842 14.4531 119.845 13.9531C119.842 13.5156 119.959 13.142 120.194 12.8323C120.43 12.5198 120.765 12.2812 121.2 12.1164C121.635 11.9516 122.148 11.8693 122.738 11.8693C123.625 11.8693 124.324 12.0553 124.835 12.4275C125.346 12.7968 125.629 13.3053 125.683 13.9531ZM129.931 18.6235C129.246 18.6235 128.655 18.4886 128.158 18.2187C127.664 17.946 127.283 17.5582 127.016 17.0553C126.752 16.5497 126.62 15.9488 126.62 15.2528C126.62 14.5766 126.753 13.9857 127.02 13.4801C127.287 12.9715 127.664 12.5766 128.149 12.2954C128.635 12.0113 129.208 11.8693 129.867 11.8693C130.333 11.8693 130.759 11.9417 131.145 12.0866C131.531 12.2315 131.865 12.446 132.147 12.7301C132.428 13.0141 132.647 13.365 132.803 13.7826C132.959 14.1974 133.037 14.6732 133.037 15.2102V15.7301H127.348V14.5198H131.098C131.095 14.2982 131.043 14.1008 130.941 13.9275C130.838 13.7542 130.698 13.6193 130.519 13.5227C130.343 13.4232 130.139 13.3735 129.909 13.3735C129.676 13.3735 129.468 13.4261 129.283 13.5312C129.098 13.6335 128.952 13.7741 128.844 13.9531C128.736 14.1292 128.679 14.3295 128.674 14.5539V15.7854C128.674 16.0525 128.726 16.2869 128.831 16.4886C128.936 16.6874 129.085 16.8423 129.279 16.9531C129.472 17.0639 129.702 17.1193 129.969 17.1193C130.154 17.1193 130.321 17.0937 130.472 17.0425C130.622 16.9914 130.752 16.9161 130.86 16.8167C130.968 16.7173 131.049 16.5951 131.102 16.4502L133.016 16.5056C132.936 16.9346 132.762 17.3082 132.492 17.6264C132.225 17.9417 131.874 18.1874 131.439 18.3636C131.004 18.5369 130.502 18.6235 129.931 18.6235ZM134.101 18.4999V9.77267H140.059V11.4857H136.211V13.2755H139.68V14.9928H136.211V18.4999H134.101ZM143.696 18.6235C143.008 18.6235 142.417 18.4829 141.923 18.2016C141.432 17.9175 141.052 17.5227 140.785 17.017C140.521 16.5085 140.389 15.919 140.389 15.2485C140.389 14.5752 140.521 13.9857 140.785 13.4801C141.052 12.9715 141.432 12.5766 141.923 12.2954C142.417 12.0113 143.008 11.8693 143.696 11.8693C144.383 11.8693 144.973 12.0113 145.464 12.2954C145.959 12.5766 146.338 12.9715 146.602 13.4801C146.869 13.9857 147.003 14.5752 147.003 15.2485C147.003 15.919 146.869 16.5085 146.602 17.017C146.338 17.5227 145.959 17.9175 145.464 18.2016C144.973 18.4829 144.383 18.6235 143.696 18.6235ZM143.709 17.0511C143.959 17.0511 144.17 16.9744 144.344 16.821C144.517 16.6675 144.649 16.4545 144.74 16.1818C144.834 15.909 144.881 15.5937 144.881 15.2357C144.881 14.8721 144.834 14.5539 144.74 14.2812C144.649 14.0085 144.517 13.7954 144.344 13.642C144.17 13.4886 143.959 13.4119 143.709 13.4119C143.45 13.4119 143.231 13.4886 143.052 13.642C142.876 13.7954 142.741 14.0085 142.648 14.2812C142.557 14.5539 142.511 14.8721 142.511 15.2357C142.511 15.5937 142.557 15.909 142.648 16.1818C142.741 16.4545 142.876 16.6675 143.052 16.821C143.231 16.9744 143.45 17.0511 143.709 17.0511ZM148.07 18.4999V11.9545H150.094V13.1477H150.162C150.282 12.7158 150.476 12.3948 150.746 12.1846C151.016 11.9715 151.33 11.865 151.688 11.865C151.785 11.865 151.884 11.8721 151.986 11.8863C152.089 11.8977 152.184 11.9161 152.272 11.9417V13.7528C152.172 13.7187 152.042 13.6917 151.88 13.6718C151.721 13.6519 151.579 13.642 151.454 13.642C151.207 13.642 150.984 13.6974 150.785 13.8082C150.589 13.9161 150.434 14.0681 150.32 14.2641C150.209 14.4573 150.154 14.6846 150.154 14.946V18.4999H148.07ZM155.832 21.0908C155.21 21.0908 154.677 21.0042 154.234 20.8309C153.791 20.6576 153.443 20.4204 153.19 20.1193C152.937 19.8181 152.785 19.4772 152.734 19.0965L154.707 18.9857C154.744 19.1193 154.812 19.2357 154.912 19.3352C155.014 19.4346 155.146 19.5113 155.308 19.5653C155.473 19.6193 155.666 19.6462 155.888 19.6462C156.237 19.6462 156.525 19.561 156.753 19.3906C156.983 19.2229 157.098 18.9289 157.098 18.5085V17.3579H157.025C156.943 17.5596 156.818 17.74 156.65 17.8991C156.483 18.0582 156.274 18.1832 156.024 18.2741C155.777 18.365 155.493 18.4104 155.172 18.4104C154.694 18.4104 154.257 18.2997 153.859 18.0781C153.464 17.8536 153.148 17.507 152.909 17.0383C152.673 16.5667 152.555 15.9602 152.555 15.2187C152.555 14.4545 152.677 13.8252 152.922 13.3309C153.166 12.8337 153.486 12.4658 153.881 12.2272C154.278 11.9886 154.706 11.8693 155.163 11.8693C155.507 11.8693 155.801 11.9289 156.045 12.0482C156.292 12.1647 156.496 12.3153 156.655 12.4999C156.814 12.6846 156.935 12.8764 157.017 13.0752H157.077V11.9545H159.152V18.5255C159.152 19.0795 159.013 19.5468 158.734 19.9275C158.456 20.3082 158.067 20.5965 157.567 20.7925C157.067 20.9914 156.488 21.0908 155.832 21.0908ZM155.896 16.8934C156.149 16.8934 156.365 16.8266 156.544 16.6931C156.723 16.5596 156.861 16.3678 156.957 16.1178C157.054 15.8678 157.102 15.5681 157.102 15.2187C157.102 14.8636 157.054 14.5582 156.957 14.3025C156.863 14.044 156.726 13.8451 156.544 13.7059C156.365 13.5667 156.149 13.4971 155.896 13.4971C155.638 13.4971 155.419 13.5681 155.24 13.7102C155.061 13.8522 154.925 14.0525 154.831 14.311C154.74 14.5667 154.694 14.8693 154.694 15.2187C154.694 15.5681 154.741 15.8678 154.835 16.1178C154.929 16.3678 155.064 16.5596 155.24 16.6931C155.419 16.8266 155.638 16.8934 155.896 16.8934ZM163.54 18.6235C162.855 18.6235 162.264 18.4886 161.767 18.2187C161.273 17.946 160.892 17.5582 160.625 17.0553C160.361 16.5497 160.229 15.9488 160.229 15.2528C160.229 14.5766 160.362 13.9857 160.629 13.4801C160.897 12.9715 161.273 12.5766 161.759 12.2954C162.245 12.0113 162.817 11.8693 163.476 11.8693C163.942 11.8693 164.368 11.9417 164.754 12.0866C165.141 12.2315 165.475 12.446 165.756 12.7301C166.037 13.0141 166.256 13.365 166.412 13.7826C166.568 14.1974 166.647 14.6732 166.647 15.2102V15.7301H160.958V14.5198H164.708C164.705 14.2982 164.652 14.1008 164.55 13.9275C164.448 13.7542 164.307 13.6193 164.128 13.5227C163.952 13.4232 163.749 13.3735 163.519 13.3735C163.286 13.3735 163.077 13.4261 162.892 13.5312C162.708 13.6335 162.561 13.7741 162.453 13.9531C162.345 14.1292 162.289 14.3295 162.283 14.5539V15.7854C162.283 16.0525 162.335 16.2869 162.441 16.4886C162.546 16.6874 162.695 16.8423 162.888 16.9531C163.081 17.0639 163.311 17.1193 163.578 17.1193C163.763 17.1193 163.931 17.0937 164.081 17.0425C164.232 16.9914 164.361 16.9161 164.469 16.8167C164.577 16.7173 164.658 16.5951 164.712 16.4502L166.625 16.5056C166.546 16.9346 166.371 17.3082 166.101 17.6264C165.834 17.9417 165.483 18.1874 165.048 18.3636C164.614 18.5369 164.111 18.6235 163.54 18.6235Z" fill="#F16436"/>
</g>
<rect x="0.749512" y="0.749939" width="172" height="26.5" rx="5.25" stroke="white" stroke-opacity="0.15" stroke-width="1.5"/>
<defs>
<filter id="filter0_d_28_2668" x="1.28516" y="-6.10352e-05" width="29.4285" height="28" filterUnits="userSpaceOnUse" color-interpolation-filters="sRGB">
<feFlood flood-opacity="0" result="BackgroundImageFix"/>
<feColorMatrix in="SourceAlpha" type="matrix" values="0 0 0 0 0 0 0 0 0 0 0 0 0 0 0 0 0 0 127 0" result="hardAlpha"/>
<feOffset/>
<feGaussianBlur stdDeviation="2"/>
<feComposite in2="hardAlpha" operator="out"/>
<feColorMatrix type="matrix" values="0 0 0 0 0 0 0 0 0 0 0 0 0 0 0 0 0 0 0.25 0"/>
<feBlend mode="normal" in2="BackgroundImageFix" result="effect1_dropShadow_28_2668"/>
<feBlend mode="normal" in="SourceGraphic" in2="effect1_dropShadow_28_2668" result="shape"/>
</filter>
<filter id="filter1_d_28_2668" x="27.9995" y="3.49994" width="143.5" height="21.5909" filterUnits="userSpaceOnUse" color-interpolation-filters="sRGB">
<feFlood flood-opacity="0" result="BackgroundImageFix"/>
<feColorMatrix in="SourceAlpha" type="matrix" values="0 0 0 0 0 0 0 0 0 0 0 0 0 0 0 0 0 0 127 0" result="hardAlpha"/>
<feOffset/>
<feGaussianBlur stdDeviation="2"/>
<feComposite in2="hardAlpha" operator="out"/>
<feColorMatrix type="matrix" values="0 0 0 0 0 0 0 0 0 0 0 0 0 0 0 0 0 0 0.25 0"/>
<feBlend mode="normal" in2="BackgroundImageFix" result="effect1_dropShadow_28_2668"/>
<feBlend mode="normal" in="SourceGraphic" in2="effect1_dropShadow_28_2668" result="shape"/>
</filter>
<linearGradient id="paint0_linear_28_2668" x1="86.7495" y1="-6.10351e-05" x2="86.7495" y2="27.9999" gradientUnits="userSpaceOnUse">
<stop stop-color="#2E140B"/>
<stop offset="1" stop-color="#1E0C07"/>
</linearGradient>
</defs>
</svg>
