<svg width="253" height="40" viewBox="0 0 253 40" fill="none" xmlns="http://www.w3.org/2000/svg">
<rect x="-9.15527e-05" y="0.00140381" width="253.001" height="40.0014" rx="8" fill="url(#paint0_linear_680_126)"/>
<rect x="1.07134" y="1.07283" width="250.858" height="37.8585" rx="6.92857" stroke="white" stroke-opacity="0.15" stroke-width="2.14286"/>
<g filter="url(#filter0_d_680_126)">
<path d="M31.7033 11.2468C29.9096 10.4375 28.0038 9.84884 26.0009 9.50301C25.9635 9.50301 25.9261 9.50301 25.9112 9.54716C25.6646 9.98128 25.388 10.5405 25.2012 10.982C23.0338 10.6656 20.9039 10.6656 18.7963 10.982C18.602 10.5258 18.3254 9.97392 18.0489 9.54716C18.0265 9.51773 17.9966 9.49566 17.9592 9.50301C16.2403 9.84148 14.043 10.4595 12.2793 11.2468C12.2643 11.2468 12.2494 11.2616 12.2419 11.2763C8.57981 16.6476 7.60823 21.7982 8.13139 26.9487C8.13139 26.9708 8.14634 27.0002 8.16876 27.0223C10.5603 28.7588 12.8772 29.8183 15.1641 30.5026C15.2015 30.5026 15.2388 30.5026 15.2613 30.4732C15.7994 29.7521 16.2777 28.9869 16.6962 28.1775C16.7186 28.1334 16.6962 28.0745 16.6439 28.0598C15.8965 27.7655 15.1491 27.427 14.4541 27.0297C14.4018 27.0002 14.3943 26.9193 14.4541 26.8825C14.6036 26.7721 14.753 26.6618 14.8876 26.5514C14.91 26.5293 14.9474 26.5293 14.9773 26.5367C19.5661 28.5969 24.5435 28.5969 29.0277 26.5367C29.0576 26.522 29.095 26.5293 29.1174 26.5441C29.2594 26.6618 29.4014 26.7721 29.5509 26.8825C29.6032 26.9193 29.5957 27.0002 29.5509 27.0297C28.8558 27.4344 28.1309 27.7655 27.3611 28.0598C27.3088 28.0819 27.2864 28.1334 27.3162 28.1849C27.7348 28.9943 28.2206 29.7521 28.7362 30.4658C28.7587 30.4953 28.796 30.51 28.8334 30.4953C31.1203 29.7963 33.4446 28.7441 35.8437 27.015C35.8661 27.0002 35.8811 26.9782 35.8811 26.9414C36.464 20.9888 34.902 15.8309 31.7406 11.2689C31.7406 11.2542 31.7182 11.2395 31.7033 11.2395V11.2468ZM17.3539 23.829C15.9339 23.829 14.8128 22.5781 14.8128 21.0329C14.8128 19.4878 15.9339 18.2369 17.3539 18.2369C18.7739 18.2369 19.8949 19.4878 19.8949 21.0329C19.8949 22.5781 18.7739 23.829 17.3539 23.829ZM26.6959 23.829C25.2759 23.829 24.1549 22.5781 24.1549 21.0329C24.1549 19.4878 25.2759 18.2369 26.6959 18.2369C28.1159 18.2369 29.237 19.4878 29.237 21.0329C29.237 22.5781 28.1159 23.829 26.6959 23.829Z" fill="#5865F2"/>
</g>
<g filter="url(#filter1_d_680_126)">
<path d="M43.3596 26.5021V14.1385H45.225V19.5113H51.3887V14.1385H53.2602V26.5021H51.3887V21.1111H45.225V26.5021H43.3596ZM58.5304 26.7074C57.9428 26.7074 57.4116 26.5987 56.9367 26.3814C56.4618 26.16 56.0855 25.8401 55.8078 25.4215C55.5341 25.0029 55.3973 24.4898 55.3973 23.8821C55.3973 23.3589 55.4979 22.9282 55.6991 22.5902C55.9003 22.2521 56.172 21.9845 56.5141 21.7873C56.8562 21.5901 57.2385 21.4411 57.6611 21.3405C58.0837 21.2399 58.5143 21.1634 58.953 21.1111C59.5084 21.0467 59.9592 20.9944 60.3053 20.9542C60.6514 20.9099 60.9029 20.8395 61.0599 20.7429C61.2169 20.6463 61.2953 20.4893 61.2953 20.272V20.2297C61.2953 19.7025 61.1464 19.294 60.8486 19.0042C60.5548 18.7145 60.1161 18.5696 59.5326 18.5696C58.9248 18.5696 58.4459 18.7044 58.0958 18.974C57.7497 19.2397 57.5102 19.5355 57.3774 19.8615L55.681 19.4751C55.8822 18.9117 56.176 18.4569 56.5624 18.1108C56.9528 17.7606 57.4015 17.5071 57.9086 17.3501C58.4157 17.1891 58.949 17.1086 59.5084 17.1086C59.8787 17.1086 60.2711 17.1529 60.6856 17.2415C61.1042 17.326 61.4946 17.4829 61.8568 17.7123C62.223 17.9417 62.5228 18.2697 62.7563 18.6964C62.9897 19.1189 63.1064 19.6683 63.1064 20.3444V26.5021H61.3436V25.2343H61.2712C61.1545 25.4678 60.9794 25.6972 60.746 25.9226C60.5126 26.1479 60.2127 26.3351 59.8465 26.484C59.4802 26.6329 59.0416 26.7074 58.5304 26.7074ZM58.9228 25.2585C59.4219 25.2585 59.8485 25.1599 60.2027 24.9627C60.5608 24.7655 60.8325 24.5079 61.0176 24.19C61.2068 23.868 61.3014 23.5239 61.3014 23.1576V21.9623C61.237 22.0267 61.1122 22.0871 60.9271 22.1434C60.746 22.1958 60.5387 22.242 60.3053 22.2823C60.0719 22.3185 59.8445 22.3527 59.6231 22.3849C59.4018 22.4131 59.2166 22.4372 59.0677 22.4574C58.7176 22.5016 58.3976 22.5761 58.1078 22.6807C57.8221 22.7854 57.5927 22.9363 57.4196 23.1335C57.2506 23.3267 57.1661 23.5843 57.1661 23.9062C57.1661 24.353 57.3311 24.691 57.6611 24.9204C57.9911 25.1458 58.4117 25.2585 58.9228 25.2585ZM67.2794 23.9726L71.3664 17.2294H73.3103V26.5021H71.5415V19.7528L67.4726 26.5021H65.5106V17.2294H67.2794V23.9726ZM70.5937 14.0902H72.0788C72.0788 14.7703 71.8373 15.3237 71.3544 15.7503C70.8754 16.1729 70.2275 16.3842 69.4105 16.3842C68.5975 16.3842 67.9516 16.1729 67.4726 15.7503C66.9937 15.3237 66.7542 14.7703 66.7542 14.0902H68.2333C68.2333 14.392 68.3218 14.6597 68.4989 14.8931C68.676 15.1225 68.9798 15.2372 69.4105 15.2372C69.8331 15.2372 70.1349 15.1225 70.316 14.8931C70.5012 14.6637 70.5937 14.396 70.5937 14.0902ZM74.8316 29.1765V24.9385H75.5863C75.7794 24.7615 75.9424 24.5502 76.0753 24.3047C76.2121 24.0592 76.3268 23.7674 76.4194 23.4293C76.516 23.0912 76.5964 22.6968 76.6608 22.2461C76.7252 21.7913 76.7816 21.2721 76.8299 20.6885L77.1196 17.2294H83.4222V24.9385H84.8469V29.1765H83.0841V26.5021H76.6186V29.1765H74.8316ZM77.5181 24.9385H81.6594V18.7748H78.7375L78.5444 20.6885C78.4518 21.6625 78.3351 22.5077 78.1942 23.224C78.0534 23.9364 77.828 24.5079 77.5181 24.9385ZM90.6077 26.6892C89.6941 26.6892 88.9073 26.4941 88.2472 26.1037C87.5912 25.7093 87.0841 25.1559 86.7259 24.4435C86.3717 23.7271 86.1947 22.888 86.1947 21.9261C86.1947 20.9763 86.3717 20.1392 86.7259 19.4147C87.0841 18.6903 87.5832 18.1249 88.2231 17.7184C88.867 17.3119 89.6196 17.1086 90.4809 17.1086C91.0041 17.1086 91.5112 17.1952 92.0022 17.3682C92.4932 17.5413 92.9339 17.8129 93.3243 18.1832C93.7147 18.5535 94.0225 19.0344 94.2479 19.626C94.4733 20.2136 94.586 20.928 94.586 21.7691V22.4091H87.2149V21.0568H92.8172C92.8172 20.5819 92.7206 20.1613 92.5274 19.7951C92.3342 19.4248 92.0626 19.133 91.7124 18.9197C91.3663 18.7064 90.9598 18.5998 90.493 18.5998C89.9859 18.5998 89.5431 18.7245 89.1648 18.974C88.7905 19.2196 88.5008 19.5415 88.2955 19.94C88.0943 20.3344 87.9937 20.763 87.9937 21.2258V22.2823C87.9937 22.9021 88.1023 23.4293 88.3197 23.864C88.541 24.2986 88.8489 24.6307 89.2433 24.8601C89.6377 25.0854 90.0985 25.1981 90.6258 25.1981C90.9679 25.1981 91.2798 25.1498 91.5615 25.0532C91.8432 24.9526 92.0867 24.8037 92.292 24.6065C92.4972 24.4093 92.6542 24.1658 92.7628 23.876L94.4713 24.1839C94.3345 24.687 94.089 25.1277 93.7348 25.506C93.3846 25.8803 92.9439 26.1721 92.4127 26.3814C91.8855 26.5866 91.2838 26.6892 90.6077 26.6892ZM88.6396 15.7745C88.3539 15.7745 88.1043 15.6698 87.891 15.4606C87.6777 15.2473 87.5711 15.0017 87.5711 14.724C87.5711 14.4222 87.6777 14.1707 87.891 13.9694C88.1043 13.7682 88.3539 13.6676 88.6396 13.6676C88.9415 13.6676 89.193 13.7682 89.3942 13.9694C89.5995 14.1707 89.7021 14.4222 89.7021 14.724C89.7021 15.0017 89.5995 15.2473 89.3942 15.4606C89.193 15.6698 88.9415 15.7745 88.6396 15.7745ZM92.1893 15.7745C91.9036 15.7745 91.6541 15.6698 91.4408 15.4606C91.2274 15.2473 91.1208 15.0017 91.1208 14.724C91.1208 14.4222 91.2274 14.1707 91.4408 13.9694C91.6541 13.7682 91.9036 13.6676 92.1893 13.6676C92.4912 13.6676 92.7427 13.7682 92.9439 13.9694C93.1492 14.1707 93.2518 14.4222 93.2518 14.724C93.2518 15.0017 93.1492 15.2473 92.9439 15.4606C92.7427 15.6698 92.4912 15.7745 92.1893 15.7745ZM95.7707 18.7869V17.2294H103.595V18.7869H100.57V26.5021H98.8073V18.7869H95.7707ZM109.069 26.6892C108.155 26.6892 107.368 26.4941 106.708 26.1037C106.052 25.7093 105.545 25.1559 105.187 24.4435C104.833 23.7271 104.656 22.888 104.656 21.9261C104.656 20.9763 104.833 20.1392 105.187 19.4147C105.545 18.6903 106.044 18.1249 106.684 17.7184C107.328 17.3119 108.081 17.1086 108.942 17.1086C109.465 17.1086 109.972 17.1952 110.463 17.3682C110.954 17.5413 111.395 17.8129 111.785 18.1832C112.176 18.5535 112.483 19.0344 112.709 19.626C112.934 20.2136 113.047 20.928 113.047 21.7691V22.4091H105.676V21.0568H111.278C111.278 20.5819 111.182 20.1613 110.988 19.7951C110.795 19.4248 110.523 19.133 110.173 18.9197C109.827 18.7064 109.421 18.5998 108.954 18.5998C108.447 18.5998 108.004 18.7245 107.626 18.974C107.251 19.2196 106.962 19.5415 106.756 19.94C106.555 20.3344 106.455 20.763 106.455 21.2258V22.2823C106.455 22.9021 106.563 23.4293 106.781 23.864C107.002 24.2986 107.31 24.6307 107.704 24.8601C108.099 25.0854 108.559 25.1981 109.087 25.1981C109.429 25.1981 109.741 25.1498 110.022 25.0532C110.304 24.9526 110.548 24.8037 110.753 24.6065C110.958 24.4093 111.115 24.1658 111.224 23.876L112.932 24.1839C112.795 24.687 112.55 25.1277 112.196 25.506C111.846 25.8803 111.405 26.1721 110.874 26.3814C110.346 26.5866 109.745 26.6892 109.069 26.6892ZM124.753 24.2684L127.747 17.2294H129.304L125.423 26.5021H124.082L120.279 17.2294H121.819L124.753 24.2684ZM121.318 17.2294V26.5021H119.549V17.2294H121.318ZM128.236 26.5021V17.2294H129.993V26.5021H128.236ZM136.395 26.6892C135.481 26.6892 134.694 26.4941 134.034 26.1037C133.378 25.7093 132.871 25.1559 132.513 24.4435C132.159 23.7271 131.982 22.888 131.982 21.9261C131.982 20.9763 132.159 20.1392 132.513 19.4147C132.871 18.6903 133.37 18.1249 134.01 17.7184C134.654 17.3119 135.407 17.1086 136.268 17.1086C136.791 17.1086 137.298 17.1952 137.789 17.3682C138.28 17.5413 138.721 17.8129 139.111 18.1832C139.502 18.5535 139.81 19.0344 140.035 19.626C140.26 20.2136 140.373 20.928 140.373 21.7691V22.4091H133.002V21.0568H138.604C138.604 20.5819 138.508 20.1613 138.314 19.7951C138.121 19.4248 137.85 19.133 137.5 18.9197C137.153 18.7064 136.747 18.5998 136.28 18.5998C135.773 18.5998 135.33 18.7245 134.952 18.974C134.578 19.2196 134.288 19.5415 134.083 19.94C133.881 20.3344 133.781 20.763 133.781 21.2258V22.2823C133.781 22.9021 133.889 23.4293 134.107 23.864C134.328 24.2986 134.636 24.6307 135.03 24.8601C135.425 25.0854 135.886 25.1981 136.413 25.1981C136.755 25.1981 137.067 25.1498 137.349 25.0532C137.63 24.9526 137.874 24.8037 138.079 24.6065C138.284 24.4093 138.441 24.1658 138.55 23.876L140.258 24.1839C140.122 24.687 139.876 25.1277 139.522 25.506C139.172 25.8803 138.731 26.1721 138.2 26.3814C137.673 26.5866 137.071 26.6892 136.395 26.6892ZM148.66 21.087V22.6505H143.638V21.087H148.66ZM144.145 17.2294V26.5021H142.376V17.2294H144.145ZM149.922 17.2294V26.5021H148.159V17.2294H149.922ZM157.867 26.5021V18.7688H155.645C155.118 18.7688 154.707 18.8915 154.413 19.137C154.12 19.3825 153.973 19.7045 153.973 20.103C153.973 20.4974 154.108 20.8153 154.377 21.0568C154.651 21.2942 155.033 21.413 155.524 21.413H158.392V22.8739H155.524C154.84 22.8739 154.248 22.7612 153.749 22.5358C153.254 22.3064 152.872 21.9825 152.602 21.5639C152.337 21.1453 152.204 20.6503 152.204 20.0788C152.204 19.4952 152.341 18.9922 152.614 18.5696C152.892 18.143 153.289 17.8129 153.804 17.5795C154.323 17.3461 154.937 17.2294 155.645 17.2294H159.563V26.5021H157.867ZM151.781 26.5021L154.395 21.8174H156.243L153.629 26.5021H151.781ZM166.465 26.5021V17.2294H170.31C171.357 17.2294 172.186 17.4527 172.797 17.8995C173.409 18.3422 173.715 18.9439 173.715 19.7045C173.715 20.2478 173.542 20.6785 173.196 20.9964C172.85 21.3144 172.391 21.5277 171.819 21.6363C172.234 21.6846 172.614 21.8094 172.96 22.0106C173.307 22.2078 173.584 22.4735 173.794 22.8075C174.007 23.1415 174.113 23.54 174.113 24.0028C174.113 24.4938 173.987 24.9285 173.733 25.3068C173.48 25.6811 173.111 25.9749 172.628 26.1882C172.149 26.3975 171.572 26.5021 170.896 26.5021H166.465ZM168.161 24.9929H170.896C171.343 24.9929 171.693 24.8862 171.946 24.6729C172.2 24.4596 172.327 24.1698 172.327 23.8036C172.327 23.373 172.2 23.0349 171.946 22.7894C171.693 22.5399 171.343 22.4151 170.896 22.4151H168.161V24.9929ZM168.161 21.093H170.328C170.666 21.093 170.956 21.0447 171.198 20.9481C171.443 20.8515 171.63 20.7147 171.759 20.5376C171.892 20.3565 171.958 20.1432 171.958 19.8977C171.958 19.5395 171.811 19.2598 171.518 19.0586C171.224 18.8573 170.821 18.7567 170.31 18.7567H168.161V21.093Z" fill="#E8E8E8"/>
<path d="M184.507 26.5021H179.937V14.1385H184.501C185.761 14.1385 186.845 14.386 187.755 14.881C188.668 15.372 189.373 16.0803 189.868 17.006C190.363 17.9276 190.61 19.0304 190.61 20.3142C190.61 21.6021 190.363 22.7089 189.868 23.6346C189.377 24.5602 188.674 25.2706 187.761 25.7656C186.847 26.2566 185.763 26.5021 184.507 26.5021ZM182.925 23.9545H184.392C185.084 23.9545 185.67 23.8378 186.149 23.6044C186.632 23.3669 186.996 22.9826 187.242 22.4513C187.491 21.916 187.616 21.2037 187.616 20.3142C187.616 19.4248 187.491 18.7165 187.242 18.1892C186.992 17.658 186.624 17.2757 186.137 17.0422C185.654 16.8048 185.058 16.6861 184.35 16.6861H182.925V23.9545ZM192.355 26.5021V17.2294H195.307V26.5021H192.355ZM193.834 16.1488C193.419 16.1488 193.063 16.0119 192.765 15.7383C192.468 15.4606 192.319 15.1265 192.319 14.7361C192.319 14.3498 192.468 14.0197 192.765 13.7461C193.063 13.4684 193.419 13.3295 193.834 13.3295C194.253 13.3295 194.609 13.4684 194.903 13.7461C195.2 14.0197 195.349 14.3498 195.349 14.7361C195.349 15.1265 195.2 15.4606 194.903 15.7383C194.609 16.0119 194.253 16.1488 193.834 16.1488ZM205.282 20.0607L202.571 20.1331C202.543 19.94 202.466 19.7689 202.342 19.62C202.217 19.4671 202.054 19.3483 201.853 19.2638C201.655 19.1753 201.426 19.131 201.164 19.131C200.822 19.131 200.53 19.1994 200.289 19.3363C200.052 19.4731 199.935 19.6582 199.939 19.8917C199.935 20.0728 200.007 20.2297 200.156 20.3625C200.309 20.4954 200.581 20.602 200.971 20.6825L202.758 21.0206C203.684 21.1977 204.372 21.4914 204.823 21.902C205.278 22.3125 205.507 22.8558 205.511 23.5319C205.507 24.1678 205.318 24.7212 204.943 25.1921C204.573 25.663 204.066 26.0292 203.422 26.2908C202.778 26.5484 202.042 26.6772 201.213 26.6772C199.889 26.6772 198.844 26.4055 198.079 25.8622C197.319 25.3148 196.884 24.5824 196.776 23.6647L199.691 23.5923C199.756 23.9304 199.923 24.1879 200.192 24.365C200.462 24.5421 200.806 24.6307 201.225 24.6307C201.603 24.6307 201.911 24.5602 202.148 24.4194C202.386 24.2785 202.507 24.0914 202.511 23.8579C202.507 23.6486 202.414 23.4816 202.233 23.3569C202.052 23.2281 201.768 23.1275 201.382 23.055L199.764 22.7471C198.834 22.5781 198.142 22.2662 197.687 21.8114C197.232 21.3526 197.007 20.769 197.011 20.0607C197.007 19.4409 197.172 18.9117 197.506 18.473C197.84 18.0303 198.315 17.6922 198.931 17.4588C199.546 17.2254 200.273 17.1086 201.11 17.1086C202.366 17.1086 203.356 17.3723 204.08 17.8995C204.805 18.4227 205.205 19.1431 205.282 20.0607ZM211.293 26.6772C210.315 26.6772 209.476 26.4759 208.775 26.0735C208.079 25.671 207.544 25.1116 207.17 24.3952C206.795 23.6748 206.608 22.8417 206.608 21.8959C206.608 20.9461 206.795 20.113 207.17 19.3966C207.548 18.6762 208.085 18.1148 208.781 17.7123C209.482 17.3099 210.317 17.1086 211.287 17.1086C212.144 17.1086 212.891 17.2636 213.526 17.5735C214.166 17.8834 214.665 18.3221 215.024 18.8895C215.386 19.453 215.577 20.115 215.597 20.8757H212.838C212.782 20.4008 212.621 20.0285 212.355 19.7588C212.094 19.4892 211.752 19.3544 211.329 19.3544C210.987 19.3544 210.687 19.451 210.43 19.6441C210.172 19.8333 209.971 20.115 209.826 20.4893C209.685 20.8596 209.615 21.3184 209.615 21.8657C209.615 22.4131 209.685 22.8759 209.826 23.2542C209.971 23.6285 210.172 23.9123 210.43 24.1054C210.687 24.2946 210.987 24.3892 211.329 24.3892C211.603 24.3892 211.844 24.3308 212.053 24.2141C212.267 24.0974 212.442 23.9263 212.579 23.701C212.716 23.4716 212.802 23.1939 212.838 22.8679H215.597C215.569 23.6325 215.378 24.3006 215.024 24.8721C214.674 25.4436 214.18 25.8883 213.545 26.2063C212.913 26.5202 212.162 26.6772 211.293 26.6772ZM221.436 26.6772C220.462 26.6772 219.625 26.478 218.925 26.0795C218.229 25.6771 217.691 25.1176 217.313 24.4012C216.939 23.6808 216.752 22.8457 216.752 21.8959C216.752 20.9421 216.939 20.107 217.313 19.3906C217.691 18.6702 218.229 18.1108 218.925 17.7123C219.625 17.3099 220.462 17.1086 221.436 17.1086C222.41 17.1086 223.245 17.3099 223.942 17.7123C224.642 18.1108 225.179 18.6702 225.554 19.3906C225.932 20.107 226.121 20.9421 226.121 21.8959C226.121 22.8457 225.932 23.6808 225.554 24.4012C225.179 25.1176 224.642 25.6771 223.942 26.0795C223.245 26.478 222.41 26.6772 221.436 26.6772ZM221.454 24.4495C221.809 24.4495 222.108 24.3409 222.354 24.1236C222.599 23.9062 222.787 23.6044 222.915 23.218C223.048 22.8316 223.115 22.3849 223.115 21.8778C223.115 21.3627 223.048 20.9119 222.915 20.5255C222.787 20.1392 222.599 19.8373 222.354 19.62C222.108 19.4027 221.809 19.294 221.454 19.294C221.088 19.294 220.778 19.4027 220.525 19.62C220.275 19.8373 220.084 20.1392 219.951 20.5255C219.822 20.9119 219.758 21.3627 219.758 21.8778C219.758 22.3849 219.822 22.8316 219.951 23.218C220.084 23.6044 220.275 23.9062 220.525 24.1236C220.778 24.3409 221.088 24.4495 221.454 24.4495ZM227.633 26.5021V17.2294H230.501V18.9197H230.597C230.766 18.308 231.042 17.8532 231.424 17.5554C231.807 17.2535 232.252 17.1026 232.759 17.1026C232.895 17.1026 233.036 17.1127 233.181 17.1328C233.326 17.1489 233.461 17.175 233.586 17.2113V19.777C233.445 19.7287 233.26 19.6904 233.03 19.6623C232.805 19.6341 232.604 19.62 232.427 19.62C232.076 19.62 231.761 19.6985 231.479 19.8554C231.201 20.0084 230.982 20.2237 230.821 20.5014C230.664 20.7751 230.585 21.097 230.585 21.4673V26.5021H227.633ZM237.694 26.6349C237.01 26.6349 236.388 26.4578 235.828 26.1037C235.269 25.7495 234.822 25.2182 234.488 24.5099C234.154 23.8016 233.987 22.9222 233.987 21.8718C233.987 20.7811 234.16 19.8836 234.506 19.1793C234.852 18.475 235.305 17.9538 235.865 17.6157C236.428 17.2777 237.034 17.1086 237.682 17.1086C238.169 17.1086 238.585 17.1932 238.931 17.3622C239.278 17.5272 239.563 17.7405 239.789 18.0021C240.014 18.2637 240.185 18.5354 240.302 18.8171H240.362V14.1385H243.314V26.5021H240.392V24.9989H240.302C240.177 25.2847 240 25.5523 239.771 25.8018C239.541 26.0513 239.253 26.2526 238.907 26.4055C238.565 26.5584 238.161 26.6349 237.694 26.6349ZM238.72 24.3348C239.078 24.3348 239.384 24.2342 239.638 24.033C239.891 23.8277 240.086 23.54 240.223 23.1697C240.36 22.7995 240.429 22.3648 240.429 21.8657C240.429 21.3586 240.36 20.922 240.223 20.5557C240.09 20.1895 239.895 19.9078 239.638 19.7106C239.384 19.5133 239.078 19.4147 238.72 19.4147C238.354 19.4147 238.044 19.5154 237.79 19.7166C237.537 19.9178 237.344 20.2016 237.211 20.5678C237.082 20.934 237.018 21.3667 237.018 21.8657C237.018 22.3648 237.084 22.7995 237.217 23.1697C237.35 23.54 237.541 23.8277 237.79 24.033C238.044 24.2342 238.354 24.3348 238.72 24.3348Z" fill="#5865F2"/>
</g>
<defs>
<filter id="filter0_d_680_126" x="2.3996" y="0.401124" width="39.202" height="39.202" filterUnits="userSpaceOnUse" color-interpolation-filters="sRGB">
<feFlood flood-opacity="0" result="BackgroundImageFix"/>
<feColorMatrix in="SourceAlpha" type="matrix" values="0 0 0 0 0 0 0 0 0 0 0 0 0 0 0 0 0 0 127 0" result="hardAlpha"/>
<feOffset/>
<feGaussianBlur stdDeviation="2.80014"/>
<feComposite in2="hardAlpha" operator="out"/>
<feColorMatrix type="matrix" values="0 0 0 0 0 0 0 0 0 0 0 0 0 0 0 0 0 0 0.25 0"/>
<feBlend mode="normal" in2="BackgroundImageFix" result="effect1_dropShadow_680_126"/>
<feBlend mode="normal" in="SourceGraphic" in2="effect1_dropShadow_680_126" result="shape"/>
</filter>
<filter id="filter1_d_680_126" x="36.287" y="3.78782" width="214.429" height="32.4286" filterUnits="userSpaceOnUse" color-interpolation-filters="sRGB">
<feFlood flood-opacity="0" result="BackgroundImageFix"/>
<feColorMatrix in="SourceAlpha" type="matrix" values="0 0 0 0 0 0 0 0 0 0 0 0 0 0 0 0 0 0 127 0" result="hardAlpha"/>
<feOffset/>
<feGaussianBlur stdDeviation="2.85714"/>
<feComposite in2="hardAlpha" operator="out"/>
<feColorMatrix type="matrix" values="0 0 0 0 0 0 0 0 0 0 0 0 0 0 0 0 0 0 0.25 0"/>
<feBlend mode="normal" in2="BackgroundImageFix" result="effect1_dropShadow_680_126"/>
<feBlend mode="normal" in="SourceGraphic" in2="effect1_dropShadow_680_126" result="shape"/>
</filter>
<linearGradient id="paint0_linear_680_126" x1="126.501" y1="0.00140381" x2="126.501" y2="40.0028" gradientUnits="userSpaceOnUse">
<stop stop-color="#1B1D31"/>
<stop offset="1" stop-color="#11121F"/>
</linearGradient>
</defs>
</svg>
