<svg width="206" height="40" viewBox="0 0 206 40" fill="none" xmlns="http://www.w3.org/2000/svg">
<rect x="-9.15527e-05" y="0.00842285" width="206.001" height="40.0014" rx="8" fill="url(#paint0_linear_680_77)"/>
<rect x="1.07134" y="1.07985" width="203.858" height="37.8585" rx="6.92857" stroke="white" stroke-opacity="0.15" stroke-width="2.14286"/>
<g filter="url(#filter0_d_680_77)">
<path d="M12.6501 12.0997C12.6501 12.8607 12.8419 13.5777 13.1798 14.2043H11.9092C11.31 14.2043 10.7354 14.4423 10.3117 14.866C9.88801 15.2897 9.64998 15.8643 9.64998 16.4635V19.1909C9.64998 20.0119 10.0881 20.7289 10.7409 21.1251V30.1006C10.7409 31.3477 11.753 32.3598 13.0002 32.3598H31.0011C31.6002 32.3598 32.1749 32.1217 32.5985 31.6981C33.0222 31.2744 33.2603 30.6997 33.2603 30.1006V21.1253C33.9134 20.7297 34.3512 20.0115 34.3512 19.1909V16.4635C34.3512 15.8643 34.1132 15.2897 33.6895 14.866C33.2658 14.4423 32.6912 14.2043 32.092 14.2043H30.8207C31.1039 13.6781 31.2791 13.0981 31.3331 12.4985C31.4072 11.6771 31.2511 10.8512 30.8822 10.1135C30.5134 9.37583 29.9464 8.75541 29.2448 8.32181C28.5432 7.8882 27.7347 7.65853 26.9099 7.65853C25.3294 7.65853 23.2709 8.55158 22.0006 10.6649C20.7301 8.55155 18.6707 7.65853 17.0913 7.65853C15.9134 7.65853 14.7838 8.12643 13.9509 8.9593C13.118 9.79218 12.6501 10.9218 12.6501 12.0997ZM17.0913 9.99501C18.1266 9.99501 20.3373 10.8878 20.7612 14.2043H17.0913C16.5331 14.2043 15.9978 13.9826 15.6031 13.5879C15.2084 13.1932 14.9866 12.6578 14.9866 12.0997C14.9866 11.5415 15.2084 11.0061 15.6031 10.6114C15.9977 10.2167 16.5331 9.99501 17.0913 9.99501ZM30.9238 21.4501V30.0233H23.1688V21.4501H30.9238ZM20.8324 21.4501V30.0233H13.0774V21.4501H20.8324ZM32.0147 16.5408V19.1136H23.1688V16.5408H32.0147ZM20.8324 16.5408V19.1136H11.9865V16.5408H20.8324ZM29.0146 12.0997C29.0146 12.6578 28.7928 13.1932 28.3982 13.5879C28.0035 13.9826 27.4681 14.2043 26.9099 14.2043H23.24C23.6639 10.8878 25.8746 9.99501 26.9099 9.99501C27.4681 9.99501 28.0035 10.2167 28.3982 10.6114C28.7928 11.0061 29.0146 11.5415 29.0146 12.0997Z" fill="white" stroke="white" stroke-width="0.700035"/>
</g>
<g filter="url(#filter1_d_680_77)">
<path d="M54.0993 20.3273C54.0993 21.6473 53.8578 22.7823 53.3749 23.7321C52.8919 24.6779 52.2299 25.4063 51.3887 25.9175C50.5516 26.4246 49.5998 26.6781 48.5333 26.6781C47.4627 26.6781 46.5069 26.4246 45.6657 25.9175C44.8286 25.4063 44.1686 24.6759 43.6856 23.7261C43.2027 22.7763 42.9612 21.6433 42.9612 20.3273C42.9612 19.0072 43.2027 17.8743 43.6856 16.9285C44.1686 15.9787 44.8286 15.2502 45.6657 14.7431C46.5069 14.232 47.4627 13.9764 48.5333 13.9764C49.5998 13.9764 50.5516 14.232 51.3887 14.7431C52.2299 15.2502 52.8919 15.9787 53.3749 16.9285C53.8578 17.8743 54.0993 19.0072 54.0993 20.3273ZM52.252 20.3273C52.252 19.3211 52.089 18.4739 51.763 17.7857C51.4411 17.0935 50.9984 16.5703 50.4349 16.2161C49.8755 15.8579 49.2416 15.6788 48.5333 15.6788C47.8209 15.6788 47.185 15.8579 46.6256 16.2161C46.0662 16.5703 45.6235 17.0935 45.2975 17.7857C44.9755 18.4739 44.8145 19.3211 44.8145 20.3273C44.8145 21.3334 44.9755 22.1826 45.2975 22.8749C45.6235 23.5631 46.0662 24.0863 46.6256 24.4445C47.185 24.7986 47.8209 24.9757 48.5333 24.9757C49.2416 24.9757 49.8755 24.7986 50.4349 24.4445C50.9984 24.0863 51.4411 23.5631 51.763 22.8749C52.089 22.1826 52.252 21.3334 52.252 20.3273ZM55.761 18.7939V17.2364H63.5848V18.7939H60.5603V26.5091H58.7976V18.7939H55.761ZM65.494 26.5091V17.2364H73.0583V26.5091H71.2895V18.7939H67.2508V26.5091H65.494ZM75.4716 29.9864V17.2364H77.2343V18.7396H77.3853C77.4899 18.5464 77.6408 18.323 77.838 18.0695C78.0352 17.8159 78.3089 17.5946 78.6591 17.4054C79.0092 17.2122 79.472 17.1156 80.0476 17.1156C80.7961 17.1156 81.4642 17.3048 82.0518 17.6831C82.6394 18.0614 83.1002 18.6067 83.4343 19.3191C83.7723 20.0315 83.9414 20.8887 83.9414 21.8908C83.9414 22.893 83.7744 23.7522 83.4403 24.4686C83.1063 25.181 82.6475 25.7303 82.0639 26.1167C81.4803 26.499 80.8142 26.6902 80.0657 26.6902C79.5022 26.6902 79.0414 26.5956 78.6832 26.4065C78.329 26.2173 78.0513 25.996 77.8501 25.7424C77.6489 25.4888 77.4939 25.2635 77.3853 25.0663H77.2766V29.9864H75.4716ZM77.2404 21.8727C77.2404 22.5247 77.335 23.0962 77.5241 23.5872C77.7133 24.0782 77.9869 24.4626 78.3451 24.7403C78.7033 25.0139 79.142 25.1508 79.6612 25.1508C80.2005 25.1508 80.6512 25.0079 81.0135 24.7222C81.3757 24.4324 81.6494 24.04 81.8345 23.545C82.0236 23.0499 82.1182 22.4925 82.1182 21.8727C82.1182 21.261 82.0257 20.7116 81.8405 20.2246C81.6594 19.7377 81.3857 19.3533 81.0195 19.0716C80.6573 18.7899 80.2045 18.649 79.6612 18.649C79.138 18.649 78.6953 18.7838 78.3331 19.0535C77.9749 19.3231 77.7032 19.6994 77.5181 20.1824C77.3329 20.6653 77.2404 21.2288 77.2404 21.8727ZM88.6623 26.7143C88.0747 26.7143 87.5434 26.6057 87.0685 26.3884C86.5936 26.167 86.2173 25.847 85.9396 25.4285C85.6659 25.0099 85.5291 24.4968 85.5291 23.8891C85.5291 23.3659 85.6297 22.9352 85.8309 22.5972C86.0322 22.2591 86.3038 21.9915 86.6459 21.7942C86.988 21.597 87.3704 21.4481 87.7929 21.3475C88.2155 21.2469 88.6462 21.1704 89.0848 21.1181C89.6402 21.0537 90.091 21.0014 90.4371 20.9612C90.7832 20.9169 91.0348 20.8464 91.1917 20.7499C91.3487 20.6533 91.4272 20.4963 91.4272 20.279V20.2367C91.4272 19.7095 91.2783 19.301 90.9804 19.0112C90.6866 18.7214 90.248 18.5766 89.6644 18.5766C89.0567 18.5766 88.5777 18.7114 88.2276 18.981C87.8815 19.2467 87.642 19.5425 87.5092 19.8685L85.8128 19.4821C86.0141 18.9187 86.3079 18.4639 86.6942 18.1178C87.0846 17.7676 87.5333 17.5141 88.0404 17.3571C88.5476 17.1961 89.0808 17.1156 89.6402 17.1156C90.0105 17.1156 90.4029 17.1599 90.8174 17.2484C91.236 17.333 91.6264 17.4899 91.9886 17.7193C92.3548 17.9487 92.6547 18.2767 92.8881 18.7033C93.1215 19.1259 93.2382 19.6753 93.2382 20.3514V26.5091H91.4755V25.2413H91.403C91.2863 25.4748 91.1112 25.7042 90.8778 25.9295C90.6444 26.1549 90.3445 26.3421 89.9783 26.491C89.6121 26.6399 89.1734 26.7143 88.6623 26.7143ZM89.0547 25.2655C89.5537 25.2655 89.9803 25.1669 90.3345 24.9697C90.6927 24.7725 90.9643 24.5149 91.1495 24.1969C91.3386 23.875 91.4332 23.5309 91.4332 23.1646V21.9693C91.3688 22.0337 91.244 22.0941 91.0589 22.1504C90.8778 22.2027 90.6705 22.249 90.4371 22.2893C90.2037 22.3255 89.9763 22.3597 89.7549 22.3919C89.5336 22.4201 89.3485 22.4442 89.1995 22.4643C88.8494 22.5086 88.5294 22.5831 88.2397 22.6877C87.9539 22.7924 87.7245 22.9433 87.5515 23.1405C87.3824 23.3337 87.2979 23.5912 87.2979 23.9132C87.2979 24.3599 87.4629 24.698 87.7929 24.9274C88.123 25.1528 88.5435 25.2655 89.0547 25.2655ZM95.6425 26.5091V17.2364H99.488C100.534 17.2364 101.363 17.4597 101.975 17.9065C102.587 18.3492 102.893 18.9509 102.893 19.7115C102.893 20.2548 102.72 20.6855 102.374 21.0034C102.028 21.3214 101.569 21.5347 100.997 21.6433C101.412 21.6916 101.792 21.8164 102.138 22.0176C102.484 22.2148 102.762 22.4804 102.971 22.8145C103.185 23.1485 103.291 23.547 103.291 24.0098C103.291 24.5008 103.164 24.9355 102.911 25.3138C102.657 25.6881 102.289 25.9819 101.806 26.1952C101.327 26.4044 100.75 26.5091 100.074 26.5091H95.6425ZM97.3388 24.9999H100.074C100.52 24.9999 100.87 24.8932 101.124 24.6799C101.378 24.4666 101.504 24.1768 101.504 23.8106C101.504 23.3799 101.378 23.0419 101.124 22.7964C100.87 22.5469 100.52 22.4221 100.074 22.4221H97.3388V24.9999ZM97.3388 21.1H99.5061C99.8442 21.1 100.134 21.0517 100.375 20.9551C100.621 20.8585 100.808 20.7217 100.937 20.5446C101.07 20.3635 101.136 20.1502 101.136 19.9047C101.136 19.5465 100.989 19.2668 100.695 19.0656C100.402 18.8643 99.9991 18.7637 99.488 18.7637H97.3388V21.1ZM107.04 23.9796L111.127 17.2364H113.071V26.5091H111.302V19.7598L107.233 26.5091H105.271V17.2364H107.04V23.9796ZM114.348 18.7939V17.2364H122.172V18.7939H119.147V26.5091H117.384V18.7939H114.348ZM125.439 20.4239H128.132C129.267 20.4239 130.14 20.7056 130.752 21.269C131.363 21.8325 131.669 22.5589 131.669 23.4484C131.669 24.0279 131.533 24.5491 131.259 25.0119C130.985 25.4748 130.585 25.841 130.057 26.1107C129.53 26.3763 128.888 26.5091 128.132 26.5091H124.081V17.2364H125.85V24.9516H128.132C128.651 24.9516 129.077 24.8167 129.412 24.5471C129.746 24.2734 129.913 23.9253 129.913 23.5027C129.913 23.056 129.746 22.6917 129.412 22.41C129.077 22.1243 128.651 21.9814 128.132 21.9814H125.439V20.4239Z" fill="#E8E8E8"/>
<path d="M137.297 29.2438V24.2332H137.991C138.201 24.1285 138.368 23.9273 138.492 23.6295C138.617 23.3276 138.716 22.9755 138.788 22.573C138.865 22.1665 138.921 21.7439 138.957 21.3053C138.997 20.8625 139.034 20.446 139.066 20.0556L139.283 17.2364H146.793V24.2332H148.242V29.2438H145.441V26.5091H140.171V29.2438H137.297ZM140.865 24.2332H144.04V19.4338H141.746L141.698 20.0556C141.642 21.0537 141.553 21.8908 141.432 22.567C141.312 23.2431 141.122 23.7985 140.865 24.2332ZM153.942 26.6842C152.972 26.6842 152.135 26.493 151.431 26.1107C150.731 25.7243 150.191 25.1749 149.813 24.4626C149.439 23.7462 149.252 22.895 149.252 21.9089C149.252 20.9511 149.441 20.114 149.819 19.3976C150.198 18.6772 150.731 18.1178 151.419 17.7193C152.107 17.3169 152.918 17.1156 153.852 17.1156C154.512 17.1156 155.116 17.2183 155.663 17.4235C156.21 17.6288 156.683 17.9326 157.082 18.3351C157.48 18.7375 157.79 19.2346 158.011 19.8262C158.233 20.4138 158.343 21.0879 158.343 21.8486V22.5851H150.284V20.8706H155.597C155.593 20.5567 155.518 20.277 155.373 20.0315C155.228 19.786 155.029 19.5948 154.776 19.458C154.526 19.3171 154.238 19.2467 153.912 19.2467C153.582 19.2467 153.286 19.3211 153.025 19.47C152.763 19.6149 152.556 19.8141 152.403 20.0677C152.25 20.3172 152.17 20.6009 152.162 20.9189V22.6636C152.162 23.0419 152.236 23.3739 152.385 23.6597C152.534 23.9414 152.745 24.1607 153.019 24.3177C153.292 24.4746 153.618 24.5531 153.997 24.5531C154.258 24.5531 154.496 24.5169 154.709 24.4445C154.922 24.372 155.106 24.2654 155.258 24.1245C155.411 23.9836 155.526 23.8106 155.603 23.6053L158.313 23.6838C158.2 24.2915 157.953 24.8208 157.571 25.2715C157.192 25.7183 156.695 26.0664 156.079 26.3159C155.464 26.5614 154.751 26.6842 153.942 26.6842ZM166.389 20.7197V22.9714H161.632V20.7197H166.389ZM162.646 17.2364V26.5091H159.851V17.2364H162.646ZM168.17 17.2364V26.5091H165.393V17.2364H168.17ZM171.694 19.9168H174.507C175.783 19.9168 176.783 20.2166 177.508 20.8163C178.232 21.4119 178.596 22.2209 178.6 23.2431C178.596 23.9072 178.429 24.4847 178.099 24.9757C177.773 25.4627 177.304 25.841 176.693 26.1107C176.085 26.3763 175.356 26.5091 174.507 26.5091H169.961V17.2364H172.757V24.2513H174.507C174.894 24.2513 175.212 24.1567 175.461 23.9675C175.711 23.7784 175.837 23.5349 175.841 23.2371C175.837 22.9232 175.711 22.6676 175.461 22.4704C175.212 22.2732 174.894 22.1746 174.507 22.1746H171.694V19.9168ZM186.711 17.2364V19.4942H183.01V26.5091H180.155V17.2364H186.711ZM190.902 22.6877L193.866 17.2364H196.704V26.5091H193.908V21.0396L190.95 26.5091H188.107V17.2364H190.902V22.6877Z" fill="white"/>
</g>
<defs>
<filter id="filter0_d_680_77" x="2.39963" y="0.408143" width="39.202" height="39.202" filterUnits="userSpaceOnUse" color-interpolation-filters="sRGB">
<feFlood flood-opacity="0" result="BackgroundImageFix"/>
<feColorMatrix in="SourceAlpha" type="matrix" values="0 0 0 0 0 0 0 0 0 0 0 0 0 0 0 0 0 0 127 0" result="hardAlpha"/>
<feOffset/>
<feGaussianBlur stdDeviation="2.80014"/>
<feComposite in2="hardAlpha" operator="out"/>
<feColorMatrix type="matrix" values="0 0 0 0 0 0 0 0 0 0 0 0 0 0 0 0 0 0 0.25 0"/>
<feBlend mode="normal" in2="BackgroundImageFix" result="effect1_dropShadow_680_77"/>
<feBlend mode="normal" in="SourceGraphic" in2="effect1_dropShadow_680_77" result="shape"/>
</filter>
<filter id="filter1_d_680_77" x="36.287" y="3.79481" width="167.429" height="32.4286" filterUnits="userSpaceOnUse" color-interpolation-filters="sRGB">
<feFlood flood-opacity="0" result="BackgroundImageFix"/>
<feColorMatrix in="SourceAlpha" type="matrix" values="0 0 0 0 0 0 0 0 0 0 0 0 0 0 0 0 0 0 127 0" result="hardAlpha"/>
<feOffset/>
<feGaussianBlur stdDeviation="2.85714"/>
<feComposite in2="hardAlpha" operator="out"/>
<feColorMatrix type="matrix" values="0 0 0 0 0 0 0 0 0 0 0 0 0 0 0 0 0 0 0.25 0"/>
<feBlend mode="normal" in2="BackgroundImageFix" result="effect1_dropShadow_680_77"/>
<feBlend mode="normal" in="SourceGraphic" in2="effect1_dropShadow_680_77" result="shape"/>
</filter>
<linearGradient id="paint0_linear_680_77" x1="103.001" y1="0.00842285" x2="103.001" y2="40.0098" gradientUnits="userSpaceOnUse">
<stop stop-color="#2D2D2D"/>
<stop offset="1" stop-color="#222222"/>
</linearGradient>
</defs>
</svg>
