<svg width="158" height="56" viewBox="0 0 158 56" fill="none" xmlns="http://www.w3.org/2000/svg">
<rect x="6.55651e-07" width="158" height="56" rx="8" fill="url(#paint0_linear_680_107)"/>
<rect x="1.05" y="1.05" width="155.9" height="53.9" rx="6.95" stroke="white" stroke-opacity="0.15" stroke-width="2.1"/>
<g filter="url(#filter0_d_680_107)">
<path d="M18.7863 16.7014C18.7863 17.8505 19.0994 18.9273 19.6449 19.8507H17.585C16.767 19.8507 15.9825 20.1757 15.404 20.7541C14.8256 21.3326 14.5006 22.1171 14.5006 22.9351V26.8312C14.5006 27.9804 15.1295 28.9808 16.0591 29.5125V42.4156C16.0591 44.1183 17.4408 45.5001 19.1435 45.5001H44.8578C45.6758 45.5001 46.4603 45.1751 47.0388 44.5967C47.6172 44.0182 47.9422 43.2337 47.9422 42.4156V29.5128C48.8721 28.982 49.5006 27.98 49.5006 26.8312V22.9351C49.5006 22.1171 49.1756 21.3326 48.5972 20.7541C48.0188 20.1757 47.2342 19.8507 46.4162 19.8507H44.3557C44.8209 19.0615 45.1071 18.1764 45.1898 17.2583C45.2933 16.1113 45.0752 14.9581 44.5602 13.9281C44.0452 12.898 43.2535 12.0317 42.2738 11.4262C41.2942 10.8208 40.1653 10.5001 39.0136 10.5001C36.7538 10.5001 33.7771 11.8089 32.0006 14.9348C30.224 11.8088 27.2459 10.5001 24.9876 10.5001C23.3429 10.5001 21.7656 11.1534 20.6027 12.3164C19.4397 13.4794 18.7863 15.0567 18.7863 16.7014ZM24.9876 13.552C26.5552 13.552 29.8285 14.9097 30.3913 19.8507H24.9876C24.1524 19.8507 23.3513 19.5189 22.7607 18.9283C22.1701 18.3377 21.8383 17.5366 21.8383 16.7014C21.8383 15.8661 22.1701 15.0651 22.7607 14.4744C23.3513 13.8838 24.1524 13.552 24.9876 13.552ZM44.8902 29.9156V42.4156C44.8902 42.4243 44.8868 42.4325 44.8807 42.4386C44.8746 42.4447 44.8664 42.4481 44.8578 42.4481H33.5266V29.9156H44.8902ZM30.4746 29.9156V42.4481H19.1435C19.1257 42.4481 19.111 42.4335 19.111 42.4156V29.9156H30.4746ZM46.4392 26.8542C46.4331 26.8603 46.4248 26.8637 46.4162 26.8637H33.5266V22.9027H46.4162C46.4248 22.9027 46.4331 22.9061 46.4392 22.9122C46.4452 22.9183 46.4487 22.9265 46.4487 22.9351V26.8312C46.4487 26.8398 46.4452 26.8481 46.4392 26.8542ZM30.4746 22.9027V26.8637H17.585C17.5672 26.8637 17.5526 26.8491 17.5526 26.8312V22.9351C17.5526 22.9265 17.556 22.9183 17.5621 22.9122C17.5682 22.9061 17.5764 22.9027 17.585 22.9027H30.4746ZM42.163 16.7014C42.163 17.5366 41.8311 18.3377 41.2405 18.9283C40.6499 19.5189 39.8489 19.8507 39.0136 19.8507H33.61C34.1727 14.9097 37.4461 13.552 39.0136 13.552C39.8489 13.552 40.6499 13.8838 41.2405 14.4744C41.8311 15.0651 42.163 15.8661 42.163 16.7014Z" fill="white" stroke="white" stroke-width="0.714285"/>
</g>
<g filter="url(#filter1_d_680_107)">
<path d="M71.3863 18.6818C71.3863 19.9242 71.1591 20.9924 70.7045 21.8864C70.25 22.7765 69.6269 23.4621 68.8352 23.9432C68.0473 24.4205 67.1515 24.6591 66.1477 24.6591C65.1401 24.6591 64.2405 24.4205 63.4488 23.9432C62.661 23.4621 62.0398 22.7746 61.5852 21.8807C61.1307 20.9867 60.9034 19.9205 60.9034 18.6818C60.9034 17.4394 61.1307 16.3731 61.5852 15.483C62.0398 14.589 62.661 13.9034 63.4488 13.4261C64.2405 12.9451 65.1401 12.7045 66.1477 12.7045C67.1515 12.7045 68.0473 12.9451 68.8352 13.4261C69.6269 13.9034 70.25 14.589 70.7045 15.483C71.1591 16.3731 71.3863 17.4394 71.3863 18.6818ZM69.6477 18.6818C69.6477 17.7348 69.4943 16.9375 69.1875 16.2898C68.8844 15.6383 68.4678 15.1458 67.9375 14.8125C67.411 14.4754 66.8144 14.3068 66.1477 14.3068C65.4773 14.3068 64.8788 14.4754 64.3523 14.8125C63.8257 15.1458 63.4091 15.6383 63.1023 16.2898C62.7992 16.9375 62.6477 17.7348 62.6477 18.6818C62.6477 19.6288 62.7992 20.428 63.1023 21.0795C63.4091 21.7273 63.8257 22.2197 64.3523 22.5568C64.8788 22.8901 65.4773 23.0568 66.1477 23.0568C66.8144 23.0568 67.411 22.8901 67.9375 22.5568C68.4678 22.2197 68.8844 21.7273 69.1875 21.0795C69.4943 20.428 69.6477 19.6288 69.6477 18.6818ZM72.9503 17.2386V15.7727H80.3139V17.2386H77.4673V24.5H75.8082V17.2386H72.9503ZM82.1108 24.5V15.7727H89.2301V24.5H87.5653V17.2386H83.7642V24.5H82.1108ZM91.5014 27.7727V15.7727H93.1605V17.1875H93.3025C93.401 17.0057 93.5431 16.7955 93.7287 16.5568C93.9143 16.3182 94.1718 16.1098 94.5014 15.9318C94.8309 15.75 95.2665 15.6591 95.8082 15.6591C96.5128 15.6591 97.1415 15.8371 97.6946 16.1932C98.2476 16.5492 98.6813 17.0625 98.9957 17.733C99.3139 18.4034 99.473 19.2102 99.473 20.1534C99.473 21.0966 99.3158 21.9053 99.0014 22.5795C98.687 23.25 98.2552 23.767 97.7059 24.1307C97.1567 24.4905 96.5298 24.6705 95.8253 24.6705C95.295 24.6705 94.8612 24.5814 94.5241 24.4034C94.1908 24.2254 93.9294 24.017 93.74 23.7784C93.5506 23.5398 93.4048 23.3276 93.3025 23.142H93.2003V27.7727H91.5014ZM93.1662 20.1364C93.1662 20.75 93.2552 21.2879 93.4332 21.75C93.6112 22.2121 93.8688 22.5739 94.2059 22.8352C94.5431 23.0928 94.9559 23.2216 95.4446 23.2216C95.9521 23.2216 96.3764 23.0871 96.7173 22.8182C97.0582 22.5455 97.3158 22.1761 97.49 21.7102C97.6681 21.2443 97.7571 20.7197 97.7571 20.1364C97.7571 19.5606 97.67 19.0436 97.4957 18.5852C97.3253 18.1269 97.0677 17.7651 96.723 17.5C96.3821 17.2348 95.9559 17.1023 95.4446 17.1023C94.9521 17.1023 94.5355 17.2292 94.1946 17.483C93.8575 17.7367 93.6018 18.0909 93.4275 18.5455C93.2533 19 93.1662 19.5303 93.1662 20.1364ZM103.916 24.6932C103.363 24.6932 102.863 24.5909 102.416 24.3864C101.969 24.178 101.615 23.8769 101.354 23.483C101.096 23.089 100.967 22.6061 100.967 22.0341C100.967 21.5417 101.062 21.1364 101.251 20.8182C101.441 20.5 101.696 20.2481 102.018 20.0625C102.34 19.8769 102.7 19.7367 103.098 19.642C103.496 19.5473 103.901 19.4754 104.314 19.4261C104.837 19.3655 105.261 19.3163 105.587 19.2784C105.912 19.2367 106.149 19.1705 106.297 19.0795C106.445 18.9886 106.518 18.8409 106.518 18.6364V18.5966C106.518 18.1004 106.378 17.7159 106.098 17.4432C105.821 17.1705 105.409 17.0341 104.859 17.0341C104.287 17.0341 103.837 17.161 103.507 17.4148C103.181 17.6648 102.956 17.9432 102.831 18.25L101.234 17.8864C101.424 17.3561 101.7 16.928 102.064 16.6023C102.431 16.2727 102.854 16.0341 103.331 15.8864C103.808 15.7348 104.31 15.6591 104.837 15.6591C105.185 15.6591 105.554 15.7008 105.945 15.7841C106.339 15.8636 106.706 16.0114 107.047 16.2273C107.392 16.4432 107.674 16.7519 107.893 17.1534C108.113 17.5511 108.223 18.0682 108.223 18.7045V24.5H106.564V23.3068H106.496C106.386 23.5265 106.221 23.7424 106.001 23.9545C105.782 24.1667 105.499 24.3428 105.155 24.483C104.81 24.6231 104.397 24.6932 103.916 24.6932ZM104.285 23.3295C104.755 23.3295 105.157 23.2367 105.49 23.0511C105.827 22.8655 106.083 22.6231 106.257 22.3239C106.435 22.0208 106.524 21.697 106.524 21.3523V20.2273C106.464 20.2879 106.346 20.3447 106.172 20.3977C106.001 20.447 105.806 20.4905 105.587 20.5284C105.367 20.5625 105.153 20.5947 104.945 20.625C104.736 20.6515 104.562 20.6742 104.422 20.6932C104.092 20.7348 103.791 20.8049 103.518 20.9034C103.249 21.0019 103.034 21.1439 102.871 21.3295C102.712 21.5114 102.632 21.7538 102.632 22.0568C102.632 22.4773 102.787 22.7955 103.098 23.0114C103.409 23.2235 103.804 23.3295 104.285 23.3295ZM110.486 24.5V15.7727H114.105C115.09 15.7727 115.87 15.983 116.446 16.4034C117.022 16.8201 117.31 17.3864 117.31 18.1023C117.31 18.6136 117.147 19.0189 116.821 19.3182C116.495 19.6174 116.063 19.8182 115.526 19.9205C115.916 19.9659 116.274 20.0833 116.599 20.2727C116.925 20.4583 117.187 20.7083 117.383 21.0227C117.584 21.3371 117.685 21.7121 117.685 22.1477C117.685 22.6098 117.565 23.0189 117.327 23.375C117.088 23.7273 116.741 24.0038 116.287 24.2045C115.836 24.4015 115.293 24.5 114.656 24.5H110.486ZM112.082 23.0795H114.656C115.077 23.0795 115.406 22.9792 115.645 22.7784C115.883 22.5776 116.003 22.3049 116.003 21.9602C116.003 21.5549 115.883 21.2367 115.645 21.0057C115.406 20.7708 115.077 20.6534 114.656 20.6534H112.082V23.0795ZM112.082 19.4091H114.122C114.44 19.4091 114.713 19.3636 114.94 19.2727C115.171 19.1818 115.348 19.053 115.469 18.8864C115.594 18.7159 115.656 18.5151 115.656 18.2841C115.656 17.947 115.518 17.6837 115.241 17.4943C114.965 17.3049 114.586 17.2102 114.105 17.2102H112.082V19.4091ZM121.213 22.1193L125.06 15.7727H126.889V24.5H125.224V18.1477L121.395 24.5H119.548V15.7727H121.213V22.1193ZM128.091 17.2386V15.7727H135.455V17.2386H132.608V24.5H130.949V17.2386H128.091ZM138.53 18.7727H141.064C142.132 18.7727 142.954 19.0379 143.53 19.5682C144.106 20.0985 144.393 20.7822 144.393 21.6193C144.393 22.1648 144.265 22.6553 144.007 23.0909C143.749 23.5265 143.373 23.8712 142.876 24.125C142.38 24.375 141.776 24.5 141.064 24.5H137.251V15.7727H138.916V23.0341H141.064C141.553 23.0341 141.954 22.9072 142.268 22.6534C142.583 22.3958 142.74 22.0682 142.74 21.6705C142.74 21.25 142.583 20.9072 142.268 20.642C141.954 20.3731 141.553 20.2386 141.064 20.2386H138.53V18.7727Z" fill="#E8E8E8"/>
<path d="M60.2958 46.2347V41.2241H60.99C61.1993 41.1194 61.3663 40.9182 61.4911 40.6204C61.6159 40.3185 61.7145 39.9664 61.7869 39.5639C61.8634 39.1574 61.9197 38.7348 61.9559 38.2962C61.9962 37.8535 62.0324 37.4369 62.0646 37.0465L62.2819 34.2273H69.7919V41.2241H71.2407V46.2347H68.4396V43.5H63.1694V46.2347H60.2958ZM63.8636 41.2241H67.039V36.4247H64.745L64.6967 37.0465C64.6404 38.0446 64.5518 38.8817 64.4311 39.5579C64.3103 40.234 64.1212 40.7894 63.8636 41.2241ZM76.9411 43.6751C75.9712 43.6751 75.1341 43.4839 74.4298 43.1016C73.7295 42.7152 73.1902 42.1658 72.8119 41.4535C72.4376 40.7371 72.2504 39.8859 72.2504 38.8999C72.2504 37.942 72.4396 37.1049 72.8179 36.3885C73.1962 35.6681 73.7295 35.1087 74.4177 34.7102C75.1059 34.3078 75.9169 34.1065 76.8506 34.1065C77.5106 34.1065 78.1143 34.2092 78.6616 34.4144C79.209 34.6197 79.6819 34.9235 80.0803 35.326C80.4788 35.7285 80.7887 36.2255 81.01 36.8171C81.2314 37.4047 81.342 38.0788 81.342 38.8395V39.576H73.2827V37.8615H78.5952C78.5912 37.5476 78.5168 37.2679 78.3719 37.0224C78.227 36.7769 78.0278 36.5857 77.7742 36.4489C77.5247 36.308 77.2369 36.2376 76.9109 36.2376C76.5809 36.2376 76.2851 36.312 76.0235 36.4609C75.7619 36.6058 75.5546 36.805 75.4017 37.0586C75.2488 37.3081 75.1683 37.5919 75.1602 37.9098V39.6545C75.1602 40.0328 75.2347 40.3648 75.3836 40.6506C75.5325 40.9323 75.7438 41.1516 76.0175 41.3086C76.2911 41.4656 76.6171 41.544 76.9954 41.544C77.257 41.544 77.4945 41.5078 77.7078 41.4354C77.9211 41.3629 78.1042 41.2563 78.2572 41.1154C78.4101 40.9745 78.5248 40.8015 78.6013 40.5962L81.3119 40.6747C81.1992 41.2824 80.9516 41.8117 80.5693 42.2624C80.191 42.7092 79.694 43.0573 79.0782 43.3068C78.4624 43.5523 77.7501 43.6751 76.9411 43.6751ZM89.3878 37.7106V39.9624H84.6307V37.7106H89.3878ZM85.6449 34.2273V43.5H82.8498V34.2273H85.6449ZM91.1687 34.2273V43.5H88.3917V34.2273H91.1687ZM94.6927 36.9077H97.5059C98.7817 36.9077 99.7818 37.2075 100.506 37.8072C101.231 38.4028 101.595 39.2118 101.599 40.234C101.595 40.8981 101.428 41.4756 101.098 41.9666C100.772 42.4536 100.303 42.8319 99.6913 43.1016C99.0836 43.3672 98.3551 43.5 97.5059 43.5H92.9601V34.2273H95.7552V41.2422H97.5059C97.8923 41.2422 98.2102 41.1476 98.4598 40.9584C98.7093 40.7693 98.8361 40.5258 98.8401 40.228C98.8361 39.9141 98.7093 39.6585 98.4598 39.4613C98.2102 39.2641 97.8923 39.1655 97.5059 39.1655H94.6927V36.9077ZM109.71 34.2273V36.4851H106.009V43.5H103.153V34.2273H109.71ZM113.901 39.6786L116.865 34.2273H119.702V43.5H116.907V38.0305L113.949 43.5H111.106V34.2273H113.901V39.6786Z" fill="white"/>
</g>
<defs>
<filter id="filter0_d_680_107" x="6.28571" y="2.28571" width="51.4286" height="51.4286" filterUnits="userSpaceOnUse" color-interpolation-filters="sRGB">
<feFlood flood-opacity="0" result="BackgroundImageFix"/>
<feColorMatrix in="SourceAlpha" type="matrix" values="0 0 0 0 0 0 0 0 0 0 0 0 0 0 0 0 0 0 127 0" result="hardAlpha"/>
<feOffset/>
<feGaussianBlur stdDeviation="2.85714"/>
<feComposite in2="hardAlpha" operator="out"/>
<feColorMatrix type="matrix" values="0 0 0 0 0 0 0 0 0 0 0 0 0 0 0 0 0 0 0.25 0"/>
<feBlend mode="normal" in2="BackgroundImageFix" result="effect1_dropShadow_680_107"/>
<feBlend mode="normal" in="SourceGraphic" in2="effect1_dropShadow_680_107" result="shape"/>
</filter>
<filter id="filter1_d_680_107" x="54.4" y="3.9" width="97.2" height="48.2" filterUnits="userSpaceOnUse" color-interpolation-filters="sRGB">
<feFlood flood-opacity="0" result="BackgroundImageFix"/>
<feColorMatrix in="SourceAlpha" type="matrix" values="0 0 0 0 0 0 0 0 0 0 0 0 0 0 0 0 0 0 127 0" result="hardAlpha"/>
<feOffset/>
<feGaussianBlur stdDeviation="2.8"/>
<feComposite in2="hardAlpha" operator="out"/>
<feColorMatrix type="matrix" values="0 0 0 0 0 0 0 0 0 0 0 0 0 0 0 0 0 0 0.25 0"/>
<feBlend mode="normal" in2="BackgroundImageFix" result="effect1_dropShadow_680_107"/>
<feBlend mode="normal" in="SourceGraphic" in2="effect1_dropShadow_680_107" result="shape"/>
</filter>
<linearGradient id="paint0_linear_680_107" x1="79" y1="0" x2="79" y2="56" gradientUnits="userSpaceOnUse">
<stop stop-color="#2D2D2D"/>
<stop offset="1" stop-color="#222222"/>
</linearGradient>
</defs>
</svg>
