<svg width="238" height="40" viewBox="0 0 238 40" fill="none" xmlns="http://www.w3.org/2000/svg">
<g clip-path="url(#clip0_680_47)">
<rect x="-9.15527e-05" y="0.0027771" width="238.001" height="40.0014" rx="8" fill="url(#paint0_linear_680_47)"/>
<g filter="url(#filter0_d_680_47)">
<path d="M20.6079 6.08218C15.7768 6.56204 11.5823 9.45986 9.41018 13.8222C8.68613 15.2742 8.19928 16.9444 8.03699 18.5273L7.99954 18.8887H9.24789C9.93448 18.8887 10.4962 18.87 10.5025 18.8389C10.5711 17.8231 11.0205 16.2277 11.5636 15.0873C13.4923 11.049 17.5057 8.51262 21.9499 8.51262C23.8349 8.51262 25.4327 8.8803 27.0681 9.69044C28.9281 10.6128 30.4199 11.9215 31.5621 13.6228C32.0677 14.3768 32.7668 15.7541 32.6794 15.8289C32.6482 15.86 32.1489 16.0096 31.5746 16.1591L30.526 16.4396L30.2514 15.9036C29.3651 14.1338 27.8858 12.6506 26.1381 11.7719C25.5077 11.4541 24.8585 11.211 24.7586 11.2484C24.7149 11.2609 24.6588 11.4104 24.64 11.5787C24.6151 11.7407 24.5464 12.1707 24.4778 12.5322C24.4153 12.8936 24.3467 13.2925 24.328 13.4171L24.2843 13.6477L24.8148 13.897C26.6374 14.7445 27.9544 16.3149 28.5099 18.2967C28.6722 18.87 28.6909 19.0009 28.6909 20.0104C28.6909 21.02 28.6722 21.1509 28.5099 21.7242C28.1791 22.8958 27.5924 23.9303 26.7872 24.7404C26.3253 25.2078 25.645 25.7126 25.1519 25.9681C24.9833 26.0491 24.8523 26.1551 24.8523 26.1987C24.8585 26.3046 25.4515 28.4858 25.4952 28.5232C25.5513 28.5793 26.6062 28.0184 27.2241 27.6071C27.9981 27.0899 29.0717 26.018 29.5898 25.2452C30.3138 24.1609 30.7632 23.1202 31.0441 21.8738C31.1627 21.3254 31.1876 21.0449 31.1876 20.0291C31.1876 19.0196 31.2001 18.8264 31.2813 18.8077C32.0428 18.5896 33.3598 18.2655 33.3847 18.2842C33.4284 18.3341 33.4971 19.3748 33.4971 20.0104C33.4971 20.8704 33.4159 21.7117 33.2786 22.3162C33.2162 22.6029 33.1663 22.846 33.1725 22.8522C33.1788 22.8646 33.7031 23.0516 34.3335 23.2822C35.2073 23.6 35.4945 23.681 35.5319 23.6187C35.6318 23.4504 35.9002 21.8052 35.9688 20.9265C36.1124 18.9635 35.7691 16.7075 35.0513 14.9315C33.029 9.92726 28.6098 6.59943 23.2918 6.08218C22.2245 5.97624 21.6627 5.97624 20.6079 6.08218Z" fill="#00D845"/>
<path d="M20.92 10.8309C20.4644 10.8745 19.447 11.1176 18.9289 11.2983C16.376 12.1957 14.2726 14.246 13.3238 16.7699C12.5873 18.7205 12.5623 21.1696 13.2614 23.0828L13.4174 23.5066L12.8432 23.8368C11.6947 24.5037 11.4887 24.6221 11.445 24.6221C11.3889 24.6221 11.1142 23.9303 10.9395 23.3445C10.7397 22.6466 10.5275 21.637 10.5025 21.1758C10.4963 21.1509 9.93455 21.1322 9.24795 21.1322H7.9996L8.03705 21.4874C8.36787 24.7093 9.8534 27.7505 12.219 30.05C17.7679 35.4344 26.625 35.3035 32.0366 29.7571C32.7481 29.0218 33.4535 28.1182 33.9528 27.2955C34.3835 26.5789 34.7143 25.9058 34.6644 25.856C34.6394 25.831 34.3398 25.7126 33.9965 25.588C33.6532 25.4634 33.1913 25.2951 32.9666 25.2203C32.7419 25.1393 32.5172 25.0521 32.4673 25.0334C32.3986 25.0084 32.3112 25.1144 32.1365 25.4509C31.0878 27.495 29.1279 29.3521 26.9121 30.4115C25.0209 31.3089 23.0984 31.6454 20.8202 31.4647C18.5919 31.2902 16.1076 30.1934 14.3038 28.5918C13.7919 28.1368 13.0492 27.3392 12.7683 26.9403C12.6747 26.8032 12.6247 26.8406 14.0728 25.9993L14.6159 25.6815L15.3836 26.448C16.7568 27.8253 18.2298 28.6354 20.1148 29.0592C20.6704 29.1776 20.9388 29.2025 21.9624 29.2025C22.6178 29.2025 23.1733 29.1838 23.192 29.1651C23.217 29.1464 23.1171 28.7102 22.9798 28.1992C22.8425 27.6882 22.6989 27.1584 22.6615 27.0151L22.5928 26.7596L21.7127 26.7222C20.0524 26.6537 18.7354 26.1302 17.4995 25.0458C17.2936 24.8651 17.0626 24.6408 16.994 24.5535L16.8691 24.3915L18.2486 23.5938L19.6342 22.8024L21.0823 24.3354L22.7489 23.9926L24.4154 23.6561L26.6624 21.4126L26.4627 20.6773C26.3379 20.2099 26.238 19.9482 26.1881 19.9482C26.1381 19.9482 25.6325 20.0728 25.0583 20.2286L24.0097 20.5153L23.5728 20.939C23.0984 21.4002 23.1671 21.3815 22.1372 21.475L21.7627 21.5124L21.3133 21.0699C21.0636 20.8331 20.8576 20.6212 20.8576 20.6087C20.8576 20.59 20.7889 20.3283 20.7078 20.0167L20.558 19.4496L20.9637 18.9074C21.1884 18.6021 21.3819 18.3528 21.3944 18.3403C21.4006 18.3279 21.669 18.2468 21.9936 18.1658L22.5741 18.0163L23.3668 17.2248C23.81 16.7886 24.1657 16.4022 24.1657 16.3648C24.1657 16.3274 23.9285 16.0657 23.6414 15.779L23.1171 15.2618L21.6004 15.6731L20.0774 16.0844L19.7653 16.4084C19.5968 16.5892 19.241 16.9755 18.9851 17.2684C18.7292 17.5551 18.4046 17.9228 18.2673 18.0786C17.7367 18.6768 17.7555 18.4961 18.0863 19.6303C18.2423 20.185 18.3672 20.6524 18.3547 20.6586C18.3235 20.6835 17.0314 21.4376 16.2325 21.8863C15.9329 22.0545 15.6645 22.1916 15.627 22.1916C15.5958 22.1916 15.5022 21.9299 15.421 21.6121C15.29 21.1197 15.2712 20.8954 15.2712 19.9793C15.2775 19.0134 15.29 18.8638 15.4523 18.2967C15.7893 17.1002 16.3698 16.0968 17.2062 15.2618C18.3547 14.1151 19.8652 13.4109 21.4006 13.305C22.0498 13.2551 21.9998 13.305 22.106 12.6257C22.1434 12.3826 22.1996 12.0773 22.2308 11.9402C22.262 11.8031 22.2995 11.5787 22.3182 11.4416C22.3431 11.3045 22.3744 11.0989 22.3931 10.9867L22.4305 10.7873L21.7876 10.7997C21.4318 10.7997 21.0386 10.8184 20.92 10.8309Z" fill="#00D845"/>
</g>
<g filter="url(#filter1_d_680_47)">
<path d="M42.4239 29.4918V24.9218H43.2389C43.5166 24.6884 43.7762 24.3563 44.0176 23.9257C44.2591 23.4951 44.4644 22.9135 44.6334 22.181C44.8024 21.4486 44.9192 20.5088 44.9836 19.3618L45.2733 14.1398H52.898V24.9218H54.2985V29.4736H52.5116V26.5035H44.2108V29.4918H42.4239ZM45.4363 24.9218H51.111V15.7457H46.9637L46.7705 19.3618C46.7182 20.2351 46.6316 21.0199 46.5109 21.7162C46.3942 22.4124 46.2433 23.0282 46.0581 23.5635C45.877 24.0947 45.6698 24.5475 45.4363 24.9218ZM60.103 26.6906C59.2337 26.6906 58.4751 26.4914 57.8271 26.093C57.1792 25.6945 56.6761 25.1371 56.3179 24.4207C55.9597 23.7044 55.7806 22.8672 55.7806 21.9094C55.7806 20.9475 55.9597 20.1063 56.3179 19.3859C56.6761 18.6655 57.1792 18.1061 57.8271 17.7077C58.4751 17.3092 59.2337 17.11 60.103 17.11C60.9724 17.11 61.731 17.3092 62.379 17.7077C63.0269 18.1061 63.53 18.6655 63.8882 19.3859C64.2464 20.1063 64.4255 20.9475 64.4255 21.9094C64.4255 22.8672 64.2464 23.7044 63.8882 24.4207C63.53 25.1371 63.0269 25.6945 62.379 26.093C61.731 26.4914 60.9724 26.6906 60.103 26.6906ZM60.1091 25.1753C60.6725 25.1753 61.1394 25.0264 61.5097 24.7286C61.8799 24.4308 62.1536 24.0344 62.3307 23.5393C62.5118 23.0443 62.6023 22.499 62.6023 21.9033C62.6023 21.3117 62.5118 20.7684 62.3307 20.2734C62.1536 19.7743 61.8799 19.3739 61.5097 19.072C61.1394 18.7702 60.6725 18.6192 60.1091 18.6192C59.5416 18.6192 59.0707 18.7702 58.6964 19.072C58.3262 19.3739 58.0505 19.7743 57.8694 20.2734C57.6923 20.7684 57.6038 21.3117 57.6038 21.9033C57.6038 22.499 57.6923 23.0443 57.8694 23.5393C58.0505 24.0344 58.3262 24.4308 58.6964 24.7286C59.0707 25.0264 59.5416 25.1753 60.1091 25.1753ZM70.3462 26.6906C69.4487 26.6906 68.676 26.4874 68.028 26.0809C67.3841 25.6704 66.8891 25.1049 66.5429 24.3845C66.1968 23.6641 66.0238 22.8391 66.0238 21.9094C66.0238 20.9676 66.2008 20.1365 66.555 19.4161C66.9092 18.6917 67.4082 18.1262 68.0522 17.7197C68.6961 17.3133 69.4548 17.11 70.3281 17.11C71.0324 17.11 71.6602 17.2408 72.2116 17.5024C72.763 17.76 73.2077 18.1222 73.5458 18.5891C73.8879 19.0559 74.0911 19.6013 74.1555 20.2251H72.3988C72.3022 19.7904 72.0808 19.4161 71.7347 19.1022C71.3926 18.7883 70.9338 18.6313 70.3583 18.6313C69.8552 18.6313 69.4145 18.7641 69.0362 19.0298C68.6619 19.2914 68.3701 19.6656 68.1608 20.1526C67.9516 20.6356 67.8469 21.2071 67.8469 21.8671C67.8469 22.5432 67.9495 23.1268 68.1548 23.6178C68.3601 24.1088 68.6498 24.4892 69.0241 24.7588C69.4024 25.0285 69.8472 25.1633 70.3583 25.1633C70.7004 25.1633 71.0103 25.1009 71.288 24.9761C71.5697 24.8473 71.8051 24.6642 71.9943 24.4268C72.1875 24.1893 72.3223 23.9036 72.3988 23.5695H74.1555C74.0911 24.1692 73.8959 24.7045 73.5699 25.1753C73.2439 25.6462 72.8073 26.0165 72.2599 26.2861C71.7166 26.5558 71.0787 26.6906 70.3462 26.6906ZM75.384 18.7883V17.2307H83.2079V18.7883H80.1834V26.5035H78.4206V18.7883H75.384ZM86.258 29.9807C85.9884 29.9807 85.7429 29.9586 85.5215 29.9143C85.3002 29.8741 85.1352 29.8298 85.0265 29.7815L85.4612 28.3025C85.7912 28.391 86.085 28.4293 86.3426 28.4172C86.6001 28.4051 86.8275 28.3085 87.0247 28.1274C87.226 27.9463 87.4031 27.6505 87.556 27.24L87.7794 26.6242L84.3866 17.2307H86.3184L88.6668 24.4268H88.7634L91.1117 17.2307H93.0496L89.2282 27.741C89.0511 28.224 88.8258 28.6325 88.5521 28.9665C88.2784 29.3046 87.9524 29.5582 87.5741 29.7272C87.1958 29.8962 86.7571 29.9807 86.258 29.9807ZM94.746 26.5035V17.2307H102.31V26.5035H100.541V18.7883H96.5027V26.5035H94.746ZM108.72 26.6906C107.806 26.6906 107.02 26.4954 106.36 26.105C105.704 25.7106 105.196 25.1572 104.838 24.4449C104.484 23.7285 104.307 22.8894 104.307 21.9275C104.307 20.9777 104.484 20.1405 104.838 19.4161C105.196 18.6917 105.695 18.1262 106.335 17.7197C106.979 17.3133 107.732 17.11 108.593 17.11C109.116 17.11 109.623 17.1965 110.114 17.3696C110.605 17.5427 111.046 17.8143 111.437 18.1846C111.827 18.5548 112.135 19.0358 112.36 19.6274C112.586 20.215 112.698 20.9294 112.698 21.7705V22.4104H105.327V21.0582H110.929C110.929 20.5833 110.833 20.1627 110.64 19.7964C110.447 19.4262 110.175 19.1344 109.825 18.9211C109.479 18.7078 109.072 18.6011 108.605 18.6011C108.098 18.6011 107.655 18.7259 107.277 18.9754C106.903 19.2209 106.613 19.5429 106.408 19.9413C106.207 20.3357 106.106 20.7644 106.106 21.2272V22.2837C106.106 22.9035 106.215 23.4307 106.432 23.8653C106.653 24.3 106.961 24.632 107.356 24.8614C107.75 25.0868 108.211 25.1995 108.738 25.1995C109.08 25.1995 109.392 25.1512 109.674 25.0546C109.956 24.954 110.199 24.8051 110.404 24.6079C110.61 24.4107 110.766 24.1672 110.875 23.8774L112.584 24.1853C112.447 24.6884 112.201 25.1291 111.847 25.5074C111.497 25.8817 111.056 26.1735 110.525 26.3827C109.998 26.588 109.396 26.6906 108.72 26.6906ZM120.985 21.0883V22.6519H115.963V21.0883H120.985ZM116.47 17.2307V26.5035H114.701V17.2307H116.47ZM122.247 17.2307V26.5035H120.484V17.2307H122.247ZM135.445 21.0883V22.6519H130.423V21.0883H135.445ZM130.93 17.2307V26.5035H129.161V17.2307H130.93ZM136.707 17.2307V26.5035H134.944V17.2307H136.707ZM141.82 26.7087C141.233 26.7087 140.702 26.6001 140.227 26.3827C139.752 26.1614 139.375 25.8414 139.098 25.4229C138.824 25.0043 138.687 24.4912 138.687 23.8834C138.687 23.3602 138.788 22.9296 138.989 22.5915C139.19 22.2535 139.462 21.9858 139.804 21.7886C140.146 21.5914 140.529 21.4425 140.951 21.3419C141.374 21.2413 141.804 21.1648 142.243 21.1125C142.798 21.0481 143.249 20.9958 143.595 20.9555C143.941 20.9113 144.193 20.8408 144.35 20.7442C144.507 20.6477 144.585 20.4907 144.585 20.2734V20.2311C144.585 19.7039 144.436 19.2954 144.139 19.0056C143.845 18.7158 143.406 18.5709 142.823 18.5709C142.215 18.5709 141.736 18.7058 141.386 18.9754C141.04 19.241 140.8 19.5369 140.667 19.8629L138.971 19.4765C139.172 18.913 139.466 18.4583 139.852 18.1121C140.243 17.762 140.692 17.5084 141.199 17.3515C141.706 17.1905 142.239 17.11 142.798 17.11C143.169 17.11 143.561 17.1543 143.976 17.2428C144.394 17.3273 144.785 17.4843 145.147 17.7137C145.513 17.9431 145.813 18.2711 146.046 18.6977C146.28 19.1203 146.396 19.6697 146.396 20.3458V26.5035H144.634V25.2357H144.561C144.444 25.4691 144.269 25.6985 144.036 25.9239C143.803 26.1493 143.503 26.3365 143.136 26.4854C142.77 26.6343 142.332 26.7087 141.82 26.7087ZM142.213 25.2599C142.712 25.2599 143.139 25.1613 143.493 24.9641C143.851 24.7669 144.123 24.5093 144.308 24.1913C144.497 23.8694 144.591 23.5253 144.591 23.159V21.9637C144.527 22.0281 144.402 22.0885 144.217 22.1448C144.036 22.1971 143.829 22.2434 143.595 22.2837C143.362 22.3199 143.134 22.3541 142.913 22.3863C142.692 22.4145 142.507 22.4386 142.358 22.4587C142.008 22.503 141.688 22.5775 141.398 22.6821C141.112 22.7867 140.883 22.9377 140.71 23.1349C140.541 23.328 140.456 23.5856 140.456 23.9076C140.456 24.3543 140.621 24.6924 140.951 24.9218C141.281 25.1472 141.702 25.2599 142.213 25.2599Z" fill="#E8E8E8"/>
<path d="M152.937 14.1398H156.638L159.777 21.7947H159.922L163.061 14.1398H166.762V26.5035H163.852V18.909H163.749L160.779 26.425H158.92L155.949 18.8668H155.847V26.5035H152.937V14.1398ZM172.954 26.6785C171.98 26.6785 171.143 26.4793 170.443 26.0809C169.746 25.6784 169.209 25.119 168.831 24.4026C168.456 23.6822 168.269 22.8471 168.269 21.8973C168.269 20.9435 168.456 20.1084 168.831 19.392C169.209 18.6716 169.746 18.1121 170.443 17.7137C171.143 17.3112 171.98 17.11 172.954 17.11C173.928 17.11 174.763 17.3112 175.459 17.7137C176.16 18.1121 176.697 18.6716 177.071 19.392C177.449 20.1084 177.639 20.9435 177.639 21.8973C177.639 22.8471 177.449 23.6822 177.071 24.4026C176.697 25.119 176.16 25.6784 175.459 26.0809C174.763 26.4793 173.928 26.6785 172.954 26.6785ZM172.972 24.4509C173.326 24.4509 173.626 24.3423 173.872 24.1249C174.117 23.9076 174.304 23.6057 174.433 23.2194C174.566 22.833 174.632 22.3863 174.632 21.8792C174.632 21.364 174.566 20.9133 174.433 20.5269C174.304 20.1405 174.117 19.8387 173.872 19.6214C173.626 19.404 173.326 19.2954 172.972 19.2954C172.606 19.2954 172.296 19.404 172.042 19.6214C171.793 19.8387 171.602 20.1405 171.469 20.5269C171.34 20.9133 171.276 21.364 171.276 21.8792C171.276 22.3863 171.34 22.833 171.469 23.2194C171.602 23.6057 171.793 23.9076 172.042 24.1249C172.296 24.3423 172.606 24.4509 172.972 24.4509ZM182.538 26.6363C181.853 26.6363 181.232 26.4592 180.672 26.105C180.113 25.7509 179.666 25.2196 179.332 24.5113C178.998 23.803 178.831 22.9236 178.831 21.8731C178.831 20.7825 179.004 19.885 179.35 19.1807C179.696 18.4764 180.149 17.9552 180.708 17.6171C181.272 17.279 181.878 17.11 182.526 17.11C183.012 17.11 183.429 17.1945 183.775 17.3636C184.121 17.5286 184.407 17.7419 184.632 18.0035C184.858 18.2651 185.029 18.5367 185.146 18.8185H185.206V14.1398H188.158V26.5035H185.236V25.0003H185.146C185.021 25.286 184.844 25.5537 184.614 25.8032C184.385 26.0527 184.097 26.2539 183.751 26.4069C183.409 26.5598 183.004 26.6363 182.538 26.6363ZM183.564 24.3362C183.922 24.3362 184.228 24.2356 184.481 24.0344C184.735 23.8291 184.93 23.5414 185.067 23.1711C185.204 22.8008 185.272 22.3662 185.272 21.8671C185.272 21.36 185.204 20.9233 185.067 20.5571C184.934 20.1909 184.739 19.9091 184.481 19.7119C184.228 19.5147 183.922 19.4161 183.564 19.4161C183.198 19.4161 182.888 19.5167 182.634 19.718C182.381 19.9192 182.187 20.2029 182.055 20.5692C181.926 20.9354 181.861 21.3681 181.861 21.8671C181.861 22.3662 181.928 22.8008 182.061 23.1711C182.193 23.5414 182.385 23.8291 182.634 24.0344C182.888 24.2356 183.198 24.3362 183.564 24.3362ZM190.025 26.5035V17.2307H192.892V18.9211H192.989C193.158 18.3093 193.434 17.8546 193.816 17.5567C194.198 17.2549 194.643 17.104 195.15 17.104C195.287 17.104 195.428 17.114 195.573 17.1342C195.718 17.1503 195.853 17.1764 195.977 17.2126V19.7783C195.836 19.73 195.651 19.6918 195.422 19.6636C195.197 19.6355 194.995 19.6214 194.818 19.6214C194.468 19.6214 194.152 19.6999 193.87 19.8568C193.593 20.0097 193.373 20.2251 193.212 20.5028C193.055 20.7764 192.977 21.0984 192.977 21.4687V26.5035H190.025ZM197.18 26.5035V17.2307H200.132V26.5035H197.18ZM198.659 16.1501C198.245 16.1501 197.888 16.0133 197.591 15.7396C197.293 15.4619 197.144 15.1279 197.144 14.7375C197.144 14.3511 197.293 14.0211 197.591 13.7474C197.888 13.4697 198.245 13.3309 198.659 13.3309C199.078 13.3309 199.434 13.4697 199.728 13.7474C200.026 14.0211 200.174 14.3511 200.174 14.7375C200.174 15.1279 200.026 15.4619 199.728 15.7396C199.434 16.0133 199.078 16.1501 198.659 16.1501ZM204.963 21.2151V26.5035H202.011V17.2307H204.818V18.9332H204.921C205.126 18.3657 205.476 17.921 205.971 17.599C206.466 17.273 207.056 17.11 207.74 17.11C208.392 17.11 208.958 17.2569 209.437 17.5507C209.92 17.8405 210.294 18.247 210.56 18.7702C210.829 19.2893 210.962 19.8971 210.958 20.5933V26.5035H208.006V21.1729C208.01 20.6577 207.879 20.2553 207.613 19.9655C207.352 19.6757 206.988 19.5308 206.521 19.5308C206.211 19.5308 205.937 19.5992 205.7 19.7361C205.466 19.8689 205.285 20.0601 205.156 20.3096C205.032 20.5591 204.967 20.861 204.963 21.2151ZM218.02 17.2307V19.404H212.17V17.2307H218.02ZM213.395 15.0092H216.347V23.5876C216.347 23.7687 216.376 23.9156 216.432 24.0283C216.492 24.137 216.579 24.2155 216.692 24.2638C216.804 24.308 216.939 24.3302 217.096 24.3302C217.209 24.3302 217.327 24.3201 217.452 24.3C217.581 24.2758 217.678 24.2557 217.742 24.2396L218.189 26.3707C218.048 26.4109 217.849 26.4612 217.591 26.5216C217.337 26.582 217.034 26.6202 216.679 26.6363C215.987 26.6685 215.394 26.588 214.899 26.3948C214.408 26.1976 214.031 25.8917 213.77 25.4772C213.512 25.0627 213.387 24.5415 213.395 23.9136V15.0092ZM222.677 21.2151V26.5035H219.725V14.1398H222.581V18.9332H222.683C222.892 18.3617 223.235 17.9149 223.709 17.593C224.188 17.271 224.774 17.11 225.466 17.11C226.118 17.11 226.686 17.2549 227.169 17.5447C227.652 17.8304 228.026 18.2349 228.291 18.7581C228.561 19.2813 228.694 19.893 228.69 20.5933V26.5035H225.738V21.1729C225.742 20.6577 225.613 20.2553 225.351 19.9655C225.09 19.6757 224.722 19.5308 224.247 19.5308C223.937 19.5308 223.663 19.5992 223.426 19.7361C223.192 19.8689 223.009 20.0601 222.876 20.3096C222.748 20.5591 222.681 20.861 222.677 21.2151Z" fill="#00D845"/>
</g>
</g>
<rect x="1.07134" y="1.07421" width="235.858" height="37.8585" rx="6.92857" stroke="white" stroke-opacity="0.15" stroke-width="2.14286"/>
<defs>
<filter id="filter0_d_680_47" x="2.39926" y="0.402436" width="39.2023" height="39.202" filterUnits="userSpaceOnUse" color-interpolation-filters="sRGB">
<feFlood flood-opacity="0" result="BackgroundImageFix"/>
<feColorMatrix in="SourceAlpha" type="matrix" values="0 0 0 0 0 0 0 0 0 0 0 0 0 0 0 0 0 0 127 0" result="hardAlpha"/>
<feOffset/>
<feGaussianBlur stdDeviation="2.80014"/>
<feComposite in2="hardAlpha" operator="out"/>
<feColorMatrix type="matrix" values="0 0 0 0 0 0 0 0 0 0 0 0 0 0 0 0 0 0 0.25 0"/>
<feBlend mode="normal" in2="BackgroundImageFix" result="effect1_dropShadow_680_47"/>
<feBlend mode="normal" in="SourceGraphic" in2="effect1_dropShadow_680_47" result="shape"/>
</filter>
<filter id="filter1_d_680_47" x="36.287" y="3.78919" width="199.429" height="32.4286" filterUnits="userSpaceOnUse" color-interpolation-filters="sRGB">
<feFlood flood-opacity="0" result="BackgroundImageFix"/>
<feColorMatrix in="SourceAlpha" type="matrix" values="0 0 0 0 0 0 0 0 0 0 0 0 0 0 0 0 0 0 127 0" result="hardAlpha"/>
<feOffset/>
<feGaussianBlur stdDeviation="2.85714"/>
<feComposite in2="hardAlpha" operator="out"/>
<feColorMatrix type="matrix" values="0 0 0 0 0 0 0 0 0 0 0 0 0 0 0 0 0 0 0.25 0"/>
<feBlend mode="normal" in2="BackgroundImageFix" result="effect1_dropShadow_680_47"/>
<feBlend mode="normal" in="SourceGraphic" in2="effect1_dropShadow_680_47" result="shape"/>
</filter>
<linearGradient id="paint0_linear_680_47" x1="119.001" y1="0.0027771" x2="119.001" y2="40.0042" gradientUnits="userSpaceOnUse">
<stop stop-color="#072C13"/>
<stop offset="1" stop-color="#041C0B"/>
</linearGradient>
<clipPath id="clip0_680_47">
<rect x="-9.15527e-05" y="0.0027771" width="238.001" height="40.0014" rx="8" fill="white"/>
</clipPath>
</defs>
</svg>
