<svg width="170" height="56" viewBox="0 0 170 56" fill="none" xmlns="http://www.w3.org/2000/svg">
<rect x="2.44379e-06" width="170" height="56" rx="8" fill="url(#paint0_linear_680_133)"/>
<rect x="1.05" y="1.05" width="167.9" height="53.9" rx="6.95" stroke="white" stroke-opacity="0.15" stroke-width="2.1"/>
<g filter="url(#filter0_d_680_133)">
<path d="M32.0012 46.5714C42.2579 46.5714 50.5726 38.2567 50.5726 28C50.5726 17.7433 42.2579 9.42856 32.0012 9.42856C21.7445 9.42856 13.4297 17.7433 13.4297 28C13.4297 38.2567 21.7445 46.5714 32.0012 46.5714Z" stroke="#F1F1F1" stroke-width="2.85714" stroke-linecap="round" stroke-linejoin="round"/>
<path d="M13.4298 28H50.5727" stroke="#F1F1F1" stroke-width="2.85714" stroke-linecap="round" stroke-linejoin="round"/>
<path d="M32.0009 9.42859C36.6461 14.5141 39.286 21.1138 39.4295 28C39.286 34.8862 36.6461 41.4859 32.0009 46.5714C27.3557 41.4859 24.7158 34.8862 24.5723 28C24.7158 21.1138 27.3557 14.5141 32.0009 9.42859V9.42859Z" stroke="#F1F1F1" stroke-width="2.85714" stroke-linecap="round" stroke-linejoin="round"/>
</g>
<g filter="url(#filter1_d_680_133)">
<path d="M70.375 12.8636V24.5H68.625V14.3636H63.1477V24.5H61.3977V12.8636H70.375ZM76.5994 24.6761C75.7812 24.6761 75.0672 24.4886 74.4574 24.1136C73.8475 23.7386 73.374 23.214 73.0369 22.5398C72.6998 21.8655 72.5312 21.0776 72.5312 20.1761C72.5312 19.2708 72.6998 18.4792 73.0369 17.8011C73.374 17.1231 73.8475 16.5966 74.4574 16.2216C75.0672 15.8466 75.7812 15.6591 76.5994 15.6591C77.4176 15.6591 78.1316 15.8466 78.7415 16.2216C79.3513 16.5966 79.8248 17.1231 80.1619 17.8011C80.499 18.4792 80.6676 19.2708 80.6676 20.1761C80.6676 21.0776 80.499 21.8655 80.1619 22.5398C79.8248 23.214 79.3513 23.7386 78.7415 24.1136C78.1316 24.4886 77.4176 24.6761 76.5994 24.6761ZM76.6051 23.25C77.1354 23.25 77.5748 23.1098 77.9233 22.8295C78.2718 22.5492 78.5293 22.1761 78.696 21.7102C78.8665 21.2443 78.9517 20.7311 78.9517 20.1705C78.9517 19.6136 78.8665 19.1023 78.696 18.6364C78.5293 18.1667 78.2718 17.7898 77.9233 17.5057C77.5748 17.2216 77.1354 17.0795 76.6051 17.0795C76.071 17.0795 75.6278 17.2216 75.2755 17.5057C74.9271 17.7898 74.6676 18.1667 74.4971 18.6364C74.3305 19.1023 74.2471 19.6136 74.2471 20.1705C74.2471 20.7311 74.3305 21.2443 74.4971 21.7102C74.6676 22.1761 74.9271 22.5492 75.2755 22.8295C75.6278 23.1098 76.071 23.25 76.6051 23.25ZM87.4616 22.3977L90.2798 15.7727H91.7457L88.0923 24.5H86.8309L83.2514 15.7727H84.7003L87.4616 22.3977ZM84.2287 15.7727V24.5H82.5639V15.7727H84.2287ZM90.74 24.5V15.7727H92.3934V24.5H90.74ZM98.3338 24.6761C97.5156 24.6761 96.8016 24.4886 96.1917 24.1136C95.5819 23.7386 95.1084 23.214 94.7713 22.5398C94.4342 21.8655 94.2656 21.0776 94.2656 20.1761C94.2656 19.2708 94.4342 18.4792 94.7713 17.8011C95.1084 17.1231 95.5819 16.5966 96.1917 16.2216C96.8016 15.8466 97.5156 15.6591 98.3338 15.6591C99.152 15.6591 99.866 15.8466 100.476 16.2216C101.086 16.5966 101.559 17.1231 101.896 17.8011C102.233 18.4792 102.402 19.2708 102.402 20.1761C102.402 21.0776 102.233 21.8655 101.896 22.5398C101.559 23.214 101.086 23.7386 100.476 24.1136C99.866 24.4886 99.152 24.6761 98.3338 24.6761ZM98.3395 23.25C98.8698 23.25 99.3092 23.1098 99.6576 22.8295C100.006 22.5492 100.264 22.1761 100.43 21.7102C100.601 21.2443 100.686 20.7311 100.686 20.1705C100.686 19.6136 100.601 19.1023 100.43 18.6364C100.264 18.1667 100.006 17.7898 99.6576 17.5057C99.3092 17.2216 98.8698 17.0795 98.3395 17.0795C97.8054 17.0795 97.3622 17.2216 97.0099 17.5057C96.6614 17.7898 96.402 18.1667 96.2315 18.6364C96.0648 19.1023 95.9815 19.6136 95.9815 20.1705C95.9815 20.7311 96.0648 21.2443 96.2315 21.7102C96.402 22.1761 96.6614 22.5492 97.0099 22.8295C97.3622 23.1098 97.8054 23.25 98.3395 23.25ZM111.304 15.7727V24.5H109.645V15.7727H111.304ZM110.582 19.8239V21.2898C110.321 21.3958 110.044 21.4905 109.753 21.5739C109.461 21.6534 109.154 21.7159 108.832 21.7614C108.51 21.8068 108.175 21.8295 107.827 21.8295C106.747 21.8295 105.889 21.5663 105.253 21.0398C104.616 20.5095 104.298 19.6989 104.298 18.608V15.7557H105.952V18.608C105.952 19.0208 106.027 19.3561 106.179 19.6136C106.33 19.8712 106.546 20.0606 106.827 20.1818C107.107 20.303 107.44 20.3636 107.827 20.3636C108.338 20.3636 108.81 20.3163 109.241 20.2216C109.677 20.1231 110.124 19.9905 110.582 19.8239ZM114.842 18.7727H117.376C118.445 18.7727 119.267 19.0379 119.842 19.5682C120.418 20.0985 120.706 20.7822 120.706 21.6193C120.706 22.1648 120.577 22.6553 120.32 23.0909C120.062 23.5265 119.685 23.8712 119.189 24.125C118.693 24.375 118.089 24.5 117.376 24.5H113.564V15.7727H115.229V23.0341H117.376C117.865 23.0341 118.267 22.9072 118.581 22.6534C118.895 22.3958 119.053 22.0682 119.053 21.6705C119.053 21.25 118.895 20.9072 118.581 20.642C118.267 20.3731 117.865 20.2386 117.376 20.2386H114.842V18.7727ZM130.521 24.6761C129.677 24.6761 128.949 24.4848 128.339 24.1023C127.733 23.7159 127.267 23.1837 126.942 22.5057C126.616 21.8276 126.453 21.0511 126.453 20.1761C126.453 19.2898 126.62 18.5076 126.953 17.8295C127.286 17.1477 127.756 16.6155 128.362 16.233C128.968 15.8504 129.682 15.6591 130.504 15.6591C131.167 15.6591 131.758 15.7822 132.277 16.0284C132.796 16.2708 133.214 16.6117 133.533 17.0511C133.855 17.4905 134.046 18.0038 134.106 18.5909H132.453C132.362 18.1818 132.154 17.8295 131.828 17.5341C131.506 17.2386 131.074 17.0909 130.533 17.0909C130.059 17.0909 129.644 17.2159 129.288 17.4659C128.936 17.7121 128.661 18.0644 128.464 18.5227C128.267 18.9773 128.169 19.5151 128.169 20.1364C128.169 20.7727 128.266 21.322 128.459 21.7841C128.652 22.2462 128.925 22.6042 129.277 22.858C129.633 23.1117 130.052 23.2386 130.533 23.2386C130.855 23.2386 131.146 23.1799 131.408 23.0625C131.673 22.9413 131.894 22.7689 132.072 22.5455C132.254 22.322 132.381 22.053 132.453 21.7386H134.106C134.046 22.303 133.862 22.8068 133.555 23.25C133.249 23.6932 132.838 24.0417 132.322 24.2955C131.811 24.5492 131.211 24.6761 130.521 24.6761Z" fill="#E8E8E8"/>
<path d="M60.9357 43.5V34.2273H69.3089V43.5H66.5138V36.4851H63.6946V43.5H60.9357ZM75.5134 43.6751C74.5435 43.6751 73.7063 43.4839 73.002 43.1016C72.3017 42.7152 71.7624 42.1658 71.3841 41.4535C71.0098 40.7371 70.8227 39.8859 70.8227 38.8999C70.8227 37.942 71.0118 37.1049 71.3902 36.3885C71.7685 35.6681 72.3017 35.1087 72.9899 34.7102C73.6782 34.3078 74.4891 34.1065 75.4228 34.1065C76.0829 34.1065 76.6866 34.2092 77.2339 34.4144C77.7813 34.6197 78.2542 34.9235 78.6526 35.326C79.051 35.7285 79.3609 36.2255 79.5823 36.8171C79.8036 37.4047 79.9143 38.0788 79.9143 38.8395V39.576H71.855V37.8615H77.1675C77.1635 37.5476 77.089 37.2679 76.9441 37.0224C76.7993 36.7769 76.6 36.5857 76.3465 36.4489C76.097 36.308 75.8092 36.2376 75.4832 36.2376C75.1532 36.2376 74.8574 36.312 74.5958 36.4609C74.3342 36.6058 74.1269 36.805 73.974 37.0586C73.821 37.3081 73.7405 37.5919 73.7325 37.9098V39.6545C73.7325 40.0328 73.8069 40.3648 73.9559 40.6506C74.1048 40.9323 74.3161 41.1516 74.5897 41.3086C74.8634 41.4656 75.1894 41.544 75.5677 41.544C75.8293 41.544 76.0668 41.5078 76.2801 41.4354C76.4934 41.3629 76.6765 41.2563 76.8294 41.1154C76.9824 40.9745 77.0971 40.8015 77.1735 40.5962L79.8841 40.6747C79.7714 41.2824 79.5239 41.8117 79.1416 42.2624C78.7633 42.7092 78.2662 43.0573 77.6505 43.3068C77.0347 43.5523 76.3223 43.6751 75.5134 43.6751ZM81.422 46.9773V34.2273H84.3439V35.815H84.4345C84.5552 35.5333 84.7262 35.2616 84.9476 35C85.173 34.7384 85.4587 34.5251 85.8048 34.3601C86.155 34.191 86.5735 34.1065 87.0605 34.1065C87.7045 34.1065 88.3061 34.2756 88.8656 34.6136C89.429 34.9517 89.8838 35.4729 90.2299 36.1772C90.576 36.8815 90.7491 37.779 90.7491 38.8697C90.7491 39.9201 90.5821 40.7995 90.248 41.5078C89.918 42.2161 89.4713 42.7474 88.9078 43.1016C88.3484 43.4557 87.7266 43.6328 87.0424 43.6328C86.5756 43.6328 86.1711 43.5563 85.829 43.4034C85.4869 43.2505 85.1991 43.0492 84.9657 42.7997C84.7363 42.5502 84.5592 42.2825 84.4345 41.9968H84.3741V46.9773H81.422ZM84.3137 38.8636C84.3137 39.3627 84.3801 39.7973 84.5129 40.1676C84.6498 40.5379 84.845 40.8256 85.0985 41.0309C85.3561 41.2321 85.664 41.3327 86.0222 41.3327C86.3844 41.3327 86.6923 41.2321 86.9458 41.0309C87.1994 40.8256 87.3905 40.5379 87.5193 40.1676C87.6521 39.7973 87.7185 39.3627 87.7185 38.8636C87.7185 38.3646 87.6521 37.9319 87.5193 37.5657C87.3905 37.1995 87.1994 36.9157 86.9458 36.7145C86.6963 36.5133 86.3884 36.4126 86.0222 36.4126C85.66 36.4126 85.3521 36.5112 85.0985 36.7084C84.845 36.9057 84.6498 37.1874 84.5129 37.5536C84.3801 37.9199 84.3137 38.3565 84.3137 38.8636ZM96.6306 43.6751C95.6606 43.6751 94.8235 43.4839 94.1192 43.1016C93.4189 42.7152 92.8796 42.1658 92.5013 41.4535C92.127 40.7371 91.9399 39.8859 91.9399 38.8999C91.9399 37.942 92.129 37.1049 92.5073 36.3885C92.8857 35.6681 93.4189 35.1087 94.1071 34.7102C94.7953 34.3078 95.6063 34.1065 96.54 34.1065C97.2001 34.1065 97.8037 34.2092 98.3511 34.4144C98.8984 34.6197 99.3713 34.9235 99.7698 35.326C100.168 35.7285 100.478 36.2255 100.699 36.8171C100.921 37.4047 101.031 38.0788 101.031 38.8395V39.576H92.9722V37.8615H98.2847C98.2807 37.5476 98.2062 37.2679 98.0613 37.0224C97.9164 36.7769 97.7172 36.5857 97.4637 36.4489C97.2141 36.308 96.9264 36.2376 96.6004 36.2376C96.2704 36.2376 95.9746 36.312 95.713 36.4609C95.4514 36.6058 95.2441 36.805 95.0911 37.0586C94.9382 37.3081 94.8577 37.5919 94.8497 37.9098V39.6545C94.8497 40.0328 94.9241 40.3648 95.073 40.6506C95.2219 40.9323 95.4332 41.1516 95.7069 41.3086C95.9806 41.4656 96.3066 41.544 96.6849 41.544C96.9465 41.544 97.184 41.5078 97.3973 41.4354C97.6106 41.3629 97.7937 41.2563 97.9466 41.1154C98.0996 40.9745 98.2143 40.8015 98.2907 40.5962L101.001 40.6747C100.889 41.2824 100.641 41.8117 100.259 42.2624C99.8804 42.7092 99.3834 43.0573 98.7676 43.3068C98.1519 43.5523 97.4395 43.6751 96.6306 43.6751ZM102.539 43.5V34.2273H106.542C107.737 34.2273 108.679 34.4426 109.367 34.8732C110.059 35.2998 110.405 35.9257 110.405 36.7507C110.405 37.2296 110.21 37.6422 109.82 37.9883C109.433 38.3304 108.884 38.5618 108.172 38.6825C108.8 38.7147 109.321 38.8395 109.735 39.0568C110.15 39.2741 110.46 39.5498 110.665 39.8839C110.87 40.2179 110.973 40.5741 110.973 40.9524C110.973 41.4998 110.826 41.9626 110.532 42.3409C110.238 42.7192 109.808 43.007 109.24 43.2042C108.677 43.4014 107.985 43.5 107.164 43.5H102.539ZM105.286 41.3629H107.164C107.477 41.3629 107.723 41.2885 107.9 41.1396C108.081 40.9906 108.172 40.7854 108.172 40.5238C108.172 40.2421 108.081 40.0207 107.9 39.8597C107.723 39.6987 107.477 39.6182 107.164 39.6182H105.286V41.3629ZM105.286 38.0185H106.62C106.833 38.0185 107.017 37.9863 107.17 37.9219C107.322 37.8575 107.439 37.7649 107.52 37.6442C107.604 37.5234 107.646 37.3785 107.646 37.2095C107.646 36.964 107.548 36.7708 107.351 36.63C107.157 36.4891 106.888 36.4187 106.542 36.4187H105.286V38.0185ZM116.762 43.6751C115.788 43.6751 114.951 43.4758 114.251 43.0774C113.555 42.6749 113.017 42.1155 112.639 41.3991C112.265 40.6787 112.078 39.8436 112.078 38.8938C112.078 37.94 112.265 37.1049 112.639 36.3885C113.017 35.6681 113.555 35.1087 114.251 34.7102C114.951 34.3078 115.788 34.1065 116.762 34.1065C117.736 34.1065 118.571 34.3078 119.268 34.7102C119.968 35.1087 120.505 35.6681 120.879 36.3885C121.258 37.1049 121.447 37.94 121.447 38.8938C121.447 39.8436 121.258 40.6787 120.879 41.3991C120.505 42.1155 119.968 42.6749 119.268 43.0774C118.571 43.4758 117.736 43.6751 116.762 43.6751ZM116.78 41.4474C117.134 41.4474 117.434 41.3388 117.68 41.1214C117.925 40.9041 118.112 40.6023 118.241 40.2159C118.374 39.8295 118.44 39.3828 118.44 38.8757C118.44 38.3606 118.374 37.9098 118.241 37.5234C118.112 37.1371 117.925 36.8352 117.68 36.6179C117.434 36.4006 117.134 36.2919 116.78 36.2919C116.414 36.2919 116.104 36.4006 115.851 36.6179C115.601 36.8352 115.41 37.1371 115.277 37.5234C115.148 37.9098 115.084 38.3606 115.084 38.8757C115.084 39.3828 115.148 39.8295 115.277 40.2159C115.41 40.6023 115.601 40.9041 115.851 41.1214C116.104 41.3388 116.414 41.4474 116.78 41.4474ZM122.319 46.2347V41.2241H123.013C123.223 41.1194 123.39 40.9182 123.515 40.6204C123.639 40.3185 123.738 39.9664 123.81 39.5639C123.887 39.1574 123.943 38.7348 123.979 38.2962C124.02 37.8535 124.056 37.4369 124.088 37.0465L124.305 34.2273H131.815V41.2241H133.264V46.2347H130.463V43.5H125.193V46.2347H122.319ZM125.887 41.2241H129.062V36.4247H126.768L126.72 37.0465C126.664 38.0446 126.575 38.8817 126.455 39.5579C126.334 40.234 126.145 40.7894 125.887 41.2241ZM138.959 43.6751C137.985 43.6751 137.147 43.4758 136.447 43.0774C135.751 42.6749 135.214 42.1155 134.835 41.3991C134.461 40.6787 134.274 39.8436 134.274 38.8938C134.274 37.94 134.461 37.1049 134.835 36.3885C135.214 35.6681 135.751 35.1087 136.447 34.7102C137.147 34.3078 137.985 34.1065 138.959 34.1065C139.932 34.1065 140.768 34.3078 141.464 34.7102C142.164 35.1087 142.701 35.6681 143.076 36.3885C143.454 37.1049 143.643 37.94 143.643 38.8938C143.643 39.8436 143.454 40.6787 143.076 41.3991C142.701 42.1155 142.164 42.6749 141.464 43.0774C140.768 43.4758 139.932 43.6751 138.959 43.6751ZM138.977 41.4474C139.331 41.4474 139.631 41.3388 139.876 41.1214C140.122 40.9041 140.309 40.6023 140.438 40.2159C140.57 39.8295 140.637 39.3828 140.637 38.8757C140.637 38.3606 140.57 37.9098 140.438 37.5234C140.309 37.1371 140.122 36.8352 139.876 36.6179C139.631 36.4006 139.331 36.2919 138.977 36.2919C138.61 36.2919 138.3 36.4006 138.047 36.6179C137.797 36.8352 137.606 37.1371 137.473 37.5234C137.345 37.9098 137.28 38.3606 137.28 38.8757C137.28 39.3828 137.345 39.8295 137.473 40.2159C137.606 40.6023 137.797 40.9041 138.047 41.1214C138.3 41.3388 138.61 41.4474 138.977 41.4474ZM150.77 40.3487L153.04 34.2273H155.201L151.718 43.5H149.822L146.429 34.2273H148.584L150.77 40.3487ZM147.951 34.2273V43.5H145.155V34.2273H147.951ZM153.758 43.5V34.2273H156.517V43.5H153.758Z" fill="#F1F1F1"/>
</g>
<defs>
<filter id="filter0_d_680_133" x="6.28571" y="2.28571" width="51.4298" height="51.4286" filterUnits="userSpaceOnUse" color-interpolation-filters="sRGB">
<feFlood flood-opacity="0" result="BackgroundImageFix"/>
<feColorMatrix in="SourceAlpha" type="matrix" values="0 0 0 0 0 0 0 0 0 0 0 0 0 0 0 0 0 0 127 0" result="hardAlpha"/>
<feOffset/>
<feGaussianBlur stdDeviation="2.85714"/>
<feComposite in2="hardAlpha" operator="out"/>
<feColorMatrix type="matrix" values="0 0 0 0 0 0 0 0 0 0 0 0 0 0 0 0 0 0 0.25 0"/>
<feBlend mode="normal" in2="BackgroundImageFix" result="effect1_dropShadow_680_133"/>
<feBlend mode="normal" in="SourceGraphic" in2="effect1_dropShadow_680_133" result="shape"/>
</filter>
<filter id="filter1_d_680_133" x="54.4" y="3.9" width="109.2" height="48.6773" filterUnits="userSpaceOnUse" color-interpolation-filters="sRGB">
<feFlood flood-opacity="0" result="BackgroundImageFix"/>
<feColorMatrix in="SourceAlpha" type="matrix" values="0 0 0 0 0 0 0 0 0 0 0 0 0 0 0 0 0 0 127 0" result="hardAlpha"/>
<feOffset/>
<feGaussianBlur stdDeviation="2.8"/>
<feComposite in2="hardAlpha" operator="out"/>
<feColorMatrix type="matrix" values="0 0 0 0 0 0 0 0 0 0 0 0 0 0 0 0 0 0 0.25 0"/>
<feBlend mode="normal" in2="BackgroundImageFix" result="effect1_dropShadow_680_133"/>
<feBlend mode="normal" in="SourceGraphic" in2="effect1_dropShadow_680_133" result="shape"/>
</filter>
<linearGradient id="paint0_linear_680_133" x1="85" y1="0" x2="85" y2="56" gradientUnits="userSpaceOnUse">
<stop stop-color="#303030"/>
<stop offset="1" stop-color="#1D1D1D"/>
</linearGradient>
</defs>
</svg>
