<svg width="229" height="40" viewBox="0 0 229 40" fill="none" xmlns="http://www.w3.org/2000/svg">
<g clip-path="url(#clip0_686_23)">
<rect x="-9.15527e-05" y="0.0055542" width="229" height="40" rx="8" fill="url(#paint0_linear_686_23)"/>
<g filter="url(#filter0_d_686_23)">
<path d="M22.9469 27.9076C14.747 27.9076 10.07 22.2861 9.87512 12.9319H13.9825C14.1175 19.7977 17.1455 22.7058 19.544 23.3054V12.9319H23.4117V18.8532C25.7802 18.5984 28.2684 15.9001 29.1078 12.9319H32.9755C32.3309 16.5897 29.6326 19.2879 27.7138 20.3972C29.6326 21.2967 32.7059 23.6502 33.8751 27.9076H29.6177C28.7032 25.0593 26.4248 22.8557 23.4117 22.5559V27.9076H22.9469Z" fill="white"/>
</g>
<g filter="url(#filter1_d_686_23)">
<path d="M42.4225 29.4938V24.9239H43.2375C43.5152 24.6904 43.7748 24.3584 44.0162 23.9278C44.2577 23.4971 44.463 22.9156 44.632 22.1831C44.801 21.4506 44.9178 20.5109 44.9822 19.3639L45.2719 14.1419H52.8966V24.9239H54.2971V29.4757H52.5102V26.5055H44.2094V29.4938H42.4225ZM45.4349 24.9239H51.1096V15.7477H46.9623L46.7691 19.3639C46.7168 20.2372 46.6302 21.022 46.5095 21.7183C46.3928 22.4145 46.2419 23.0303 46.0567 23.5656C45.8756 24.0968 45.6683 24.5496 45.4349 24.9239ZM60.1016 26.6927C59.2323 26.6927 58.4737 26.4935 57.8257 26.095C57.1778 25.6966 56.6747 25.1392 56.3165 24.4228C55.9583 23.7064 55.7792 22.8693 55.7792 21.9114C55.7792 20.9496 55.9583 20.1084 56.3165 19.388C56.6747 18.6676 57.1778 18.1082 57.8257 17.7097C58.4737 17.3113 59.2323 17.1121 60.1016 17.1121C60.971 17.1121 61.7296 17.3113 62.3776 17.7097C63.0255 18.1082 63.5286 18.6676 63.8868 19.388C64.245 20.1084 64.4241 20.9496 64.4241 21.9114C64.4241 22.8693 64.245 23.7064 63.8868 24.4228C63.5286 25.1392 63.0255 25.6966 62.3776 26.095C61.7296 26.4935 60.971 26.6927 60.1016 26.6927ZM60.1077 25.1774C60.6711 25.1774 61.138 25.0285 61.5082 24.7307C61.8785 24.4329 62.1522 24.0364 62.3293 23.5414C62.5104 23.0464 62.6009 22.5011 62.6009 21.9054C62.6009 21.3138 62.5104 20.7705 62.3293 20.2754C62.1522 19.7764 61.8785 19.3759 61.5082 19.0741C61.138 18.7722 60.6711 18.6213 60.1077 18.6213C59.5402 18.6213 59.0693 18.7722 58.695 19.0741C58.3248 19.3759 58.0491 19.7764 57.868 20.2754C57.6909 20.7705 57.6024 21.3138 57.6024 21.9054C57.6024 22.5011 57.6909 23.0464 57.868 23.5414C58.0491 24.0364 58.3248 24.4329 58.695 24.7307C59.0693 25.0285 59.5402 25.1774 60.1077 25.1774ZM70.3448 26.6927C69.4473 26.6927 68.6746 26.4895 68.0266 26.083C67.3827 25.6725 66.8877 25.107 66.5415 24.3866C66.1954 23.6662 66.0224 22.8411 66.0224 21.9114C66.0224 20.9697 66.1994 20.1386 66.5536 19.4182C66.9078 18.6938 67.4068 18.1283 68.0508 17.7218C68.6947 17.3153 69.4534 17.1121 70.3267 17.1121C71.031 17.1121 71.6588 17.2429 72.2102 17.5045C72.7616 17.7621 73.2063 18.1243 73.5444 18.5911C73.8865 19.058 74.0897 19.6033 74.1541 20.2271H72.3974C72.3008 19.7925 72.0794 19.4182 71.7333 19.1043C71.3912 18.7904 70.9324 18.6334 70.3569 18.6334C69.8538 18.6334 69.4131 18.7662 69.0348 19.0318C68.6605 19.2934 68.3687 19.6677 68.1594 20.1547C67.9502 20.6377 67.8455 21.2091 67.8455 21.8692C67.8455 22.5453 67.9481 23.1289 68.1534 23.6199C68.3587 24.1109 68.6484 24.4912 69.0227 24.7609C69.401 25.0305 69.8458 25.1654 70.3569 25.1654C70.699 25.1654 71.0089 25.103 71.2866 24.9782C71.5683 24.8494 71.8037 24.6663 71.9929 24.4288C72.1861 24.1914 72.3209 23.9056 72.3974 23.5716H74.1541C74.0897 24.1713 73.8945 24.7065 73.5685 25.1774C73.2425 25.6483 72.8059 26.0186 72.2585 26.2882C71.7152 26.5579 71.0773 26.6927 70.3448 26.6927ZM75.3826 18.7904V17.2328H83.2065V18.7904H80.182V26.5055H78.4192V18.7904H75.3826ZM86.2566 29.9828C85.987 29.9828 85.7415 29.9607 85.5201 29.9164C85.2988 29.8762 85.1338 29.8319 85.0251 29.7836L85.4598 28.3046C85.7898 28.3931 86.0836 28.4313 86.3412 28.4193C86.5987 28.4072 86.8261 28.3106 87.0233 28.1295C87.2246 27.9484 87.4016 27.6526 87.5546 27.2421L87.7779 26.6263L84.3852 17.2328H86.317L88.6654 24.4288H88.762L91.1103 17.2328H93.0482L89.2268 27.7431C89.0497 28.2261 88.8244 28.6346 88.5507 28.9686C88.277 29.3067 87.951 29.5602 87.5727 29.7293C87.1944 29.8983 86.7557 29.9828 86.2566 29.9828ZM94.7446 26.5055V17.2328H102.309V26.5055H100.54V18.7904H96.5013V26.5055H94.7446ZM108.719 26.6927C107.805 26.6927 107.018 26.4975 106.358 26.1071C105.702 25.7127 105.195 25.1593 104.837 24.447C104.483 23.7306 104.306 22.8914 104.306 21.9296C104.306 20.9797 104.483 20.1426 104.837 19.4182C105.195 18.6938 105.694 18.1283 106.334 17.7218C106.978 17.3153 107.731 17.1121 108.592 17.1121C109.115 17.1121 109.622 17.1986 110.113 17.3717C110.604 17.5447 111.045 17.8164 111.435 18.1867C111.826 18.5569 112.133 19.0379 112.359 19.6295C112.584 20.2171 112.697 20.9315 112.697 21.7726V22.4125H105.326V21.0602H110.928C110.928 20.5853 110.831 20.1648 110.638 19.7985C110.445 19.4283 110.173 19.1365 109.823 18.9232C109.477 18.7099 109.071 18.6032 108.604 18.6032C108.097 18.6032 107.654 18.728 107.276 18.9775C106.901 19.223 106.612 19.545 106.406 19.9434C106.205 20.3378 106.105 20.7664 106.105 21.2293V22.2857C106.105 22.9055 106.213 23.4328 106.431 23.8674C106.652 24.3021 106.96 24.6341 107.354 24.8635C107.749 25.0889 108.209 25.2016 108.737 25.2016C109.079 25.2016 109.391 25.1533 109.672 25.0567C109.954 24.9561 110.198 24.8072 110.403 24.61C110.608 24.4127 110.765 24.1693 110.874 23.8795L112.582 24.1874C112.445 24.6904 112.2 25.1311 111.846 25.5095C111.496 25.8837 111.055 26.1755 110.524 26.3848C109.996 26.5901 109.395 26.6927 108.719 26.6927ZM120.984 21.0904V22.654H115.961V21.0904H120.984ZM116.468 17.2328V26.5055H114.7V17.2328H116.468ZM122.246 17.2328V26.5055H120.483V17.2328H122.246Z" fill="#E8E8E8"/>
<path d="M128.936 26.0055V13.6419H134.091C135.017 13.6419 135.792 13.7727 136.415 14.0343C137.043 14.2959 137.514 14.6622 137.828 15.133C138.146 15.6039 138.305 16.1493 138.305 16.769C138.305 17.2399 138.206 17.6605 138.009 18.0308C137.812 18.397 137.54 18.7009 137.194 18.9423C136.848 19.1838 136.448 19.3529 135.993 19.4494V19.5702C136.492 19.5943 136.953 19.7292 137.375 19.9747C137.802 20.2202 138.144 20.5623 138.402 21.0009C138.659 21.4356 138.788 21.9507 138.788 22.5464C138.788 23.2105 138.619 23.8041 138.281 24.3273C137.943 24.8465 137.454 25.257 136.814 25.5588C136.174 25.8566 135.397 26.0055 134.484 26.0055H128.936ZM131.924 23.5968H133.771C134.419 23.5968 134.896 23.4741 135.202 23.2286C135.512 22.9831 135.667 22.641 135.667 22.2023C135.667 21.8843 135.592 21.6107 135.443 21.3813C135.295 21.1478 135.083 20.9687 134.81 20.844C134.536 20.7152 134.208 20.6508 133.826 20.6508H131.924V23.5968ZM131.924 18.725H133.578C133.904 18.725 134.194 18.6707 134.447 18.562C134.701 18.4534 134.898 18.2964 135.039 18.0911C135.184 17.8859 135.256 17.6384 135.256 17.3486C135.256 16.9341 135.109 16.6081 134.816 16.3706C134.522 16.1332 134.125 16.0144 133.626 16.0144H131.924V18.725ZM147.777 26.0055L143.889 20.8742H143.213V26.0055H140.225V13.6419H143.213V18.4413H143.69L147.517 13.6419H151.254L146.491 19.4796L151.502 26.0055H147.777ZM156.241 26.1806C155.267 26.1806 154.43 25.9814 153.729 25.583C153.033 25.1805 152.496 24.6211 152.117 23.9047C151.743 23.1843 151.556 22.3492 151.556 21.3994C151.556 20.4455 151.743 19.6104 152.117 18.894C152.496 18.1736 153.033 17.6142 153.729 17.2158C154.43 16.8133 155.267 16.6121 156.241 16.6121C157.215 16.6121 158.05 16.8133 158.746 17.2158C159.446 17.6142 159.984 18.1736 160.358 18.894C160.736 19.6104 160.925 20.4455 160.925 21.3994C160.925 22.3492 160.736 23.1843 160.358 23.9047C159.984 24.6211 159.446 25.1805 158.746 25.583C158.05 25.9814 157.215 26.1806 156.241 26.1806ZM156.259 23.953C156.613 23.953 156.913 23.8443 157.158 23.627C157.404 23.4097 157.591 23.1078 157.72 22.7215C157.852 22.3351 157.919 21.8884 157.919 21.3813C157.919 20.8661 157.852 20.4154 157.72 20.029C157.591 19.6426 157.404 19.3408 157.158 19.1234C156.913 18.9061 156.613 18.7975 156.259 18.7975C155.893 18.7975 155.583 18.9061 155.329 19.1234C155.08 19.3408 154.888 19.6426 154.756 20.029C154.627 20.4154 154.562 20.8661 154.562 21.3813C154.562 21.8884 154.627 22.3351 154.756 22.7215C154.888 23.1078 155.08 23.4097 155.329 23.627C155.583 23.8443 155.893 23.953 156.259 23.953ZM168.976 20.2161V22.4679H164.218V20.2161H168.976ZM165.233 16.7328V26.0055H162.438V16.7328H165.233ZM170.756 16.7328V26.0055H167.979V16.7328H170.756ZM171.728 18.9906V16.7328H180.422V18.9906H177.457V26.0055H174.656V18.9906H171.728ZM184.16 26.1625C183.568 26.1625 183.043 26.0639 182.584 25.8667C182.13 25.6655 181.769 25.3636 181.504 24.9612C181.242 24.5547 181.111 24.0456 181.111 23.4338C181.111 22.9187 181.202 22.484 181.383 22.1298C181.564 21.7757 181.814 21.4879 182.132 21.2666C182.449 21.0452 182.816 20.8782 183.23 20.7655C183.645 20.6488 184.087 20.5703 184.558 20.5301C185.086 20.4818 185.51 20.4315 185.832 20.3791C186.154 20.3228 186.388 20.2443 186.532 20.1437C186.681 20.0391 186.756 19.8922 186.756 19.703V19.6728C186.756 19.3629 186.649 19.1234 186.436 18.9544C186.223 18.7854 185.935 18.7009 185.573 18.7009C185.182 18.7009 184.868 18.7854 184.631 18.9544C184.393 19.1234 184.242 19.3569 184.178 19.6547L181.455 19.5581C181.536 18.9947 181.743 18.4916 182.077 18.0489C182.415 17.6021 182.878 17.252 183.466 16.9984C184.057 16.7409 184.768 16.6121 185.597 16.6121C186.188 16.6121 186.734 16.6825 187.233 16.8234C187.732 16.9602 188.166 17.1614 188.537 17.4271C188.907 17.6887 189.193 18.0106 189.394 18.393C189.599 18.7753 189.702 19.212 189.702 19.703V26.0055H186.925V24.7136H186.852C186.687 25.0276 186.476 25.2932 186.219 25.5105C185.965 25.7279 185.665 25.8908 185.319 25.9995C184.977 26.1082 184.591 26.1625 184.16 26.1625ZM185.072 24.2307C185.389 24.2307 185.675 24.1663 185.929 24.0375C186.186 23.9087 186.392 23.7316 186.545 23.5063C186.697 23.2769 186.774 23.0112 186.774 22.7094V21.828C186.689 21.8723 186.587 21.9125 186.466 21.9487C186.349 21.985 186.221 22.0192 186.08 22.0514C185.939 22.0836 185.794 22.1117 185.645 22.1359C185.496 22.16 185.353 22.1822 185.216 22.2023C184.939 22.2466 184.701 22.315 184.504 22.4075C184.311 22.5001 184.162 22.6208 184.057 22.7698C183.957 22.9146 183.906 23.0877 183.906 23.2889C183.906 23.5948 184.015 23.8282 184.232 23.9892C184.454 24.1502 184.733 24.2307 185.072 24.2307ZM191.507 26.0055V16.7328H194.459V20.1859H195.111L197.363 16.7328H200.78L197.659 21.3752L200.81 26.0055H197.351L195.316 22.9267H194.459V26.0055H191.507ZM201.263 18.9906V16.7328H209.956V18.9906H206.992V26.0055H204.19V18.9906H201.263ZM215.415 26.1806C214.445 26.1806 213.608 25.9895 212.903 25.6071C212.203 25.2207 211.664 24.6714 211.285 23.959C210.911 23.2426 210.724 22.3914 210.724 21.4054C210.724 20.4475 210.913 19.6104 211.291 18.894C211.67 18.1736 212.203 17.6142 212.891 17.2158C213.579 16.8133 214.39 16.6121 215.324 16.6121C215.984 16.6121 216.588 16.7147 217.135 16.92C217.682 17.1252 218.155 17.4291 218.554 17.8315C218.952 18.234 219.262 18.731 219.484 19.3227C219.705 19.9103 219.816 20.5844 219.816 21.345V22.0815H211.756V20.3671H217.069C217.065 20.0531 216.99 19.7734 216.845 19.5279C216.7 19.2824 216.501 19.0913 216.248 18.9544C215.998 18.8136 215.71 18.7431 215.384 18.7431C215.054 18.7431 214.759 18.8176 214.497 18.9665C214.235 19.1114 214.028 19.3106 213.875 19.5641C213.722 19.8137 213.642 20.0974 213.634 20.4154V22.16C213.634 22.5383 213.708 22.8704 213.857 23.1561C214.006 23.4378 214.217 23.6572 214.491 23.8141C214.765 23.9711 215.091 24.0496 215.469 24.0496C215.731 24.0496 215.968 24.0134 216.181 23.9409C216.395 23.8685 216.578 23.7618 216.731 23.621C216.884 23.4801 216.998 23.307 217.075 23.1018L219.785 23.1803C219.673 23.788 219.425 24.3172 219.043 24.768C218.665 25.2147 218.167 25.5628 217.552 25.8124C216.936 26.0579 216.224 26.1806 215.415 26.1806Z" fill="white"/>
</g>
</g>
<rect x="1.04991" y="1.05555" width="226.9" height="37.9" rx="6.95" stroke="white" stroke-opacity="0.15" stroke-width="2.1"/>
<defs>
<filter id="filter0_d_686_23" x="2.16084" y="0.291269" width="39.5534" height="39.8428" filterUnits="userSpaceOnUse" color-interpolation-filters="sRGB">
<feFlood flood-opacity="0" result="BackgroundImageFix"/>
<feColorMatrix in="SourceAlpha" type="matrix" values="0 0 0 0 0 0 0 0 0 0 0 0 0 0 0 0 0 0 127 0" result="hardAlpha"/>
<feOffset/>
<feGaussianBlur stdDeviation="2.85714"/>
<feComposite in2="hardAlpha" operator="out"/>
<feColorMatrix type="matrix" values="0 0 0 0 0 0 0 0 0 0 0 0 0 0 0 0 0 0 0.25 0"/>
<feBlend mode="normal" in2="BackgroundImageFix" result="effect1_dropShadow_686_23"/>
<feBlend mode="normal" in="SourceGraphic" in2="effect1_dropShadow_686_23" result="shape"/>
</filter>
<filter id="filter1_d_686_23" x="36.3999" y="3.90555" width="190.2" height="32.2" filterUnits="userSpaceOnUse" color-interpolation-filters="sRGB">
<feFlood flood-opacity="0" result="BackgroundImageFix"/>
<feColorMatrix in="SourceAlpha" type="matrix" values="0 0 0 0 0 0 0 0 0 0 0 0 0 0 0 0 0 0 127 0" result="hardAlpha"/>
<feOffset/>
<feGaussianBlur stdDeviation="2.8"/>
<feComposite in2="hardAlpha" operator="out"/>
<feColorMatrix type="matrix" values="0 0 0 0 0 0 0 0 0 0 0 0 0 0 0 0 0 0 0.25 0"/>
<feBlend mode="normal" in2="BackgroundImageFix" result="effect1_dropShadow_686_23"/>
<feBlend mode="normal" in="SourceGraphic" in2="effect1_dropShadow_686_23" result="shape"/>
</filter>
<linearGradient id="paint0_linear_686_23" x1="114.5" y1="0.0055542" x2="114.5" y2="40.0055" gradientUnits="userSpaceOnUse">
<stop stop-color="#005FCC"/>
<stop offset="1" stop-color="#0C305A"/>
</linearGradient>
<clipPath id="clip0_686_23">
<rect x="-9.15527e-05" y="0.0055542" width="229" height="40" rx="8" fill="white"/>
</clipPath>
</defs>
</svg>
