<svg width="229" height="40" viewBox="0 0 229 40" fill="none" xmlns="http://www.w3.org/2000/svg">
<g clip-path="url(#clip0_686_23)">
<rect x="-9.15527e-05" y="0.0027771" width="229" height="40" rx="8" fill="url(#paint0_linear_686_23)"/>
<g filter="url(#filter0_d_686_23)">
<path d="M22.9469 27.9048C14.747 27.9048 10.07 22.2833 9.87512 12.9292H13.9825C14.1175 19.7949 17.1455 22.703 19.544 23.3027V12.9292H23.4117V18.8504C25.7802 18.5956 28.2684 15.8973 29.1078 12.9292H32.9755C32.3309 16.5869 29.6326 19.2852 27.7138 20.3945C29.6326 21.2939 32.7059 23.6474 33.8751 27.9048H29.6177C28.7032 25.0566 26.4248 22.8529 23.4117 22.5531V27.9048H22.9469Z" fill="white"/>
</g>
<g filter="url(#filter1_d_686_23)">
<path d="M42.4225 29.4911V24.9211H43.2375C43.5152 24.6877 43.7748 24.3556 44.0162 23.925C44.2577 23.4944 44.463 22.9128 44.632 22.1803C44.801 21.4478 44.9178 20.5081 44.9822 19.3611L45.2719 14.1391H52.8966V24.9211H54.2971V29.4729H52.5102V26.5028H44.2094V29.4911H42.4225ZM45.4349 24.9211H51.1096V15.745H46.9623L46.7691 19.3611C46.7168 20.2344 46.6302 21.0192 46.5095 21.7155C46.3928 22.4117 46.2419 23.0275 46.0567 23.5628C45.8756 24.094 45.6683 24.5468 45.4349 24.9211ZM60.1016 26.6899C59.2323 26.6899 58.4737 26.4907 57.8257 26.0923C57.1778 25.6938 56.6747 25.1364 56.3165 24.42C55.9583 23.7036 55.7792 22.8665 55.7792 21.9087C55.7792 20.9468 55.9583 20.1056 56.3165 19.3852C56.6747 18.6648 57.1778 18.1054 57.8257 17.707C58.4737 17.3085 59.2323 17.1093 60.1016 17.1093C60.971 17.1093 61.7296 17.3085 62.3776 17.707C63.0255 18.1054 63.5286 18.6648 63.8868 19.3852C64.245 20.1056 64.4241 20.9468 64.4241 21.9087C64.4241 22.8665 64.245 23.7036 63.8868 24.42C63.5286 25.1364 63.0255 25.6938 62.3776 26.0923C61.7296 26.4907 60.971 26.6899 60.1016 26.6899ZM60.1077 25.1746C60.6711 25.1746 61.138 25.0257 61.5082 24.7279C61.8785 24.4301 62.1522 24.0337 62.3293 23.5386C62.5104 23.0436 62.6009 22.4983 62.6009 21.9026C62.6009 21.311 62.5104 20.7677 62.3293 20.2727C62.1522 19.7736 61.8785 19.3732 61.5082 19.0713C61.138 18.7695 60.6711 18.6185 60.1077 18.6185C59.5402 18.6185 59.0693 18.7695 58.695 19.0713C58.3248 19.3732 58.0491 19.7736 57.868 20.2727C57.6909 20.7677 57.6024 21.311 57.6024 21.9026C57.6024 22.4983 57.6909 23.0436 57.868 23.5386C58.0491 24.0337 58.3248 24.4301 58.695 24.7279C59.0693 25.0257 59.5402 25.1746 60.1077 25.1746ZM70.3448 26.6899C69.4473 26.6899 68.6746 26.4867 68.0266 26.0802C67.3827 25.6697 66.8877 25.1042 66.5415 24.3838C66.1954 23.6634 66.0224 22.8384 66.0224 21.9087C66.0224 20.9669 66.1994 20.1358 66.5536 19.4154C66.9078 18.691 67.4068 18.1255 68.0508 17.719C68.6947 17.3126 69.4534 17.1093 70.3267 17.1093C71.031 17.1093 71.6588 17.2401 72.2102 17.5017C72.7616 17.7593 73.2063 18.1215 73.5444 18.5884C73.8865 19.0552 74.0897 19.6005 74.1541 20.2244H72.3974C72.3008 19.7897 72.0794 19.4154 71.7333 19.1015C71.3912 18.7876 70.9324 18.6306 70.3569 18.6306C69.8538 18.6306 69.4131 18.7634 69.0348 19.0291C68.6605 19.2907 68.3687 19.6649 68.1594 20.1519C67.9502 20.6349 67.8455 21.2064 67.8455 21.8664C67.8455 22.5425 67.9481 23.1261 68.1534 23.6171C68.3587 24.1081 68.6484 24.4884 69.0227 24.7581C69.401 25.0277 69.8458 25.1626 70.3569 25.1626C70.699 25.1626 71.0089 25.1002 71.2866 24.9754C71.5683 24.8466 71.8037 24.6635 71.9929 24.4261C72.1861 24.1886 72.3209 23.9029 72.3974 23.5688H74.1541C74.0897 24.1685 73.8945 24.7038 73.5685 25.1746C73.2425 25.6455 72.8059 26.0158 72.2585 26.2854C71.7152 26.5551 71.0773 26.6899 70.3448 26.6899ZM75.3826 18.7876V17.23H83.2065V18.7876H80.182V26.5028H78.4192V18.7876H75.3826ZM86.2566 29.98C85.987 29.98 85.7415 29.9579 85.5201 29.9136C85.2988 29.8734 85.1338 29.8291 85.0251 29.7808L85.4598 28.3018C85.7898 28.3903 86.0836 28.4286 86.3412 28.4165C86.5987 28.4044 86.8261 28.3078 87.0233 28.1267C87.2246 27.9456 87.4016 27.6498 87.5546 27.2393L87.7779 26.6235L84.3852 17.23H86.317L88.6654 24.4261H88.762L91.1103 17.23H93.0482L89.2268 27.7403C89.0497 28.2233 88.8244 28.6318 88.5507 28.9658C88.277 29.3039 87.951 29.5575 87.5727 29.7265C87.1944 29.8955 86.7557 29.98 86.2566 29.98ZM94.7446 26.5028V17.23H102.309V26.5028H100.54V18.7876H96.5013V26.5028H94.7446ZM108.719 26.6899C107.805 26.6899 107.018 26.4947 106.358 26.1043C105.702 25.7099 105.195 25.1565 104.837 24.4442C104.483 23.7278 104.306 22.8887 104.306 21.9268C104.306 20.977 104.483 20.1398 104.837 19.4154C105.195 18.691 105.694 18.1255 106.334 17.719C106.978 17.3126 107.731 17.1093 108.592 17.1093C109.115 17.1093 109.622 17.1958 110.113 17.3689C110.604 17.542 111.045 17.8136 111.435 18.1839C111.826 18.5541 112.133 19.0351 112.359 19.6267C112.584 20.2143 112.697 20.9287 112.697 21.7698V22.4097H105.326V21.0575H110.928C110.928 20.5826 110.831 20.162 110.638 19.7957C110.445 19.4255 110.173 19.1337 109.823 18.9204C109.477 18.7071 109.071 18.6004 108.604 18.6004C108.097 18.6004 107.654 18.7252 107.276 18.9747C106.901 19.2202 106.612 19.5422 106.406 19.9406C106.205 20.335 106.105 20.7637 106.105 21.2265V22.283C106.105 22.9027 106.213 23.43 106.431 23.8646C106.652 24.2993 106.96 24.6313 107.354 24.8607C107.749 25.0861 108.209 25.1988 108.737 25.1988C109.079 25.1988 109.391 25.1505 109.672 25.0539C109.954 24.9533 110.198 24.8044 110.403 24.6072C110.608 24.41 110.765 24.1665 110.874 23.8767L112.582 24.1846C112.445 24.6877 112.2 25.1284 111.846 25.5067C111.496 25.881 111.055 26.1728 110.524 26.382C109.996 26.5873 109.395 26.6899 108.719 26.6899ZM120.984 21.0876V22.6512H115.961V21.0876H120.984ZM116.468 17.23V26.5028H114.7V17.23H116.468ZM122.246 17.23V26.5028H120.483V17.23H122.246Z" fill="#E8E8E8"/>
<path d="M128.936 26.0028V13.6391H134.091C135.017 13.6391 135.792 13.7699 136.415 14.0315C137.043 14.2931 137.514 14.6594 137.828 15.1303C138.146 15.6011 138.305 16.1465 138.305 16.7663C138.305 17.2372 138.206 17.6577 138.009 18.028C137.812 18.3942 137.54 18.6981 137.194 18.9396C136.848 19.181 136.448 19.3501 135.993 19.4467V19.5674C136.492 19.5916 136.953 19.7264 137.375 19.9719C137.802 20.2174 138.144 20.5595 138.402 20.9982C138.659 21.4328 138.788 21.948 138.788 22.5436C138.788 23.2077 138.619 23.8013 138.281 24.3245C137.943 24.8437 137.454 25.2542 136.814 25.556C136.174 25.8539 135.397 26.0028 134.484 26.0028H128.936ZM131.924 23.594H133.771C134.419 23.594 134.896 23.4713 135.202 23.2258C135.512 22.9803 135.667 22.6382 135.667 22.1995C135.667 21.8816 135.592 21.6079 135.443 21.3785C135.295 21.1451 135.083 20.966 134.81 20.8412C134.536 20.7124 134.208 20.648 133.826 20.648H131.924V23.594ZM131.924 18.7222H133.578C133.904 18.7222 134.194 18.6679 134.447 18.5592C134.701 18.4506 134.898 18.2936 135.039 18.0884C135.184 17.8831 135.256 17.6356 135.256 17.3458C135.256 16.9313 135.109 16.6053 134.816 16.3678C134.522 16.1304 134.125 16.0117 133.626 16.0117H131.924V18.7222ZM147.777 26.0028L143.889 20.8714H143.213V26.0028H140.225V13.6391H143.213V18.4385H143.69L147.517 13.6391H151.254L146.491 19.4769L151.502 26.0028H147.777ZM156.241 26.1778C155.267 26.1778 154.43 25.9786 153.729 25.5802C153.033 25.1777 152.496 24.6183 152.117 23.9019C151.743 23.1815 151.556 22.3464 151.556 21.3966C151.556 20.4428 151.743 19.6077 152.117 18.8913C152.496 18.1709 153.033 17.6114 153.729 17.213C154.43 16.8105 155.267 16.6093 156.241 16.6093C157.215 16.6093 158.05 16.8105 158.746 17.213C159.446 17.6114 159.984 18.1709 160.358 18.8913C160.736 19.6077 160.925 20.4428 160.925 21.3966C160.925 22.3464 160.736 23.1815 160.358 23.9019C159.984 24.6183 159.446 25.1777 158.746 25.5802C158.05 25.9786 157.215 26.1778 156.241 26.1778ZM156.259 23.9502C156.613 23.9502 156.913 23.8416 157.158 23.6242C157.404 23.4069 157.591 23.105 157.72 22.7187C157.852 22.3323 157.919 21.8856 157.919 21.3785C157.919 20.8633 157.852 20.4126 157.72 20.0262C157.591 19.6398 157.404 19.338 157.158 19.1207C156.913 18.9033 156.613 18.7947 156.259 18.7947C155.893 18.7947 155.583 18.9033 155.329 19.1207C155.08 19.338 154.888 19.6398 154.756 20.0262C154.627 20.4126 154.562 20.8633 154.562 21.3785C154.562 21.8856 154.627 22.3323 154.756 22.7187C154.888 23.105 155.08 23.4069 155.329 23.6242C155.583 23.8416 155.893 23.9502 156.259 23.9502ZM168.976 20.2134V22.4651H164.218V20.2134H168.976ZM165.233 16.73V26.0028H162.438V16.73H165.233ZM170.756 16.73V26.0028H167.979V16.73H170.756ZM171.728 18.9879V16.73H180.422V18.9879H177.457V26.0028H174.656V18.9879H171.728ZM184.16 26.1597C183.568 26.1597 183.043 26.0611 182.584 25.8639C182.13 25.6627 181.769 25.3608 181.504 24.9584C181.242 24.5519 181.111 24.0428 181.111 23.431C181.111 22.9159 181.202 22.4812 181.383 22.1271C181.564 21.7729 181.814 21.4851 182.132 21.2638C182.449 21.0424 182.816 20.8754 183.23 20.7627C183.645 20.646 184.087 20.5675 184.558 20.5273C185.086 20.479 185.51 20.4287 185.832 20.3764C186.154 20.32 186.388 20.2415 186.532 20.1409C186.681 20.0363 186.756 19.8894 186.756 19.7002V19.67C186.756 19.3601 186.649 19.1207 186.436 18.9516C186.223 18.7826 185.935 18.6981 185.573 18.6981C185.182 18.6981 184.868 18.7826 184.631 18.9516C184.393 19.1207 184.242 19.3541 184.178 19.6519L181.455 19.5553C181.536 18.9919 181.743 18.4888 182.077 18.0461C182.415 17.5994 182.878 17.2492 183.466 16.9957C184.057 16.7381 184.768 16.6093 185.597 16.6093C186.188 16.6093 186.734 16.6797 187.233 16.8206C187.732 16.9574 188.166 17.1587 188.537 17.4243C188.907 17.6859 189.193 18.0079 189.394 18.3902C189.599 18.7725 189.702 19.2092 189.702 19.7002V26.0028H186.925V24.7109H186.852C186.687 25.0248 186.476 25.2904 186.219 25.5077C185.965 25.7251 185.665 25.8881 185.319 25.9967C184.977 26.1054 184.591 26.1597 184.16 26.1597ZM185.072 24.2279C185.389 24.2279 185.675 24.1635 185.929 24.0347C186.186 23.9059 186.392 23.7289 186.545 23.5035C186.697 23.2741 186.774 23.0085 186.774 22.7066V21.8252C186.689 21.8695 186.587 21.9097 186.466 21.946C186.349 21.9822 186.221 22.0164 186.08 22.0486C185.939 22.0808 185.794 22.109 185.645 22.1331C185.496 22.1572 185.353 22.1794 185.216 22.1995C184.939 22.2438 184.701 22.3122 184.504 22.4048C184.311 22.4973 184.162 22.6181 184.057 22.767C183.957 22.9119 183.906 23.0849 183.906 23.2862C183.906 23.592 184.015 23.8255 184.232 23.9864C184.454 24.1474 184.733 24.2279 185.072 24.2279ZM191.507 26.0028V16.73H194.459V20.1832H195.111L197.363 16.73H200.78L197.659 21.3724L200.81 26.0028H197.351L195.316 22.9239H194.459V26.0028H191.507ZM201.263 18.9879V16.73H209.956V18.9879H206.992V26.0028H204.19V18.9879H201.263ZM215.415 26.1778C214.445 26.1778 213.608 25.9867 212.903 25.6043C212.203 25.218 211.664 24.6686 211.285 23.9563C210.911 23.2399 210.724 22.3887 210.724 21.4026C210.724 20.4448 210.913 19.6077 211.291 18.8913C211.67 18.1709 212.203 17.6114 212.891 17.213C213.579 16.8105 214.39 16.6093 215.324 16.6093C215.984 16.6093 216.588 16.7119 217.135 16.9172C217.682 17.1224 218.155 17.4263 218.554 17.8288C218.952 18.2312 219.262 18.7283 219.484 19.3199C219.705 19.9075 219.816 20.5816 219.816 21.3423V22.0788H211.756V20.3643H217.069C217.065 20.0504 216.99 19.7706 216.845 19.5251C216.7 19.2796 216.501 19.0885 216.248 18.9516C215.998 18.8108 215.71 18.7403 215.384 18.7403C215.054 18.7403 214.759 18.8148 214.497 18.9637C214.235 19.1086 214.028 19.3078 213.875 19.5614C213.722 19.8109 213.642 20.0946 213.634 20.4126V22.1572C213.634 22.5356 213.708 22.8676 213.857 23.1533C214.006 23.4351 214.217 23.6544 214.491 23.8114C214.765 23.9683 215.091 24.0468 215.469 24.0468C215.731 24.0468 215.968 24.0106 216.181 23.9381C216.395 23.8657 216.578 23.759 216.731 23.6182C216.884 23.4773 216.998 23.3043 217.075 23.099L219.785 23.1775C219.673 23.7852 219.425 24.3144 219.043 24.7652C218.665 25.2119 218.167 25.5601 217.552 25.8096C216.936 26.0551 216.224 26.1778 215.415 26.1778Z" fill="white"/>
</g>
</g>
<rect x="1.04991" y="1.05278" width="226.9" height="37.9" rx="6.95" stroke="white" stroke-opacity="0.15" stroke-width="2.1"/>
<defs>
<filter id="filter0_d_686_23" x="2.16084" y="0.288492" width="39.5534" height="39.8428" filterUnits="userSpaceOnUse" color-interpolation-filters="sRGB">
<feFlood flood-opacity="0" result="BackgroundImageFix"/>
<feColorMatrix in="SourceAlpha" type="matrix" values="0 0 0 0 0 0 0 0 0 0 0 0 0 0 0 0 0 0 127 0" result="hardAlpha"/>
<feOffset/>
<feGaussianBlur stdDeviation="2.85714"/>
<feComposite in2="hardAlpha" operator="out"/>
<feColorMatrix type="matrix" values="0 0 0 0 0 0 0 0 0 0 0 0 0 0 0 0 0 0 0.25 0"/>
<feBlend mode="normal" in2="BackgroundImageFix" result="effect1_dropShadow_686_23"/>
<feBlend mode="normal" in="SourceGraphic" in2="effect1_dropShadow_686_23" result="shape"/>
</filter>
<filter id="filter1_d_686_23" x="36.3999" y="3.90278" width="190.2" height="32.2" filterUnits="userSpaceOnUse" color-interpolation-filters="sRGB">
<feFlood flood-opacity="0" result="BackgroundImageFix"/>
<feColorMatrix in="SourceAlpha" type="matrix" values="0 0 0 0 0 0 0 0 0 0 0 0 0 0 0 0 0 0 127 0" result="hardAlpha"/>
<feOffset/>
<feGaussianBlur stdDeviation="2.8"/>
<feComposite in2="hardAlpha" operator="out"/>
<feColorMatrix type="matrix" values="0 0 0 0 0 0 0 0 0 0 0 0 0 0 0 0 0 0 0.25 0"/>
<feBlend mode="normal" in2="BackgroundImageFix" result="effect1_dropShadow_686_23"/>
<feBlend mode="normal" in="SourceGraphic" in2="effect1_dropShadow_686_23" result="shape"/>
</filter>
<linearGradient id="paint0_linear_686_23" x1="114.5" y1="0.0027771" x2="114.5" y2="40.0028" gradientUnits="userSpaceOnUse">
<stop stop-color="#0077FF"/>
<stop offset="1" stop-color="#0B2C52"/>
</linearGradient>
<clipPath id="clip0_686_23">
<rect x="-9.15527e-05" y="0.0027771" width="229" height="40" rx="8" fill="white"/>
</clipPath>
</defs>
</svg>
