<svg width="151" height="56" viewBox="0 0 151 56" fill="none" xmlns="http://www.w3.org/2000/svg">
<rect x="-3.8743e-07" width="151" height="56" rx="8" fill="url(#paint0_linear_680_98)"/>
<rect x="1.05" y="1.05" width="148.9" height="53.9" rx="6.95" stroke="white" stroke-opacity="0.15" stroke-width="2.1"/>
<g filter="url(#filter0_d_680_98)">
<path d="M28.6668 29.6667C29.3825 30.6236 30.2957 31.4153 31.3444 31.9883C32.393 32.5612 33.5526 32.9019 34.7445 32.9872C35.9364 33.0726 37.1328 32.9006 38.2524 32.483C39.372 32.0653 40.3886 31.4118 41.2334 30.5667L46.2334 25.5667C47.7514 23.995 48.5914 21.89 48.5724 19.705C48.5534 17.52 47.677 15.4299 46.1319 13.8849C44.5869 12.3398 42.4968 11.4634 40.3118 11.4444C38.1268 11.4254 36.0218 12.2654 34.4501 13.7834L31.5834 16.6334" stroke="white" stroke-width="2.86" stroke-linecap="round" stroke-linejoin="round"/>
<path d="M35.3335 26.3333C34.6177 25.3764 33.7045 24.5847 32.6559 24.0117C31.6072 23.4388 30.4476 23.0981 29.2557 23.0127C28.0638 22.9274 26.8675 23.0994 25.7479 23.517C24.6283 23.9346 23.6116 24.5882 22.7668 25.4333L17.7668 30.4333C16.2488 32.005 15.4088 34.11 15.4278 36.295C15.4468 38.48 16.3232 40.5701 17.8683 42.1151C19.4134 43.6602 21.5035 44.5366 23.6884 44.5556C25.8734 44.5746 27.9784 43.7346 29.5501 42.2166L32.4001 39.3666" stroke="white" stroke-width="2.86" stroke-linecap="round" stroke-linejoin="round"/>
</g>
<g filter="url(#filter1_d_680_98)">
<path d="M70.375 12.8636V24.5H68.625V14.3636H63.1477V24.5H61.3977V12.8636H70.375ZM76.5994 24.6761C75.7812 24.6761 75.0672 24.4886 74.4574 24.1136C73.8475 23.7386 73.374 23.214 73.0369 22.5398C72.6998 21.8655 72.5312 21.0776 72.5312 20.1761C72.5312 19.2708 72.6998 18.4792 73.0369 17.8011C73.374 17.1231 73.8475 16.5966 74.4574 16.2216C75.0672 15.8466 75.7812 15.6591 76.5994 15.6591C77.4176 15.6591 78.1316 15.8466 78.7415 16.2216C79.3513 16.5966 79.8248 17.1231 80.1619 17.8011C80.499 18.4792 80.6676 19.2708 80.6676 20.1761C80.6676 21.0776 80.499 21.8655 80.1619 22.5398C79.8248 23.214 79.3513 23.7386 78.7415 24.1136C78.1316 24.4886 77.4176 24.6761 76.5994 24.6761ZM76.6051 23.25C77.1354 23.25 77.5748 23.1098 77.9233 22.8295C78.2718 22.5492 78.5293 22.1761 78.696 21.7102C78.8665 21.2443 78.9517 20.7311 78.9517 20.1705C78.9517 19.6136 78.8665 19.1023 78.696 18.6364C78.5293 18.1667 78.2718 17.7898 77.9233 17.5057C77.5748 17.2216 77.1354 17.0795 76.6051 17.0795C76.071 17.0795 75.6278 17.2216 75.2755 17.5057C74.9271 17.7898 74.6676 18.1667 74.4971 18.6364C74.3305 19.1023 74.2471 19.6136 74.2471 20.1705C74.2471 20.7311 74.3305 21.2443 74.4971 21.7102C74.6676 22.1761 74.9271 22.5492 75.2755 22.8295C75.6278 23.1098 76.071 23.25 76.6051 23.25ZM86.24 24.6761C85.3953 24.6761 84.6681 24.4848 84.0582 24.1023C83.4522 23.7159 82.9862 23.1837 82.6605 22.5057C82.3347 21.8276 82.1718 21.0511 82.1718 20.1761C82.1718 19.2898 82.3385 18.5076 82.6718 17.8295C83.0052 17.1477 83.4749 16.6155 84.0809 16.233C84.687 15.8504 85.401 15.6591 86.223 15.6591C86.8859 15.6591 87.4768 15.7822 87.9957 16.0284C88.5147 16.2708 88.9332 16.6117 89.2514 17.0511C89.5734 17.4905 89.7647 18.0038 89.8253 18.5909H88.1718C88.0809 18.1818 87.8726 17.8295 87.5468 17.5341C87.2249 17.2386 86.7931 17.0909 86.2514 17.0909C85.7779 17.0909 85.3631 17.2159 85.0071 17.4659C84.6548 17.7121 84.3802 18.0644 84.1832 18.5227C83.9862 18.9773 83.8878 19.5151 83.8878 20.1364C83.8878 20.7727 83.9843 21.322 84.1775 21.7841C84.3707 22.2462 84.6434 22.6042 84.9957 22.858C85.3518 23.1117 85.7703 23.2386 86.2514 23.2386C86.5734 23.2386 86.865 23.1799 87.1264 23.0625C87.3915 22.9413 87.6131 22.7689 87.7912 22.5455C87.973 22.322 88.0999 22.053 88.1718 21.7386H89.8253C89.7647 22.303 89.5809 22.8068 89.2741 23.25C88.9673 23.6932 88.5563 24.0417 88.0412 24.2955C87.5298 24.5492 86.9294 24.6761 86.24 24.6761ZM95.4034 24.6761C94.5435 24.6761 93.803 24.4924 93.1818 24.125C92.5644 23.7538 92.0871 23.233 91.75 22.5625C91.4166 21.8883 91.25 21.0985 91.25 20.1932C91.25 19.2992 91.4166 18.5114 91.75 17.8295C92.0871 17.1477 92.5568 16.6155 93.1591 16.233C93.7651 15.8504 94.4735 15.6591 95.2841 15.6591C95.7765 15.6591 96.2538 15.7405 96.7159 15.9034C97.178 16.0663 97.5928 16.322 97.9602 16.6705C98.3276 17.0189 98.6174 17.4716 98.8295 18.0284C99.0416 18.5814 99.1477 19.2538 99.1477 20.0455V20.6477H92.2102V19.375H97.4829C97.4829 18.928 97.392 18.5322 97.2102 18.1875C97.0284 17.839 96.7727 17.5644 96.4432 17.3636C96.1174 17.1629 95.7348 17.0625 95.2954 17.0625C94.8182 17.0625 94.4015 17.1799 94.0454 17.4148C93.6932 17.6458 93.4204 17.9489 93.2272 18.3239C93.0378 18.6951 92.9432 19.0985 92.9432 19.5341V20.5284C92.9432 21.1117 93.0454 21.608 93.25 22.017C93.4583 22.4261 93.7481 22.7386 94.1193 22.9545C94.4905 23.1667 94.9242 23.2727 95.4204 23.2727C95.7424 23.2727 96.036 23.2273 96.3011 23.1364C96.5663 23.0417 96.7954 22.9015 96.9886 22.7159C97.1818 22.5303 97.3295 22.3011 97.4318 22.0284L99.0397 22.3182C98.911 22.7917 98.6799 23.2064 98.3466 23.5625C98.017 23.9148 97.6022 24.1894 97.1022 24.3864C96.606 24.5795 96.0397 24.6761 95.4034 24.6761ZM100.263 17.2386V15.7727H107.626V17.2386H104.78V24.5H103.121V17.2386H100.263ZM111.088 22.1193L114.935 15.7727H116.764V24.5H115.099V18.1477L111.27 24.5H109.423V15.7727H111.088V22.1193ZM117.966 17.2386V15.7727H125.33V17.2386H122.483V24.5H120.824V17.2386H117.966ZM128.405 18.7727H130.939C132.007 18.7727 132.829 19.0379 133.405 19.5682C133.981 20.0985 134.268 20.7822 134.268 21.6193C134.268 22.1648 134.14 22.6553 133.882 23.0909C133.624 23.5265 133.248 23.8712 132.751 24.125C132.255 24.375 131.651 24.5 130.939 24.5H127.126V15.7727H128.791V23.0341H130.939C131.428 23.0341 131.829 22.9072 132.143 22.6534C132.458 22.3958 132.615 22.0682 132.615 21.6705C132.615 21.25 132.458 20.9072 132.143 20.642C131.829 20.3731 131.428 20.2386 130.939 20.2386H128.405V18.7727Z" fill="#E8E8E8"/>
<path d="M60.9357 43.5V34.2273H64.9382C66.1335 34.2273 67.0753 34.4426 67.7635 34.8732C68.4557 35.2998 68.8018 35.9257 68.8018 36.7507C68.8018 37.2296 68.6066 37.6422 68.2162 37.9883C67.8299 38.3304 67.2805 38.5618 66.5682 38.6825C67.196 38.7147 67.7172 38.8395 68.1317 39.0568C68.5463 39.2741 68.8562 39.5498 69.0614 39.8839C69.2667 40.2179 69.3693 40.5741 69.3693 40.9524C69.3693 41.4998 69.2224 41.9626 68.9286 42.3409C68.6348 42.7192 68.2042 43.007 67.6367 43.2042C67.0733 43.4014 66.381 43.5 65.56 43.5H60.9357ZM63.6825 41.3629H65.56C65.8739 41.3629 66.1194 41.2885 66.2965 41.1396C66.4776 40.9906 66.5682 40.7854 66.5682 40.5238C66.5682 40.2421 66.4776 40.0207 66.2965 39.8597C66.1194 39.6987 65.8739 39.6182 65.56 39.6182H63.6825V41.3629ZM63.6825 38.0185H65.0167C65.23 38.0185 65.4131 37.9863 65.566 37.9219C65.719 37.8575 65.8357 37.7649 65.9162 37.6442C66.0007 37.5234 66.0429 37.3785 66.0429 37.2095C66.0429 36.964 65.9443 36.7708 65.7471 36.63C65.554 36.4891 65.2843 36.4187 64.9382 36.4187H63.6825V38.0185ZM75.1647 43.6751C74.1948 43.6751 73.3577 43.4839 72.6534 43.1016C71.9531 42.7152 71.4138 42.1658 71.0355 41.4535C70.6612 40.7371 70.4741 39.8859 70.4741 38.8999C70.4741 37.942 70.6632 37.1049 71.0415 36.3885C71.4198 35.6681 71.9531 35.1087 72.6413 34.7102C73.3295 34.3078 74.1405 34.1065 75.0742 34.1065C75.7342 34.1065 76.3379 34.2092 76.8853 34.4144C77.4326 34.6197 77.9055 34.9235 78.304 35.326C78.7024 35.7285 79.0123 36.2255 79.2336 36.8171C79.455 37.4047 79.5657 38.0788 79.5657 38.8395V39.576H71.5064V37.8615H76.8189C76.8148 37.5476 76.7404 37.2679 76.5955 37.0224C76.4506 36.7769 76.2514 36.5857 75.9978 36.4489C75.7483 36.308 75.4606 36.2376 75.1346 36.2376C74.8045 36.2376 74.5087 36.312 74.2471 36.4609C73.9855 36.6058 73.7783 36.805 73.6253 37.0586C73.4724 37.3081 73.3919 37.5919 73.3839 37.9098V39.6545C73.3839 40.0328 73.4583 40.3648 73.6072 40.6506C73.7561 40.9323 73.9674 41.1516 74.2411 41.3086C74.5148 41.4656 74.8408 41.544 75.2191 41.544C75.4807 41.544 75.7181 41.5078 75.9314 41.4354C76.1447 41.3629 76.3279 41.2563 76.4808 41.1154C76.6337 40.9745 76.7484 40.8015 76.8249 40.5962L79.5355 40.6747C79.4228 41.2824 79.1753 41.8117 78.7929 42.2624C78.4146 42.7092 77.9176 43.0573 77.3018 43.3068C76.6861 43.5523 75.9737 43.6751 75.1647 43.6751ZM89.0603 30.8466L89.8571 32.7965C89.6036 32.9937 89.3259 33.1426 89.024 33.2433C88.7262 33.3439 88.362 33.4123 87.9313 33.4485C87.5007 33.4847 86.9574 33.5049 86.3014 33.5089C85.5608 33.5129 84.9612 33.6155 84.5024 33.8168C84.0436 34.014 83.6954 34.3379 83.458 34.7887C83.2246 35.2354 83.0696 35.8311 82.9931 36.5756H83.0716C83.3372 36.0162 83.7156 35.5755 84.2066 35.2535C84.6976 34.9316 85.3314 34.7706 86.1082 34.7706C86.9171 34.7706 87.6215 34.9457 88.2211 35.2958C88.8208 35.6419 89.2836 36.137 89.6096 36.7809C89.9356 37.4208 90.0986 38.1815 90.0986 39.0629C90.0986 39.9966 89.9115 40.8095 89.5372 41.5018C89.1629 42.194 88.6276 42.7293 87.9313 43.1076C87.2351 43.4859 86.402 43.6751 85.4321 43.6751C84.4621 43.6751 83.627 43.4779 82.9267 43.0834C82.2305 42.689 81.6932 42.1095 81.3149 41.3448C80.9406 40.5761 80.7534 39.6323 80.7534 38.5135V37.8374C80.7534 35.5433 81.2163 33.855 82.1419 32.7724C83.0676 31.6897 84.4199 31.1444 86.1987 31.1364C86.6455 31.1323 87.05 31.1323 87.4122 31.1364C87.7784 31.1364 88.0984 31.1183 88.372 31.082C88.6457 31.0418 88.8751 30.9633 89.0603 30.8466ZM85.4502 41.4474C85.7882 41.4474 86.08 41.3569 86.3255 41.1758C86.571 40.9947 86.7602 40.7351 86.893 40.397C87.0258 40.0589 87.0922 39.6525 87.0922 39.1776C87.0922 38.7026 87.0238 38.2982 86.887 37.9641C86.7541 37.6301 86.565 37.3765 86.3195 37.2035C86.074 37.0264 85.7822 36.9379 85.4441 36.9379C85.1866 36.9379 84.9531 36.9882 84.7438 37.0888C84.5346 37.1854 84.3575 37.3303 84.2126 37.5234C84.0677 37.7126 83.957 37.946 83.8806 38.2237C83.8041 38.5014 83.7659 38.8194 83.7659 39.1776C83.7659 39.8859 83.9148 40.4413 84.2126 40.8437C84.5104 41.2462 84.9229 41.4474 85.4502 41.4474ZM97.5829 37.3604V39.6364H91.8599V37.3604H97.5829ZM103.996 43.6751C103.018 43.6751 102.179 43.4738 101.478 43.0714C100.782 42.6689 100.247 42.1095 99.8724 41.3931C99.4981 40.6727 99.311 39.8396 99.311 38.8938C99.311 37.944 99.4981 37.1109 99.8724 36.3945C100.251 35.6741 100.788 35.1127 101.484 34.7102C102.185 34.3078 103.02 34.1065 103.99 34.1065C104.847 34.1065 105.593 34.2615 106.229 34.5714C106.869 34.8813 107.368 35.32 107.726 35.8874C108.089 36.4509 108.28 37.1129 108.3 37.8736H105.541C105.485 37.3987 105.324 37.0264 105.058 36.7567C104.797 36.4871 104.454 36.3523 104.032 36.3523C103.69 36.3523 103.39 36.4489 103.132 36.642C102.875 36.8312 102.674 37.1129 102.529 37.4872C102.388 37.8575 102.317 38.3163 102.317 38.8636C102.317 39.411 102.388 39.8738 102.529 40.2521C102.674 40.6264 102.875 40.9102 103.132 41.1033C103.39 41.2925 103.69 41.3871 104.032 41.3871C104.306 41.3871 104.547 41.3287 104.756 41.212C104.97 41.0953 105.145 40.9242 105.281 40.6989C105.418 40.4695 105.505 40.1918 105.541 39.8658H108.3C108.272 40.6304 108.081 41.2985 107.726 41.87C107.376 42.4415 106.883 42.8862 106.247 43.2042C105.616 43.5181 104.865 43.6751 103.996 43.6751ZM112.425 43.657C111.833 43.657 111.308 43.5584 110.849 43.3611C110.394 43.1599 110.034 42.8581 109.768 42.4556C109.507 42.0491 109.376 41.54 109.376 40.9283C109.376 40.4131 109.467 39.9785 109.648 39.6243C109.829 39.2701 110.078 38.9824 110.396 38.761C110.714 38.5397 111.08 38.3726 111.495 38.2599C111.91 38.1432 112.352 38.0647 112.823 38.0245C113.35 37.9762 113.775 37.9259 114.097 37.8736C114.419 37.8172 114.652 37.7388 114.797 37.6381C114.946 37.5335 115.021 37.3866 115.021 37.1974V37.1673C115.021 36.8574 114.914 36.6179 114.701 36.4489C114.487 36.2798 114.2 36.1953 113.837 36.1953C113.447 36.1953 113.133 36.2798 112.896 36.4489C112.658 36.6179 112.507 36.8513 112.443 37.1491L109.72 37.0526C109.801 36.4891 110.008 35.986 110.342 35.5433C110.68 35.0966 111.143 34.7464 111.73 34.4929C112.322 34.2353 113.032 34.1065 113.861 34.1065C114.453 34.1065 114.998 34.177 115.497 34.3178C115.997 34.4547 116.431 34.6559 116.801 34.9215C117.172 35.1831 117.457 35.5051 117.659 35.8874C117.864 36.2698 117.967 36.7064 117.967 37.1974V43.5H115.19V42.2081H115.117C114.952 42.522 114.741 42.7876 114.483 43.005C114.23 43.2223 113.93 43.3853 113.584 43.494C113.242 43.6026 112.855 43.657 112.425 43.657ZM113.336 41.7251C113.654 41.7251 113.94 41.6607 114.194 41.532C114.451 41.4032 114.656 41.2261 114.809 41.0007C114.962 40.7713 115.039 40.5057 115.039 40.2038V39.3224C114.954 39.3667 114.852 39.407 114.731 39.4432C114.614 39.4794 114.485 39.5136 114.344 39.5458C114.204 39.578 114.059 39.6062 113.91 39.6303C113.761 39.6545 113.618 39.6766 113.481 39.6967C113.203 39.741 112.966 39.8094 112.769 39.902C112.576 39.9946 112.427 40.1153 112.322 40.2642C112.221 40.4091 112.171 40.5821 112.171 40.7834C112.171 41.0892 112.28 41.3227 112.497 41.4837C112.718 41.6446 112.998 41.7251 113.336 41.7251ZM122.567 39.6786L125.531 34.2273H128.368V43.5H125.573V38.0305L122.615 43.5H119.772V34.2273H122.567V39.6786ZM125.265 30.9432H127.209C127.205 31.6998 126.919 32.3075 126.352 32.7663C125.788 33.2251 125.024 33.4545 124.058 33.4545C123.092 33.4545 122.325 33.2251 121.758 32.7663C121.194 32.3075 120.915 31.6998 120.919 30.9432H122.844C122.84 31.2088 122.931 31.4503 123.116 31.6676C123.301 31.8849 123.615 31.9936 124.058 31.9936C124.488 31.9936 124.796 31.887 124.981 31.6736C125.167 31.4603 125.261 31.2169 125.265 30.9432ZM129.428 36.4851V34.2273H138.121V36.4851H135.157V43.5H132.356V36.4851H129.428Z" fill="#F1F1F1"/>
</g>
<defs>
<filter id="filter0_d_680_98" x="6.28571" y="2.28571" width="51.4287" height="51.4286" filterUnits="userSpaceOnUse" color-interpolation-filters="sRGB">
<feFlood flood-opacity="0" result="BackgroundImageFix"/>
<feColorMatrix in="SourceAlpha" type="matrix" values="0 0 0 0 0 0 0 0 0 0 0 0 0 0 0 0 0 0 127 0" result="hardAlpha"/>
<feOffset/>
<feGaussianBlur stdDeviation="2.85714"/>
<feComposite in2="hardAlpha" operator="out"/>
<feColorMatrix type="matrix" values="0 0 0 0 0 0 0 0 0 0 0 0 0 0 0 0 0 0 0.25 0"/>
<feBlend mode="normal" in2="BackgroundImageFix" result="effect1_dropShadow_680_98"/>
<feBlend mode="normal" in="SourceGraphic" in2="effect1_dropShadow_680_98" result="shape"/>
</filter>
<filter id="filter1_d_680_98" x="54.4" y="3.9" width="90.2" height="48.2" filterUnits="userSpaceOnUse" color-interpolation-filters="sRGB">
<feFlood flood-opacity="0" result="BackgroundImageFix"/>
<feColorMatrix in="SourceAlpha" type="matrix" values="0 0 0 0 0 0 0 0 0 0 0 0 0 0 0 0 0 0 127 0" result="hardAlpha"/>
<feOffset/>
<feGaussianBlur stdDeviation="2.8"/>
<feComposite in2="hardAlpha" operator="out"/>
<feColorMatrix type="matrix" values="0 0 0 0 0 0 0 0 0 0 0 0 0 0 0 0 0 0 0.25 0"/>
<feBlend mode="normal" in2="BackgroundImageFix" result="effect1_dropShadow_680_98"/>
<feBlend mode="normal" in="SourceGraphic" in2="effect1_dropShadow_680_98" result="shape"/>
</filter>
<linearGradient id="paint0_linear_680_98" x1="75.5" y1="0" x2="75.5" y2="56" gradientUnits="userSpaceOnUse">
<stop stop-color="#2C2935"/>
<stop offset="1" stop-color="#262022"/>
</linearGradient>
</defs>
</svg>
